<?xml version="1.0" encoding="UTF-8" standalone="no"?>
<svg
   width="120.53mm"
   height="130.44mm"
   viewBox="0 0 341.67 369.75"
   version="1.1"
   id="svg83"
   sodipodi:docname="Clap_info.svg"
   inkscape:version="1.4 (e7c3feb1, 2024-10-09)"
   xmlns:inkscape="http://www.inkscape.org/namespaces/inkscape"
   xmlns:sodipodi="http://sodipodi.sourceforge.net/DTD/sodipodi-0.dtd"
   xmlns="http://www.w3.org/2000/svg"
   xmlns:svg="http://www.w3.org/2000/svg">
  <defs
     id="defs83" />
  <sodipodi:namedview
     id="namedview83"
     pagecolor="#ffffff"
     bordercolor="#000000"
     borderopacity="0.25"
     inkscape:showpageshadow="2"
     inkscape:pageopacity="0.0"
     inkscape:pagecheckerboard="0"
     inkscape:deskcolor="#d1d1d1"
     inkscape:document-units="mm"
     inkscape:zoom="2.0466466"
     inkscape:cx="227.93383"
     inkscape:cy="246.50079"
     inkscape:window-width="1200"
     inkscape:window-height="1186"
     inkscape:window-x="2240"
     inkscape:window-y="25"
     inkscape:window-maximized="0"
     inkscape:current-layer="components" />
  <g
     id="faceplate">
    <rect
       x=".12"
       y=".12"
       width="144"
       height="364.25"
       style="fill: #ededed; stroke: #9d9d9e; stroke-miterlimit: 10; stroke-width: .25px;"
       id="rect1" />
    <path
       d="M12.61,291.83v-62.01c0-7.82,6.4-14.22,14.22-14.22h90.62c7.82,0,14.22,6.4,14.22,14.22v62.01-.93,45.22c0,3.11-2.54,5.65-5.65,5.65H18.25c-3.11,0-5.65-2.54-5.65-5.65v-45.22"
       style="fill: #d1d3d4; stroke: #d1d3d4; stroke-miterlimit: 10;"
       id="path1" />
    <path
       d="M126.11,45.78h2.26c-.15-3.28-1.01-6.37-2.44-9.12l-1.95,1.13c1.24,2.42,1.99,5.13,2.14,8Z"
       id="path2" />
    <path
       d="M126.11,47.78c-.14,2.87-.89,5.57-2.14,8l1.95,1.13c1.43-2.75,2.3-5.84,2.44-9.12h-2.26Z"
       id="path3" />
    <g
       id="g13">
      <path
         d="M46.85,29.2l1.13-1.95c-2.75-1.43-5.84-2.3-9.12-2.44v2.26c2.87.14,5.57.89,7.99,2.14Z"
         id="path4" />
      <path
         d="M54.43,36.05l1.95-1.13c-1.72-2.68-4-4.96-6.68-6.68l-1.13,1.95c2.34,1.52,4.33,3.51,5.85,5.85Z"
         id="path5" />
      <path
         d="M27.13,30.2l-1.13-1.95c-2.68,1.72-4.96,4-6.68,6.68l1.95,1.13c1.52-2.34,3.51-4.33,5.85-5.85Z"
         id="path6" />
      <path
         d="M57.57,45.78h2.26c-.15-3.28-1.01-6.37-2.44-9.12l-1.95,1.13c1.24,2.42,1.99,5.13,2.14,8Z"
         id="path7" />
      <path
         d="M36.85,27.06v-2.26c-3.28.15-6.37,1.01-9.12,2.44l1.13,1.95c2.42-1.24,5.13-1.99,8-2.14Z"
         id="path8" />
      <path
         d="M21.27,57.51l-1.95,1.13c1.72,2.68,4,4.96,6.68,6.68l1.13-1.95c-2.34-1.52-4.33-3.51-5.85-5.85Z"
         id="path9" />
      <path
         d="M48.58,63.36l1.13,1.95c2.68-1.72,4.96-4,6.68-6.68l-1.95-1.13c-1.52,2.34-3.51,4.33-5.85,5.85Z"
         id="path10" />
      <path
         d="M57.57,47.78c-.14,2.87-.89,5.57-2.14,8l1.95,1.13c1.43-2.75,2.3-5.84,2.44-9.12h-2.26Z"
         id="path11" />
      <path
         d="M18.14,47.78h-2.26c.15,3.28,1.01,6.37,2.44,9.12l1.95-1.13c-1.24-2.42-1.99-5.13-2.14-8Z"
         id="path12" />
      <path
         d="M20.27,37.78l-1.95-1.13c-1.43,2.75-2.3,5.84-2.44,9.12h2.26c.14-2.87.89-5.57,2.14-8Z"
         id="path13" />
    </g>
    <path
       d="M115.39,29.2l1.13-1.95c-2.75-1.43-5.84-2.3-9.12-2.44v2.26c2.87.14,5.57.89,7.99,2.14Z"
       id="path14" />
    <path
       d="M122.98,36.05l1.95-1.13c-1.72-2.68-4-4.96-6.68-6.68l-1.13,1.95c2.34,1.52,4.33,3.51,5.85,5.85Z"
       id="path15" />
    <path
       d="M95.67,30.2l-1.13-1.95c-2.68,1.72-4.96,4-6.68,6.68l1.95,1.13c1.52-2.34,3.51-4.33,5.85-5.85Z"
       id="path16" />
    <path
       d="M105.4,27.06v-2.26c-3.28.15-6.37,1.01-9.12,2.44l1.13,1.95c2.42-1.24,5.13-1.99,8-2.14Z"
       id="path17" />
    <path
       d="M89.82,57.51l-1.95,1.13c1.72,2.68,4,4.96,6.68,6.68l1.13-1.95c-2.34-1.52-4.33-3.51-5.85-5.85Z"
       id="path18" />
    <path
       d="M117.12,63.36l1.13,1.95c2.68-1.72,4.96-4,6.68-6.68l-1.95-1.13c-1.52,2.34-3.51,4.33-5.85,5.85Z"
       id="path19" />
    <path
       d="M86.68,47.78h-2.26c.15,3.28,1.01,6.37,2.44,9.12l1.95-1.13c-1.24-2.42-1.99-5.13-2.14-8Z"
       id="path20" />
    <path
       d="M88.82,37.78l-1.95-1.13c-1.43,2.75-2.3,5.84-2.44,9.12h2.26c.14-2.87.89-5.57,2.14-8Z"
       id="path21" />
    <g
       id="g31">
      <path
         d="M46.85,87.14l1.13-1.95c-2.75-1.43-5.84-2.3-9.12-2.44v2.26c2.87.14,5.57.89,7.99,2.14Z"
         id="path22" />
      <path
         d="M54.43,93.99l1.95-1.13c-1.72-2.68-4-4.96-6.68-6.68l-1.13,1.95c2.34,1.52,4.33,3.51,5.85,5.85Z"
         id="path23" />
      <path
         d="M27.13,88.14l-1.13-1.95c-2.68,1.72-4.96,4-6.68,6.68l1.95,1.13c1.52-2.34,3.51-4.33,5.85-5.85Z"
         id="path24" />
      <path
         d="M57.57,103.72h2.26c-.15-3.28-1.01-6.37-2.44-9.12l-1.95,1.13c1.24,2.42,1.99,5.13,2.14,8Z"
         id="path25" />
      <path
         d="M36.85,85v-2.26c-3.28.15-6.37,1.01-9.12,2.44l1.13,1.95c2.42-1.24,5.13-1.99,8-2.14Z"
         id="path26" />
      <path
         d="M21.27,115.44l-1.95,1.13c1.72,2.68,4,4.96,6.68,6.68l1.13-1.95c-2.34-1.52-4.33-3.51-5.85-5.85Z"
         id="path27" />
      <path
         d="M48.58,121.3l1.13,1.95c2.68-1.72,4.96-4,6.68-6.68l-1.95-1.13c-1.52,2.34-3.51,4.33-5.85,5.85Z"
         id="path28" />
      <path
         d="M57.57,105.72c-.14,2.87-.89,5.57-2.14,8l1.95,1.13c1.43-2.75,2.3-5.84,2.44-9.12h-2.26Z"
         id="path29" />
      <path
         d="M18.14,105.72h-2.26c.15,3.28,1.01,6.37,2.44,9.12l1.95-1.13c-1.24-2.42-1.99-5.13-2.14-8Z"
         id="path30" />
      <path
         d="M20.27,95.72l-1.95-1.13c-1.43,2.75-2.3,5.84-2.44,9.12h2.26c.14-2.87.89-5.57,2.14-8Z"
         id="path31" />
    </g>
    <path
       d="M115.39,87.14l1.13-1.95c-2.75-1.43-5.84-2.3-9.12-2.44v2.26c2.87.14,5.57.89,7.99,2.14Z"
       id="path32" />
    <path
       d="M122.98,93.99l1.95-1.13c-1.72-2.68-4-4.96-6.68-6.68l-1.13,1.95c2.34,1.52,4.33,3.51,5.85,5.85Z"
       id="path33" />
    <path
       d="M95.67,88.14l-1.13-1.95c-2.68,1.72-4.96,4-6.68,6.68l1.95,1.13c1.52-2.34,3.51-4.33,5.85-5.85Z"
       id="path34" />
    <path
       d="M126.11,103.72h2.26c-.15-3.28-1.01-6.37-2.44-9.12l-1.95,1.13c1.24,2.42,1.99,5.13,2.14,8Z"
       id="path35" />
    <path
       d="M105.4,85v-2.26c-3.28.15-6.37,1.01-9.12,2.44l1.13,1.95c2.42-1.24,5.13-1.99,8-2.14Z"
       id="path36" />
    <path
       d="M89.82,115.44l-1.95,1.13c1.72,2.68,4,4.96,6.68,6.68l1.13-1.95c-2.34-1.52-4.33-3.51-5.85-5.85Z"
       id="path37" />
    <path
       d="M117.12,121.3l1.13,1.95c2.68-1.72,4.96-4,6.68-6.68l-1.95-1.13c-1.52,2.34-3.51,4.33-5.85,5.85Z"
       id="path38" />
    <path
       d="M126.11,105.72c-.14,2.87-.89,5.57-2.14,8l1.95,1.13c1.43-2.75,2.3-5.84,2.44-9.12h-2.26Z"
       id="path39" />
    <path
       d="M86.68,105.72h-2.26c.15,3.28,1.01,6.37,2.44,9.12l1.95-1.13c-1.24-2.42-1.99-5.13-2.14-8Z"
       id="path40" />
    <path
       d="M88.82,95.72l-1.95-1.13c-1.43,2.75-2.3,5.84-2.44,9.12h2.26c.14-2.87.89-5.57,2.14-8Z"
       id="path41" />
    <g
       id="g51">
      <path
         d="M46.85,145.6l1.13-1.95c-2.75-1.43-5.84-2.3-9.12-2.44v2.26c2.87.14,5.57.89,7.99,2.14Z"
         id="path42" />
      <path
         d="M54.43,152.45l1.95-1.13c-1.72-2.68-4-4.96-6.68-6.68l-1.13,1.95c2.34,1.52,4.33,3.51,5.85,5.85Z"
         id="path43" />
      <path
         d="M27.13,146.6l-1.13-1.95c-2.68,1.72-4.96,4-6.68,6.68l1.95,1.13c1.52-2.34,3.51-4.33,5.85-5.85Z"
         id="path44" />
      <path
         d="M57.57,162.18h2.26c-.15-3.28-1.01-6.37-2.44-9.12l-1.95,1.13c1.24,2.42,1.99,5.13,2.14,8Z"
         id="path45" />
      <path
         d="M36.85,143.46v-2.26c-3.28.15-6.37,1.01-9.12,2.44l1.13,1.95c2.42-1.24,5.13-1.99,8-2.14Z"
         id="path46" />
      <path
         d="M21.27,173.9l-1.95,1.13c1.72,2.68,4,4.96,6.68,6.68l1.13-1.95c-2.34-1.52-4.33-3.51-5.85-5.85Z"
         id="path47" />
      <path
         d="M48.58,179.76l1.13,1.95c2.68-1.72,4.96-4,6.68-6.68l-1.95-1.13c-1.52,2.34-3.51,4.33-5.85,5.85Z"
         id="path48" />
      <path
         d="M57.57,164.18c-.14,2.87-.89,5.57-2.14,8l1.95,1.13c1.43-2.75,2.3-5.84,2.44-9.12h-2.26Z"
         id="path49" />
      <path
         d="M18.14,164.18h-2.26c.15,3.28,1.01,6.37,2.44,9.12l1.95-1.13c-1.24-2.42-1.99-5.13-2.14-8Z"
         id="path50" />
      <path
         d="M20.27,154.18l-1.95-1.13c-1.43,2.75-2.3,5.84-2.44,9.12h2.26c.14-2.87.89-5.57,2.14-8Z"
         id="path51" />
    </g>
    <g
       id="g61">
      <path
         d="M115.39,145.6l1.13-1.95c-2.75-1.43-5.84-2.3-9.12-2.44v2.26c2.87.14,5.57.89,7.99,2.14Z"
         id="path52" />
      <path
         d="M122.98,152.45l1.95-1.13c-1.72-2.68-4-4.96-6.68-6.68l-1.13,1.95c2.34,1.52,4.33,3.51,5.85,5.85Z"
         id="path53" />
      <path
         d="M95.67,146.6l-1.13-1.95c-2.68,1.72-4.96,4-6.68,6.68l1.95,1.13c1.52-2.34,3.51-4.33,5.85-5.85Z"
         id="path54" />
      <path
         d="M126.11,162.18h2.26c-.15-3.28-1.01-6.37-2.44-9.12l-1.95,1.13c1.24,2.42,1.99,5.13,2.14,8Z"
         id="path55" />
      <path
         d="M105.4,143.46v-2.26c-3.28.15-6.37,1.01-9.12,2.44l1.13,1.95c2.42-1.24,5.13-1.99,8-2.14Z"
         id="path56" />
      <path
         d="M89.82,173.9l-1.95,1.13c1.72,2.68,4,4.96,6.68,6.68l1.13-1.95c-2.34-1.52-4.33-3.51-5.85-5.85Z"
         id="path57" />
      <path
         d="M117.12,179.76l1.13,1.95c2.68-1.72,4.96-4,6.68-6.68l-1.95-1.13c-1.52,2.34-3.51,4.33-5.85,5.85Z"
         id="path58" />
      <path
         d="M126.11,164.18c-.14,2.87-.89,5.57-2.14,8l1.95,1.13c1.43-2.75,2.3-5.84,2.44-9.12h-2.26Z"
         id="path59" />
      <path
         d="M86.68,164.18h-2.26c.15,3.28,1.01,6.37,2.44,9.12l1.95-1.13c-1.24-2.42-1.99-5.13-2.14-8Z"
         id="path60" />
      <path
         d="M88.82,154.18l-1.95-1.13c-1.43,2.75-2.3,5.84-2.44,9.12h2.26c.14-2.87.89-5.57,2.14-8Z"
         id="path61" />
    </g>
    <path
       d="M132.19,318.66v-21.52h-21.54c-7.49,0-13.57,6.52-13.57,14.57v30.53h15.07s0,0,0,0h14.39c3.12,0,5.64-2.36,5.64-5.25v-18.39.08Z"
       id="path62" />
    <text
       transform="translate(23.25 76.1) scale(.88 1)"
       style="font-family: GillSans-Bold, 'Gill Sans'; font-size: 10px; font-weight: 700; letter-spacing: -.04em;"
       id="text62"><tspan
         x="0"
         y="0"
         id="tspan62">Energy</tspan></text>
    <text
       transform="translate(91.67 76.1) scale(.88 1)"
       style="font-family: GillSans-Bold, 'Gill Sans'; font-size: 10px; font-weight: 700; letter-spacing: -.04em;"
       id="text63"><tspan
         x="0"
         y="0"
         id="tspan63">Spread</tspan></text>
    <text
       transform="translate(26.11 134.2) scale(.88 1)"
       style="font-family: GillSans-Bold, 'Gill Sans'; font-size: 10px; font-weight: 700; letter-spacing: -.04em;"
       id="text64"><tspan
         x="0"
         y="0"
         id="tspan64">Color</tspan></text>
    <text
       transform="translate(82.16 134.2) scale(.88 1)"
       style="font-family: GillSans-Bold, 'Gill Sans'; font-size: 10px; font-weight: 700; letter-spacing: -.04em;"
       id="text65"><tspan
         x="0"
         y="0"
         id="tspan65">Verb Decay</tspan></text>
    <text
       transform="translate(10.12 193.06) scale(.88 1)"
       style="font-family: GillSans-Bold, 'Gill Sans'; font-size: 10px; font-weight: 700; letter-spacing: -.04em;"
       id="text66"><tspan
         x="0"
         y="0"
         id="tspan66">Verb Volume</tspan></text>
    <text
       transform="translate(84.2 193.06) scale(.88 1)"
       style="font-family: GillSans-Bold, 'Gill Sans'; font-size: 10px; font-weight: 700; letter-spacing: -.04em;"
       id="text67"><tspan
         x="0"
         y="0"
         id="tspan67">Saturation</tspan></text>
    <text
       transform="translate(22.48 253.89) scale(.82 1)"
       style="font-family: GillSans-Bold, 'Gill Sans'; font-size: 8px; font-weight: 700;"
       id="text68"><tspan
         x="0"
         y="0"
         id="tspan68">Trig</tspan></text>
    <text
       transform="translate(60.09 253.72) scale(.82 1)"
       style="font-family: GillSans-Bold, 'Gill Sans'; font-size: 8px; font-weight: 700;"
       id="text69"><tspan
         x="0"
         y="0"
         id="tspan69">Energy</tspan></text>
    <text
       transform="translate(103.07 253.89) scale(.82 1)"
       style="font-family: GillSans-Bold, 'Gill Sans'; font-size: 8px; font-weight: 700;"
       id="text70"><tspan
         x="0"
         y="0"
         id="tspan70">Spread</tspan></text>
    <text
       transform="translate(20.21 294.82) scale(.82 1)"
       style="font-family: GillSans-Bold, 'Gill Sans'; font-size: 8px; font-weight: 700;"
       id="text71"><tspan
         x="0"
         y="0"
         id="tspan71">Color</tspan></text>
    <text
       transform="translate(57.15 294.82) scale(.82 1)"
       style="font-family: GillSans-Bold, 'Gill Sans'; font-size: 8px; font-weight: 700;"
       id="text72"><tspan
         x="0"
         y="0"
         id="tspan72">V. Decay</tspan></text>
    <text
       transform="translate(98.08 294.82) scale(.82 1)"
       style="font-family: GillSans-Bold, 'Gill Sans'; font-size: 8px; font-weight: 700;"
       id="text73"><tspan
         x="0"
         y="0"
         id="tspan73">Verb Vol.</tspan></text>
    <text
       transform="translate(108.36 336.34) scale(.82 1)"
       style="fill: #fff; font-family: GillSans-Bold, 'Gill Sans'; font-size: 8px; font-weight: 700;"
       id="text74"><tspan
         x="0"
         y="0"
         id="tspan74">Out</tspan></text>
    <g
       id="g76">
      <path
         d="M63.93,18.19c-.37,0-.71-.17-.97-.47-.51-.6-.52-1.54-.04-2.16l6.97-8.88c.38-.48,1.05-.65,1.57-.39.5.25.79.82.79,1.45v4.77l4.64-5.85c.38-.48,1.01-.64,1.53-.38.5.25.83.81.83,1.44v8.82c0,.86-.61,1.57-1.36,1.57s-1.36-.7-1.36-1.57v-4.79l-4.64,5.85c-.38.48-1.01.64-1.54.38-.5-.24-.83-.81-.83-1.44v-4.67l-4.61,5.8c-.26.32-.62.51-1,.51h0Z"
         style="fill: #2cabe1;"
         id="path74" />
      <path
         d="M63.92,18.19c-.75,0-1.35-.7-1.35-1.57v-4.93l-2.26,2.84c-.5.63-1.44.65-1.97.04-.51-.6-.52-1.53-.03-2.15l4.61-5.76c.26-.32.63-.5,1-.5.18,0,.37.04.54.12.5.25.82.81.82,1.44v8.89c0,.86-.61,1.57-1.36,1.57h0Z"
         style="fill: #ea2228;"
         id="path75" />
      <path
         d="M80.52,18.21h0c-.35,0-.68-.15-.94-.42-.76-.78-.14-1.84.29-2.3l1.95-2.36-1.26-.02c-.56-.01-1.04-.4-1.24-1-.19-.56-.07-1.21.29-1.64l3.16-3.83c.23-.28.55-.48,1.13-.47.33,0,.67.17.92.4.71.66.29,1.7-.07,2.2l-1.04,1.26,1.26.02c.56.01,1.04.4,1.24,1,.19.56.07,1.21-.29,1.64l-4.1,4.97c-.35.35-.65.55-1.3.54h0Z"
         style="fill: #00a650;"
         id="path76" />
    </g>
    <text
       transform="translate(59.07 357.18) scale(.82 1)"
       style="font-family: GillSans-Bold, 'Gill Sans'; font-size: 11px; font-weight: 700;"
       id="text78"><tspan
         x="0"
         y="0"
         id="tspan76">C</tspan><tspan
         x="8.17"
         y="0"
         style="letter-spacing: -.01em;"
         id="tspan77">L</tspan><tspan
         x="14.98"
         y="0"
         id="tspan78">AP</tspan></text>
    <text
       transform="translate(17.5 336.34) scale(.82 1)"
       style="font-family: GillSans-Bold, 'Gill Sans'; font-size: 8px; font-weight: 700;"
       id="text79"><tspan
         x="0"
         y="0"
         id="tspan79">Saturation</tspan></text>
  </g>
  <g
     id="components">
    <circle
       id="Out"
       cx="114.78"
       cy="313.84"
       r="11.34"
       style="fill: blue;" />
    <circle
       id="Saturation_CV"
       data-name="Saturation CV"
       cx="29.47"
       cy="313.84"
       r="11.34"
       style="fill: lime;" />
    <circle
       id="Verb_Volume_CV"
       data-name="Verb Volume CV"
       cx="114.7"
       cy="272.23"
       r="11.34"
       style="fill: lime;" />
    <circle
       id="Verb_Decay_CV"
       data-name="Verb Decay CV"
       cx="71.65"
       cy="272.23"
       r="11.34"
       style="fill: lime;" />
    <circle
       id="Color_CV"
       data-name="Color CV"
       cx="29.47"
       cy="272.23"
       r="11.34"
       style="fill: lime;" />
    <circle
       id="Spread_CV"
       data-name="Spread CV"
       cx="114.7"
       cy="232.1"
       r="11.34"
       style="fill: lime;" />
    <circle
       id="Energy_CV"
       data-name="Energy CV"
       cx="71.65"
       cy="232.1"
       r="11.34"
       style="fill: lime;" />
    <circle
       id="Trig"
       cx="29.47"
       cy="232.1"
       r="11.34"
       style="fill: #80ff80;" />
    <circle
       id="Saturation_Davies1900hBlackKnob"
       data-name="Saturation#Davies1900hBlackKnob"
       cx="106.4"
       cy="162.82"
       r="17.01"
       style="fill: #ff0040;" />
    <circle
       id="Verb_Volume_Davies1900hBlackKnob"
       data-name="Verb Volume#Davies1900hBlackKnob"
       cx="37.85"
       cy="162.82"
       r="17.01"
       style="fill: #ff0040;" />
    <circle
       id="Verb_Decay_Davies1900hBlackKnob"
       data-name="Verb Decay#Davies1900hBlackKnob"
       cx="106.4"
       cy="104.62"
       r="17.01"
       style="fill: #ff0040;" />
    <circle
       id="Color_Davies1900hBlackKnob"
       data-name="Color#Davies1900hBlackKnob"
       cx="37.85"
       cy="104.62"
       r="17.01"
       style="fill: #ff0040;" />
    <circle
       id="Spread_Davies1900hBlackKnob"
       data-name="Spread#Davies1900hBlackKnob"
       cx="106.4"
       cy="46.42"
       r="17.01"
       style="fill: #ff0040;" />
    <circle
       id="Energy_Davies1900hBlackKnob"
       data-name="Energy#Davies1900hBlackKnob"
       cx="37.85"
       cy="46.52"
       r="17.01"
       style="fill: #ff0040;" />
    <text
       id="slug"
       transform="translate(109.39 369)"
       style="fill: #010101; font-family: MyriadPro-Regular, 'Myriad Pro'; font-size: 3px;"><tspan
         x="0"
         y="0"
         id="tspan80">Clap</tspan></text>
    <text
       id="modulename"
       transform="translate(117.95 369)"
       style="fill: #010101; font-family: MyriadPro-Regular, 'Myriad Pro'; font-size: 3px;"><tspan
         x="0"
         y="0"
         id="tspan81">Clap Drum </tspan><tspan
         x="14.01"
         y="0"
         style="letter-spacing: 0em;"
         id="tspan82">M</tspan><tspan
         x="16.44"
         y="0"
         id="tspan83">odule</tspan></text>
  </g>
</svg>
