<?xml version="1.0" encoding="UTF-8" standalone="no"?>
<svg
   width="50.886681mm"
   height="128.58368mm"
   viewBox="0 0 144.25 364.488"
   version="1.1"
   id="svg83"
   sodipodi:docname="Clap_info.svg"
   inkscape:version="1.4 (e7c3feb1, 2024-10-09)"
   xmlns:inkscape="http://www.inkscape.org/namespaces/inkscape"
   xmlns:sodipodi="http://sodipodi.sourceforge.net/DTD/sodipodi-0.dtd"
   xmlns="http://www.w3.org/2000/svg"
   xmlns:svg="http://www.w3.org/2000/svg">
  <defs
     id="defs83" />
  <sodipodi:namedview
     id="namedview83"
     pagecolor="#ffffff"
     bordercolor="#000000"
     borderopacity="0.25"
     inkscape:showpageshadow="2"
     inkscape:pageopacity="0.0"
     inkscape:pagecheckerboard="0"
     inkscape:deskcolor="#d1d1d1"
     inkscape:document-units="mm"
     inkscape:zoom="2.0466466"
     inkscape:cx="12.215103"
     inkscape:cy="246.50079"
     inkscape:window-width="1200"
     inkscape:window-height="1186"
     inkscape:window-x="2035"
     inkscape:window-y="25"
     inkscape:window-maximized="0"
     inkscape:current-layer="svg83" />
  <g
     id="faceplate"
     transform="translate(0.005,-0.00109503)">
    <rect
       x="0.12"
       y="0.12"
       width="144"
       height="364.25"
       style="fill:#ededed;stroke:#9d9d9e;stroke-width:0.25px;stroke-miterlimit:10"
       id="rect1" />
    <path
       d="m 12.61,291.83 v -62.01 c 0,-7.82 6.4,-14.22 14.22,-14.22 h 90.62 c 7.82,0 14.22,6.4 14.22,14.22 v 62.01 -0.93 45.22 c 0,3.11 -2.54,5.65 -5.65,5.65 H 18.25 c -3.11,0 -5.65,-2.54 -5.65,-5.65 V 290.9"
       style="fill:#d1d3d4;stroke:#d1d3d4;stroke-miterlimit:10"
       id="path1" />
    <path
       d="m 126.11,45.78 h 2.26 c -0.15,-3.28 -1.01,-6.37 -2.44,-9.12 l -1.95,1.13 c 1.24,2.42 1.99,5.13 2.14,8 z"
       id="path2" />
    <path
       d="m 126.11,47.78 c -0.14,2.87 -0.89,5.57 -2.14,8 l 1.95,1.13 c 1.43,-2.75 2.3,-5.84 2.44,-9.12 h -2.26 z"
       id="path3" />
    <g
       id="g13">
      <path
         d="m 46.85,29.2 1.13,-1.95 c -2.75,-1.43 -5.84,-2.3 -9.12,-2.44 v 2.26 c 2.87,0.14 5.57,0.89 7.99,2.14 z"
         id="path4" />
      <path
         d="m 54.43,36.05 1.95,-1.13 c -1.72,-2.68 -4,-4.96 -6.68,-6.68 l -1.13,1.95 c 2.34,1.52 4.33,3.51 5.85,5.85 z"
         id="path5" />
      <path
         d="M 27.13,30.2 26,28.25 c -2.68,1.72 -4.96,4 -6.68,6.68 l 1.95,1.13 c 1.52,-2.34 3.51,-4.33 5.85,-5.85 z"
         id="path6" />
      <path
         d="m 57.57,45.78 h 2.26 C 59.68,42.5 58.82,39.41 57.39,36.66 l -1.95,1.13 c 1.24,2.42 1.99,5.13 2.14,8 z"
         id="path7" />
      <path
         d="M 36.85,27.06 V 24.8 c -3.28,0.15 -6.37,1.01 -9.12,2.44 l 1.13,1.95 c 2.42,-1.24 5.13,-1.99 8,-2.14 z"
         id="path8" />
      <path
         d="m 21.27,57.51 -1.95,1.13 c 1.72,2.68 4,4.96 6.68,6.68 l 1.13,-1.95 C 24.79,61.85 22.8,59.86 21.28,57.52 Z"
         id="path9" />
      <path
         d="m 48.58,63.36 1.13,1.95 c 2.68,-1.72 4.96,-4 6.68,-6.68 L 54.44,57.5 c -1.52,2.34 -3.51,4.33 -5.85,5.85 z"
         id="path10" />
      <path
         d="m 57.57,47.78 c -0.14,2.87 -0.89,5.57 -2.14,8 l 1.95,1.13 c 1.43,-2.75 2.3,-5.84 2.44,-9.12 h -2.26 z"
         id="path11" />
      <path
         d="m 18.14,47.78 h -2.26 c 0.15,3.28 1.01,6.37 2.44,9.12 l 1.95,-1.13 c -1.24,-2.42 -1.99,-5.13 -2.14,-8 z"
         id="path12" />
      <path
         d="m 20.27,37.78 -1.95,-1.13 c -1.43,2.75 -2.3,5.84 -2.44,9.12 h 2.26 c 0.14,-2.87 0.89,-5.57 2.14,-8 z"
         id="path13" />
    </g>
    <path
       d="m 115.39,29.2 1.13,-1.95 c -2.75,-1.43 -5.84,-2.3 -9.12,-2.44 v 2.26 c 2.87,0.14 5.57,0.89 7.99,2.14 z"
       id="path14" />
    <path
       d="m 122.98,36.05 1.95,-1.13 c -1.72,-2.68 -4,-4.96 -6.68,-6.68 l -1.13,1.95 c 2.34,1.52 4.33,3.51 5.85,5.85 z"
       id="path15" />
    <path
       d="m 95.67,30.2 -1.13,-1.95 c -2.68,1.72 -4.96,4 -6.68,6.68 l 1.95,1.13 c 1.52,-2.34 3.51,-4.33 5.85,-5.85 z"
       id="path16" />
    <path
       d="M 105.4,27.06 V 24.8 c -3.28,0.15 -6.37,1.01 -9.12,2.44 l 1.13,1.95 c 2.42,-1.24 5.13,-1.99 8,-2.14 z"
       id="path17" />
    <path
       d="m 89.82,57.51 -1.95,1.13 c 1.72,2.68 4,4.96 6.68,6.68 l 1.13,-1.95 c -2.34,-1.52 -4.33,-3.51 -5.85,-5.85 z"
       id="path18" />
    <path
       d="m 117.12,63.36 1.13,1.95 c 2.68,-1.72 4.96,-4 6.68,-6.68 l -1.95,-1.13 c -1.52,2.34 -3.51,4.33 -5.85,5.85 z"
       id="path19" />
    <path
       d="m 86.68,47.78 h -2.26 c 0.15,3.28 1.01,6.37 2.44,9.12 l 1.95,-1.13 c -1.24,-2.42 -1.99,-5.13 -2.14,-8 z"
       id="path20" />
    <path
       d="m 88.82,37.78 -1.95,-1.13 c -1.43,2.75 -2.3,5.84 -2.44,9.12 h 2.26 c 0.14,-2.87 0.89,-5.57 2.14,-8 z"
       id="path21" />
    <g
       id="g31">
      <path
         d="m 46.85,87.14 1.13,-1.95 c -2.75,-1.43 -5.84,-2.3 -9.12,-2.44 v 2.26 c 2.87,0.14 5.57,0.89 7.99,2.14 z"
         id="path22" />
      <path
         d="m 54.43,93.99 1.95,-1.13 c -1.72,-2.68 -4,-4.96 -6.68,-6.68 l -1.13,1.95 c 2.34,1.52 4.33,3.51 5.85,5.85 z"
         id="path23" />
      <path
         d="M 27.13,88.14 26,86.19 c -2.68,1.72 -4.96,4 -6.68,6.68 L 21.27,94 c 1.52,-2.34 3.51,-4.33 5.85,-5.85 z"
         id="path24" />
      <path
         d="m 57.57,103.72 h 2.26 c -0.15,-3.28 -1.01,-6.37 -2.44,-9.12 l -1.95,1.13 c 1.24,2.42 1.99,5.13 2.14,8 z"
         id="path25" />
      <path
         d="m 36.85,85 v -2.26 c -3.28,0.15 -6.37,1.01 -9.12,2.44 l 1.13,1.95 c 2.42,-1.24 5.13,-1.99 8,-2.14 z"
         id="path26" />
      <path
         d="m 21.27,115.44 -1.95,1.13 c 1.72,2.68 4,4.96 6.68,6.68 l 1.13,-1.95 c -2.34,-1.52 -4.33,-3.51 -5.85,-5.85 z"
         id="path27" />
      <path
         d="m 48.58,121.3 1.13,1.95 c 2.68,-1.72 4.96,-4 6.68,-6.68 l -1.95,-1.13 c -1.52,2.34 -3.51,4.33 -5.85,5.85 z"
         id="path28" />
      <path
         d="m 57.57,105.72 c -0.14,2.87 -0.89,5.57 -2.14,8 l 1.95,1.13 c 1.43,-2.75 2.3,-5.84 2.44,-9.12 h -2.26 z"
         id="path29" />
      <path
         d="m 18.14,105.72 h -2.26 c 0.15,3.28 1.01,6.37 2.44,9.12 l 1.95,-1.13 c -1.24,-2.42 -1.99,-5.13 -2.14,-8 z"
         id="path30" />
      <path
         d="m 20.27,95.72 -1.95,-1.13 c -1.43,2.75 -2.3,5.84 -2.44,9.12 h 2.26 c 0.14,-2.87 0.89,-5.57 2.14,-8 z"
         id="path31" />
    </g>
    <path
       d="m 115.39,87.14 1.13,-1.95 c -2.75,-1.43 -5.84,-2.3 -9.12,-2.44 v 2.26 c 2.87,0.14 5.57,0.89 7.99,2.14 z"
       id="path32" />
    <path
       d="m 122.98,93.99 1.95,-1.13 c -1.72,-2.68 -4,-4.96 -6.68,-6.68 l -1.13,1.95 c 2.34,1.52 4.33,3.51 5.85,5.85 z"
       id="path33" />
    <path
       d="m 95.67,88.14 -1.13,-1.95 c -2.68,1.72 -4.96,4 -6.68,6.68 L 89.81,94 c 1.52,-2.34 3.51,-4.33 5.85,-5.85 z"
       id="path34" />
    <path
       d="m 126.11,103.72 h 2.26 c -0.15,-3.28 -1.01,-6.37 -2.44,-9.12 l -1.95,1.13 c 1.24,2.42 1.99,5.13 2.14,8 z"
       id="path35" />
    <path
       d="m 105.4,85 v -2.26 c -3.28,0.15 -6.37,1.01 -9.12,2.44 l 1.13,1.95 c 2.42,-1.24 5.13,-1.99 8,-2.14 z"
       id="path36" />
    <path
       d="m 89.82,115.44 -1.95,1.13 c 1.72,2.68 4,4.96 6.68,6.68 l 1.13,-1.95 c -2.34,-1.52 -4.33,-3.51 -5.85,-5.85 z"
       id="path37" />
    <path
       d="m 117.12,121.3 1.13,1.95 c 2.68,-1.72 4.96,-4 6.68,-6.68 l -1.95,-1.13 c -1.52,2.34 -3.51,4.33 -5.85,5.85 z"
       id="path38" />
    <path
       d="m 126.11,105.72 c -0.14,2.87 -0.89,5.57 -2.14,8 l 1.95,1.13 c 1.43,-2.75 2.3,-5.84 2.44,-9.12 h -2.26 z"
       id="path39" />
    <path
       d="m 86.68,105.72 h -2.26 c 0.15,3.28 1.01,6.37 2.44,9.12 l 1.95,-1.13 c -1.24,-2.42 -1.99,-5.13 -2.14,-8 z"
       id="path40" />
    <path
       d="m 88.82,95.72 -1.95,-1.13 c -1.43,2.75 -2.3,5.84 -2.44,9.12 h 2.26 c 0.14,-2.87 0.89,-5.57 2.14,-8 z"
       id="path41" />
    <g
       id="g51">
      <path
         d="m 46.85,145.6 1.13,-1.95 c -2.75,-1.43 -5.84,-2.3 -9.12,-2.44 v 2.26 c 2.87,0.14 5.57,0.89 7.99,2.14 z"
         id="path42" />
      <path
         d="m 54.43,152.45 1.95,-1.13 c -1.72,-2.68 -4,-4.96 -6.68,-6.68 l -1.13,1.95 c 2.34,1.52 4.33,3.51 5.85,5.85 z"
         id="path43" />
      <path
         d="M 27.13,146.6 26,144.65 c -2.68,1.72 -4.96,4 -6.68,6.68 l 1.95,1.13 c 1.52,-2.34 3.51,-4.33 5.85,-5.85 z"
         id="path44" />
      <path
         d="m 57.57,162.18 h 2.26 c -0.15,-3.28 -1.01,-6.37 -2.44,-9.12 l -1.95,1.13 c 1.24,2.42 1.99,5.13 2.14,8 z"
         id="path45" />
      <path
         d="m 36.85,143.46 v -2.26 c -3.28,0.15 -6.37,1.01 -9.12,2.44 l 1.13,1.95 c 2.42,-1.24 5.13,-1.99 8,-2.14 z"
         id="path46" />
      <path
         d="m 21.27,173.9 -1.95,1.13 c 1.72,2.68 4,4.96 6.68,6.68 l 1.13,-1.95 c -2.34,-1.52 -4.33,-3.51 -5.85,-5.85 z"
         id="path47" />
      <path
         d="m 48.58,179.76 1.13,1.95 c 2.68,-1.72 4.96,-4 6.68,-6.68 l -1.95,-1.13 c -1.52,2.34 -3.51,4.33 -5.85,5.85 z"
         id="path48" />
      <path
         d="m 57.57,164.18 c -0.14,2.87 -0.89,5.57 -2.14,8 l 1.95,1.13 c 1.43,-2.75 2.3,-5.84 2.44,-9.12 h -2.26 z"
         id="path49" />
      <path
         d="m 18.14,164.18 h -2.26 c 0.15,3.28 1.01,6.37 2.44,9.12 l 1.95,-1.13 c -1.24,-2.42 -1.99,-5.13 -2.14,-8 z"
         id="path50" />
      <path
         d="m 20.27,154.18 -1.95,-1.13 c -1.43,2.75 -2.3,5.84 -2.44,9.12 h 2.26 c 0.14,-2.87 0.89,-5.57 2.14,-8 z"
         id="path51" />
    </g>
    <g
       id="g61">
      <path
         d="m 115.39,145.6 1.13,-1.95 c -2.75,-1.43 -5.84,-2.3 -9.12,-2.44 v 2.26 c 2.87,0.14 5.57,0.89 7.99,2.14 z"
         id="path52" />
      <path
         d="m 122.98,152.45 1.95,-1.13 c -1.72,-2.68 -4,-4.96 -6.68,-6.68 l -1.13,1.95 c 2.34,1.52 4.33,3.51 5.85,5.85 z"
         id="path53" />
      <path
         d="m 95.67,146.6 -1.13,-1.95 c -2.68,1.72 -4.96,4 -6.68,6.68 l 1.95,1.13 c 1.52,-2.34 3.51,-4.33 5.85,-5.85 z"
         id="path54" />
      <path
         d="m 126.11,162.18 h 2.26 c -0.15,-3.28 -1.01,-6.37 -2.44,-9.12 l -1.95,1.13 c 1.24,2.42 1.99,5.13 2.14,8 z"
         id="path55" />
      <path
         d="m 105.4,143.46 v -2.26 c -3.28,0.15 -6.37,1.01 -9.12,2.44 l 1.13,1.95 c 2.42,-1.24 5.13,-1.99 8,-2.14 z"
         id="path56" />
      <path
         d="m 89.82,173.9 -1.95,1.13 c 1.72,2.68 4,4.96 6.68,6.68 l 1.13,-1.95 c -2.34,-1.52 -4.33,-3.51 -5.85,-5.85 z"
         id="path57" />
      <path
         d="m 117.12,179.76 1.13,1.95 c 2.68,-1.72 4.96,-4 6.68,-6.68 l -1.95,-1.13 c -1.52,2.34 -3.51,4.33 -5.85,5.85 z"
         id="path58" />
      <path
         d="m 126.11,164.18 c -0.14,2.87 -0.89,5.57 -2.14,8 l 1.95,1.13 c 1.43,-2.75 2.3,-5.84 2.44,-9.12 h -2.26 z"
         id="path59" />
      <path
         d="m 86.68,164.18 h -2.26 c 0.15,3.28 1.01,6.37 2.44,9.12 l 1.95,-1.13 c -1.24,-2.42 -1.99,-5.13 -2.14,-8 z"
         id="path60" />
      <path
         d="m 88.82,154.18 -1.95,-1.13 c -1.43,2.75 -2.3,5.84 -2.44,9.12 h 2.26 c 0.14,-2.87 0.89,-5.57 2.14,-8 z"
         id="path61" />
    </g>
    <path
       d="m 132.19,318.66 v -21.52 h -21.54 c -7.49,0 -13.57,6.52 -13.57,14.57 v 30.53 h 15.07 c 0,0 0,0 0,0 h 14.39 c 3.12,0 5.64,-2.36 5.64,-5.25 v -18.39 0.08 z"
       id="path62" />
    <text
       transform="matrix(0.88,0,0,1,23.25,76.1)"
       style="font-weight:700;font-size:10px;font-family:GillSans-Bold, 'Gill Sans';letter-spacing:-0.04em"
       id="text62"><tspan
         x="0"
         y="0"
         id="tspan62">Energy</tspan></text>
    <text
       transform="matrix(0.88,0,0,1,91.67,76.1)"
       style="font-weight:700;font-size:10px;font-family:GillSans-Bold, 'Gill Sans';letter-spacing:-0.04em"
       id="text63"><tspan
         x="0"
         y="0"
         id="tspan63">Spread</tspan></text>
    <text
       transform="matrix(0.88,0,0,1,26.11,134.2)"
       style="font-weight:700;font-size:10px;font-family:GillSans-Bold, 'Gill Sans';letter-spacing:-0.04em"
       id="text64"><tspan
         x="0"
         y="0"
         id="tspan64">Color</tspan></text>
    <text
       transform="matrix(0.88,0,0,1,82.16,134.2)"
       style="font-weight:700;font-size:10px;font-family:GillSans-Bold, 'Gill Sans';letter-spacing:-0.04em"
       id="text65"><tspan
         x="0"
         y="0"
         id="tspan65">Verb Decay</tspan></text>
    <text
       transform="matrix(0.88,0,0,1,10.12,193.06)"
       style="font-weight:700;font-size:10px;font-family:GillSans-Bold, 'Gill Sans';letter-spacing:-0.04em"
       id="text66"><tspan
         x="0"
         y="0"
         id="tspan66">Verb Volume</tspan></text>
    <text
       transform="matrix(0.88,0,0,1,84.2,193.06)"
       style="font-weight:700;font-size:10px;font-family:GillSans-Bold, 'Gill Sans';letter-spacing:-0.04em"
       id="text67"><tspan
         x="0"
         y="0"
         id="tspan67">Saturation</tspan></text>
    <text
       transform="matrix(0.82,0,0,1,22.48,253.89)"
       style="font-weight:700;font-size:8px;font-family:GillSans-Bold, 'Gill Sans'"
       id="text68"><tspan
         x="0"
         y="0"
         id="tspan68">Trig</tspan></text>
    <text
       transform="matrix(0.82,0,0,1,60.09,253.72)"
       style="font-weight:700;font-size:8px;font-family:GillSans-Bold, 'Gill Sans'"
       id="text69"><tspan
         x="0"
         y="0"
         id="tspan69">Energy</tspan></text>
    <text
       transform="matrix(0.82,0,0,1,103.07,253.89)"
       style="font-weight:700;font-size:8px;font-family:GillSans-Bold, 'Gill Sans'"
       id="text70"><tspan
         x="0"
         y="0"
         id="tspan70">Spread</tspan></text>
    <text
       transform="matrix(0.82,0,0,1,20.21,294.82)"
       style="font-weight:700;font-size:8px;font-family:GillSans-Bold, 'Gill Sans'"
       id="text71"><tspan
         x="0"
         y="0"
         id="tspan71">Color</tspan></text>
    <text
       transform="matrix(0.82,0,0,1,57.15,294.82)"
       style="font-weight:700;font-size:8px;font-family:GillSans-Bold, 'Gill Sans'"
       id="text72"><tspan
         x="0"
         y="0"
         id="tspan72">V. Decay</tspan></text>
    <text
       transform="matrix(0.82,0,0,1,98.08,294.82)"
       style="font-weight:700;font-size:8px;font-family:GillSans-Bold, 'Gill Sans'"
       id="text73"><tspan
         x="0"
         y="0"
         id="tspan73">Verb Vol.</tspan></text>
    <text
       transform="matrix(0.82,0,0,1,108.36,336.34)"
       style="font-weight:700;font-size:8px;font-family:GillSans-Bold, 'Gill Sans';fill:#ffffff"
       id="text74"><tspan
         x="0"
         y="0"
         id="tspan74">Out</tspan></text>
    <g
       id="g76">
      <path
         d="m 63.93,18.19 c -0.37,0 -0.71,-0.17 -0.97,-0.47 -0.51,-0.6 -0.52,-1.54 -0.04,-2.16 l 6.97,-8.88 c 0.38,-0.48 1.05,-0.65 1.57,-0.39 0.5,0.25 0.79,0.82 0.79,1.45 v 4.77 l 4.64,-5.85 c 0.38,-0.48 1.01,-0.64 1.53,-0.38 0.5,0.25 0.83,0.81 0.83,1.44 v 8.82 c 0,0.86 -0.61,1.57 -1.36,1.57 -0.75,0 -1.36,-0.7 -1.36,-1.57 v -4.79 l -4.64,5.85 c -0.38,0.48 -1.01,0.64 -1.54,0.38 -0.5,-0.24 -0.83,-0.81 -0.83,-1.44 v -4.67 l -4.61,5.8 c -0.26,0.32 -0.62,0.51 -1,0.51 v 0 z"
         style="fill:#2cabe1"
         id="path74" />
      <path
         d="m 63.92,18.19 c -0.75,0 -1.35,-0.7 -1.35,-1.57 v -4.93 l -2.26,2.84 c -0.5,0.63 -1.44,0.65 -1.97,0.04 -0.51,-0.6 -0.52,-1.53 -0.03,-2.15 l 4.61,-5.76 c 0.26,-0.32 0.63,-0.5 1,-0.5 0.18,0 0.37,0.04 0.54,0.12 0.5,0.25 0.82,0.81 0.82,1.44 v 8.89 c 0,0.86 -0.61,1.57 -1.36,1.57 v 0 z"
         style="fill:#ea2228"
         id="path75" />
      <path
         d="m 80.52,18.21 v 0 c -0.35,0 -0.68,-0.15 -0.94,-0.42 -0.76,-0.78 -0.14,-1.84 0.29,-2.3 l 1.95,-2.36 -1.26,-0.02 C 80,13.1 79.52,12.71 79.32,12.11 79.13,11.55 79.25,10.9 79.61,10.47 L 82.77,6.64 C 83,6.36 83.32,6.16 83.9,6.17 c 0.33,0 0.67,0.17 0.92,0.4 0.71,0.66 0.29,1.7 -0.07,2.2 l -1.04,1.26 1.26,0.02 c 0.56,0.01 1.04,0.4 1.24,1 0.19,0.56 0.07,1.21 -0.29,1.64 l -4.1,4.97 c -0.35,0.35 -0.65,0.55 -1.3,0.54 v 0 z"
         style="fill:#00a650"
         id="path76" />
    </g>
    <text
       transform="matrix(0.82,0,0,1,59.07,357.18)"
       style="font-weight:700;font-size:11px;font-family:GillSans-Bold, 'Gill Sans'"
       id="text78"><tspan
         x="0"
         y="0"
         id="tspan76">C</tspan><tspan
         x="8.1700001"
         y="0"
         style="letter-spacing:-0.01em"
         id="tspan77">L</tspan><tspan
         x="14.98"
         y="0"
         id="tspan78">AP</tspan></text>
    <text
       transform="matrix(0.82,0,0,1,17.5,336.34)"
       style="font-weight:700;font-size:8px;font-family:GillSans-Bold, 'Gill Sans'"
       id="text79"><tspan
         x="0"
         y="0"
         id="tspan79">Saturation</tspan></text>
  </g>
  <g
     id="components"
     style="display:none"
     transform="translate(0.005,-0.00109503)">
    <circle
       id="Out"
       cx="114.78"
       cy="313.84"
       r="11.34"
       style="fill:#0000ff" />
    <circle
       id="Saturation_CV"
       data-name="Saturation CV"
       cx="29.469999"
       cy="313.84"
       r="11.34"
       style="fill:#00ff00" />
    <circle
       id="Verb_Volume_CV"
       data-name="Verb Volume CV"
       cx="114.7"
       cy="272.23001"
       r="11.34"
       style="fill:#00ff00" />
    <circle
       id="Verb_Decay_CV"
       data-name="Verb Decay CV"
       cx="71.650002"
       cy="272.23001"
       r="11.34"
       style="fill:#00ff00" />
    <circle
       id="Color_CV"
       data-name="Color CV"
       cx="29.469999"
       cy="272.23001"
       r="11.34"
       style="fill:#00ff00" />
    <circle
       id="Spread_CV"
       data-name="Spread CV"
       cx="114.7"
       cy="232.10001"
       r="11.34"
       style="fill:#00ff00" />
    <circle
       id="Energy_CV"
       data-name="Energy CV"
       cx="71.650002"
       cy="232.10001"
       r="11.34"
       style="fill:#00ff00" />
    <circle
       id="Trig"
       cx="29.469999"
       cy="232.10001"
       r="11.34"
       style="fill:#80ff80" />
    <circle
       id="Saturation_MediumBlackKnob"
       data-name="Saturation#MediumBlackKnob"
       cx="106.4"
       cy="162.82001"
       r="17.01"
       style="fill:#ff0040"
       inkscape:label="Saturation_Davies1900hBlackKnob" />
    <circle
       id="Verb_Volume_MediumBlackKnob"
       data-name="Verb Volume#MediumBlackKnob"
       cx="37.849998"
       cy="162.82001"
       r="17.01"
       style="fill:#ff0040"
       inkscape:label="Verb_Volume_Davies1900hBlackKnob" />
    <circle
       id="Verb_Decay_MediumBlackKnob"
       data-name="Verb Decay#MediumBlackKnob"
       cx="106.4"
       cy="104.62"
       r="17.01"
       style="fill:#ff0040"
       inkscape:label="Verb_Decay_Davies1900hBlackKnob" />
    <circle
       id="Color_MediumBlackKnob"
       data-name="Color#MediumBlackKnob"
       cx="37.849998"
       cy="104.62"
       r="17.01"
       style="fill:#ff0040"
       inkscape:label="Color_Davies1900hBlackKnob" />
    <circle
       id="Spread_MediumBlackKnob"
       data-name="Spread#MediumBlackKnob"
       cx="106.4"
       cy="46.419998"
       r="17.01"
       style="fill:#ff0040"
       inkscape:label="Spread_Davies1900hBlackKnob" />
    <circle
       id="Energy_MediumBlackKnob"
       data-name="Energy#MediumBlackKnob"
       cx="37.849998"
       cy="46.52"
       r="17.01"
       style="fill:#ff0040"
       inkscape:label="Energy_Davies1900hBlackKnob" />
    <text
       id="slug"
       transform="translate(109.39,369)"
       style="font-size:3px;font-family:MyriadPro-Regular, 'Myriad Pro';fill:#010101"><tspan
         x="0"
         y="0"
         id="tspan80">Clap</tspan></text>
    <text
       id="modulename"
       transform="translate(117.95,369)"
       style="font-size:3px;font-family:MyriadPro-Regular, 'Myriad Pro';fill:#010101"><tspan
         x="0"
         y="0"
         id="tspan81">Clap Drum</tspan><tspan
         x="14.01"
         y="0"
         style="letter-spacing:0em"
         id="tspan82">M</tspan><tspan
         x="16.440001"
         y="0"
         id="tspan83">odule</tspan></text>
  </g>
</svg>
