<?xml version="1.0" encoding="UTF-8" standalone="no"?>
<svg
   width="50.89mm"
   height="130.44mm"
   viewBox="0 0 144.25 369.75"
   version="1.1"
   id="svg51"
   sodipodi:docname="Congabongo_info.svg"
   inkscape:version="1.4 (e7c3feb1, 2024-10-09)"
   xmlns:inkscape="http://www.inkscape.org/namespaces/inkscape"
   xmlns:sodipodi="http://sodipodi.sourceforge.net/DTD/sodipodi-0.dtd"
   xmlns="http://www.w3.org/2000/svg"
   xmlns:svg="http://www.w3.org/2000/svg">
  <defs
     id="defs51" />
  <sodipodi:namedview
     id="namedview51"
     pagecolor="#ffffff"
     bordercolor="#000000"
     borderopacity="0.25"
     inkscape:showpageshadow="2"
     inkscape:pageopacity="0.0"
     inkscape:pagecheckerboard="0"
     inkscape:deskcolor="#d1d1d1"
     inkscape:document-units="mm"
     inkscape:zoom="2.0466466"
     inkscape:cx="96.010713"
     inkscape:cy="246.50079"
     inkscape:window-width="1200"
     inkscape:window-height="1186"
     inkscape:window-x="2240"
     inkscape:window-y="25"
     inkscape:window-maximized="0"
     inkscape:current-layer="components" />
  <g
     id="faceplate">
    <rect
       x=".12"
       y=".12"
       width="144"
       height="364.25"
       style="fill: #ededed; stroke: #9d9d9e; stroke-miterlimit: 10; stroke-width: .25px;"
       id="rect1" />
    <path
       d="M12.61,291.83v-62.01c0-7.82,6.4-14.22,14.22-14.22h90.62c7.82,0,14.22,6.4,14.22,14.22v62.01-.93,45.22c0,3.11-2.54,5.65-5.65,5.65H18.25c-3.11,0-5.65-2.54-5.65-5.65v-45.22"
       style="fill: #d1d3d4; stroke: #d1d3d4; stroke-miterlimit: 10;"
       id="path1" />
    <path
       d="M132.19,318.66v-21.52h-21.54c-7.49,0-13.57,6.52-13.57,14.57v30.53h15.07s0,0,0,0h14.39c3.12,0,5.64-2.36,5.64-5.25v-18.39.08Z"
       id="path2" />
    <g
       id="g12">
      <path
         d="M81.11,40.4l1.13-1.95c-2.75-1.43-5.84-2.3-9.12-2.44v2.26c2.87.14,5.57.89,7.99,2.14Z"
         id="path3" />
      <path
         d="M88.69,47.26l1.95-1.13c-1.72-2.68-4-4.96-6.68-6.68l-1.13,1.95c2.34,1.52,4.33,3.51,5.85,5.85Z"
         id="path4" />
      <path
         d="M61.39,41.4l-1.13-1.95c-2.68,1.72-4.96,4-6.68,6.68l1.95,1.13c1.52-2.34,3.51-4.33,5.85-5.85Z"
         id="path5" />
      <path
         d="M91.83,56.98h2.26c-.15-3.28-1.01-6.37-2.44-9.12l-1.95,1.13c1.24,2.42,1.99,5.13,2.14,8Z"
         id="path6" />
      <path
         d="M71.11,38.27v-2.26c-3.28.15-6.37,1.01-9.12,2.44l1.13,1.95c2.42-1.24,5.13-1.99,8-2.14Z"
         id="path7" />
      <path
         d="M55.53,68.71l-1.95,1.13c1.72,2.68,4,4.96,6.68,6.68l1.13-1.95c-2.34-1.52-4.33-3.51-5.85-5.85Z"
         id="path8" />
      <path
         d="M82.84,74.56l1.13,1.95c2.68-1.72,4.96-4,6.68-6.68l-1.95-1.13c-1.52,2.34-3.51,4.33-5.85,5.85Z"
         id="path9" />
      <path
         d="M91.83,58.98c-.14,2.87-.89,5.57-2.14,8l1.95,1.13c1.43-2.75,2.3-5.84,2.44-9.12h-2.26Z"
         id="path10" />
      <path
         d="M52.4,58.98h-2.26c.15,3.28,1.01,6.37,2.44,9.12l1.95-1.13c-1.24-2.42-1.99-5.13-2.14-8Z"
         id="path11" />
      <path
         d="M54.53,48.99l-1.95-1.13c-1.43,2.75-2.3,5.84-2.44,9.12h2.26c.14-2.87.89-5.57,2.14-8Z"
         id="path12" />
    </g>
    <g
       id="g22">
      <path
         d="M81.11,101.8l1.13-1.95c-2.75-1.43-5.84-2.3-9.12-2.44v2.26c2.87.14,5.57.89,7.99,2.14Z"
         id="path13" />
      <path
         d="M88.69,108.66l1.95-1.13c-1.72-2.68-4-4.96-6.68-6.68l-1.13,1.95c2.34,1.52,4.33,3.51,5.85,5.85Z"
         id="path14" />
      <path
         d="M61.39,102.81l-1.13-1.95c-2.68,1.72-4.96,4-6.68,6.68l1.95,1.13c1.52-2.34,3.51-4.33,5.85-5.85Z"
         id="path15" />
      <path
         d="M91.83,118.39h2.26c-.15-3.28-1.01-6.37-2.44-9.12l-1.95,1.13c1.24,2.42,1.99,5.13,2.14,8Z"
         id="path16" />
      <path
         d="M71.11,99.67v-2.26c-3.28.15-6.37,1.01-9.12,2.44l1.13,1.95c2.42-1.24,5.13-1.99,8-2.14Z"
         id="path17" />
      <path
         d="M55.53,130.11l-1.95,1.13c1.72,2.68,4,4.96,6.68,6.68l1.13-1.95c-2.34-1.52-4.33-3.51-5.85-5.85Z"
         id="path18" />
      <path
         d="M82.84,135.97l1.13,1.95c2.68-1.72,4.96-4,6.68-6.68l-1.95-1.13c-1.52,2.34-3.51,4.33-5.85,5.85Z"
         id="path19" />
      <path
         d="M91.83,120.39c-.14,2.87-.89,5.57-2.14,8l1.95,1.13c1.43-2.75,2.3-5.84,2.44-9.12h-2.26Z"
         id="path20" />
      <path
         d="M52.4,120.39h-2.26c.15,3.28,1.01,6.37,2.44,9.12l1.95-1.13c-1.24-2.42-1.99-5.13-2.14-8Z"
         id="path21" />
      <path
         d="M54.53,110.39l-1.95-1.13c-1.43,2.75-2.3,5.84-2.44,9.12h2.26c.14-2.87.89-5.57,2.14-8Z"
         id="path22" />
    </g>
    <g
       id="g25">
      <path
         d="M63.93,18.19c-.37,0-.71-.17-.97-.47-.51-.6-.52-1.54-.04-2.16l6.97-8.88c.38-.48,1.05-.65,1.57-.39.5.25.79.82.79,1.45v4.77l4.64-5.85c.38-.48,1.01-.64,1.53-.38.5.25.83.81.83,1.44v8.82c0,.86-.61,1.57-1.36,1.57s-1.36-.7-1.36-1.57v-4.79l-4.64,5.85c-.38.48-1.01.64-1.54.38-.5-.24-.83-.81-.83-1.44v-4.67l-4.61,5.8c-.26.32-.62.51-1,.51h0Z"
         style="fill: #2cabe1;"
         id="path23" />
      <path
         d="M63.92,18.19c-.75,0-1.35-.7-1.35-1.57v-4.93l-2.26,2.84c-.5.63-1.44.65-1.97.04-.51-.6-.52-1.53-.03-2.15l4.61-5.76c.26-.32.63-.5,1-.5.18,0,.37.04.54.12.5.25.82.81.82,1.44v8.89c0,.86-.61,1.57-1.36,1.57h0Z"
         style="fill: #ea2228;"
         id="path24" />
      <path
         d="M80.52,18.21h0c-.35,0-.68-.15-.94-.42-.76-.78-.14-1.84.29-2.3l1.95-2.36-1.26-.02c-.56-.01-1.04-.4-1.24-1-.19-.56-.07-1.21.29-1.64l3.16-3.83c.23-.28.55-.48,1.13-.47.33,0,.67.17.92.4.71.66.29,1.7-.07,2.2l-1.04,1.26,1.26.02c.56.01,1.04.4,1.24,1,.19.56.07,1.21-.29,1.64l-4.1,4.97c-.35.35-.65.55-1.3.54h0Z"
         style="fill: #00a650;"
         id="path25" />
    </g>
    <path
       d="M12.19,318.63v-21.52h1.14s20.4,0,20.4,0c7.49,0,13.57,6.52,13.57,14.57v30.07s0,.46,0,.46h-15.07s0,0,0,0h-14.39c-3.12,0-5.64-2.36-5.64-5.25v-9.31s0-9.08,0-9.08v.08Z"
       id="path26" />
    <text
       transform="translate(30.11 176.94) scale(.88 1)"
       style="font-family: GillSans-Bold, 'Gill Sans'; font-size: 10px; font-weight: 700; letter-spacing: -.04em;"
       id="text26"><tspan
         x="0"
         y="0"
         id="tspan26">Conga</tspan></text>
    <text
       transform="translate(61.36 87.76) scale(.88 1)"
       style="font-family: GillSans-Bold, 'Gill Sans'; font-size: 10px; font-weight: 700; letter-spacing: -.04em;"
       id="text27"><tspan
         x="0"
         y="0"
         id="tspan27">Pitch</tspan></text>
    <text
       transform="translate(86.87 176.94) scale(.88 1)"
       style="font-family: GillSans-Bold, 'Gill Sans'; font-size: 10px; font-weight: 700; letter-spacing: -.04em;"
       id="text28"><tspan
         x="0"
         y="0"
         id="tspan28">Bongo</tspan></text>
    <text
       transform="translate(60.25 149.07) scale(.88 1)"
       style="font-family: GillSans-Bold, 'Gill Sans'; font-size: 10px; font-weight: 700; letter-spacing: -.04em;"
       id="text29"><tspan
         x="0"
         y="0"
         id="tspan29">Decay</tspan></text>
    <text
       transform="translate(17.13 253.8) scale(.82 1)"
       style="font-family: GillSans-Bold, 'Gill Sans'; font-size: 8px; font-weight: 700;"
       id="text30"><tspan
         x="0"
         y="0"
         id="tspan30">Slap LO</tspan></text>
    <text
       transform="translate(15.44 293.38) scale(.82 1)"
       style="font-family: GillSans-Bold, 'Gill Sans'; font-size: 8px; font-weight: 700;"
       id="text31"><tspan
         x="0"
         y="0"
         id="tspan31">Tone LO</tspan></text>
    <text
       transform="translate(17.25 336.34) scale(.82 1)"
       style="fill: #fff; font-family: GillSans-Bold, 'Gill Sans'; font-size: 8px; font-weight: 700;"
       id="text32"><tspan
         x="0"
         y="0"
         id="tspan32">Out LO</tspan></text>
    <text
       transform="translate(103.21 336.34) scale(.82 1)"
       style="fill: #fff; font-family: GillSans-Bold, 'Gill Sans'; font-size: 8px; font-weight: 700;"
       id="text33"><tspan
         x="0"
         y="0"
         id="tspan33">Out HI</tspan></text>
    <text
       transform="translate(102.13 253.8) scale(.82 1)"
       style="font-family: GillSans-Bold, 'Gill Sans'; font-size: 8px; font-weight: 700;"
       id="text34"><tspan
         x="0"
         y="0"
         id="tspan34">Slap HI</tspan></text>
    <text
       transform="translate(99.4 293.38) scale(.82 1)"
       style="font-family: GillSans-Bold, 'Gill Sans'; font-size: 8px; font-weight: 700;"
       id="text35"><tspan
         x="0"
         y="0"
         id="tspan35">Tone HI</tspan></text>
    <text
       transform="translate(63.51 253.8) scale(.82 1)"
       style="font-family: GillSans-Bold, 'Gill Sans'; font-size: 8px; font-weight: 700;"
       id="text36"><tspan
         x="0"
         y="0"
         id="tspan36">Pitch</tspan></text>
    <text
       transform="translate(61 293.38) scale(.82 1)"
       style="font-family: GillSans-Bold, 'Gill Sans'; font-size: 8px; font-weight: 700;"
       id="text37"><tspan
         x="0"
         y="0"
         id="tspan37">Decay</tspan></text>
    <text
       transform="translate(35.01 357.18) scale(.82 1)"
       style="font-family: GillSans-Bold, 'Gill Sans'; font-size: 11px; font-weight: 700;"
       id="text43"><tspan
         x="0"
         y="0"
         style="letter-spacing: -.01em;"
         id="tspan38">CO</tspan><tspan
         x="17.22"
         y="0"
         id="tspan39">N</tspan><tspan
         x="27.18"
         y="0"
         style="letter-spacing: -.01em;"
         id="tspan40">G</tspan><tspan
         x="35.81"
         y="0"
         id="tspan41">AB</tspan><tspan
         x="53.21"
         y="0"
         style="letter-spacing: -.01em;"
         id="tspan42">O</tspan><tspan
         x="62.42"
         y="0"
         id="tspan43">NGO</tspan></text>
  </g>
  <g
     id="components"
     style="display:none">
    <circle
       id="Out_HI"
       data-name="Out HI"
       cx="114.74"
       cy="313.84"
       r="11.34"
       style="fill:#0000ff" />
    <circle
       id="Out_LO"
       data-name="Out LO"
       cx="29.51"
       cy="313.84"
       r="11.34"
       style="fill:#0000ff" />
    <circle
       id="Tone_HI"
       data-name="Tone HI"
       cx="114.74"
       cy="272.23001"
       r="11.34"
       style="fill:#00ff00" />
    <circle
       id="Decay_CV"
       data-name="Decay CV"
       cx="71.699997"
       cy="272.23001"
       r="11.34"
       style="fill:#00ff00" />
    <circle
       id="Tone_LO"
       data-name="Tone LO"
       cx="29.51"
       cy="272.23001"
       r="11.34"
       style="fill:#00ff00" />
    <circle
       id="Slap_HI"
       data-name="Slap HI"
       cx="114.74"
       cy="232.10001"
       r="11.34"
       style="fill:#80ff80" />
    <circle
       id="Pitch_CV"
       data-name="Pitch CV"
       cx="71.699997"
       cy="232.10001"
       r="11.34"
       style="fill:#00ff00" />
    <circle
       id="Slap_LO"
       data-name="Slap LO"
       cx="29.51"
       cy="232.2"
       r="11.34"
       style="fill:#80ff80" />
    <rect
       id="Mode_Switch_Conga_Bongo"
       data-name="Mode Switch@Conga@Bongo"
       x="66.440002"
       y="165.32001"
       width="11.34"
       height="17.01"
       transform="rotate(-90,72.11,173.82)"
       style="fill:#ff8080" />
    <circle
       id="Decay_MediumBlackKnob"
       data-name="Decay#MediumBlackKnob"
       cx="72.110001"
       cy="119.09"
       r="17.01"
       style="fill:#ff0020" />
    <circle
       id="Pitch_MediumBlackKnob"
       data-name="Pitch#MediumBlackKnob"
       cx="72.110001"
       cy="57.849998"
       r="17.01"
       style="fill:#ff0000" />
    <text
       id="slug"
       transform="translate(86.27,369)"
       style="font-size:3px;font-family:MyriadPro-Regular, 'Myriad Pro';fill:#010101"><tspan
         x="0"
         y="0"
         style="letter-spacing:-0.01em"
         id="tspan44">C</tspan><tspan
         x="1.71"
         y="0"
         style="letter-spacing:0em"
         id="tspan45">ongabongo</tspan></text>
    <text
       id="modulename"
       transform="translate(106.45,369)"
       style="font-size:3px;font-family:MyriadPro-Regular, 'Myriad Pro';fill:#010101"><tspan
         x="0"
         y="0"
         style="letter-spacing:-0.01em"
         id="tspan46">C</tspan><tspan
         x="1.71"
         y="0"
         style="letter-spacing:0em"
         id="tspan47">onga &amp;</tspan><tspan
         x="11.23"
         y="0"
         style="letter-spacing:0em"
         id="tspan48">B</tspan><tspan
         x="12.87"
         y="0"
         style="letter-spacing:0em"
         id="tspan49">ongo Drum</tspan><tspan
         x="27.91"
         y="0"
         style="letter-spacing:0em"
         id="tspan50">M</tspan><tspan
         x="30.34"
         y="0"
         style="letter-spacing:0em"
         id="tspan51">odule</tspan></text>
  </g>
</svg>
