<?xml version="1.0" encoding="UTF-8" standalone="no"?>
<svg
   width="50.800274mm"
   height="128.5mm"
   viewBox="0 0 192.00103 485.6693"
   version="1.1"
   id="svg68"
   sodipodi:docname="HiHat_info.svg"
   inkscape:version="1.4 (e7c3feb1, 2024-10-09)"
   xmlns:inkscape="http://www.inkscape.org/namespaces/inkscape"
   xmlns:sodipodi="http://sodipodi.sourceforge.net/DTD/sodipodi-0.dtd"
   xmlns="http://www.w3.org/2000/svg"
   xmlns:svg="http://www.w3.org/2000/svg">
  <defs
     id="defs68" />
  <sodipodi:namedview
     id="namedview68"
     pagecolor="#ffffff"
     bordercolor="#000000"
     borderopacity="0.25"
     inkscape:showpageshadow="2"
     inkscape:pageopacity="0.0"
     inkscape:pagecheckerboard="0"
     inkscape:deskcolor="#d1d1d1"
     inkscape:zoom="3.7791055"
     inkscape:cx="99.494443"
     inkscape:cy="148.97705"
     inkscape:window-width="2008"
     inkscape:window-height="1325"
     inkscape:window-x="50"
     inkscape:window-y="28"
     inkscape:window-maximized="0"
     inkscape:current-layer="svg68"
     inkscape:document-units="mm" />
  <g
     id="faceplate"
     transform="scale(1.3333405)">
    <g
       id="g1">
      <rect
         x="0.13"
         y="0.13"
         width="143.75"
         height="364"
         style="fill:#ededed"
         id="rect1" />
      <path
         d="M 143.75,0.25 V 364 H 0.25 V 0.25 h 143.5 M 144,0 H 0 v 364.25 h 144 z"
         style="fill:#9d9d9e"
         id="path1" />
    </g>
    <path
       d="M 12.48,291.71 V 229.7 c 0,-7.82 6.4,-14.22 14.22,-14.22 h 90.62 c 7.82,0 14.22,6.4 14.22,14.22 v 62.01 -0.93 45.22 c 0,3.11 -2.54,5.65 -5.65,5.65 H 18.13 c -3.11,0 -5.65,-2.54 -5.65,-5.65 v -45.22"
       style="fill:#d1d3d4;stroke:#d1d3d4;stroke-miterlimit:10"
       id="path2" />
    <path
       d="m 132.06,318.53 v -21.52 h -21.54 c -7.49,0 -13.57,6.52 -13.57,14.57 v 30.53 h 15.07 c 0,0 0,0 0,0 h 14.39 c 3.12,0 5.64,-2.36 5.64,-5.25 v -18.39 0.08 z"
       id="path3" />
    <path
       d="m 12.06,318.51 v -21.52 h 1.14 c 0,0 20.4,0 20.4,0 7.49,0 13.57,6.52 13.57,14.57 v 30.07 c 0,0 0,0.46 0,0.46 H 32.1 c 0,0 0,0 0,0 H 17.71 c -3.12,0 -5.64,-2.36 -5.64,-5.25 v -9.31 c 0,0 0,-9.08 0,-9.08 v 0.08 z"
       id="path4" />
    <g
       id="g14">
      <path
         d="m 46.72,145.47 1.13,-1.95 c -2.75,-1.43 -5.84,-2.3 -9.12,-2.44 v 2.26 c 2.87,0.14 5.57,0.89 7.99,2.14 z"
         id="path5" />
      <path
         d="m 54.31,152.32 1.95,-1.13 c -1.72,-2.68 -4,-4.96 -6.68,-6.68 l -1.13,1.95 c 2.34,1.52 4.33,3.51 5.85,5.85 z"
         id="path6" />
      <path
         d="m 27,146.47 -1.13,-1.95 c -2.68,1.72 -4.96,4 -6.68,6.68 l 1.95,1.13 c 1.52,-2.34 3.51,-4.33 5.85,-5.85 z"
         id="path7" />
      <path
         d="m 57.45,162.05 h 2.26 c -0.15,-3.28 -1.01,-6.37 -2.44,-9.12 l -1.95,1.13 c 1.24,2.42 1.99,5.13 2.14,8 z"
         id="path8" />
      <path
         d="m 36.73,143.33 v -2.26 c -3.28,0.15 -6.37,1.01 -9.12,2.44 l 1.13,1.95 c 2.42,-1.24 5.13,-1.99 8,-2.14 z"
         id="path9" />
      <path
         d="m 21.15,173.78 -1.95,1.13 c 1.72,2.68 4,4.96 6.68,6.68 l 1.13,-1.95 c -2.34,-1.52 -4.33,-3.51 -5.85,-5.85 z"
         id="path10" />
      <path
         d="m 48.46,179.63 1.13,1.95 c 2.68,-1.72 4.96,-4 6.68,-6.68 l -1.95,-1.13 c -1.52,2.34 -3.51,4.33 -5.85,5.85 z"
         id="path11" />
      <path
         d="m 57.45,164.05 c -0.14,2.87 -0.89,5.57 -2.14,8 l 1.95,1.13 c 1.43,-2.75 2.3,-5.84 2.44,-9.12 h -2.26 z"
         id="path12" />
      <path
         d="m 18.01,164.05 h -2.26 c 0.15,3.28 1.01,6.37 2.44,9.12 l 1.95,-1.13 c -1.24,-2.42 -1.99,-5.13 -2.14,-8 z"
         id="path13" />
      <path
         d="m 20.15,154.06 -1.95,-1.13 c -1.43,2.75 -2.3,5.84 -2.44,9.12 h 2.26 c 0.14,-2.87 0.89,-5.57 2.14,-8 z"
         id="path14" />
    </g>
    <g
       id="g24">
      <path
         d="m 115.27,145.47 1.13,-1.95 c -2.75,-1.43 -5.84,-2.3 -9.12,-2.44 v 2.26 c 2.87,0.14 5.57,0.89 7.99,2.14 z"
         id="path15" />
      <path
         d="m 122.85,152.32 1.95,-1.13 c -1.72,-2.68 -4,-4.96 -6.68,-6.68 l -1.13,1.95 c 2.34,1.52 4.33,3.51 5.85,5.85 z"
         id="path16" />
      <path
         d="m 95.54,146.47 -1.13,-1.95 c -2.68,1.72 -4.96,4 -6.68,6.68 l 1.95,1.13 c 1.52,-2.34 3.51,-4.33 5.85,-5.85 z"
         id="path17" />
      <path
         d="m 125.99,162.05 h 2.26 c -0.15,-3.28 -1.01,-6.37 -2.44,-9.12 l -1.95,1.13 c 1.24,2.42 1.99,5.13 2.14,8 z"
         id="path18" />
      <path
         d="m 105.27,143.33 v -2.26 c -3.28,0.15 -6.37,1.01 -9.12,2.44 l 1.13,1.95 c 2.42,-1.24 5.13,-1.99 8,-2.14 z"
         id="path19" />
      <path
         d="m 89.69,173.78 -1.95,1.13 c 1.72,2.68 4,4.96 6.68,6.68 l 1.13,-1.95 c -2.34,-1.52 -4.33,-3.51 -5.85,-5.85 z"
         id="path20" />
      <path
         d="m 117,179.63 1.13,1.95 c 2.68,-1.72 4.96,-4 6.68,-6.68 l -1.95,-1.13 c -1.52,2.34 -3.51,4.33 -5.85,5.85 z"
         id="path21" />
      <path
         d="m 125.99,164.05 c -0.14,2.87 -0.89,5.57 -2.14,8 l 1.95,1.13 c 1.43,-2.75 2.3,-5.84 2.44,-9.12 h -2.26 z"
         id="path22" />
      <path
         d="m 86.55,164.05 h -2.26 c 0.15,3.28 1.01,6.37 2.44,9.12 l 1.95,-1.13 c -1.24,-2.42 -1.99,-5.13 -2.14,-8 z"
         id="path23" />
      <path
         d="m 88.69,154.06 -1.95,-1.13 c -1.43,2.75 -2.3,5.84 -2.44,9.12 h 2.26 c 0.14,-2.87 0.89,-5.57 2.14,-8 z"
         id="path24" />
    </g>
    <path
       d="m 7.03125,-1.9189453 q 0,0.8740234 -0.6005859,1.39648436 Q 5.8349609,0 4.7607422,0 H 0.84960938 V -6.7675781 H 4.1210937 q 0.6347657,0 1.1035157,0.1220703 0.4736328,0.1220703 0.7617187,0.3369141 0.288086,0.2099609 0.4296875,0.4980468 0.1416016,0.288086 0.1416016,0.6298828 0,0.3710938 -0.1464844,0.6884766 -0.1464844,0.3125 -0.3662109,0.5175781 -0.2148438,0.2001953 -0.4345703,0.2832031 0.6933593,0.2734375 1.0546875,0.6933594 Q 7.03125,-2.5830078 7.03125,-1.9189453 Z M 4.6484375,-4.8193359 q 0,-0.4882813 -0.3222656,-0.6494141 Q 4.0039062,-5.6298828 3.3203125,-5.6298828 H 2.890625 v 1.6210937 h 0.4394531 q 0.6982422,0 1.0058594,-0.1611328 0.3125,-0.1611328 0.3125,-0.649414 z m 0.3320312,2.8173828 q 0,-0.8691407 -1.2597656,-0.8691407 H 2.890625 v 1.7333985 h 0.8300781 q 1.2597656,0 1.2597656,-0.8642578 z m 7.0414063,-2.7001953 -0.649414,1.7626953 q -0.400391,-0.3808594 -0.810547,-0.3808594 -0.371094,0 -0.6445313,0.2539062 -0.2685547,0.2490235 -0.5175781,0.9277344 V 0 H 7.6419921 v -4.9707031 h 1.7578125 v 1.2011718 q 0.1660156,-0.4443359 0.5859375,-0.8642578 0.4199219,-0.4248046 0.9863279,-0.4248046 0.297852,0 0.517578,0.087891 0.22461,0.087891 0.532227,0.2685543 z m 1.44082,-1.4160157 q 0,0.3076172 -0.219726,0.522461 -0.219727,0.2148437 -0.522461,0.2148437 -0.205079,0 -0.375977,-0.097656 -0.166016,-0.097656 -0.263672,-0.2636719 -0.09766,-0.1708984 -0.09766,-0.3759766 0,-0.3027343 0.214844,-0.5224609 0.214843,-0.2197266 0.522461,-0.2197266 0.302734,0 0.522461,0.2197266 0.219726,0.2197266 0.219726,0.5224609 z M 13.604297,0 h -1.762696 v -4.9707031 h 1.762696 z m 5.810938,-3.9111328 h -0.869141 q 0.458984,0.4003906 0.458984,0.9814453 0,0.3076172 -0.131836,0.5908203 -0.126953,0.2832031 -0.380859,0.5029297 -0.249023,0.2197266 -0.620117,0.3613281 -0.366211,0.1367188 -0.839844,0.1660157 -0.610351,0.024414 -0.610351,0.32714839 0,0.1171875 0.07813,0.17089843 0.07813,0.0537109 0.24414,0.0830078 0.170899,0.0244141 0.571289,0.0585938 0.454102,0.0390625 0.844727,0.13671875 0.390625,0.0976563 0.727539,0.41015625 0.336914,0.3125 0.336914,0.89355468 0,0.4638672 -0.253906,0.8203125 -0.249024,0.3564453 -0.810547,0.5566406 -0.561524,0.2001953 -1.484375,0.2001953 -1.328125,0 -1.953125,-0.3564453 -0.620117,-0.3564453 -0.620117,-0.9521484 0,-0.16113282 0.07813,-0.37109376 Q 14.26388,0.45898441 14.522666,0.26367191 14.786328,0.06835937 15.284375,0 15.108594,-0.06347656 14.981641,-0.24414063 14.854688,-0.4296875 14.854688,-0.62988281 q 0,-0.25878907 0.175781,-0.51269529 0.180664,-0.2539063 0.581055,-0.3271485 -0.556641,-0.1464843 -0.961914,-0.5517578 -0.405274,-0.4052734 -0.405274,-1.0498047 0,-0.4882812 0.185547,-0.8544922 0.19043,-0.3662109 0.522461,-0.5957031 0.332031,-0.2294922 0.771484,-0.336914 0.439453,-0.1123047 0.961914,-0.1123047 h 2.729493 z m -1.94336,0.8398437 q 0,-0.3759765 -0.258789,-0.6005859 -0.253906,-0.2294922 -0.571289,-0.2294922 -0.405273,0 -0.639648,0.2734375 -0.229493,0.2734375 -0.229493,0.5761719 0,0.2099609 0.09766,0.390625 0.102539,0.180664 0.283203,0.2929687 0.185547,0.1074219 0.439453,0.1074219 0.380859,0 0.629883,-0.2392578 0.249023,-0.2392578 0.249023,-0.5712891 z m 0.351563,3.99902348 q 0,-0.32714844 -0.351563,-0.42480469 -0.346679,-0.0927734 -0.717773,-0.0927734 -0.610352,0 -0.883789,0.12695312 -0.268555,0.13183594 -0.268555,0.41503907 0,0.55664062 1.123047,0.55664062 0.50293,0 0.800781,-0.1464844 0.297852,-0.1416016 0.297852,-0.43457032 z M 24.952734,0 h -1.757813 v -2.578125 q 0,-0.029297 0,-0.053711 0.0049,-0.029297 0.0049,-0.1171875 0,-0.3564454 -0.151367,-0.6542969 -0.151367,-0.2978516 -0.576172,-0.2978516 -0.332031,0 -0.585937,0.2246094 -0.253907,0.2197266 -0.483399,0.5566406 V 0 h -1.757812 v -6.7675781 h 1.757812 v 2.5097656 q 0.434571,-0.4638672 0.859375,-0.6298828 0.424805,-0.1708984 0.903321,-0.1708984 1.787109,0 1.787109,2.0068359 z m 4.575586,-0.28808594 q -0.273437,0.13183594 -0.756836,0.25390625 -0.478515,0.12207031 -0.917968,0.12207031 -1.899414,0 -1.899414,-1.85546872 V -3.75 h -0.795899 v -0.3076172 l 2.358399,-2.4023437 h 0.200195 v 1.4892578 h 1.679687 V -3.75 h -1.679687 v 1.5917969 q 0,0.2783203 0.03418,0.4492187 0.03418,0.1708985 0.190429,0.288086 0.161133,0.1123047 0.483399,0.1123047 0.419922,0 1.103515,-0.3515625 z M 35.207422,0 H 33.44961 v -2.6806641 q 0,-0.4101562 -0.136719,-0.7128906 -0.131836,-0.3076172 -0.585937,-0.3076172 -0.214844,0 -0.38086,0.083008 -0.161133,0.078125 -0.292969,0.2050782 -0.126953,0.1269531 -0.214843,0.2441406 -0.08789,0.1171875 -0.180664,0.2490234 V 0 h -1.757813 v -4.9707031 h 1.757813 v 0.7128906 q 0.415039,-0.4443359 0.830078,-0.6201172 0.419922,-0.180664 0.932617,-0.180664 1.787109,0 1.787109,2.1386718 z m 5.752344,-2.0605469 H 37.45879 q 0.102539,0.4541016 0.50293,0.7421875 0.40039,0.288086 0.908203,0.288086 0.888672,0 1.96289,-0.4980469 v 1.08886717 q -0.385742,0.20019532 -0.9375,0.36621094 -0.546875,0.16113281 -1.396484,0.16113281 -0.917969,0 -1.5625,-0.34179687 -0.644531,-0.34179687 -0.966797,-0.92773435 -0.317383,-0.5859375 -0.317383,-1.328125 0,-0.7324219 0.317383,-1.3085938 0.322266,-0.5810547 0.966797,-0.9082031 0.644531,-0.3320312 1.5625,-0.3320312 0.605469,0 1.166992,0.2636718 0.566406,0.2587891 0.927734,0.8544922 0.366211,0.5908203 0.366211,1.5283203 z m -1.65039,-0.8691406 q 0,-0.4785156 -0.239258,-0.7617188 -0.234375,-0.2880859 -0.678711,-0.2880859 -0.439453,0 -0.712891,0.2929688 -0.268554,0.2880859 -0.268554,0.7568359 z m 6.001365,1.4794922 q 0,0.68359374 -0.502929,1.11328124 -0.498047,0.42480468 -1.484375,0.42480468 -0.551758,0 -0.981446,-0.09765625 -0.429687,-0.10253906 -0.9375,-0.28808593 V -1.5478516 q 0.444336,0.2539063 0.771485,0.3857422 0.327148,0.131836 0.717773,0.131836 0.65918,0 0.65918,-0.3613282 0,-0.1220703 -0.09766,-0.2148437 -0.09277,-0.097656 -0.332032,-0.2148438 -0.234375,-0.1220703 -0.629882,-0.2880859 -0.488282,-0.2148438 -0.830079,-0.5761719 -0.341796,-0.3613281 -0.341796,-0.883789 0,-0.3710938 0.224609,-0.7128907 0.229492,-0.3417968 0.688477,-0.5566406 0.458984,-0.2197265 1.108398,-0.2197265 0.15625,0 0.395508,0.024414 0.24414,0.019531 0.610351,0.1123047 0.371094,0.092773 0.703125,0.2636719 v 1.2158203 q -0.15625,-0.092774 -0.263672,-0.15625 -0.102539,-0.063477 -0.27832,-0.1416016 -0.175781,-0.078125 -0.415039,-0.1367187 -0.234375,-0.063477 -0.483398,-0.063477 -0.302735,0 -0.415039,0.1171875 -0.112305,0.1171875 -0.112305,0.234375 0,0.1220703 0.117187,0.2294922 0.117188,0.1025391 0.522461,0.2587891 0.585938,0.2246093 0.9375,0.4638671 0.351563,0.234375 0.498047,0.5175782 0.151367,0.2832031 0.151367,0.6689453 z m 4.43887,0 q 0,0.68359374 -0.50293,1.11328124 -0.498047,0.42480468 -1.484375,0.42480468 -0.551758,0 -0.981445,-0.09765625 -0.429688,-0.10253906 -0.9375,-0.28808593 V -1.5478516 q 0.444336,0.2539063 0.771484,0.3857422 0.327149,0.131836 0.717774,0.131836 0.659179,0 0.659179,-0.3613282 0,-0.1220703 -0.09766,-0.2148437 -0.09277,-0.097656 -0.332031,-0.2148438 -0.234375,-0.1220703 -0.629883,-0.2880859 -0.488281,-0.2148438 -0.830078,-0.5761719 -0.341797,-0.3613281 -0.341797,-0.883789 0,-0.3710938 0.224609,-0.7128907 0.229493,-0.3417968 0.688477,-0.5566406 0.458984,-0.2197265 1.108398,-0.2197265 0.15625,0 0.395508,0.024414 0.244141,0.019531 0.610352,0.1123047 0.371094,0.092773 0.703125,0.2636719 v 1.2158203 q -0.15625,-0.092774 -0.263672,-0.15625 -0.102539,-0.063477 -0.27832,-0.1416016 -0.175782,-0.078125 -0.415039,-0.1367187 -0.234375,-0.063477 -0.483399,-0.063477 -0.302734,0 -0.415039,0.1171875 -0.112305,0.1171875 -0.112305,0.234375 0,0.1220703 0.117188,0.2294922 0.117187,0.1025391 0.522461,0.2587891 0.585937,0.2246093 0.9375,0.4638671 0.351562,0.234375 0.498047,0.5175782 0.151367,0.2832031 0.151367,0.6689453 z"
       id="text24"
       style="font-weight:700;font-size:10px;font-family:GillSans-Bold, 'Gill Sans';letter-spacing:-0.04em"
       transform="matrix(0.88,0,0,1,15.48,192.94)"
       aria-label="Brightness" />
    <path
       d="M 7.3388672,-5.1220703 H 4.8583984 V 0 H 2.8222656 V -5.1220703 H 0.34179688 V -6.7675781 H 7.3388672 Z M 13.149805,0 h -1.757813 v -2.578125 q 0,-0.029297 0,-0.053711 0.0049,-0.029297 0.0049,-0.1171875 0,-0.3564454 -0.151367,-0.6542969 -0.151367,-0.2978516 -0.576172,-0.2978516 -0.332031,0 -0.585938,0.2246094 Q 9.8295091,-3.256836 9.6000169,-2.919922 V 0 H 7.8421874 v -6.7675781 h 1.7578125 v 2.5097656 q 0.4345701,-0.4638672 0.8593751,-0.6298828 0.424805,-0.1708984 0.90332,-0.1708984 1.78711,0 1.78711,2.0068359 z m 2.363671,-6.1181641 q 0,0.3076172 -0.219726,0.522461 -0.219727,0.2148437 -0.522461,0.2148437 -0.205078,0 -0.375977,-0.097656 -0.166015,-0.097656 -0.263672,-0.2636719 -0.09766,-0.1708984 -0.09766,-0.3759766 0,-0.3027343 0.214844,-0.5224609 0.214844,-0.2197266 0.522461,-0.2197266 0.302734,0 0.522461,0.2197266 0.219726,0.2197266 0.219726,0.5224609 z M 15.655078,0 h -1.762695 v -4.9707031 h 1.762695 z m 5.06875,-0.22949219 q -0.219726,0.0830078 -0.463867,0.15625 -0.24414,0.06835938 -0.551758,0.11230469 -0.302734,0.04882812 -0.664062,0.04882812 -0.81543,0 -1.381836,-0.27343749 Q 17.100781,-0.46386719 16.793164,-0.87890625 16.49043,-1.2988281 16.373242,-1.7333984 16.256055,-2.1679688 16.256055,-2.5 q 0,-0.3320313 0.117187,-0.7666016 0.122071,-0.4345703 0.419922,-0.8398437 0.297852,-0.4052734 0.859375,-0.6787109 0.566407,-0.2734375 1.391602,-0.2734375 0.551758,0 0.898437,0.078125 0.34668,0.078125 0.703125,0.2099609 v 1.3818359 q -0.859375,-0.2734375 -1.342773,-0.2734375 -0.46875,0 -0.834961,0.2832031 -0.361328,0.2832032 -0.361328,0.8789063 0,0.3955078 0.180664,0.6689453 0.180664,0.2685547 0.458984,0.3955078 0.278321,0.1269532 0.556641,0.1269532 0.263672,0 0.600586,-0.078125 0.336914,-0.078125 0.820312,-0.2246094 z M 27.086523,0 h -2.231445 l -1.90918,-2.3583984 V 0 h -1.777344 v -6.7675781 h 1.777344 v 3.9697265 l 1.743164,-2.1728515 h 2.109375 l -1.943359,2.3193359 z m 5.469141,0 h -1.757812 v -2.6806641 q 0,-0.4101562 -0.136719,-0.7128906 -0.131836,-0.3076172 -0.585938,-0.3076172 -0.214843,0 -0.380859,0.083008 -0.161133,0.078125 -0.292969,0.2050782 -0.126953,0.1269531 -0.214844,0.2441406 -0.08789,0.1171875 -0.180664,0.2490234 V 0 h -1.757812 v -4.9707031 h 1.757812 v 0.7128906 q 0.415039,-0.4443359 0.830078,-0.6201172 0.419922,-0.180664 0.932618,-0.180664 1.787109,0 1.787109,2.1386718 z m 5.752342,-2.0605469 H 34.80703 q 0.102539,0.4541016 0.502929,0.7421875 0.400391,0.288086 0.908204,0.288086 0.888671,0 1.96289,-0.4980469 v 1.08886717 q -0.385742,0.20019532 -0.9375,0.36621094 -0.546875,0.16113281 -1.396484,0.16113281 -0.917969,0 -1.5625,-0.34179687 -0.644531,-0.34179687 -0.966797,-0.92773435 -0.317383,-0.5859375 -0.317383,-1.328125 0,-0.7324219 0.317383,-1.3085938 0.322266,-0.5810547 0.966797,-0.9082031 0.644531,-0.3320312 1.5625,-0.3320312 0.605469,0 1.166992,0.2636718 0.566406,0.2587891 0.927734,0.8544922 0.366211,0.5908203 0.366211,1.5283203 z m -1.65039,-0.8691406 q 0,-0.4785156 -0.239258,-0.7617188 -0.234375,-0.2880859 -0.678711,-0.2880859 -0.439453,0 -0.712891,0.2929688 -0.268554,0.2880859 -0.268554,0.7568359 z m 6.001369,1.4794922 q 0,0.68359374 -0.50293,1.11328124 -0.498046,0.42480468 -1.484375,0.42480468 -0.551757,0 -0.981445,-0.09765625 -0.429687,-0.10253906 -0.9375,-0.28808593 V -1.5478516 q 0.444336,0.2539063 0.771485,0.3857422 0.327148,0.131836 0.717773,0.131836 0.65918,0 0.65918,-0.3613282 0,-0.1220703 -0.09766,-0.2148437 -0.09277,-0.097656 -0.332031,-0.2148438 -0.234375,-0.1220703 -0.629883,-0.2880859 -0.488281,-0.2148438 -0.830078,-0.5761719 -0.341797,-0.3613281 -0.341797,-0.883789 0,-0.3710938 0.22461,-0.7128907 0.229492,-0.3417968 0.688476,-0.5566406 0.458985,-0.2197265 1.108399,-0.2197265 0.15625,0 0.395508,0.024414 0.24414,0.019531 0.610351,0.1123047 0.371094,0.092773 0.703125,0.2636719 v 1.2158203 q -0.15625,-0.092774 -0.263672,-0.15625 -0.102539,-0.063477 -0.27832,-0.1416016 -0.175781,-0.078125 -0.415039,-0.1367187 -0.234375,-0.063477 -0.483399,-0.063477 -0.302734,0 -0.415039,0.1171875 -0.112304,0.1171875 -0.112304,0.234375 0,0.1220703 0.117187,0.2294922 0.117188,0.1025391 0.522461,0.2587891 0.585938,0.2246093 0.9375,0.4638671 0.351563,0.234375 0.498047,0.5175782 0.151367,0.2832031 0.151367,0.6689453 z m 4.438866,0 q 0,0.68359374 -0.50293,1.11328124 -0.498047,0.42480468 -1.484375,0.42480468 -0.551758,0 -0.981445,-0.09765625 -0.429688,-0.10253906 -0.9375,-0.28808593 V -1.5478516 q 0.444336,0.2539063 0.771484,0.3857422 0.327149,0.131836 0.717774,0.131836 0.659179,0 0.659179,-0.3613282 0,-0.1220703 -0.09766,-0.2148437 -0.09277,-0.097656 -0.332031,-0.2148438 -0.234375,-0.1220703 -0.629883,-0.2880859 -0.488281,-0.2148438 -0.830078,-0.5761719 -0.341797,-0.3613281 -0.341797,-0.883789 0,-0.3710938 0.224609,-0.7128907 0.229493,-0.3417968 0.688477,-0.5566406 0.458984,-0.2197265 1.108398,-0.2197265 0.15625,0 0.395508,0.024414 0.244141,0.019531 0.610352,0.1123047 0.371093,0.092773 0.703125,0.2636719 v 1.2158203 q -0.15625,-0.092774 -0.263672,-0.15625 -0.102539,-0.063477 -0.27832,-0.1416016 -0.175782,-0.078125 -0.41504,-0.1367187 -0.234375,-0.063477 -0.483398,-0.063477 -0.302734,0 -0.415039,0.1171875 -0.112305,0.1171875 -0.112305,0.234375 0,0.1220703 0.117188,0.2294922 0.117187,0.1025391 0.522461,0.2587891 0.585937,0.2246093 0.9375,0.4638671 0.351562,0.234375 0.498047,0.5175782 0.151367,0.2832031 0.151367,0.6689453 z"
       id="text25"
       style="font-weight:700;font-size:10px;font-family:GillSans-Bold, 'Gill Sans';letter-spacing:-0.04em"
       transform="matrix(0.88,0,0,1,85.38,192.94)"
       aria-label="Thickness" />
    <path
       d="M 6.9091797,-0.5078125 Q 6.4892578,-0.28808594 6.0498047,-0.15625 5.6103516,-0.02441406 5.1611328,0.02929688 4.7167969,0.08789062 4.2382812,0.08789062 q -0.883789,0 -1.586914,-0.24414062 Q 1.953125,-0.40039063 1.4355469,-0.87402344 0.92285156,-1.3525391 0.6640625,-1.9873047 0.41015625,-2.6269531 0.41015625,-3.3886719 q 0,-0.8740234 0.30273437,-1.5283203 0.30273438,-0.6591797 0.84472658,-1.09375 0.546875,-0.4345703 1.2402344,-0.6396484 0.6982422,-0.209961 1.4697265,-0.209961 1.1523438,0 2.6123047,0.5126954 v 1.796875 q -0.5029297,-0.3125 -0.9960937,-0.5175782 -0.4882813,-0.2099609 -1.1523438,-0.2099609 -0.5908203,0 -1.1035156,0.234375 -0.5126953,0.234375 -0.8251953,0.6689453 -0.3125,0.4345703 -0.3125,1.015625 0,0.5126953 0.2734375,0.9423828 0.2734375,0.4248047 0.7568359,0.678711 0.4882813,0.2490234 1.0986328,0.2490234 0.4931641,0 0.9326172,-0.1171875 Q 5.9912109,-1.7285156 6.2890625,-1.875 6.5917969,-2.0214844 6.9091797,-2.2216797 Z M 12.900781,0 h -1.757812 v -2.578125 q 0,-0.029297 0,-0.053711 0.0049,-0.029297 0.0049,-0.1171875 0,-0.3564454 -0.151367,-0.6542969 -0.151367,-0.2978516 -0.576172,-0.2978516 -0.332031,0 -0.5859371,0.2246094 Q 9.5804867,-3.256836 9.3509945,-2.919922 V 0 H 7.593164 v -6.7675781 h 1.7578125 v 2.5097656 q 0.4345703,-0.4638672 0.8593745,-0.6298828 0.424805,-0.1708984 0.903321,-0.1708984 1.787109,0 1.787109,2.0068359 z m 6.142969,-2.4902344 q 0,0.7421875 -0.322266,1.3232422 -0.322265,0.5810547 -0.966797,0.91796876 -0.639648,0.33691406 -1.5625,0.33691406 -0.922851,0 -1.567383,-0.33691406 -0.639648,-0.33691406 -0.961914,-0.91796876 -0.317382,-0.5810547 -0.317382,-1.3232422 0,-0.5615234 0.175781,-1.0205078 0.180664,-0.4589844 0.541992,-0.8105469 0.366211,-0.3564453 0.898438,-0.546875 0.532226,-0.1904296 1.230468,-0.1904296 0.703125,0 1.240235,0.1953125 0.541992,0.1904296 0.893554,0.5371093 0.356446,0.3466797 0.53711,0.8105469 0.180664,0.4638672 0.180664,1.0253906 z m -1.850586,0 q 0,-0.5908203 -0.258789,-0.9228515 Q 16.680469,-3.75 16.192187,-3.75 q -0.483398,0 -0.742187,0.3369141 -0.253906,0.3320312 -0.253906,0.9228515 0,0.5859375 0.258789,0.9277344 0.258789,0.3417969 0.737304,0.3417969 0.488282,0 0.742188,-0.3369141 0.258789,-0.3417969 0.258789,-0.9326172 z M 25.465038,0 h -2.231445 l -1.90918,-2.3583984 V 0 H 19.54707 v -6.7675781 h 1.777343 v 3.9697265 l 1.743164,-2.1728515 h 2.109375 l -1.943359,2.3193359 z m 4.829493,-2.0605469 h -3.500977 q 0.102539,0.4541016 0.50293,0.7421875 0.400391,0.288086 0.908203,0.288086 0.888672,0 1.962891,-0.4980469 v 1.08886717 q -0.385742,0.20019532 -0.9375,0.36621094 -0.546875,0.16113281 -1.396485,0.16113281 -0.917968,0 -1.5625,-0.34179687 -0.644531,-0.34179687 -0.966797,-0.92773435 -0.317382,-0.5859375 -0.317382,-1.328125 0,-0.7324219 0.317382,-1.3085938 0.322266,-0.5810547 0.966797,-0.9082031 0.644532,-0.3320312 1.5625,-0.3320312 0.605469,0 1.166993,0.2636718 0.566406,0.2587891 0.927734,0.8544922 0.366211,0.5908203 0.366211,1.5283203 z M 28.64414,-2.9296875 q 0,-0.4785156 -0.239258,-0.7617188 -0.234375,-0.2880859 -0.678711,-0.2880859 -0.439453,0 -0.71289,0.2929688 -0.268555,0.2880859 -0.268555,0.7568359 z"
       id="text26"
       style="font-weight:700;font-size:10px;font-family:GillSans-Bold, 'Gill Sans';letter-spacing:-0.04em"
       transform="matrix(0.88,0,0,1,58.35,127.39)"
       aria-label="Choke" />
    <path
       d="M 5.5273437,-0.40625 Q 5.1914062,-0.23046875 4.8398437,-0.125 4.4882812,-0.01953125 4.1289062,0.0234375 3.7734375,0.0703125 3.390625,0.0703125 2.6835938,0.0703125 2.1210938,-0.125 1.5625,-0.3203125 1.1484375,-0.69921875 0.73828125,-1.0820312 0.53125,-1.5898437 0.328125,-2.1015625 0.328125,-2.7109375 q 0,-0.6992188 0.2421875,-1.2226563 0.2421875,-0.5273437 0.6757812,-0.8749999 0.4375,-0.3476563 0.9921876,-0.5117188 0.5585937,-0.1679687 1.1757812,-0.1679687 0.921875,0 2.0898437,0.4101562 v 1.4375 q -0.4023437,-0.25 -0.796875,-0.4140625 -0.390625,-0.1679687 -0.9218749,-0.1679687 -0.4726563,0 -0.8828125,0.1875 Q 2.4921875,-3.8476563 2.2421875,-3.5 q -0.25,0.3476562 -0.25,0.8125 0,0.4101562 0.21875,0.7539063 0.21875,0.3398437 0.6054688,0.5429687 0.390625,0.1992188 0.8789062,0.1992188 0.3945312,0 0.7460937,-0.09375 Q 4.7929687,-1.3828125 5.03125,-1.5 5.2734375,-1.6171875 5.5273437,-1.7773437 Z M 12.34375,0 H 10.714844 V -2.1132813 H 8.2578125 V 0 H 6.625 v -5.4140625 h 1.6328125 v 1.9882812 h 2.4570315 v -1.9882812 h 1.628906 z m 2.648438,-0.76953125 q 0,0.3515625 -0.242188,0.59765625 -0.238281,0.2421875 -0.589844,0.2421875 -0.347656,0 -0.597656,-0.24609375 -0.25,-0.24609375 -0.25,-0.59375 0,-0.35156245 0.25,-0.59374995 0.25,-0.2460938 0.597656,-0.2460938 0.21875,0 0.414063,0.1132813 0.199219,0.1132812 0.308594,0.3046875 Q 14.992188,-1 14.992188,-0.76953125 Z M 23.515625,-4.0976562 H 21.53125 V 0 h -1.628906 v -4.0976562 h -1.984375 v -1.3164063 h 5.597656 z m 3.988281,0.3359374 -0.519531,1.4101563 Q 26.664062,-2.65625 26.335937,-2.65625 q -0.296875,0 -0.515625,0.203125 -0.214843,0.1992187 -0.414062,0.7421875 V 0 H 24 v -3.9765625 h 1.40625 v 0.9609375 q 0.132812,-0.3554688 0.46875,-0.6914063 0.335937,-0.3398437 0.789062,-0.3398437 0.238282,0 0.414063,0.070312 0.179687,0.070312 0.425781,0.2148442 z m 1.472656,-1.1328124 q 0,0.2460937 -0.175781,0.4179687 -0.175781,0.171875 -0.417969,0.171875 -0.164062,0 -0.300781,-0.078125 -0.132812,-0.078125 -0.210937,-0.2109375 -0.07813,-0.1367187 -0.07813,-0.3007812 0,-0.2421875 0.171875,-0.4179688 0.171875,-0.1757812 0.417968,-0.1757812 0.242188,0 0.417969,0.1757812 0.175781,0.1757813 0.175781,0.4179688 z M 29.089844,0 h -1.410157 v -3.9765625 h 1.410157 z m 4.96875,-3.1289063 h -0.695313 q 0.367188,0.3203125 0.367188,0.7851563 0,0.2460937 -0.105469,0.4726563 -0.101563,0.2265625 -0.304688,0.4023437 -0.199218,0.1757813 -0.496093,0.2890625 -0.292969,0.109375 -0.671875,0.1328125 -0.488282,0.019531 -0.488282,0.26171875 0,0.09375 0.0625,0.13671875 0.0625,0.0429687 0.195313,0.0664063 0.136719,0.0195313 0.457031,0.046875 0.363281,0.03125 0.675781,0.109375 0.3125,0.078125 0.582032,0.328125 0.269531,0.25 0.269531,0.71484375 0,0.37109375 -0.203125,0.65625005 -0.199219,0.2851562 -0.648438,0.4453125 -0.449218,0.1601562 -1.1875,0.1601562 -1.0625,0 -1.5625,-0.2851562 -0.496093,-0.2851563 -0.496093,-0.7617188 0,-0.12890625 0.0625,-0.296875 Q 29.9375,0.3671875 30.144531,0.2109375 30.355469,0.0546875 30.753906,0 30.613281,-0.05078125 30.511719,-0.1953125 30.410156,-0.34375 30.410156,-0.50390625 q 0,-0.20703125 0.140625,-0.41015625 0.144531,-0.203125 0.464844,-0.2617187 -0.445313,-0.1171875 -0.769531,-0.4414063 -0.324219,-0.3242187 -0.324219,-0.8398438 0,-0.390625 0.148437,-0.6835937 0.152344,-0.2929688 0.417969,-0.4765625 0.265625,-0.1835938 0.617188,-0.2695313 0.351562,-0.089844 0.769531,-0.089844 h 2.183594 z m -1.554688,0.671875 q 0,-0.3007812 -0.207031,-0.4804687 -0.203125,-0.1835938 -0.457031,-0.1835938 -0.324219,0 -0.511719,0.21875 -0.183594,0.21875 -0.183594,0.4609375 0,0.1679688 0.07813,0.3125 0.08203,0.1445313 0.226563,0.2343751 0.148437,0.085937 0.351562,0.085937 0.304688,0 0.503906,-0.1914063 0.199219,-0.1914063 0.199219,-0.4570313 z m 0.28125,3.1992188 q 0,-0.26171875 -0.28125,-0.33984375 -0.277344,-0.0742188 -0.574219,-0.0742188 -0.488281,0 -0.707031,0.1015625 -0.214844,0.10546875 -0.214844,0.33203125 0,0.4453124 0.898438,0.4453124 0.402344,0 0.640625,-0.1171875 0.238281,-0.11328115 0.238281,-0.3476561 z"
       id="text27"
       style="font-weight:700;font-size:8px;font-family:GillSans-Bold, 'Gill Sans'"
       transform="matrix(0.82,0,0,1,16.16,253.77)"
       aria-label="CH. Trig" />
    <path
       d="m 5.3671875,-3.7109375 q 0,0.3007812 -0.1054688,0.5898437 -0.1015625,0.2851563 -0.3320312,0.5351563 -0.2304688,0.2460937 -0.625,0.4023437 Q 3.9140625,-2.03125 3.3828125,-2.03125 H 2.3125 V 0 H 0.6796875 v -5.4140625 h 2.703125 q 0.53125,0 0.921875,0.15625 0.3945312,0.15625 0.625,0.40625 0.2304687,0.25 0.3320312,0.5429688 0.1054688,0.2929687 0.1054688,0.5976562 z m -1.6640625,0.00781 q 0,-0.3867187 -0.2304687,-0.5273437 Q 3.2460938,-4.375 2.65625,-4.375 H 2.3125 v 1.3046875 h 0.3515625 q 0.40625,0 0.625,-0.050781 0.21875,-0.050781 0.3164063,-0.1875 0.097656,-0.1367187 0.097656,-0.3945312 z m 3.7070312,-1.1914062 q 0,0.2460937 -0.1757812,0.4179687 -0.1757813,0.171875 -0.4179688,0.171875 -0.1640625,0 -0.3007812,-0.078125 -0.1328125,-0.078125 -0.2109375,-0.2109375 -0.078125,-0.1367187 -0.078125,-0.3007812 0,-0.2421875 0.171875,-0.4179688 0.171875,-0.1757812 0.4179687,-0.1757812 0.2421875,0 0.4179688,0.1757812 0.1757812,0.1757813 0.1757812,0.4179688 z M 7.5234375,0 H 6.1132812 v -3.9765625 h 1.4101563 z m 4.1054685,-0.23046875 q -0.21875,0.10546875 -0.605468,0.203125 -0.382813,0.09765625 -0.734375,0.09765625 -1.5195317,0 -1.5195317,-1.484375 V -3 H 8.1328125 v -0.2460938 l 1.8867185,-1.9218749 h 0.160157 v 1.1914062 h 1.34375 V -3 h -1.34375 v 1.2734375 q 0,0.2226563 0.02734,0.359375 0.02734,0.1367188 0.152344,0.2304688 0.128906,0.089844 0.386719,0.089844 0.335937,0 0.882812,-0.28125 z m 4.023438,0.046875 q -0.175781,0.0664063 -0.371094,0.125 -0.195312,0.0546875 -0.441406,0.08984375 -0.242188,0.0390625 -0.53125,0.0390625 -0.652344,0 -1.105469,-0.21875 Q 12.753906,-0.37109375 12.507813,-0.703125 12.265625,-1.0390625 12.171875,-1.3867187 12.078125,-1.734375 12.078125,-2 q 0,-0.265625 0.09375,-0.6132813 0.09766,-0.3476562 0.335938,-0.671875 0.238281,-0.3242187 0.6875,-0.5429687 0.453125,-0.21875 1.113281,-0.21875 0.441406,0 0.71875,0.0625 0.277344,0.0625 0.5625,0.1679687 v 1.1054688 q -0.6875,-0.21875 -1.074219,-0.21875 -0.375,0 -0.667969,0.2265625 Q 13.558594,-2.4765625 13.558594,-2 q 0,0.3164063 0.144531,0.5351563 0.144531,0.2148437 0.367188,0.3164062 0.222656,0.1015625 0.445312,0.1015625 0.210938,0 0.480469,-0.0625 0.269531,-0.0625 0.65625,-0.1796875 z M 20.582031,0 h -1.40625 v -2.0625 q 0,-0.023437 0,-0.042969 0.0039,-0.023437 0.0039,-0.09375 0,-0.2851562 -0.121093,-0.5234375 -0.121094,-0.2382812 -0.460938,-0.2382812 -0.265625,0 -0.46875,0.1796875 -0.203125,0.1757812 -0.386719,0.4453125 V 0 h -1.40625 v -5.4140625 h 1.40625 V -3.40625 q 0.347657,-0.3710938 0.6875,-0.5039063 0.339844,-0.1367187 0.722657,-0.1367187 1.429687,0 1.429687,1.6054687 z"
       id="text28"
       style="font-weight:700;font-size:8px;font-family:GillSans-Bold, 'Gill Sans'"
       transform="matrix(0.82,0,0,1,62.97,253.6)"
       aria-label="Pitch" />
    <path
       d="m 6.4726562,-2.7109375 q 0,0.7578125 -0.3515625,1.3945313 -0.3476562,0.6367187 -1.0390625,1.0117187 -0.6914062,0.375 -1.6835937,0.375 -1.0039062,0 -1.6992188,-0.390625 Q 1.0039062,-0.7109375 0.6640625,-1.3476562 0.328125,-1.984375 0.328125,-2.7109375 q 0,-0.7304688 0.3359375,-1.3632812 Q 1,-4.7109375 1.6953125,-5.0976562 q 0.6992188,-0.390625 1.703125,-0.390625 0.75,0 1.3359375,0.2226562 0.5898437,0.2226563 0.96875,0.6054688 0.3789062,0.3789062 0.5742187,0.8867187 0.1953125,0.5039062 0.1953125,1.0625 z m -1.6640625,0 q 0,-0.3046875 -0.089844,-0.5546875 -0.089844,-0.2539063 -0.2734375,-0.4375 -0.1796875,-0.1875 -0.4414063,-0.2890625 -0.2617187,-0.1054687 -0.6054687,-0.1054687 -0.65625,0 -1.03125,0.3828124 -0.375,0.3828125 -0.375,1.0039063 0,0.6210937 0.375,1.0078125 0.3789063,0.3828125 1.03125,0.3828125 0.4492188,0 0.765625,-0.1757812 0.3164062,-0.1796875 0.4804687,-0.4921875 0.1640625,-0.3164063 0.1640628,-0.7226563 z M 13.207031,0 H 11.578125 V -2.1132813 H 9.1210938 V 0 H 7.4882812 v -5.4140625 h 1.6328126 v 1.9882812 h 2.4570312 v -1.9882812 h 1.628906 z m 2.648438,-0.76953125 q 0,0.3515625 -0.242188,0.59765625 -0.238281,0.2421875 -0.589843,0.2421875 -0.347657,0 -0.597657,-0.24609375 -0.25,-0.24609375 -0.25,-0.59375 0,-0.35156245 0.25,-0.59374995 0.25,-0.2460938 0.597657,-0.2460938 0.21875,0 0.414062,0.1132813 0.199219,0.1132812 0.308594,0.3046875 Q 15.855469,-1 15.855469,-0.76953125 Z M 24.378906,-4.0976562 H 22.394531 V 0 H 20.765625 V -4.0976562 H 18.78125 v -1.3164063 h 5.597656 z m 3.988281,0.3359374 -0.519531,1.4101563 Q 27.527344,-2.65625 27.199219,-2.65625 q -0.296875,0 -0.515625,0.203125 -0.214844,0.1992187 -0.414063,0.7421875 V 0 h -1.40625 v -3.9765625 h 1.40625 v 0.9609375 q 0.132813,-0.3554688 0.46875,-0.6914063 0.335938,-0.3398437 0.789063,-0.3398437 0.238281,0 0.414062,0.070312 0.179688,0.070312 0.425781,0.2148442 z m 1.472657,-1.1328124 q 0,0.2460937 -0.175782,0.4179687 -0.175781,0.171875 -0.417968,0.171875 -0.164063,0 -0.300782,-0.078125 -0.132812,-0.078125 -0.210937,-0.2109375 -0.07813,-0.1367187 -0.07813,-0.3007812 0,-0.2421875 0.171875,-0.4179688 0.17188,-0.1757812 0.417974,-0.1757812 0.242187,0 0.417968,0.1757812 0.175782,0.1757813 0.175782,0.4179688 z M 29.953125,0 h -1.410156 v -3.9765625 h 1.410156 z m 4.96875,-3.1289063 h -0.695313 q 0.367188,0.3203125 0.367188,0.7851563 0,0.2460937 -0.105469,0.4726563 -0.101562,0.2265625 -0.304687,0.4023437 -0.199219,0.1757813 -0.496094,0.2890625 -0.292969,0.109375 -0.671875,0.1328125 -0.488281,0.019531 -0.488281,0.26171875 0,0.09375 0.0625,0.13671875 0.0625,0.0429687 0.195312,0.0664063 0.136719,0.0195313 0.457031,0.046875 0.363282,0.03125 0.675782,0.109375 0.3125,0.078125 0.582031,0.328125 0.269531,0.25 0.269531,0.71484375 0,0.37109375 -0.203125,0.65625005 -0.199219,0.2851562 -0.648437,0.4453125 -0.449219,0.1601562 -1.1875,0.1601562 -1.0625,0 -1.5625,-0.2851562 -0.496094,-0.2851563 -0.496094,-0.7617188 0,-0.12890625 0.0625,-0.296875 0.06641,-0.1679688 0.273437,-0.3242188 Q 31.21875,0.0546875 31.617187,0 31.476562,-0.05078125 31.375,-0.1953125 31.273437,-0.34375 31.273437,-0.50390625 q 0,-0.20703125 0.140625,-0.41015625 0.144532,-0.203125 0.464844,-0.2617187 -0.445312,-0.1171875 -0.769531,-0.4414063 -0.324219,-0.3242187 -0.324219,-0.8398438 0,-0.390625 0.148438,-0.6835937 0.152343,-0.2929688 0.417968,-0.4765625 0.265625,-0.1835938 0.617188,-0.2695313 0.351562,-0.089844 0.769531,-0.089844 h 2.183594 z m -1.554688,0.671875 q 0,-0.3007812 -0.207031,-0.4804687 -0.203125,-0.1835938 -0.457031,-0.1835938 -0.324219,0 -0.511719,0.21875 -0.183594,0.21875 -0.183594,0.4609375 0,0.1679688 0.07813,0.3125 0.08203,0.1445313 0.226563,0.2343751 0.148437,0.085937 0.351562,0.085937 0.304688,0 0.503907,-0.1914063 0.199218,-0.1914063 0.199218,-0.4570313 z m 0.28125,3.1992188 q 0,-0.26171875 -0.28125,-0.33984375 -0.277343,-0.0742188 -0.574218,-0.0742188 -0.488282,0 -0.707032,0.1015625 -0.214843,0.10546875 -0.214843,0.33203125 0,0.4453124 0.898437,0.4453124 0.402344,0 0.640625,-0.1171875 0.238281,-0.11328115 0.238281,-0.3476561 z"
       id="text29"
       style="font-weight:700;font-size:8px;font-family:GillSans-Bold, 'Gill Sans'"
       transform="matrix(0.82,0,0,1,99.04,253.77)"
       aria-label="OH. Trig" />
    <path
       d="m 6.2460937,-2.609375 q 0,0.8320313 -0.3046875,1.3359375 Q 5.640625,-0.76953125 5.2304687,-0.45703125 4.6484375,0 3.6015625,0 h -2.921875 v -5.4140625 h 2.25 q 0.5078125,0 0.8671875,0.054687 0.3632812,0.050781 0.6523437,0.1484375 0.2890625,0.09375 0.4921875,0.2148438 0.203125,0.1171875 0.3632813,0.2539062 0.2773437,0.2265625 0.484375,0.5351563 Q 6,-3.8984375 6.1210937,-3.4921875 q 0.125,0.40625 0.125,0.8828125 z M 4.5859375,-2.679687 q 0,-0.6601563 -0.2539063,-1.0273438 -0.25,-0.3710937 -0.6054687,-0.4960937 -0.3515625,-0.125 -0.71875,-0.125 H 2.3125 v 3.2070313 h 0.6953125 q 0.640625,0 1.109375,-0.3046875 0.46875,-0.3046875 0.46875,-1.2539063 z m 6.5156255,1.03125 H 8.3007813 q 0.082031,0.3632813 0.4023437,0.59375 0.3203125,0.23046875 0.7265625,0.23046875 0.7109375,0 1.5703125,-0.39843745 V -0.351562 Q 10.691406,-0.19140575 10.25,-0.05859325 9.8125,0.070313 9.1328125,0.070313 q -0.734375,0 -1.25,-0.2734375 -0.515625,-0.2734375 -0.7734375,-0.7421875 -0.2539063,-0.46875 -0.2539063,-1.0625 0,-0.5859375 0.2539063,-1.046875 0.2578125,-0.4648438 0.7734375,-0.7265625 0.515625,-0.265625 1.25,-0.265625 0.484375,0 0.9335935,0.2109375 0.453125,0.2070312 0.742188,0.6835937 0.292969,0.4726563 0.292969,1.2226563 z M 9.78125,-2.34375 q 0,-0.3828125 -0.1914062,-0.609375 -0.1875,-0.2304688 -0.5429688,-0.2304688 -0.3515625,0 -0.5703125,0.234375 Q 8.2617188,-2.71875 8.2617188,-2.34375 Z m 5.417969,2.16015625 q -0.175781,0.0664063 -0.371094,0.125 -0.195312,0.0546875 -0.441406,0.08984375 -0.242188,0.0390625 -0.53125,0.0390625 -0.652344,0 -1.105469,-0.21875 Q 12.300781,-0.37109375 12.054688,-0.703125 11.8125,-1.0390625 11.71875,-1.3867187 11.625,-1.734375 11.625,-2 q 0,-0.265625 0.09375,-0.6132813 0.09766,-0.3476562 0.335938,-0.671875 0.238281,-0.3242187 0.6875,-0.5429687 0.453125,-0.21875 1.113281,-0.21875 0.441406,0 0.71875,0.0625 0.277344,0.0625 0.5625,0.1679687 v 1.1054688 q -0.6875,-0.21875 -1.074219,-0.21875 -0.375,0 -0.667969,0.2265625 Q 13.105469,-2.4765625 13.105469,-2 q 0,0.3164063 0.144531,0.5351563 0.144531,0.2148437 0.367188,0.3164062 0.222656,0.1015625 0.445312,0.1015625 0.210938,0 0.480469,-0.0625 0.269531,-0.0625 0.65625,-0.1796875 z m 4.808593,-0.015625 Q 19.699219,-0.078125 19.4375,-0.00390625 19.175781,0.0703125 18.808594,0.0703125 q -0.347657,0 -0.484375,-0.12109375 -0.136719,-0.125 -0.195313,-0.30078125 -0.226562,0.18359375 -0.503906,0.3046875 -0.277344,0.1171875 -0.726563,0.1171875 -0.433593,0 -0.703125,-0.1484375 Q 15.929688,-0.23046875 15.820313,-0.45703125 15.714844,-0.6875 15.714844,-0.9296875 q 0,-0.3671875 0.183594,-0.6054687 0.187499,-0.2421875 0.499999,-0.3945313 0.3125,-0.1523438 0.828125,-0.3164063 0.292969,-0.09375 0.441407,-0.140625 0.152343,-0.050781 0.226562,-0.078125 0.07422,-0.027344 0.15625,-0.070312 0,-0.2890625 -0.117187,-0.453125 -0.117188,-0.1640625 -0.507813,-0.1640625 -0.460937,0 -0.855469,0.203125 -0.394531,0.203125 -0.722656,0.5234375 v -1.078125 q 0.261719,-0.1875 0.566406,-0.3046875 0.304688,-0.1210937 0.636719,-0.1796875 0.332031,-0.058594 0.671875,-0.058594 0.863281,0 1.296875,0.3359375 0.4375,0.3320312 0.4375,0.9179687 v 1.5351563 q 0,0.21875 0.03906,0.328125 0.04297,0.10546875 0.152343,0.10546875 0.132813,0 0.359375,-0.11328125 z M 18.050781,-0.9609375 v -0.9414062 q -0.5,0.203125 -0.730469,0.3671875 -0.230468,0.1601562 -0.230468,0.4375 0,0.1992187 0.113281,0.30468745 0.117187,0.10546875 0.269531,0.10546875 0.144531,0 0.285156,-0.078125 0.144532,-0.0820313 0.292969,-0.1953125 z m 6.660156,-3.015625 -2.703125,5.7851562 h -1.421875 l 1.09375,-2.32812495 -1.574218,-3.45703125 h 1.511718 L 22.425781,-2 23.34375,-3.9765625 Z"
       id="text30"
       style="font-weight:700;font-size:8px;font-family:GillSans-Bold, 'Gill Sans'"
       transform="matrix(0.82,0,0,1,19.26,294.69)"
       aria-label="Decay" />
    <path
       d="m 5.625,-1.5351562 q 0,0.6992187 -0.4804688,1.11718745 Q 4.6679687,0 3.8085938,0 H 0.6796875 V -5.4140625 H 3.296875 q 0.5078125,0 0.8828125,0.097656 0.3789062,0.097656 0.609375,0.2695312 0.2304687,0.1679688 0.34375,0.3984375 0.1132812,0.2304688 0.1132812,0.5039063 0,0.2968749 -0.1171875,0.5507812 -0.1171875,0.25 -0.2929687,0.4140625 -0.171875,0.1601562 -0.3476563,0.2265625 0.5546875,0.21875 0.84375,0.5546875 Q 5.625,-2.0664063 5.625,-1.5351562 Z M 3.71875,-3.8554688 Q 3.71875,-4.2460937 3.4609375,-4.375 3.203125,-4.5039062 2.65625,-4.5039062 H 2.3125 v 1.2968749 h 0.3515625 q 0.5585938,0 0.8046875,-0.1289062 0.25,-0.1289063 0.25,-0.5195313 z m 0.265625,2.2539063 q 0,-0.6953125 -1.0078125,-0.6953125 H 2.3125 v 1.38671875 h 0.6640625 q 1.0078125,0 1.0078125,-0.69140625 z M 9.9375,-3.7617188 9.4179688,-2.3515625 Q 9.0976563,-2.65625 8.7695313,-2.65625 q -0.296875,0 -0.515625,0.203125 -0.2148438,0.1992187 -0.4140626,0.7421875 V 0 h -1.40625 v -3.9765625 h 1.40625 v 0.9609375 q 0.1328125,-0.3554688 0.4687501,-0.6914063 0.3359375,-0.3398437 0.7890625,-0.3398437 0.2382812,0 0.4140625,0.070312 0.1796875,0.070312 0.4257812,0.2148442 z m 1.472656,-1.1328124 q 0,0.2460937 -0.175781,0.4179687 -0.175781,0.171875 -0.417969,0.171875 -0.164062,0 -0.300781,-0.078125 -0.132812,-0.078125 -0.210937,-0.2109375 -0.07813,-0.1367187 -0.07813,-0.3007812 0,-0.2421875 0.171875,-0.4179688 0.171875,-0.1757812 0.417968,-0.1757812 0.242188,0 0.417969,0.1757812 0.175781,0.1757813 0.175781,0.4179688 z M 11.523438,0 h -1.410157 v -3.9765625 h 1.410157 z m 4.968749,-3.1289063 h -0.695312 q 0.367187,0.3203125 0.367187,0.7851563 0,0.2460937 -0.105468,0.4726563 -0.101563,0.2265625 -0.304688,0.4023437 -0.199218,0.1757813 -0.496093,0.2890625 -0.292969,0.109375 -0.671875,0.1328125 -0.488282,0.019531 -0.488282,0.26171875 0,0.09375 0.0625,0.13671875 0.0625,0.0429687 0.195313,0.0664063 0.136719,0.0195313 0.457031,0.046875 0.363281,0.03125 0.675781,0.109375 0.3125,0.078125 0.582031,0.328125 0.269532,0.25 0.269532,0.71484375 0,0.37109375 -0.203125,0.65625005 -0.199219,0.2851562 -0.648438,0.4453125 -0.449218,0.1601562 -1.1875,0.1601562 -1.0625,0 -1.5625,-0.2851562 -0.496093,-0.2851563 -0.496093,-0.7617188 0,-0.12890625 0.0625,-0.296875 0.06641,-0.1679688 0.273437,-0.3242188 Q 12.789063,0.0546875 13.1875,0 13.046875,-0.05078125 12.945313,-0.1953125 12.84375,-0.34375 12.84375,-0.50390625 q 0,-0.20703125 0.140625,-0.41015625 0.144531,-0.203125 0.464844,-0.2617187 -0.445313,-0.1171875 -0.769531,-0.4414063 -0.324219,-0.3242187 -0.324219,-0.8398438 0,-0.390625 0.148437,-0.6835937 0.152344,-0.2929688 0.417969,-0.4765625 0.265625,-0.1835938 0.617188,-0.2695313 0.351562,-0.089844 0.769531,-0.089844 h 2.183593 z m -1.554687,0.671875 q 0,-0.3007812 -0.207031,-0.4804687 -0.203125,-0.1835938 -0.457031,-0.1835938 -0.324219,0 -0.511719,0.21875 -0.183594,0.21875 -0.183594,0.4609375 0,0.1679688 0.07813,0.3125 0.08203,0.1445313 0.226563,0.2343751 0.148437,0.085937 0.351562,0.085937 0.304688,0 0.503906,-0.1914063 0.199219,-0.1914063 0.199219,-0.4570313 z m 0.28125,3.1992188 q 0,-0.26171875 -0.28125,-0.33984375 -0.277344,-0.0742188 -0.574219,-0.0742188 -0.488281,0 -0.707031,0.1015625 -0.214844,0.10546875 -0.214844,0.33203125 0,0.4453124 0.898438,0.4453124 0.402344,0 0.640625,-0.1171875 Q 15.21875,0.9765625 15.21875,0.7421875 Z M 21.242187,0 h -1.40625 v -2.0625 q 0,-0.023437 0,-0.042969 0.0039,-0.023437 0.0039,-0.09375 0,-0.2851562 -0.121094,-0.5234375 -0.121094,-0.2382812 -0.460938,-0.2382812 -0.265625,0 -0.46875,0.1796875 -0.203125,0.1757812 -0.386718,0.4453125 V 0 h -1.40625 v -5.4140625 h 1.40625 V -3.40625 q 0.347656,-0.3710938 0.6875,-0.5039063 0.339843,-0.1367187 0.722656,-0.1367187 1.429687,0 1.429687,1.6054687 z m 3.980469,-0.23046875 q -0.21875,0.10546875 -0.605469,0.203125 -0.382812,0.09765625 -0.734375,0.09765625 -1.519531,0 -1.519531,-1.484375 V -3 h -0.636719 v -0.2460938 l 1.886719,-1.9218749 h 0.160156 v 1.1914062 h 1.34375 V -3 h -1.34375 v 1.2734375 q 0,0.2226563 0.02734,0.359375 0.02734,0.1367188 0.152344,0.2304688 0.128906,0.089844 0.386719,0.089844 0.335937,0 0.882812,-0.28125 z M 30.085937,0 h -1.40625 v -2.1445313 q 0,-0.328125 -0.109375,-0.5703125 -0.105468,-0.2460937 -0.46875,-0.2460937 -0.171875,0 -0.304687,0.066406 -0.128906,0.0625 -0.234375,0.1640625 -0.101563,0.1015625 -0.171875,0.1953125 -0.07031,0.09375 -0.144531,0.1992188 V 0 h -1.40625 v -3.9765625 h 1.40625 V -3.40625 q 0.332031,-0.3554688 0.664062,-0.4960938 0.335938,-0.1445312 0.746094,-0.1445312 1.429687,0 1.429687,1.7109375 z m 4.921875,-1.6484375 h -2.800781 q 0.08203,0.3632813 0.402344,0.59375 0.320312,0.23046875 0.726562,0.23046875 0.710938,0 1.570313,-0.39843745 v 0.8710937 q -0.308594,0.16015625 -0.75,0.29296875 -0.4375,0.12890625 -1.117188,0.12890625 -0.734375,0 -1.25,-0.2734375 -0.515625,-0.2734375 -0.773437,-0.7421875 -0.253906,-0.46875 -0.253906,-1.0625 0,-0.5859375 0.253906,-1.046875 0.257812,-0.4648438 0.773437,-0.7265625 0.515625,-0.265625 1.25,-0.265625 0.484375,0 0.933594,0.2109375 0.453125,0.2070312 0.742188,0.6835937 0.292968,0.4726563 0.292968,1.2226563 z M 33.6875,-2.34375 q 0,-0.3828125 -0.191406,-0.609375 -0.1875,-0.2304688 -0.542969,-0.2304688 -0.351563,0 -0.570313,0.234375 -0.214843,0.2304688 -0.214843,0.6054688 z m 5.121094,1.1835938 q 0,0.54687495 -0.402344,0.89062495 -0.398438,0.33984375 -1.1875,0.33984375 -0.441406,0 -0.785156,-0.078125 -0.34375,-0.08203125 -0.75,-0.23046875 V -1.2382812 q 0.355468,0.203125 0.617187,0.3085937 0.261719,0.10546875 0.574219,0.10546875 0.527344,0 0.527344,-0.28906245 0,-0.097656 -0.07813,-0.171875 -0.07422,-0.078125 -0.265625,-0.171875 -0.1875,-0.097656 -0.503907,-0.2304688 -0.390625,-0.171875 -0.664062,-0.4609375 -0.273438,-0.2890625 -0.273438,-0.7070313 0,-0.296875 0.179688,-0.5703125 0.183594,-0.2734375 0.550781,-0.4453125 0.367188,-0.1757812 0.886719,-0.1757812 0.125,0 0.316406,0.019531 0.195313,0.015625 0.488281,0.089844 0.296875,0.074219 0.5625,0.2109375 v 0.9726562 q -0.125,-0.074219 -0.210937,-0.125 -0.08203,-0.050781 -0.222656,-0.1132812 -0.140625,-0.0625 -0.332032,-0.109375 -0.1875,-0.050781 -0.386718,-0.050781 -0.242188,0 -0.332032,0.09375 -0.08984,0.09375 -0.08984,0.1875 0,0.097656 0.09375,0.1835938 0.09375,0.082031 0.417968,0.2070312 0.46875,0.1796875 0.75,0.3710938 0.28125,0.1875 0.398438,0.4140625 0.121094,0.2265625 0.121094,0.5351563 z m 3.871093,0 q 0,0.54687495 -0.402343,0.89062495 -0.398438,0.33984375 -1.1875,0.33984375 -0.441407,0 -0.785157,-0.078125 -0.34375,-0.08203125 -0.75,-0.23046875 V -1.2382812 q 0.355469,0.203125 0.617188,0.3085937 0.261719,0.10546875 0.574219,0.10546875 0.527343,0 0.527343,-0.28906245 0,-0.097656 -0.07813,-0.171875 -0.07422,-0.078125 -0.265625,-0.171875 -0.1875,-0.097656 -0.503906,-0.2304688 -0.390625,-0.171875 -0.664062,-0.4609375 -0.273438,-0.2890625 -0.273438,-0.7070313 0,-0.296875 0.179688,-0.5703125 0.183593,-0.2734375 0.550781,-0.4453125 0.367187,-0.1757812 0.886719,-0.1757812 0.125,0 0.316406,0.019531 0.195312,0.015625 0.488281,0.089844 0.296875,0.074219 0.5625,0.2109375 v 0.9726562 q -0.125,-0.074219 -0.210937,-0.125 -0.08203,-0.050781 -0.222657,-0.1132812 -0.140625,-0.0625 -0.332031,-0.109375 -0.1875,-0.050781 -0.386719,-0.050781 -0.242187,0 -0.332031,0.09375 -0.08984,0.09375 -0.08984,0.1875 0,0.097656 0.09375,0.1835938 0.09375,0.082031 0.417969,0.2070312 0.46875,0.1796875 0.75,0.3710938 0.28125,0.1875 0.398438,0.4140625 0.121093,0.2265625 0.121093,0.5351563 z"
       id="text31"
       style="font-weight:700;font-size:8px;font-family:GillSans-Bold, 'Gill Sans'"
       transform="matrix(0.82,0,0,1,53.8,294.69)"
       aria-label="Brightness" />
    <path
       d="M 5.8710937,-4.0976562 H 3.8867188 V 0 H 2.2578125 V -4.0976562 H 0.2734375 V -5.4140625 H 5.8710937 Z M 10.839844,0 H 9.4335938 v -2.0625 q 0,-0.023437 0,-0.042969 0.00391,-0.023437 0.00391,-0.09375 0,-0.2851562 -0.1210937,-0.5234375 -0.1210938,-0.2382812 -0.4609375,-0.2382812 -0.265625,0 -0.46875,0.1796875 Q 8.1835938,-2.6054688 8,-2.3359375 V 0 H 6.59375 V -5.4140625 H 8 V -3.40625 q 0.3476563,-0.3710938 0.6875,-0.5039063 0.3398438,-0.1367187 0.7226563,-0.1367187 1.4296877,0 1.4296877,1.6054687 z m 2.210937,-4.8945312 q 0,0.2460937 -0.175781,0.4179687 -0.175781,0.171875 -0.417969,0.171875 -0.164062,0 -0.300781,-0.078125 -0.132812,-0.078125 -0.210937,-0.2109375 -0.07813,-0.1367187 -0.07813,-0.3007812 0,-0.2421875 0.171875,-0.4179688 0.171875,-0.1757812 0.417968,-0.1757812 0.242188,0 0.417969,0.1757812 0.175781,0.1757813 0.175781,0.4179688 z M 13.164063,0 h -1.410157 v -3.9765625 h 1.410157 z m 4.374999,-0.18359375 q -0.175781,0.0664063 -0.371093,0.125 -0.195313,0.0546875 -0.441407,0.08984375 -0.242187,0.0390625 -0.53125,0.0390625 -0.652343,0 -1.105468,-0.21875 Q 14.640625,-0.37109375 14.394531,-0.703125 14.152344,-1.0390625 14.058594,-1.3867187 13.964844,-1.734375 13.964844,-2 q 0,-0.265625 0.09375,-0.6132813 0.09766,-0.3476562 0.335937,-0.671875 0.238282,-0.3242187 0.6875,-0.5429687 0.453125,-0.21875 1.113281,-0.21875 0.441407,0 0.71875,0.0625 0.277344,0.0625 0.5625,0.1679687 v 1.1054688 q -0.6875,-0.21875 -1.074218,-0.21875 -0.375,0 -0.667969,0.2265625 Q 15.445313,-2.4765625 15.445313,-2 q 0,0.3164063 0.144531,0.5351563 0.144531,0.2148437 0.367187,0.3164062 0.222656,0.1015625 0.445313,0.1015625 0.210937,0 0.480468,-0.0625 0.269532,-0.0625 0.65625,-0.1796875 z M 22.949219,0 H 21.164062 L 19.636719,-1.8867187 V 0 h -1.421875 v -5.4140625 h 1.421875 v 3.1757812 l 1.394531,-1.7382812 h 1.6875 l -1.554688,1.8554687 z m 4.695312,0 h -1.40625 v -2.1445313 q 0,-0.328125 -0.109375,-0.5703125 -0.105469,-0.2460937 -0.46875,-0.2460937 -0.171875,0 -0.304687,0.066406 -0.128907,0.0625 -0.234375,0.1640625 -0.101563,0.1015625 -0.171875,0.1953125 -0.07031,0.09375 -0.144532,0.1992188 V 0 h -1.40625 v -3.9765625 h 1.40625 V -3.40625 q 0.332032,-0.3554688 0.664063,-0.4960938 0.335937,-0.1445312 0.746094,-0.1445312 1.429687,0 1.429687,1.7109375 z m 4.921875,-1.6484375 h -2.800781 q 0.08203,0.3632813 0.402344,0.59375 0.320312,0.23046875 0.726562,0.23046875 0.710938,0 1.570313,-0.39843745 v 0.8710937 q -0.308594,0.16015625 -0.75,0.29296875 -0.4375,0.12890625 -1.117188,0.12890625 -0.734375,0 -1.25,-0.2734375 -0.515625,-0.2734375 -0.773437,-0.7421875 -0.253907,-0.46875 -0.253907,-1.0625 0,-0.5859375 0.253907,-1.046875 0.257812,-0.4648438 0.773437,-0.7265625 0.515625,-0.265625 1.25,-0.265625 0.484375,0 0.933594,0.2109375 0.453125,0.2070312 0.742187,0.6835937 0.292969,0.4726563 0.292969,1.2226563 z M 31.246094,-2.34375 q 0,-0.3828125 -0.191407,-0.609375 -0.1875,-0.2304688 -0.542968,-0.2304688 -0.351563,0 -0.570313,0.234375 -0.214844,0.2304688 -0.214844,0.6054688 z m 5.121093,1.1835938 q 0,0.54687495 -0.402343,0.89062495 -0.398438,0.33984375 -1.1875,0.33984375 -0.441407,0 -0.785157,-0.078125 -0.34375,-0.08203125 -0.75,-0.23046875 V -1.2382812 q 0.355469,0.203125 0.617188,0.3085937 0.261719,0.10546875 0.574219,0.10546875 0.527343,0 0.527343,-0.28906245 0,-0.097656 -0.07813,-0.171875 -0.07422,-0.078125 -0.265625,-0.171875 -0.1875,-0.097656 -0.503906,-0.2304688 -0.390625,-0.171875 -0.664062,-0.4609375 -0.273438,-0.2890625 -0.273438,-0.7070313 0,-0.296875 0.179688,-0.5703125 0.183593,-0.2734375 0.550781,-0.4453125 0.367187,-0.1757812 0.886719,-0.1757812 0.125,0 0.316406,0.019531 0.195312,0.015625 0.488281,0.089844 0.296875,0.074219 0.5625,0.2109375 v 0.9726562 q -0.125,-0.074219 -0.210937,-0.125 -0.08203,-0.050781 -0.222657,-0.1132812 -0.140625,-0.0625 -0.332031,-0.109375 -0.1875,-0.050781 -0.386719,-0.050781 -0.242187,0 -0.332031,0.09375 -0.08984,0.09375 -0.08984,0.1875 0,0.097656 0.09375,0.1835938 0.09375,0.082031 0.417969,0.2070312 0.46875,0.1796875 0.75,0.3710938 0.28125,0.1875 0.398438,0.4140625 0.121093,0.2265625 0.121093,0.5351563 z m 3.871094,0 q 0,0.54687495 -0.402344,0.89062495 -0.398437,0.33984375 -1.1875,0.33984375 -0.441406,0 -0.785156,-0.078125 -0.34375,-0.08203125 -0.75,-0.23046875 V -1.2382812 q 0.355469,0.203125 0.617188,0.3085937 0.261718,0.10546875 0.574218,0.10546875 0.527344,0 0.527344,-0.28906245 0,-0.097656 -0.07813,-0.171875 -0.07422,-0.078125 -0.265625,-0.171875 Q 38.300776,-1.5546872 37.98437,-1.6875 37.593745,-1.859375 37.320307,-2.1484375 37.04687,-2.4375 37.04687,-2.8554688 q 0,-0.296875 0.179687,-0.5703125 0.183594,-0.2734375 0.550782,-0.4453125 0.367187,-0.1757812 0.886718,-0.1757812 0.125,0 0.316407,0.019531 0.195312,0.015625 0.488281,0.089844 0.296875,0.074219 0.5625,0.2109375 v 0.9726562 q -0.125,-0.074219 -0.210938,-0.125 -0.08203,-0.050781 -0.222656,-0.1132812 -0.140625,-0.0625 -0.332031,-0.109375 -0.1875,-0.050781 -0.386719,-0.050781 -0.242187,0 -0.332031,0.09375 -0.08984,0.09375 -0.08984,0.1875 0,0.097656 0.09375,0.1835938 0.09375,0.082031 0.417969,0.2070312 0.46875,0.1796875 0.75,0.3710938 0.28125,0.1875 0.398437,0.4140625 0.121094,0.2265625 0.121094,0.5351563 z"
       id="text32"
       style="font-weight:700;font-size:8px;font-family:GillSans-Bold, 'Gill Sans'"
       transform="matrix(0.82,0,0,1,96.42,294.69)"
       aria-label="Thickness" />
    <path
       d="M 5.5273437,-0.40625 Q 5.1914062,-0.23046875 4.8398437,-0.125 4.4882812,-0.01953125 4.1289062,0.0234375 3.7734375,0.0703125 3.390625,0.0703125 2.6835938,0.0703125 2.1210938,-0.125 1.5625,-0.3203125 1.1484375,-0.69921875 0.73828125,-1.0820312 0.53125,-1.5898437 0.328125,-2.1015625 0.328125,-2.7109375 q 0,-0.6992188 0.2421875,-1.2226563 0.2421875,-0.5273437 0.6757812,-0.8749999 0.4375,-0.3476563 0.9921876,-0.5117188 0.5585937,-0.1679687 1.1757812,-0.1679687 0.921875,0 2.0898437,0.4101562 v 1.4375 q -0.4023437,-0.25 -0.796875,-0.4140625 -0.390625,-0.1679687 -0.9218749,-0.1679687 -0.4726563,0 -0.8828125,0.1875 Q 2.4921875,-3.8476563 2.2421875,-3.5 q -0.25,0.3476562 -0.25,0.8125 0,0.4101562 0.21875,0.7539063 0.21875,0.3398437 0.6054688,0.5429687 0.390625,0.1992188 0.8789062,0.1992188 0.3945312,0 0.7460937,-0.09375 Q 4.7929687,-1.3828125 5.03125,-1.5 5.2734375,-1.6171875 5.5273437,-1.7773437 Z M 12.34375,0 H 10.714844 V -2.1132813 H 8.2578125 V 0 H 6.625 v -5.4140625 h 1.6328125 v 1.9882812 h 2.4570315 v -1.9882812 h 1.628906 z m 2.648438,-0.76953125 q 0,0.3515625 -0.242188,0.59765625 -0.238281,0.2421875 -0.589844,0.2421875 -0.347656,0 -0.597656,-0.24609375 -0.25,-0.24609375 -0.25,-0.59375 0,-0.35156245 0.25,-0.59374995 0.25,-0.2460938 0.597656,-0.2460938 0.21875,0 0.414063,0.1132813 0.199219,0.1132812 0.308594,0.3046875 Q 14.992188,-1 14.992188,-0.76953125 Z m 9.124999,-1.94140625 q 0,0.7578125 -0.351562,1.3945313 -0.347656,0.6367187 -1.039063,1.0117187 -0.691406,0.375 -1.683593,0.375 -1.003907,0 -1.699219,-0.390625 -0.695313,-0.390625 -1.035156,-1.0273437 -0.335938,-0.6367188 -0.335938,-1.3632813 0,-0.7304688 0.335938,-1.3632812 0.335937,-0.6367188 1.03125,-1.0234375 0.699218,-0.390625 1.703125,-0.390625 0.75,0 1.335937,0.2226562 0.589844,0.2226563 0.96875,0.6054688 0.378906,0.3789062 0.574219,0.8867187 0.195312,0.5039062 0.195312,1.0625 z m -1.664062,0 q 0,-0.3046875 -0.08984,-0.5546875 -0.08984,-0.2539063 -0.273437,-0.4375 -0.179688,-0.1875 -0.441407,-0.2890625 -0.261718,-0.1054687 -0.605468,-0.1054687 -0.65625,0 -1.03125,0.3828124 -0.375,0.3828125 -0.375,1.0039063 0,0.6210937 0.375,1.0078125 0.378906,0.3828125 1.03125,0.3828125 0.449218,0 0.765625,-0.1757812 0.316406,-0.1796875 0.480468,-0.4921875 0.164063,-0.3164063 0.164063,-0.7226563 z M 29.09375,0 h -1.410156 v -0.56640625 q -0.296875,0.3203125 -0.625,0.48046875 -0.324219,0.15625 -0.78125,0.15625 -0.902344,0 -1.167969,-0.5234375 -0.265625,-0.52734375 -0.265625,-1.1875 v -2.3359375 h 1.410156 v 2.1484375 q 0,0.3242188 0.105469,0.5703125 0.109375,0.2421875 0.46875,0.2421875 0.308594,0 0.488281,-0.1757812 0.179688,-0.1757813 0.367188,-0.4492188 v -2.3359375 h 1.410156 z m 4.035156,-0.23046875 q -0.21875,0.10546875 -0.605469,0.203125 -0.382812,0.09765625 -0.734375,0.09765625 -1.519531,0 -1.519531,-1.484375 V -3 h -0.636719 v -0.2460938 l 1.886719,-1.9218749 h 0.160156 v 1.1914062 h 1.34375 V -3 h -1.34375 v 1.2734375 q 0,0.2226563 0.02734,0.359375 0.02734,0.1367188 0.152344,0.2304688 0.128906,0.089844 0.386719,0.089844 0.335937,0 0.882812,-0.28125 z"
       id="text33"
       style="font-weight:700;font-size:8px;font-family:GillSans-Bold, 'Gill Sans';fill:#ffffff"
       transform="matrix(0.82,0,0,1,15.69,336.21)"
       aria-label="CH. Out" />
    <path
       d="m 6.4726562,-2.7109375 q 0,0.7578125 -0.3515625,1.3945313 -0.3476562,0.6367187 -1.0390625,1.0117187 -0.6914062,0.375 -1.6835937,0.375 -1.0039062,0 -1.6992188,-0.390625 Q 1.0039062,-0.7109375 0.6640625,-1.3476562 0.328125,-1.984375 0.328125,-2.7109375 q 0,-0.7304688 0.3359375,-1.3632812 Q 1,-4.7109375 1.6953125,-5.0976562 q 0.6992188,-0.390625 1.703125,-0.390625 0.75,0 1.3359375,0.2226562 0.5898437,0.2226563 0.96875,0.6054688 0.3789062,0.3789062 0.5742187,0.8867187 0.1953125,0.5039062 0.1953125,1.0625 z m -1.6640625,0 q 0,-0.3046875 -0.089844,-0.5546875 -0.089844,-0.2539063 -0.2734375,-0.4375 -0.1796875,-0.1875 -0.4414063,-0.2890625 -0.2617187,-0.1054687 -0.6054687,-0.1054687 -0.65625,0 -1.03125,0.3828124 -0.375,0.3828125 -0.375,1.0039063 0,0.6210937 0.375,1.0078125 0.3789063,0.3828125 1.03125,0.3828125 0.4492188,0 0.765625,-0.1757812 0.3164062,-0.1796875 0.4804687,-0.4921875 0.1640625,-0.3164063 0.1640628,-0.7226563 z M 13.207031,0 H 11.578125 V -2.1132813 H 9.1210938 V 0 H 7.4882812 v -5.4140625 h 1.6328126 v 1.9882812 h 2.4570312 v -1.9882812 h 1.628906 z m 2.648438,-0.76953125 q 0,0.3515625 -0.242188,0.59765625 -0.238281,0.2421875 -0.589843,0.2421875 -0.347657,0 -0.597657,-0.24609375 -0.25,-0.24609375 -0.25,-0.59375 0,-0.35156245 0.25,-0.59374995 0.25,-0.2460938 0.597657,-0.2460938 0.21875,0 0.414062,0.1132813 0.199219,0.1132812 0.308594,0.3046875 Q 15.855469,-1 15.855469,-0.76953125 Z m 9.125,-1.94140625 q 0,0.7578125 -0.351563,1.3945313 -0.347656,0.6367187 -1.039062,1.0117187 -0.691407,0.375 -1.683594,0.375 -1.003906,0 -1.699219,-0.390625 -0.695312,-0.390625 -1.035156,-1.0273437 -0.335938,-0.6367188 -0.335938,-1.3632813 0,-0.7304688 0.335938,-1.3632812 0.335937,-0.6367188 1.03125,-1.0234375 0.699219,-0.390625 1.703125,-0.390625 0.75,0 1.335937,0.2226562 0.589844,0.2226563 0.96875,0.6054688 0.378907,0.3789062 0.574219,0.8867187 0.195313,0.5039062 0.195313,1.0625 z m -1.664063,0 q 0,-0.3046875 -0.08984,-0.5546875 -0.08984,-0.2539063 -0.273437,-0.4375 -0.179688,-0.1875 -0.441406,-0.2890625 Q 22.25,-4.0976562 21.90625,-4.0976562 q -0.65625,0 -1.03125,0.3828124 -0.375,0.3828125 -0.375,1.0039063 0,0.6210937 0.375,1.0078125 0.378906,0.3828125 1.03125,0.3828125 0.449219,0 0.765625,-0.1757812 0.316406,-0.1796875 0.480469,-0.4921875 0.164062,-0.3164063 0.164062,-0.7226563 z M 29.957031,0 h -1.410156 v -0.56640625 q -0.296875,0.3203125 -0.625,0.48046875 -0.324219,0.15625 -0.78125,0.15625 -0.902344,0 -1.167969,-0.5234375 -0.265625,-0.52734375 -0.265625,-1.1875 v -2.3359375 h 1.410156 v 2.1484375 q 0,0.3242188 0.105469,0.5703125 0.109375,0.2421875 0.46875,0.2421875 0.308594,0 0.488281,-0.1757812 0.179688,-0.1757813 0.367188,-0.4492188 v -2.3359375 h 1.410156 z m 4.035156,-0.23046875 q -0.21875,0.10546875 -0.605468,0.203125 -0.382813,0.09765625 -0.734375,0.09765625 -1.519532,0 -1.519532,-1.484375 V -3 h -0.636718 v -0.2460938 l 1.886718,-1.9218749 h 0.160157 v 1.1914062 h 1.34375 V -3 h -1.34375 v 1.2734375 q 0,0.2226563 0.02734,0.359375 0.02734,0.1367188 0.152344,0.2304688 0.128906,0.089844 0.386719,0.089844 0.335937,0 0.882812,-0.28125 z"
       id="text34"
       style="font-weight:700;font-size:8px;font-family:GillSans-Bold, 'Gill Sans';fill:#ffffff"
       transform="matrix(0.82,0,0,1,100.65,335.63)"
       aria-label="OH. Out" />
    <g
       id="g43">
      <path
         d="m 115.27,40.28 1.13,-1.95 c -2.75,-1.43 -5.84,-2.3 -9.12,-2.44 v 2.26 c 2.87,0.14 5.57,0.89 7.99,2.14 z"
         id="path34" />
      <path
         d="M 122.85,47.13 124.8,46 c -1.72,-2.68 -4,-4.96 -6.68,-6.68 l -1.13,1.95 c 2.34,1.52 4.33,3.51 5.85,5.85 z"
         id="path35" />
      <path
         d="m 95.54,41.28 -1.13,-1.95 c -2.68,1.72 -4.96,4 -6.68,6.68 l 1.95,1.13 c 1.52,-2.34 3.51,-4.33 5.85,-5.85 z"
         id="path36" />
      <path
         d="m 125.99,56.86 h 2.26 c -0.15,-3.28 -1.01,-6.37 -2.44,-9.12 l -1.95,1.13 c 1.24,2.42 1.99,5.13 2.14,8 z"
         id="path37" />
      <path
         d="m 105.27,38.14 v -2.26 c -3.28,0.15 -6.37,1.01 -9.12,2.44 l 1.13,1.95 c 2.42,-1.24 5.13,-1.99 8,-2.14 z"
         id="path38" />
      <path
         d="m 89.69,68.59 -1.95,1.13 c 1.72,2.68 4,4.96 6.68,6.68 l 1.13,-1.95 C 93.21,72.93 91.22,70.94 89.7,68.6 Z"
         id="path39" />
      <path
         d="m 117,74.44 1.13,1.95 c 2.68,-1.72 4.96,-4 6.68,-6.68 l -1.95,-1.13 c -1.52,2.34 -3.51,4.33 -5.85,5.85 z"
         id="path40" />
      <path
         d="m 125.99,58.86 c -0.14,2.87 -0.89,5.57 -2.14,8 l 1.95,1.13 c 1.43,-2.75 2.3,-5.84 2.44,-9.12 h -2.26 z"
         id="path41" />
      <path
         d="m 86.55,58.86 h -2.26 c 0.15,3.28 1.01,6.37 2.44,9.12 l 1.95,-1.13 c -1.24,-2.42 -1.99,-5.13 -2.14,-8 z"
         id="path42" />
      <path
         d="m 88.69,48.86 -1.95,-1.13 c -1.43,2.75 -2.3,5.84 -2.44,9.12 h 2.26 c 0.14,-2.87 0.89,-5.57 2.14,-8 z"
         id="path43" />
    </g>
    <path
       d="m 7.8076172,-3.2617188 q 0,1.0400391 -0.3808594,1.6699219 Q 7.0507812,-0.96191406 6.5380859,-0.57128906 5.8105469,0 4.5019531,0 H 0.84960938 V -6.7675781 H 3.6621094 q 0.6347656,0 1.0839843,0.068359 0.4541016,0.063477 0.8154297,0.1855468 0.3613282,0.1171875 0.6152344,0.2685547 0.2539063,0.1464844 0.4541016,0.3173828 0.3466797,0.2832032 0.6054687,0.6689453 0.2636719,0.3857422 0.4150391,0.8935547 0.15625,0.5078125 0.15625,1.103516 z m -2.0751953,-0.087891 q 0,-0.8251953 -0.3173828,-1.2841797 -0.3125,-0.4638671 -0.756836,-0.6201171 -0.4394531,-0.15625 -0.8984375,-0.15625 H 2.890625 v 4.008789 h 0.8691406 q 0.8007813,0 1.3867188,-0.3808594 0.5859375,-0.3808593 0.5859375,-1.5673828 z m 7.7445311,1.2890625 H 9.9759765 q 0.1025395,0.4541016 0.5029295,0.7421875 0.400391,0.288086 0.908203,0.288086 0.888672,0 1.962891,-0.4980469 v 1.08886717 q -0.385742,0.20019532 -0.9375,0.36621094 -0.546875,0.16113281 -1.396484,0.16113281 -0.917969,0 -1.5625005,-0.34179687 Q 8.8089843,-0.59570352 8.4867187,-1.181641 8.1693358,-1.7675785 8.1693358,-2.509766 q 0,-0.7324219 0.3173829,-1.3085938 0.3222656,-0.5810547 0.9667968,-0.9082031 0.6445315,-0.3320312 1.5625005,-0.3320312 0.605468,0 1.166992,0.2636718 0.566406,0.2587891 0.927734,0.8544922 0.366211,0.5908203 0.366211,1.5283203 z m -1.650391,-0.8691406 q 0,-0.4785156 -0.239257,-0.7617188 -0.234375,-0.2880859 -0.678711,-0.2880859 -0.439453,0 -0.712891,0.2929688 -0.2685547,0.2880859 -0.2685547,0.7568359 z m 6.372461,2.70019531 q -0.219726,0.0830078 -0.463867,0.15625 -0.244141,0.06835938 -0.551758,0.11230469 -0.302734,0.04882812 -0.664062,0.04882812 -0.81543,0 -1.381836,-0.27343749 Q 14.575976,-0.46386719 14.268359,-0.87890625 13.965625,-1.2988281 13.848437,-1.7333984 13.73125,-2.1679688 13.73125,-2.5 q 0,-0.3320313 0.117187,-0.7666016 0.122071,-0.4345703 0.419922,-0.8398437 0.297852,-0.4052734 0.859375,-0.6787109 0.566406,-0.2734375 1.391602,-0.2734375 0.551758,0 0.898437,0.078125 0.34668,0.078125 0.703125,0.2099609 v 1.3818359 q -0.859375,-0.2734375 -1.342773,-0.2734375 -0.46875,0 -0.834961,0.2832031 -0.361328,0.2832032 -0.361328,0.8789063 0,0.3955078 0.180664,0.6689453 0.180664,0.2685547 0.458984,0.3955078 0.27832,0.1269532 0.556641,0.1269532 0.263672,0 0.600586,-0.078125 0.336914,-0.078125 0.820312,-0.2246094 z m 5.610742,-0.0195313 q -0.385742,0.15136719 -0.712891,0.24414063 -0.327148,0.09277343 -0.786133,0.09277343 -0.43457,0 -0.605468,-0.15136718 -0.170899,-0.15625 -0.244141,-0.37597657 -0.283203,0.22949219 -0.629883,0.38085938 -0.346679,0.14648437 -0.908203,0.14648437 -0.541992,0 -0.878906,-0.18554687 -0.332031,-0.19042969 -0.46875,-0.47363281 -0.131836,-0.28808594 -0.131836,-0.59082039 0,-0.4589843 0.229492,-0.7568359 0.234375,-0.3027344 0.625,-0.4931641 0.390625,-0.1904297 1.035156,-0.3955078 0.366211,-0.1171875 0.551758,-0.1757812 0.19043,-0.063477 0.283203,-0.097656 0.09277,-0.03418 0.195313,-0.087891 0,-0.3613281 -0.146485,-0.5664063 -0.146484,-0.2050781 -0.634765,-0.2050781 -0.576172,0 -1.069336,0.2539063 -0.493164,0.2539062 -0.90332,0.6542968 v -1.3476561 q 0.327148,-0.234375 0.708007,-0.3808595 0.38086,-0.1513672 0.795899,-0.2246094 0.415039,-0.073242 0.839844,-0.073242 1.079101,0 1.621093,0.4199218 0.546875,0.415039 0.546875,1.1474609 v 1.9189453 q 0,0.2734375 0.04883,0.4101562 0.05371,0.131836 0.19043,0.131836 0.166016,0 0.449219,-0.1416016 z M 21.363476,-1.2011719 v -1.1767578 q -0.625,0.2539063 -0.913086,0.4589844 -0.288086,0.2001953 -0.288086,0.546875 0,0.2490234 0.141601,0.38085936 0.146485,0.13183594 0.336915,0.13183594 0.180664,0 0.356445,-0.0976563 0.180664,-0.1025391 0.366211,-0.2441406 z m 7.925195,-3.7695312 -3.378906,7.2314453 h -1.777344 l 1.367188,-2.91015626 -1.967773,-4.32128904 h 1.889648 L 26.432226,-2.5 27.579687,-4.9707031 Z"
       id="text43"
       style="font-weight:700;font-size:10px;font-family:GillSans-Bold, 'Gill Sans';letter-spacing:-0.04em"
       transform="matrix(0.88,0,0,1,93.38,87.63)"
       aria-label="Decay" />
    <g
       id="g53">
      <path
         d="m 46.72,40.28 1.13,-1.95 C 45.1,36.9 42.01,36.03 38.73,35.89 v 2.26 c 2.87,0.14 5.57,0.89 7.99,2.14 z"
         id="path44" />
      <path
         d="M 54.31,47.13 56.26,46 c -1.72,-2.68 -4,-4.96 -6.68,-6.68 l -1.13,1.95 c 2.34,1.52 4.33,3.51 5.85,5.85 z"
         id="path45" />
      <path
         d="m 27,41.28 -1.13,-1.95 c -2.68,1.72 -4.96,4 -6.68,6.68 l 1.95,1.13 c 1.52,-2.34 3.51,-4.33 5.85,-5.85 z"
         id="path46" />
      <path
         d="m 57.45,56.86 h 2.26 C 59.56,53.58 58.7,50.49 57.27,47.74 l -1.95,1.13 c 1.24,2.42 1.99,5.13 2.14,8 z"
         id="path47" />
      <path
         d="m 36.73,38.14 v -2.26 c -3.28,0.15 -6.37,1.01 -9.12,2.44 l 1.13,1.95 c 2.42,-1.24 5.13,-1.99 8,-2.14 z"
         id="path48" />
      <path
         d="m 21.15,68.59 -1.95,1.13 c 1.72,2.68 4,4.96 6.68,6.68 l 1.13,-1.95 C 24.67,72.93 22.68,70.94 21.16,68.6 Z"
         id="path49" />
      <path
         d="m 48.46,74.44 1.13,1.95 c 2.68,-1.72 4.96,-4 6.68,-6.68 l -1.95,-1.13 c -1.52,2.34 -3.51,4.33 -5.85,5.85 z"
         id="path50" />
      <path
         d="m 57.45,58.86 c -0.14,2.87 -0.89,5.57 -2.14,8 l 1.95,1.13 c 1.43,-2.75 2.3,-5.84 2.44,-9.12 h -2.26 z"
         id="path51" />
      <path
         d="m 18.01,58.86 h -2.26 c 0.15,3.28 1.01,6.37 2.44,9.12 l 1.95,-1.13 C 18.9,64.43 18.15,61.72 18,58.85 Z"
         id="path52" />
      <path
         d="M 20.15,48.86 18.2,47.73 c -1.43,2.75 -2.3,5.84 -2.44,9.12 h 2.26 c 0.14,-2.87 0.89,-5.57 2.14,-8 z"
         id="path53" />
    </g>
    <path
       d="m 6.7089844,-4.6386719 q 0,0.3759766 -0.131836,0.7373047 -0.1269531,0.3564453 -0.415039,0.6689453 -0.288086,0.3076172 -0.78125,0.5029297 -0.4882813,0.1904297 -1.1523438,0.1904297 H 2.890625 V 0 H 0.84960938 V -6.7675781 H 4.2285156 q 0.6640625,0 1.1523438,0.1953125 0.493164,0.1953125 0.78125,0.5078125 0.2880859,0.3125 0.415039,0.6787109 0.131836,0.366211 0.131836,0.7470703 z m -2.0800782,0.00977 q 0,-0.4833985 -0.2880859,-0.6591797 Q 4.0576172,-5.46875 3.3203125,-5.46875 H 2.890625 v 1.6308594 h 0.4394531 q 0.5078125,0 0.78125,-0.063477 0.2734375,-0.063477 0.3955078,-0.234375 0.1220703,-0.1708984 0.1220703,-0.493164 z m 4.233789,-1.4892579 q 0,0.3076172 -0.2197265,0.522461 -0.2197266,0.2148437 -0.522461,0.2148437 -0.2050781,0 -0.3759765,-0.097656 -0.1660157,-0.097656 -0.2636719,-0.2636719 -0.097656,-0.1708984 -0.097656,-0.3759766 0,-0.3027343 0.2148438,-0.5224609 0.2148437,-0.2197266 0.5224609,-0.2197266 0.3027344,0 0.522461,0.2197266 0.2197265,0.2197266 0.2197262,0.5224607 z M 9.0042968,0 H 7.2416015 v -4.9707031 h 1.7626953 z m 4.7318362,-0.28808594 q -0.273438,0.13183594 -0.756836,0.25390625 -0.478516,0.12207031 -0.917969,0.12207031 -1.899414,0 -1.899414,-1.85546872 V -3.75 H 9.3660154 v -0.3076172 l 2.3583986,-2.4023437 h 0.200195 v 1.4892578 h 1.679688 V -3.75 h -1.679688 v 1.5917969 q 0,0.2783203 0.03418,0.4492187 0.03418,0.1708985 0.19043,0.288086 0.161132,0.1123047 0.483398,0.1123047 0.419922,0 1.103516,-0.3515625 z m 4.629297,0.0585937 q -0.219727,0.0830078 -0.463867,0.15625 -0.244141,0.06835938 -0.551758,0.11230469 -0.302734,0.04882812 -0.664063,0.04882812 -0.815429,0 -1.381836,-0.27343749 Q 14.742383,-0.46386724 14.434766,-0.8789063 14.132031,-1.2988281 14.014844,-1.7333984 13.897656,-2.1679688 13.897656,-2.5 q 0,-0.3320313 0.117188,-0.7666016 0.12207,-0.4345703 0.419922,-0.8398437 0.297851,-0.4052734 0.859375,-0.6787109 0.566406,-0.2734375 1.391601,-0.2734375 0.551758,0 0.898438,0.078125 0.34668,0.078125 0.703125,0.2099609 v 1.3818359 q -0.859375,-0.2734375 -1.342774,-0.2734375 -0.46875,0 -0.83496,0.2832031 -0.361329,0.2832032 -0.361329,0.8789063 0,0.3955078 0.180664,0.6689453 0.180665,0.2685547 0.458985,0.3955078 0.27832,0.1269532 0.55664,0.1269532 0.263672,0 0.600586,-0.078125 0.336914,-0.078125 0.820313,-0.2246094 z M 24.127539,0 h -1.757813 v -2.578125 q 0,-0.029297 0,-0.053711 0.0049,-0.029297 0.0049,-0.1171875 0,-0.3564454 -0.151367,-0.6542969 -0.151367,-0.2978516 -0.576172,-0.2978516 -0.332031,0 -0.585938,0.2246094 -0.253906,0.2197266 -0.483398,0.5566406 V 0 h -1.757813 v -6.7675781 h 1.757813 v 2.5097656 q 0.43457,-0.4638672 0.859375,-0.6298828 0.424805,-0.1708984 0.90332,-0.1708984 1.78711,0 1.78711,2.0068359 z"
       id="text53"
       style="font-weight:700;font-size:10px;font-family:GillSans-Bold, 'Gill Sans';letter-spacing:-0.04em"
       transform="matrix(0.88,0,0,1,26.98,87.63)"
       aria-label="Pitch" />
    <g
       id="g56">
      <path
         d="m 63.8,18.07 c -0.37,0 -0.71,-0.17 -0.97,-0.47 -0.51,-0.6 -0.52,-1.54 -0.04,-2.16 l 6.97,-8.88 c 0.38,-0.48 1.05,-0.65 1.57,-0.39 0.5,0.25 0.79,0.82 0.79,1.45 v 4.77 l 4.64,-5.85 c 0.38,-0.48 1.01,-0.64 1.53,-0.38 0.5,0.25 0.83,0.81 0.83,1.44 v 8.82 c 0,0.86 -0.61,1.57 -1.36,1.57 -0.75,0 -1.36,-0.7 -1.36,-1.57 v -4.79 l -4.64,5.85 c -0.38,0.48 -1.01,0.64 -1.54,0.38 -0.5,-0.24 -0.83,-0.81 -0.83,-1.44 v -4.67 l -4.61,5.8 c -0.26,0.32 -0.62,0.51 -1,0.51 v 0 z"
         style="fill:#2cabe1"
         id="path54" />
      <path
         d="m 63.8,18.07 c -0.75,0 -1.35,-0.7 -1.35,-1.57 v -4.93 l -2.26,2.84 c -0.5,0.63 -1.44,0.65 -1.97,0.04 -0.51,-0.6 -0.52,-1.53 -0.03,-2.15 L 62.8,6.54 c 0.26,-0.32 0.63,-0.5 1,-0.5 0.18,0 0.37,0.04 0.54,0.12 0.5,0.25 0.82,0.81 0.82,1.44 v 8.89 c 0,0.86 -0.61,1.57 -1.36,1.57 v 0 z"
         style="fill:#ea2228"
         id="path55" />
      <path
         d="m 80.4,18.09 v 0 c -0.35,0 -0.68,-0.15 -0.94,-0.42 -0.76,-0.78 -0.14,-1.84 0.29,-2.3 l 1.95,-2.36 -1.26,-0.02 c -0.56,-0.01 -1.04,-0.4 -1.24,-1 -0.19,-0.56 -0.07,-1.21 0.29,-1.64 l 3.16,-3.83 c 0.23,-0.28 0.55,-0.48 1.13,-0.47 0.33,0 0.67,0.17 0.92,0.4 0.71,0.66 0.29,1.7 -0.07,2.2 l -1.04,1.26 1.26,0.02 c 0.56,0.01 1.04,0.4 1.24,1 0.19,0.56 0.07,1.21 -0.29,1.64 l -4.1,4.97 c -0.35,0.35 -0.65,0.55 -1.3,0.54 v 0 z"
         style="fill:#00a650"
         id="path56" />
    </g>
    <g
       id="text58"
       style="font-weight:700;font-size:11px;font-family:GillSans-Bold, 'Gill Sans'"
       transform="matrix(0.82,0,0,1,54.22,357.06)"
       aria-label="HI HAT">
      <path
         d="M 8.7978516,0 H 6.5581055 V -2.9057617 H 3.1796875 V 0 H 0.93457031 V -7.4443359 H 3.1796875 v 2.7338867 h 3.378418 v -2.7338867 h 2.2397461 z m 4.1250004,0 h -2.245118 v -7.4443359 h 2.245118 z M 25.931641,0 H 23.691895 V -2.9057617 H 20.313477 V 0 h -2.245118 v -7.4443359 h 2.245118 v 2.7338867 h 3.378418 v -2.7338867 h 2.239746 z"
         id="path68" />
      <path
         style="letter-spacing:-0.1em"
         d="M 35.979376,0 H 33.680548 L 33.073614,-1.5092773 H 29.840216 L 29.22254,0 h -2.298828 l 3.29248,-7.4443359 h 2.481446 z m -3.421387,-2.8037109 -1.090332,-2.7177735 -1.101074,2.7177735 z"
         id="path69" />
      <path
         d="M 43.002754,-5.6342773 H 40.274239 V 0 h -2.239747 v -5.6342773 h -2.728515 v -1.8100586 h 7.696777 z"
         id="path70" />
    </g>
  </g>
  <g
     id="components">
    <circle
       id="OH_Out"
       data-name="OH Out"
       cx="153.04082"
       cy="418.45557"
       r="15.120081"
       style="fill:#0000ff;stroke-width:1.33334" />
    <circle
       id="CH_Out"
       data-name="CH Out"
       cx="39.293545"
       cy="418.45557"
       r="15.120081"
       style="fill:#0000ff;stroke-width:1.33334" />
    <circle
       id="Thickness_CV"
       data-name="Thickness CV"
       cx="152.98749"
       cy="362.97528"
       r="15.120081"
       style="fill:#00ff00;stroke-width:1.33334" />
    <circle
       id="Brightness_CV"
       data-name="Brightness CV"
       cx="95.60051"
       cy="362.97528"
       r="15.120081"
       style="fill:#00ff00;stroke-width:1.33334" />
    <circle
       id="Decay_CV"
       data-name="Decay CV"
       cx="39.346878"
       cy="362.97528"
       r="15.120081"
       style="fill:#00ff00;stroke-width:1.33334" />
    <circle
       id="OH_Trig"
       data-name="OH Trig"
       cx="152.98749"
       cy="309.46832"
       r="15.120081"
       style="fill:#80ff80;stroke-width:1.33334" />
    <circle
       id="Pitch_CV"
       data-name="Pitch CV"
       cx="95.60051"
       cy="309.46832"
       r="15.120081"
       style="fill:#00ff00;stroke-width:1.33334" />
    <circle
       id="CH_Trig"
       data-name="CH Trig"
       cx="39.346878"
       cy="309.46832"
       r="15.120081"
       style="fill:#80ff80;stroke-width:1.33334" />
    <circle
       id="Thickness"
       cx="141.86743"
       cy="217.09451"
       r="15.876085"
       style="fill:#ff0080;stroke-width:0.933338" />
    <circle
       id="Brightness"
       cx="50.466934"
       cy="217.09451"
       r="15.876085"
       style="fill:#ff0080;stroke-width:0.933338" />
    <rect
       id="Choke_Switch_Off_On"
       data-name="Choke Switch@Off@On"
       x="89.325546"
       y="134.2923"
       height="22.6"
       style="fill:#ff8080;stroke-width:1.33334"
       width="15.1" />
    <circle
       id="Decay"
       cx="141.86743"
       cy="77.133743"
       r="15.876085"
       style="fill:#ff0000;stroke-width:0.933338" />
    <circle
       id="Pitch"
       cx="50.466934"
       cy="77.133743"
       r="15.876085"
       style="fill:#ff0040;stroke-width:0.933338" />
    <text
       id="slug"
       style="font-size:4.00002px;font-family:MyriadPro-Regular, 'Myriad Pro';fill:#010101;stroke-width:1.33334"
       x="140.2141"
       y="483.40967"><tspan
         x="140.2141"
         y="483.40967"
         style="letter-spacing:0.01em;stroke-width:1.33334"
         id="tspan59">H</tspan><tspan
         x="142.86743"
         y="483.40967"
         style="letter-spacing:0em;stroke-width:1.33334"
         id="tspan60">i H</tspan><tspan
         x="147.25412"
         y="483.40967"
         style="letter-spacing:0em;stroke-width:1.33334"
         id="tspan61">a</tspan><tspan
         x="149.1608"
         y="483.40967"
         id="tspan62"
         style="stroke-width:1.33334">t</tspan></text>
    <text
       id="modulename"
       style="font-size:4.00002px;font-family:MyriadPro-Regular, 'Myriad Pro';fill:#010101;stroke-width:1.33334"
       x="155.64084"
       y="483.40967"><tspan
         x="155.64084"
         y="483.40967"
         style="letter-spacing:0.01em;stroke-width:1.33334"
         id="tspan63">H</tspan><tspan
         x="158.29419"
         y="483.40967"
         style="letter-spacing:0em;stroke-width:1.33334"
         id="tspan64">i H</tspan><tspan
         x="162.68088"
         y="483.40967"
         style="letter-spacing:0em;stroke-width:1.33334"
         id="tspan65">a</tspan><tspan
         x="164.58755"
         y="483.40967"
         id="tspan66"
         style="stroke-width:1.33334">t Drum</tspan><tspan
         x="177.12094"
         y="483.40967"
         style="letter-spacing:0em;stroke-width:1.33334"
         id="tspan67">M</tspan><tspan
         x="180.36098"
         y="483.40967"
         style="letter-spacing:0em;stroke-width:1.33334"
         id="tspan68">odule</tspan></text>
  </g>
</svg>
