<?xml version="1.0" encoding="UTF-8" standalone="no"?>
<svg
   width="50.888359mm"
   height="128.58792mm"
   viewBox="0 0 144.24535 364.50002"
   version="1.1"
   id="svg67"
   sodipodi:docname="HiHat_info.svg"
   inkscape:version="1.4 (e7c3feb1, 2024-10-09)"
   xmlns:inkscape="http://www.inkscape.org/namespaces/inkscape"
   xmlns:sodipodi="http://sodipodi.sourceforge.net/DTD/sodipodi-0.dtd"
   xmlns="http://www.w3.org/2000/svg"
   xmlns:svg="http://www.w3.org/2000/svg">
  <defs
     id="defs67" />
  <sodipodi:namedview
     id="namedview67"
     pagecolor="#ffffff"
     bordercolor="#000000"
     borderopacity="0.25"
     inkscape:showpageshadow="2"
     inkscape:pageopacity="0.0"
     inkscape:pagecheckerboard="0"
     inkscape:deskcolor="#d1d1d1"
     inkscape:document-units="mm"
     inkscape:zoom="2.0466466"
     inkscape:cx="95.766411"
     inkscape:cy="246.50079"
     inkscape:window-width="1200"
     inkscape:window-height="1186"
     inkscape:window-x="2484"
     inkscape:window-y="25"
     inkscape:window-maximized="0"
     inkscape:current-layer="components" />
  <g
     id="faceplate"
     transform="translate(0.00267633,0.005)">
    <rect
       x="0.12"
       y="0.12"
       width="144"
       height="364.25"
       style="fill:#ededed;stroke:#9d9d9e;stroke-width:0.25px;stroke-miterlimit:10"
       id="rect1" />
    <path
       d="m 12.61,291.83 v -62.01 c 0,-7.82 6.4,-14.22 14.22,-14.22 h 90.62 c 7.82,0 14.22,6.4 14.22,14.22 v 62.01 -0.93 45.22 c 0,3.11 -2.54,5.65 -5.65,5.65 H 18.25 c -3.11,0 -5.65,-2.54 -5.65,-5.65 V 290.9"
       style="fill:#d1d3d4;stroke:#d1d3d4;stroke-miterlimit:10"
       id="path1" />
    <path
       d="m 132.19,318.66 v -21.52 h -21.54 c -7.49,0 -13.57,6.52 -13.57,14.57 v 30.53 h 15.07 c 0,0 0,0 0,0 h 14.39 c 3.12,0 5.64,-2.36 5.64,-5.25 v -18.39 0.08 z"
       id="path2" />
    <path
       d="m 12.19,318.63 v -21.52 h 1.14 c 0,0 20.4,0 20.4,0 7.49,0 13.57,6.52 13.57,14.57 v 30.07 c 0,0 0,0.46 0,0.46 H 32.23 c 0,0 0,0 0,0 H 17.84 c -3.12,0 -5.64,-2.36 -5.64,-5.25 v -9.31 c 0,0 0,-9.08 0,-9.08 v 0.08 z"
       id="path3" />
    <g
       id="g13">
      <path
         d="m 46.85,145.6 1.13,-1.95 c -2.75,-1.43 -5.84,-2.3 -9.12,-2.44 v 2.26 c 2.87,0.14 5.57,0.89 7.99,2.14 z"
         id="path4" />
      <path
         d="m 54.43,152.45 1.95,-1.13 c -1.72,-2.68 -4,-4.96 -6.68,-6.68 l -1.13,1.95 c 2.34,1.52 4.33,3.51 5.85,5.85 z"
         id="path5" />
      <path
         d="M 27.13,146.6 26,144.65 c -2.68,1.72 -4.96,4 -6.68,6.68 l 1.95,1.13 c 1.52,-2.34 3.51,-4.33 5.85,-5.85 z"
         id="path6" />
      <path
         d="m 57.57,162.18 h 2.26 c -0.15,-3.28 -1.01,-6.37 -2.44,-9.12 l -1.95,1.13 c 1.24,2.42 1.99,5.13 2.14,8 z"
         id="path7" />
      <path
         d="m 36.85,143.46 v -2.26 c -3.28,0.15 -6.37,1.01 -9.12,2.44 l 1.13,1.95 c 2.42,-1.24 5.13,-1.99 8,-2.14 z"
         id="path8" />
      <path
         d="m 21.27,173.9 -1.95,1.13 c 1.72,2.68 4,4.96 6.68,6.68 l 1.13,-1.95 c -2.34,-1.52 -4.33,-3.51 -5.85,-5.85 z"
         id="path9" />
      <path
         d="m 48.58,179.76 1.13,1.95 c 2.68,-1.72 4.96,-4 6.68,-6.68 l -1.95,-1.13 c -1.52,2.34 -3.51,4.33 -5.85,5.85 z"
         id="path10" />
      <path
         d="m 57.57,164.18 c -0.14,2.87 -0.89,5.57 -2.14,8 l 1.95,1.13 c 1.43,-2.75 2.3,-5.84 2.44,-9.12 h -2.26 z"
         id="path11" />
      <path
         d="m 18.14,164.18 h -2.26 c 0.15,3.28 1.01,6.37 2.44,9.12 l 1.95,-1.13 c -1.24,-2.42 -1.99,-5.13 -2.14,-8 z"
         id="path12" />
      <path
         d="m 20.27,154.18 -1.95,-1.13 c -1.43,2.75 -2.3,5.84 -2.44,9.12 h 2.26 c 0.14,-2.87 0.89,-5.57 2.14,-8 z"
         id="path13" />
    </g>
    <g
       id="g23">
      <path
         d="m 115.39,145.6 1.13,-1.95 c -2.75,-1.43 -5.84,-2.3 -9.12,-2.44 v 2.26 c 2.87,0.14 5.57,0.89 7.99,2.14 z"
         id="path14" />
      <path
         d="m 122.98,152.45 1.95,-1.13 c -1.72,-2.68 -4,-4.96 -6.68,-6.68 l -1.13,1.95 c 2.34,1.52 4.33,3.51 5.85,5.85 z"
         id="path15" />
      <path
         d="m 95.67,146.6 -1.13,-1.95 c -2.68,1.72 -4.96,4 -6.68,6.68 l 1.95,1.13 c 1.52,-2.34 3.51,-4.33 5.85,-5.85 z"
         id="path16" />
      <path
         d="m 126.11,162.18 h 2.26 c -0.15,-3.28 -1.01,-6.37 -2.44,-9.12 l -1.95,1.13 c 1.24,2.42 1.99,5.13 2.14,8 z"
         id="path17" />
      <path
         d="m 105.4,143.46 v -2.26 c -3.28,0.15 -6.37,1.01 -9.12,2.44 l 1.13,1.95 c 2.42,-1.24 5.13,-1.99 8,-2.14 z"
         id="path18" />
      <path
         d="m 89.82,173.9 -1.95,1.13 c 1.72,2.68 4,4.96 6.68,6.68 l 1.13,-1.95 c -2.34,-1.52 -4.33,-3.51 -5.85,-5.85 z"
         id="path19" />
      <path
         d="m 117.12,179.76 1.13,1.95 c 2.68,-1.72 4.96,-4 6.68,-6.68 l -1.95,-1.13 c -1.52,2.34 -3.51,4.33 -5.85,5.85 z"
         id="path20" />
      <path
         d="m 126.11,164.18 c -0.14,2.87 -0.89,5.57 -2.14,8 l 1.95,1.13 c 1.43,-2.75 2.3,-5.84 2.44,-9.12 h -2.26 z"
         id="path21" />
      <path
         d="m 86.68,164.18 h -2.26 c 0.15,3.28 1.01,6.37 2.44,9.12 l 1.95,-1.13 c -1.24,-2.42 -1.99,-5.13 -2.14,-8 z"
         id="path22" />
      <path
         d="m 88.82,154.18 -1.95,-1.13 c -1.43,2.75 -2.3,5.84 -2.44,9.12 h 2.26 c 0.14,-2.87 0.89,-5.57 2.14,-8 z"
         id="path23" />
    </g>
    <text
       transform="matrix(0.88,0,0,1,15.6,193.06)"
       style="font-weight:700;font-size:10px;font-family:GillSans-Bold, 'Gill Sans';letter-spacing:-0.04em"
       id="text23"><tspan
         x="0"
         y="0"
         id="tspan23">Brightness</tspan></text>
    <text
       transform="matrix(0.88,0,0,1,85.5,193.06)"
       style="font-weight:700;font-size:10px;font-family:GillSans-Bold, 'Gill Sans';letter-spacing:-0.04em"
       id="text24"><tspan
         x="0"
         y="0"
         id="tspan24">Thickness</tspan></text>
    <text
       transform="matrix(0.88,0,0,1,58.47,127.51)"
       style="font-weight:700;font-size:10px;font-family:GillSans-Bold, 'Gill Sans';letter-spacing:-0.04em"
       id="text25"><tspan
         x="0"
         y="0"
         id="tspan25">Choke</tspan></text>
    <text
       transform="matrix(0.82,0,0,1,16.29,253.89)"
       style="font-weight:700;font-size:8px;font-family:GillSans-Bold, 'Gill Sans'"
       id="text26"><tspan
         x="0"
         y="0"
         id="tspan26">CH. Trig</tspan></text>
    <text
       transform="matrix(0.82,0,0,1,63.1,253.72)"
       style="font-weight:700;font-size:8px;font-family:GillSans-Bold, 'Gill Sans'"
       id="text27"><tspan
         x="0"
         y="0"
         id="tspan27">Pitch</tspan></text>
    <text
       transform="matrix(0.82,0,0,1,99.16,253.89)"
       style="font-weight:700;font-size:8px;font-family:GillSans-Bold, 'Gill Sans'"
       id="text28"><tspan
         x="0"
         y="0"
         id="tspan28">OH. Trig</tspan></text>
    <text
       transform="matrix(0.82,0,0,1,19.38,294.82)"
       style="font-weight:700;font-size:8px;font-family:GillSans-Bold, 'Gill Sans'"
       id="text29"><tspan
         x="0"
         y="0"
         id="tspan29">Decay</tspan></text>
    <text
       transform="matrix(0.82,0,0,1,53.93,294.82)"
       style="font-weight:700;font-size:8px;font-family:GillSans-Bold, 'Gill Sans'"
       id="text30"><tspan
         x="0"
         y="0"
         id="tspan30">Brightness</tspan></text>
    <text
       transform="matrix(0.82,0,0,1,96.54,294.82)"
       style="font-weight:700;font-size:8px;font-family:GillSans-Bold, 'Gill Sans'"
       id="text31"><tspan
         x="0"
         y="0"
         id="tspan31">Thickness</tspan></text>
    <text
       transform="matrix(0.82,0,0,1,15.82,336.34)"
       style="font-weight:700;font-size:8px;font-family:GillSans-Bold, 'Gill Sans';fill:#ffffff"
       id="text32"><tspan
         x="0"
         y="0"
         id="tspan32">CH. Out</tspan></text>
    <text
       transform="matrix(0.82,0,0,1,100.77,335.76)"
       style="font-weight:700;font-size:8px;font-family:GillSans-Bold, 'Gill Sans';fill:#ffffff"
       id="text33"><tspan
         x="0"
         y="0"
         id="tspan33">OH. Out</tspan></text>
    <g
       id="g42">
      <path
         d="m 115.39,40.4 1.13,-1.95 c -2.75,-1.43 -5.84,-2.3 -9.12,-2.44 v 2.26 c 2.87,0.14 5.57,0.89 7.99,2.14 z"
         id="path33" />
      <path
         d="m 122.98,47.26 1.95,-1.13 c -1.72,-2.68 -4,-4.96 -6.68,-6.68 l -1.13,1.95 c 2.34,1.52 4.33,3.51 5.85,5.85 z"
         id="path34" />
      <path
         d="m 95.67,41.4 -1.13,-1.95 c -2.68,1.72 -4.96,4 -6.68,6.68 l 1.95,1.13 c 1.52,-2.34 3.51,-4.33 5.85,-5.85 z"
         id="path35" />
      <path
         d="m 126.11,56.98 h 2.26 c -0.15,-3.28 -1.01,-6.37 -2.44,-9.12 l -1.95,1.13 c 1.24,2.42 1.99,5.13 2.14,8 z"
         id="path36" />
      <path
         d="m 105.4,38.27 v -2.26 c -3.28,0.15 -6.37,1.01 -9.12,2.44 l 1.13,1.95 c 2.42,-1.24 5.13,-1.99 8,-2.14 z"
         id="path37" />
      <path
         d="m 89.82,68.71 -1.95,1.13 c 1.72,2.68 4,4.96 6.68,6.68 l 1.13,-1.95 c -2.34,-1.52 -4.33,-3.51 -5.85,-5.85 z"
         id="path38" />
      <path
         d="m 117.12,74.56 1.13,1.95 c 2.68,-1.72 4.96,-4 6.68,-6.68 l -1.95,-1.13 c -1.52,2.34 -3.51,4.33 -5.85,5.85 z"
         id="path39" />
      <path
         d="m 126.11,58.98 c -0.14,2.87 -0.89,5.57 -2.14,8 l 1.95,1.13 c 1.43,-2.75 2.3,-5.84 2.44,-9.12 h -2.26 z"
         id="path40" />
      <path
         d="m 86.68,58.98 h -2.26 c 0.15,3.28 1.01,6.37 2.44,9.12 l 1.95,-1.13 c -1.24,-2.42 -1.99,-5.13 -2.14,-8 z"
         id="path41" />
      <path
         d="m 88.82,48.99 -1.95,-1.13 c -1.43,2.75 -2.3,5.84 -2.44,9.12 h 2.26 c 0.14,-2.87 0.89,-5.57 2.14,-8 z"
         id="path42" />
    </g>
    <text
       transform="matrix(0.88,0,0,1,93.51,87.76)"
       style="font-weight:700;font-size:10px;font-family:GillSans-Bold, 'Gill Sans';letter-spacing:-0.04em"
       id="text42"><tspan
         x="0"
         y="0"
         id="tspan42">Decay</tspan></text>
    <g
       id="g52">
      <path
         d="m 46.85,40.4 1.13,-1.95 c -2.75,-1.43 -5.84,-2.3 -9.12,-2.44 v 2.26 c 2.87,0.14 5.57,0.89 7.99,2.14 z"
         id="path43" />
      <path
         d="m 54.43,47.26 1.95,-1.13 c -1.72,-2.68 -4,-4.96 -6.68,-6.68 l -1.13,1.95 c 2.34,1.52 4.33,3.51 5.85,5.85 z"
         id="path44" />
      <path
         d="M 27.13,41.4 26,39.45 c -2.68,1.72 -4.96,4 -6.68,6.68 l 1.95,1.13 c 1.52,-2.34 3.51,-4.33 5.85,-5.85 z"
         id="path45" />
      <path
         d="m 57.57,56.98 h 2.26 C 59.68,53.7 58.82,50.61 57.39,47.86 l -1.95,1.13 c 1.24,2.42 1.99,5.13 2.14,8 z"
         id="path46" />
      <path
         d="m 36.85,38.27 v -2.26 c -3.28,0.15 -6.37,1.01 -9.12,2.44 l 1.13,1.95 c 2.42,-1.24 5.13,-1.99 8,-2.14 z"
         id="path47" />
      <path
         d="m 21.27,68.71 -1.95,1.13 c 1.72,2.68 4,4.96 6.68,6.68 l 1.13,-1.95 C 24.79,73.05 22.8,71.06 21.28,68.72 Z"
         id="path48" />
      <path
         d="m 48.58,74.56 1.13,1.95 c 2.68,-1.72 4.96,-4 6.68,-6.68 L 54.44,68.7 c -1.52,2.34 -3.51,4.33 -5.85,5.85 z"
         id="path49" />
      <path
         d="m 57.57,58.98 c -0.14,2.87 -0.89,5.57 -2.14,8 l 1.95,1.13 c 1.43,-2.75 2.3,-5.84 2.44,-9.12 h -2.26 z"
         id="path50" />
      <path
         d="m 18.14,58.98 h -2.26 c 0.15,3.28 1.01,6.37 2.44,9.12 l 1.95,-1.13 c -1.24,-2.42 -1.99,-5.13 -2.14,-8 z"
         id="path51" />
      <path
         d="m 20.27,48.99 -1.95,-1.13 c -1.43,2.75 -2.3,5.84 -2.44,9.12 h 2.26 c 0.14,-2.87 0.89,-5.57 2.14,-8 z"
         id="path52" />
    </g>
    <text
       transform="matrix(0.88,0,0,1,27.1,87.76)"
       style="font-weight:700;font-size:10px;font-family:GillSans-Bold, 'Gill Sans';letter-spacing:-0.04em"
       id="text52"><tspan
         x="0"
         y="0"
         id="tspan52">Pitch</tspan></text>
    <g
       id="g55">
      <path
         d="m 63.93,18.19 c -0.37,0 -0.71,-0.17 -0.97,-0.47 -0.51,-0.6 -0.52,-1.54 -0.04,-2.16 l 6.97,-8.88 c 0.38,-0.48 1.05,-0.65 1.57,-0.39 0.5,0.25 0.79,0.82 0.79,1.45 v 4.77 l 4.64,-5.85 c 0.38,-0.48 1.01,-0.64 1.53,-0.38 0.5,0.25 0.83,0.81 0.83,1.44 v 8.82 c 0,0.86 -0.61,1.57 -1.36,1.57 -0.75,0 -1.36,-0.7 -1.36,-1.57 v -4.79 l -4.64,5.85 c -0.38,0.48 -1.01,0.64 -1.54,0.38 -0.5,-0.24 -0.83,-0.81 -0.83,-1.44 v -4.67 l -4.61,5.8 c -0.26,0.32 -0.62,0.51 -1,0.51 v 0 z"
         style="fill:#2cabe1"
         id="path53" />
      <path
         d="m 63.92,18.19 c -0.75,0 -1.35,-0.7 -1.35,-1.57 v -4.93 l -2.26,2.84 c -0.5,0.63 -1.44,0.65 -1.97,0.04 -0.51,-0.6 -0.52,-1.53 -0.03,-2.15 l 4.61,-5.76 c 0.26,-0.32 0.63,-0.5 1,-0.5 0.18,0 0.37,0.04 0.54,0.12 0.5,0.25 0.82,0.81 0.82,1.44 v 8.89 c 0,0.86 -0.61,1.57 -1.36,1.57 v 0 z"
         style="fill:#ea2228"
         id="path54" />
      <path
         d="m 80.52,18.21 v 0 c -0.35,0 -0.68,-0.15 -0.94,-0.42 -0.76,-0.78 -0.14,-1.84 0.29,-2.3 l 1.95,-2.36 -1.26,-0.02 C 80,13.1 79.52,12.71 79.32,12.11 79.13,11.55 79.25,10.9 79.61,10.47 L 82.77,6.64 C 83,6.36 83.32,6.16 83.9,6.17 c 0.33,0 0.67,0.17 0.92,0.4 0.71,0.66 0.29,1.7 -0.07,2.2 l -1.04,1.26 1.26,0.02 c 0.56,0.01 1.04,0.4 1.24,1 0.19,0.56 0.07,1.21 -0.29,1.64 l -4.1,4.97 c -0.35,0.35 -0.65,0.55 -1.3,0.54 v 0 z"
         style="fill:#00a650"
         id="path55" />
    </g>
    <text
       transform="matrix(0.82,0,0,1,54.34,357.18)"
       style="font-weight:700;font-size:11px;font-family:GillSans-Bold, 'Gill Sans'"
       id="text57"><tspan
         x="0"
         y="0"
         id="tspan55">HI H</tspan><tspan
         x="26.870001"
         y="0"
         style="letter-spacing:-0.1em"
         id="tspan56">A</tspan><tspan
         x="34.93"
         y="0"
         id="tspan57">T</tspan></text>
  </g>
  <g
     id="components"
     style="display:none"
     transform="translate(0.00267633,0.005)">
    <circle
       id="OH_Out"
       data-name="OH Out"
       cx="114.78"
       cy="313.84"
       r="11.34"
       style="fill:#0000ff" />
    <circle
       id="CH_Out"
       data-name="CH Out"
       cx="29.469999"
       cy="313.84"
       r="11.34"
       style="fill:#0000ff" />
    <circle
       id="Thickness_CV"
       data-name="Thickness CV"
       cx="114.74"
       cy="272.23001"
       r="11.34"
       style="fill:#00ff00" />
    <circle
       id="Brightness_CV"
       data-name="Brightness CV"
       cx="71.699997"
       cy="272.23001"
       r="11.34"
       style="fill:#00ff00" />
    <circle
       id="Decay_CV"
       data-name="Decay CV"
       cx="29.51"
       cy="272.23001"
       r="11.34"
       style="fill:#00ff00" />
    <circle
       id="OH_Trig"
       data-name="OH Trig"
       cx="114.74"
       cy="232.10001"
       r="11.34"
       style="fill:#80ff80" />
    <circle
       id="Pitch_CV"
       data-name="Pitch CV"
       cx="71.699997"
       cy="232.10001"
       r="11.34"
       style="fill:#00ff00" />
    <circle
       id="CH_Trig"
       data-name="CH Trig"
       cx="29.51"
       cy="232.10001"
       r="11.34"
       style="fill:#80ff80" />
    <circle
       id="Thickness_MediumBlackKnob"
       data-name="Thickness#MediumBlackKnob"
       cx="106.4"
       cy="162.82001"
       r="17.01"
       style="fill:#ff0000"
       inkscape:label="Thickness_Davies1900hBlackKnob" />
    <circle
       id="Brightness_MediumBlackKnob"
       data-name="Brightness#MediumBlackKnob"
       cx="37.849998"
       cy="162.82001"
       r="17.01"
       style="fill:#ff0080"
       inkscape:label="Brightness_Davies1900hBlackKnob" />
    <rect
       id="Choke_Switch_Off_On"
       data-name="Choke Switch@Off@On"
       x="66.459999"
       y="101.83"
       width="11.34"
       height="17.01"
       transform="rotate(-90,72.125,110.335)"
       style="fill:#ff8080" />
    <circle
       id="Decay_MediumBlackKnob"
       data-name="Decay#MediumBlackKnob"
       cx="106.4"
       cy="57.849998"
       r="17.01"
       style="fill:#ff0040"
       inkscape:label="Decay_Davies1900hBlackKnob" />
    <circle
       id="Pitch_MediumBlackKnob"
       data-name="Pitch#MediumBlackKnob"
       cx="37.849998"
       cy="57.849998"
       r="17.01"
       style="fill:#ff0040"
       inkscape:label="Pitch_Davies1900hBlackKnob" />
    <text
       id="slug"
       transform="translate(105.29,369)"
       style="font-size:3px;font-family:MyriadPro-Regular, 'Myriad Pro';fill:#010101"><tspan
         x="0"
         y="0"
         style="letter-spacing:0.01em"
         id="tspan58">H</tspan><tspan
         x="1.99"
         y="0"
         style="letter-spacing:0em"
         id="tspan59">i H</tspan><tspan
         x="5.2800002"
         y="0"
         style="letter-spacing:0em"
         id="tspan60">a</tspan><tspan
         x="6.71"
         y="0"
         id="tspan61">t</tspan></text>
    <text
       id="modulename"
       transform="translate(116.85,369)"
       style="font-size:3px;font-family:MyriadPro-Regular, 'Myriad Pro';fill:#010101"><tspan
         x="0"
         y="0"
         style="letter-spacing:0.01em"
         id="tspan62">H</tspan><tspan
         x="1.99"
         y="0"
         style="letter-spacing:0em"
         id="tspan63">i H</tspan><tspan
         x="5.2800002"
         y="0"
         style="letter-spacing:0em"
         id="tspan64">a</tspan><tspan
         x="6.71"
         y="0"
         id="tspan65">t Drum</tspan><tspan
         x="16.110001"
         y="0"
         style="letter-spacing:0em"
         id="tspan66">M</tspan><tspan
         x="18.540001"
         y="0"
         style="letter-spacing:0em"
         id="tspan67">odule</tspan></text>
  </g>
</svg>
