<?xml version="1.0" encoding="UTF-8" standalone="no"?>
<svg
   width="57.6"
   height="369.63"
   viewBox="0 0 57.6 369.63"
   version="1.1"
   id="svg39"
   sodipodi:docname="Rimshot_info.svg"
   inkscape:version="1.4 (e7c3feb1, 2024-10-09)"
   xmlns:inkscape="http://www.inkscape.org/namespaces/inkscape"
   xmlns:sodipodi="http://sodipodi.sourceforge.net/DTD/sodipodi-0.dtd"
   xmlns="http://www.w3.org/2000/svg"
   xmlns:svg="http://www.w3.org/2000/svg">
  <sodipodi:namedview
     id="namedview39"
     pagecolor="#ffffff"
     bordercolor="#000000"
     borderopacity="0.25"
     inkscape:showpageshadow="2"
     inkscape:pageopacity="0.0"
     inkscape:pagecheckerboard="0"
     inkscape:deskcolor="#d1d1d1"
     inkscape:zoom="2.3753483"
     inkscape:cx="28.627381"
     inkscape:cy="184.815"
     inkscape:window-width="1920"
     inkscape:window-height="1027"
     inkscape:window-x="1920"
     inkscape:window-y="25"
     inkscape:window-maximized="1"
     inkscape:current-layer="components" />
  <defs
     id="defs4">
    <clipPath
       id="clippath">
      <rect
         x="14.9"
         y="32.98"
         width="27.8"
         height="25.62"
         style="fill: none;"
         id="rect1" />
    </clipPath>
    <clipPath
       id="clippath-1">
      <rect
         x="14.9"
         y="32.98"
         width="27.8"
         height="25.62"
         style="fill: none;"
         id="rect2" />
    </clipPath>
    <clipPath
       id="clippath-2">
      <rect
         x="14.9"
         y="115.12"
         width="27.8"
         height="25.62"
         style="fill: none;"
         id="rect3" />
    </clipPath>
    <clipPath
       id="clippath-3">
      <rect
         x="14.9"
         y="115.12"
         width="27.8"
         height="25.62"
         style="fill: none;"
         id="rect4" />
    </clipPath>
  </defs>
  <g
     id="faceplate">
    <g
       id="g5">
      <rect
         x=".13"
         y=".13"
         width="57.35"
         height="364"
         style="fill: #ededed;"
         id="rect5" />
      <path
         d="M57.35.25v363.75H.25V.25h57.1M57.6,0H0v364.25h57.6V0h0Z"
         style="fill: #9d9d9e;"
         id="path5" />
    </g>
    <path
       d="M44.27,261.63c0-8.05-6.98-14.57-15.59-14.57s-15.59,6.53-15.59,14.57v54.4s0,0,0,0v19.77c0,3.11,2.55,5.65,5.67,5.65h19.84c3.12,0,5.67-2.54,5.67-5.65v-19.77s0,0,0,0v-54.39Z"
       style="fill: #d1d3d4;"
       id="path6" />
    <path
       d="M44.27,310.67c0-8.05-6.98-14.57-15.59-14.57s-15.59,6.53-15.59,14.57v5.36s0,0,0,0v19.77c0,3.11,2.55,5.65,5.67,5.65h19.84c3.12,0,5.67-2.54,5.67-5.65v-19.77s0,0,0,0v-5.35Z"
       id="path7" />
    <g
       id="pips_-_fewest"
       data-name="pips - fewest">
      <g
         style="clip-path: url(#clippath);"
         clip-path="url(#clippath)"
         id="g18">
        <g
           style="clip-path: url(#clippath-1);"
           clip-path="url(#clippath-1)"
           id="g17">
          <path
             d="M34.49,35.76l.71-1.23c-1.74-.9-3.7-1.45-5.77-1.55v1.43c1.81.09,3.53.56,5.06,1.35"
             id="path8" />
          <path
             d="M39.29,40.1l1.23-.71c-1.09-1.69-2.53-3.14-4.22-4.22l-.71,1.23c1.48.96,2.74,2.22,3.7,3.7"
             id="path9" />
          <path
             d="M22.01,36.4l-.71-1.23c-1.69,1.09-3.14,2.53-4.22,4.22l1.23.71c.96-1.48,2.22-2.74,3.7-3.7"
             id="path10" />
          <path
             d="M41.27,46.25h1.43c-.09-2.07-.64-4.03-1.55-5.77l-1.23.71c.79,1.53,1.26,3.24,1.35,5.06"
             id="path11" />
          <path
             d="M28.17,34.41v-1.43c-2.07.09-4.03.64-5.77,1.55l.71,1.23c1.53-.79,3.24-1.26,5.06-1.35"
             id="path12" />
          <path
             d="M18.31,53.67l-1.23.71c1.09,1.69,2.53,3.14,4.22,4.22l.71-1.23c-1.48-.96-2.74-2.22-3.7-3.7"
             id="path13" />
          <path
             d="M35.59,57.38l.71,1.23c1.69-1.09,3.14-2.53,4.22-4.22l-1.23-.71c-.96,1.48-2.22,2.74-3.7,3.7"
             id="path14" />
          <path
             d="M41.27,47.52c-.09,1.81-.56,3.53-1.35,5.06l1.23.71c.9-1.74,1.45-3.7,1.55-5.77h-1.43Z"
             id="path15" />
          <path
             d="M16.33,47.52h-1.43c.09,2.07.64,4.03,1.55,5.77l1.23-.71c-.79-1.53-1.26-3.24-1.35-5.06"
             id="path16" />
          <path
             d="M17.68,41.2l-1.23-.71c-.9,1.74-1.45,3.7-1.55,5.77h1.43c.09-1.81.56-3.53,1.35-5.06"
             id="path17" />
        </g>
      </g>
    </g>
    <path
       d="m 6.7089844,-4.6386719 q 0,0.3759766 -0.131836,0.7373047 -0.1269531,0.3564453 -0.415039,0.6689453 -0.288086,0.3076172 -0.78125,0.5029297 -0.4882813,0.1904297 -1.1523438,0.1904297 H 2.890625 V 0 H 0.84960938 V -6.7675781 H 4.2285156 q 0.6640625,0 1.1523438,0.1953125 0.493164,0.1953125 0.78125,0.5078125 0.2880859,0.3125 0.415039,0.6787109 0.131836,0.366211 0.131836,0.7470703 z m -2.0800782,0.00977 q 0,-0.4833985 -0.2880859,-0.6591797 Q 4.0576172,-5.46875 3.3203125,-5.46875 H 2.890625 v 1.6308594 h 0.4394531 q 0.5078125,0 0.78125,-0.063477 0.2734375,-0.063477 0.3955078,-0.234375 0.1220703,-0.1708984 0.1220703,-0.493164 z m 4.233789,-1.4892579 q 0,0.3076172 -0.2197265,0.522461 -0.2197266,0.2148437 -0.522461,0.2148437 -0.2050781,0 -0.3759765,-0.097656 -0.1660157,-0.097656 -0.2636719,-0.2636719 -0.097656,-0.1708984 -0.097656,-0.3759766 0,-0.3027343 0.2148438,-0.5224609 0.2148437,-0.2197266 0.5224609,-0.2197266 0.3027344,0 0.522461,0.2197266 0.2197265,0.2197266 0.2197265,0.5224609 z M 9.0042968,0 H 7.2416015 v -4.9707031 h 1.7626953 z m 4.7318362,-0.28808594 q -0.273438,0.13183594 -0.756836,0.25390625 -0.478516,0.12207031 -0.917969,0.12207031 -1.899414,0 -1.899414,-1.85546872 V -3.75 H 9.3660154 v -0.3076172 l 2.3583986,-2.4023437 h 0.200195 v 1.4892578 h 1.679688 V -3.75 h -1.679688 v 1.5917969 q 0,0.2783203 0.03418,0.4492187 0.03418,0.1708985 0.19043,0.288086 0.161132,0.1123047 0.483398,0.1123047 0.419922,0 1.103516,-0.3515625 z m 4.629297,0.0585937 q -0.219727,0.0830078 -0.463867,0.15625 -0.244141,0.06835938 -0.551758,0.11230469 -0.302734,0.04882812 -0.664063,0.04882812 -0.815429,0 -1.381836,-0.27343749 -0.561523,-0.27832032 -0.86914,-0.69335938 Q 14.132031,-1.2988281 14.014844,-1.7333984 13.897656,-2.1679688 13.897656,-2.5 q 0,-0.3320313 0.117188,-0.7666016 0.12207,-0.4345703 0.419922,-0.8398437 0.297851,-0.4052734 0.859375,-0.6787109 0.566406,-0.2734375 1.391601,-0.2734375 0.551758,0 0.898438,0.078125 0.34668,0.078125 0.703125,0.2099609 v 1.3818359 q -0.859375,-0.2734375 -1.342774,-0.2734375 -0.46875,0 -0.83496,0.2832031 -0.361329,0.2832032 -0.361329,0.8789063 0,0.3955078 0.180664,0.6689453 0.180665,0.2685547 0.458985,0.3955078 0.27832,0.1269532 0.55664,0.1269532 0.263672,0 0.600586,-0.078125 0.336914,-0.078125 0.820313,-0.2246094 z M 24.127539,0 h -1.757813 v -2.578125 q 0,-0.029297 0,-0.053711 0.0049,-0.029297 0.0049,-0.1171875 0,-0.3564454 -0.151367,-0.6542969 -0.151367,-0.2978516 -0.576172,-0.2978516 -0.332031,0 -0.585938,0.2246094 -0.253906,0.2197266 -0.483398,0.5566406 V 0 h -1.757813 v -6.7675781 h 1.757813 v 2.5097656 q 0.43457,-0.4638672 0.859375,-0.6298828 0.424805,-0.1708984 0.90332,-0.1708984 1.78711,0 1.78711,2.0068359 z"
       id="text18"
       style="font-weight:700;font-size:10px;font-family:GillSans-Bold, 'Gill Sans';letter-spacing:-0.04em"
       transform="translate(18 69.84) scale(.88 1)"
       aria-label="Pitch" />
    <g
       id="pips_-_fewest-2"
       data-name="pips - fewest">
      <g
         style="clip-path: url(#clippath-2);"
         clip-path="url(#clippath-2)"
         id="g28">
        <g
           style="clip-path: url(#clippath-3);"
           clip-path="url(#clippath-3)"
           id="g27">
          <path
             d="M34.49,117.9l.71-1.23c-1.74-.9-3.7-1.45-5.77-1.55v1.43c1.81.09,3.53.56,5.06,1.35"
             id="path18" />
          <path
             d="M39.29,122.23l1.23-.71c-1.09-1.69-2.53-3.14-4.22-4.22l-.71,1.23c1.48.96,2.74,2.22,3.7,3.7"
             id="path19" />
          <path
             d="M22.01,118.53l-.71-1.23c-1.69,1.09-3.14,2.53-4.22,4.22l1.23.71c.96-1.48,2.22-2.74,3.7-3.7"
             id="path20" />
          <path
             d="M41.27,128.39h1.43c-.09-2.07-.64-4.03-1.55-5.77l-1.23.71c.79,1.53,1.26,3.24,1.35,5.06"
             id="path21" />
          <path
             d="M28.17,116.55v-1.43c-2.07.09-4.03.64-5.77,1.55l.71,1.23c1.53-.79,3.24-1.26,5.06-1.35"
             id="path22" />
          <path
             d="M18.31,135.81l-1.23.71c1.09,1.69,2.53,3.14,4.22,4.22l.71-1.23c-1.48-.96-2.74-2.22-3.7-3.7"
             id="path23" />
          <path
             d="M35.59,139.51l.71,1.23c1.69-1.09,3.14-2.53,4.22-4.22l-1.23-.71c-.96,1.48-2.22,2.74-3.7,3.7"
             id="path24" />
          <path
             d="M41.27,129.65c-.09,1.81-.56,3.53-1.35,5.06l1.23.71c.9-1.74,1.45-3.7,1.55-5.77h-1.43Z"
             id="path25" />
          <path
             d="M16.33,129.65h-1.43c.09,2.07.64,4.03,1.55,5.77l1.23-.71c-.79-1.53-1.26-3.24-1.35-5.06"
             id="path26" />
          <path
             d="M17.68,123.33l-1.23-.71c-.9,1.74-1.45,3.7-1.55,5.77h1.43c.09-1.81.56-3.53,1.35-5.06"
             id="path27" />
        </g>
      </g>
    </g>
    <path
       d="M 5.8710937,-4.0976562 H 3.8867188 V 0 H 2.2578125 v -4.0976562 h -1.984375 v -1.3164063 h 5.5976562 z m 3.6682811,0.3359374 -0.5195312,1.4101563 Q 8.6995311,-2.65625 8.3714061,-2.65625 q -0.296875,0 -0.515625,0.203125 -0.2148438,0.1992187 -0.4140625,0.7421875 V 0 h -1.40625 v -3.9765625 h 1.40625 v 0.9609375 q 0.1328125,-0.3554688 0.46875,-0.6914063 0.3359375,-0.3398437 0.7890625,-0.3398437 0.2382812,0 0.4140625,0.070312 0.1796875,0.070312 0.4257812,0.2148437 z m 1.1526562,-1.1328124 q 0,0.2460937 -0.175781,0.4179687 -0.175782,0.171875 -0.417969,0.171875 -0.1640626,0 -0.3007813,-0.078125 -0.1328125,-0.078125 -0.2109375,-0.2109375 -0.078125,-0.1367187 -0.078125,-0.3007812 0,-0.2421875 0.171875,-0.4179688 0.171875,-0.1757812 0.4179688,-0.1757812 0.242187,0 0.417969,0.1757812 0.175781,0.1757813 0.175781,0.4179688 z M 10.805312,0 H 9.3951559 v -3.9765625 h 1.4101561 z m 4.64875,-3.1289063 H 14.75875 q 0.367187,0.3203125 0.367187,0.7851563 0,0.2460937 -0.105468,0.4726563 -0.101563,0.2265625 -0.304688,0.4023437 -0.199219,0.1757813 -0.496094,0.2890625 -0.292968,0.109375 -0.671875,0.1328125 -0.488281,0.019531 -0.488281,0.26171875 0,0.09375 0.0625,0.13671875 0.0625,0.0429687 0.195313,0.0664063 0.136718,0.0195313 0.457031,0.046875 0.363281,0.03125 0.675781,0.109375 0.3125,0.078125 0.582031,0.328125 0.269532,0.25 0.269532,0.71484375 0,0.37109375 -0.203125,0.65625 -0.199219,0.2851562 -0.648438,0.4453125 -0.449219,0.1601562 -1.1875,0.1601562 -1.0625,0 -1.5625,-0.2851562 -0.496094,-0.2851563 -0.496094,-0.76171875 0,-0.12890625 0.0625,-0.296875 Q 11.332969,0.3671875 11.54,0.2109375 11.750937,0.0546875 12.149375,0 12.00875,-0.05078125 11.907187,-0.1953125 11.805625,-0.34375 11.805625,-0.50390625 q 0,-0.20703125 0.140625,-0.41015625 0.144531,-0.203125 0.464844,-0.2617187 -0.445313,-0.1171875 -0.769532,-0.4414063 -0.324218,-0.3242187 -0.324218,-0.8398438 0,-0.390625 0.148437,-0.6835937 0.152344,-0.2929688 0.417969,-0.4765625 0.265625,-0.1835938 0.617187,-0.2695313 0.351563,-0.089844 0.769532,-0.089844 h 2.183593 z m -1.554687,0.671875 q 0,-0.3007812 -0.207031,-0.4804687 -0.203125,-0.1835938 -0.457032,-0.1835938 -0.324218,0 -0.511718,0.21875 -0.183594,0.21875 -0.183594,0.4609375 0,0.1679688 0.07813,0.3125 0.08203,0.1445313 0.226562,0.2343751 0.148438,0.085937 0.351563,0.085937 0.304687,0 0.503906,-0.1914063 0.199219,-0.1914063 0.199219,-0.4570313 z m 0.28125,3.1992188 q 0,-0.26171875 -0.28125,-0.33984375 -0.277344,-0.0742188 -0.574219,-0.0742188 -0.488281,0 -0.707031,0.1015625 -0.214844,0.10546875 -0.214844,0.33203125 0,0.44531245 0.898438,0.44531245 0.402343,0 0.640625,-0.1171875 0.238281,-0.1132812 0.238281,-0.3476562 z m 5.457344,-3.8710938 h -0.695312 q 0.367187,0.3203125 0.367187,0.7851563 0,0.2460937 -0.105469,0.4726563 -0.101562,0.2265625 -0.304687,0.4023437 -0.199219,0.1757813 -0.496094,0.2890625 -0.292969,0.109375 -0.671875,0.1328125 -0.488281,0.019531 -0.488281,0.26171875 0,0.09375 0.0625,0.13671875 0.0625,0.0429687 0.195312,0.0664063 0.136719,0.0195313 0.457032,0.046875 0.363281,0.03125 0.675781,0.109375 0.3125,0.078125 0.582031,0.328125 0.269531,0.25 0.269531,0.71484375 0,0.37109375 -0.203125,0.65625 -0.199218,0.2851562 -0.648437,0.4453125 -0.449219,0.1601562 -1.1875,0.1601562 -1.0625,0 -1.5625,-0.2851562 -0.496094,-0.2851563 -0.496094,-0.76171875 0,-0.12890625 0.0625,-0.296875 Q 15.516875,0.3671875 15.723907,0.2109375 15.934844,0.0546875 16.333282,0 16.192657,-0.05078125 16.091094,-0.1953125 15.989532,-0.34375 15.989532,-0.50390625 q 0,-0.20703125 0.140625,-0.41015625 0.144531,-0.203125 0.464843,-0.2617187 -0.445312,-0.1171875 -0.769531,-0.4414063 -0.324219,-0.3242187 -0.324219,-0.8398438 0,-0.390625 0.148438,-0.6835937 0.152344,-0.2929688 0.417969,-0.4765625 0.265625,-0.1835938 0.617187,-0.2695313 0.351563,-0.089844 0.769531,-0.089844 h 2.183594 z m -1.554687,0.671875 q 0,-0.3007812 -0.207032,-0.4804687 -0.203125,-0.1835938 -0.457031,-0.1835938 -0.324219,0 -0.511719,0.21875 -0.183593,0.21875 -0.183593,0.4609375 0,0.1679688 0.07813,0.3125 0.08203,0.1445313 0.226562,0.2343751 0.148438,0.085937 0.351563,0.085937 0.304687,0 0.503906,-0.1914063 0.199219,-0.1914063 0.199219,-0.4570313 z m 0.28125,3.1992188 q 0,-0.26171875 -0.28125,-0.33984375 -0.277344,-0.0742188 -0.574219,-0.0742188 -0.488281,0 -0.707031,0.1015625 -0.214844,0.10546875 -0.214844,0.33203125 0,0.44531245 0.898437,0.44531245 0.402344,0 0.640625,-0.1171875 0.238282,-0.1132812 0.238282,-0.3476562 z M 23.9,-1.6484375 h -2.800782 q 0.08203,0.3632813 0.402344,0.59375 0.320313,0.23046875 0.726563,0.23046875 0.710937,0 1.570312,-0.39843745 v 0.8710937 q -0.308594,0.16015625 -0.75,0.29296875 -0.4375,0.12890625 -1.117187,0.12890625 -0.734375,0 -1.25,-0.2734375 -0.515625,-0.2734375 -0.773438,-0.7421875 -0.253906,-0.46875 -0.253906,-1.0625 0,-0.5859375 0.253906,-1.046875 0.257813,-0.4648438 0.773438,-0.7265625 0.515625,-0.265625 1.25,-0.265625 0.484375,0 0.933593,0.2109375 0.453125,0.2070312 0.742188,0.6835937 Q 23.9,-2.6796875 23.9,-1.9296875 Z M 22.579687,-2.34375 q 0,-0.3828125 -0.191406,-0.609375 -0.1875,-0.2304688 -0.542969,-0.2304688 -0.351562,0 -0.570312,0.234375 Q 21.060156,-2.71875 21.060156,-2.34375 Z M 27.7675,-3.7617188 27.247969,-2.3515625 Q 26.927656,-2.65625 26.599531,-2.65625 q -0.296875,0 -0.515625,0.203125 -0.214844,0.1992187 -0.414062,0.7421875 V 0 h -1.40625 v -3.9765625 h 1.40625 v 0.9609375 q 0.132812,-0.3554688 0.46875,-0.6914063 0.335937,-0.3398437 0.789062,-0.3398437 0.238281,0 0.414063,0.070312 0.179687,0.070312 0.425781,0.2148437 z"
       id="text28"
       style="font-weight:700;font-size:8px;font-family:GillSans-Bold, 'Gill Sans';letter-spacing:-0.04em"
       transform="translate(16.2 289.12) scale(.88 1)"
       aria-label="Trigger" />
    <path
       d="m 6.4726562,-2.7109375 q 0,0.7578125 -0.3515625,1.3945313 -0.3476562,0.6367187 -1.0390625,1.0117187 -0.6914062,0.375 -1.6835937,0.375 -1.0039062,0 -1.6992188,-0.390625 Q 1.0039062,-0.7109375 0.6640625,-1.3476562 0.328125,-1.984375 0.328125,-2.7109375 q 0,-0.7304688 0.3359375,-1.3632812 Q 1,-4.7109375 1.6953125,-5.0976562 q 0.6992188,-0.390625 1.703125,-0.390625 0.75,0 1.3359375,0.2226562 0.5898437,0.2226563 0.96875,0.6054688 0.3789062,0.3789062 0.5742187,0.8867187 0.1953125,0.5039062 0.1953125,1.0625 z m -1.6640625,0 q 0,-0.3046875 -0.089844,-0.5546875 -0.089844,-0.2539063 -0.2734375,-0.4375 -0.1796875,-0.1875 -0.4414063,-0.2890625 -0.2617187,-0.1054687 -0.6054687,-0.1054687 -0.65625,0 -1.03125,0.3828124 -0.375,0.3828125 -0.375,1.0039063 0,0.6210937 0.375,1.0078125 0.3789063,0.3828125 1.03125,0.3828125 0.4492188,0 0.765625,-0.1757812 0.3164062,-0.1796875 0.4804687,-0.4921875 0.1640625,-0.3164063 0.1640625,-0.7226563 z M 11.129219,0 H 9.7190623 v -0.56640625 q -0.296875,0.3203125 -0.625,0.48046875 -0.3242187,0.15625 -0.78125,0.15625 -0.9023437,0 -1.1679687,-0.5234375 -0.265625,-0.52734375 -0.265625,-1.1875 v -2.3359375 h 1.4101562 v 2.1484375 q 0,0.3242188 0.1054688,0.5703125 0.109375,0.2421875 0.46875,0.2421875 0.3085937,0 0.4882812,-0.1757812 0.1796875,-0.1757813 0.3671875,-0.4492188 v -2.3359375 h 1.4101567 z m 3.715156,-0.23046875 q -0.21875,0.10546875 -0.605469,0.203125 -0.382813,0.09765625 -0.734375,0.09765625 -1.519531,0 -1.519531,-1.484375 V -3 H 11.348281 V -3.2460938 L 13.235,-5.1679687 h 0.160156 v 1.1914062 h 1.34375 V -3 h -1.34375 v 1.2734375 q 0,0.2226563 0.02734,0.359375 0.02734,0.1367188 0.152343,0.2304688 0.128907,0.089844 0.386719,0.089844 0.335938,0 0.882813,-0.28125 z"
       id="text29"
       style="font-weight:700;font-size:8px;font-family:GillSans-Bold, 'Gill Sans';letter-spacing:-0.04em;fill:#ffffff"
       transform="translate(22.07 337.31) scale(.88 1)"
       aria-label="Out" />
    <path
       d="M 8.1425781,0 H 5.730957 L 5.1455078,-1.3212891 Q 4.8232422,-2.0463867 4.5654297,-2.3793945 4.3076172,-2.7177734 4.0605469,-2.809082 q -0.2416992,-0.09668 -0.628418,-0.09668 H 3.1796875 V 0 H 0.93457031 V -7.4443359 H 4.753418 q 0.9238281,0 1.5146484,0.3759765 0.5908203,0.3759766 0.8486328,0.913086 0.2631836,0.5371093 0.2631836,1.0205078 0,0.5639648 -0.2202148,0.9560547 -0.2148438,0.3867187 -0.456543,0.5639648 -0.2416992,0.1772461 -0.5424805,0.3383789 0.3598633,0.2094727 0.5908203,0.4995117 0.2363282,0.284668 0.6391602,1.1601563 z M 5.0917969,-5.0917969 q 0,-0.515625 -0.3383789,-0.7197265 Q 4.4150391,-6.015625 3.6523438,-6.015625 H 3.1796875 v 1.7939453 h 0.4833984 q 0.8217774,0 1.1225586,-0.1772461 0.3061524,-0.1826172 0.3061524,-0.6928711 z M 11.418945,0 H 9.1738281 v -7.4443359 h 2.2451169 z m 10.538086,0 h -2.245117 v -4.3129883 l -2.024902,2.4975586 H 17.509766 L 15.479492,-4.3129883 V 0 h -2.180664 v -7.4443359 h 2.035645 l 2.288086,2.7929687 2.298828,-2.7929687 h 2.035644 z"
       id="text30"
       style="font-weight:700;font-size:11px;font-family:GillSans-Bold, 'Gill Sans'"
       transform="translate(19.29 357.06) scale(.82 1)"
       aria-label="RIM" />
    <path
       d="M 7.4023437,0 H 5.2099609 L 4.6777344,-1.2011719 Q 4.3847656,-1.8603516 4.1503906,-2.1630859 3.9160156,-2.4707031 3.6914063,-2.5537109 3.4716797,-2.6416016 3.1201172,-2.6416016 H 2.890625 V 0 H 0.84960938 V -6.7675781 H 4.3212891 q 0.8398437,0 1.3769531,0.3417969 0.5371094,0.3417968 0.7714844,0.8300781 0.2392578,0.4882812 0.2392578,0.9277344 0,0.5126953 -0.2001953,0.8691406 Q 6.3134766,-3.4472656 6.09375,-3.2861328 5.8740234,-3.125 5.6005859,-2.9785156 5.9277344,-2.7880859 6.1376953,-2.5244141 6.3525391,-2.265625 6.71875,-1.4697266 Z M 4.6289062,-4.6289062 q 0,-0.46875 -0.3076171,-0.6542969 Q 4.0136719,-5.46875 3.3203125,-5.46875 H 2.890625 v 1.6308594 h 0.4394531 q 0.7470703,0 1.0205078,-0.1611328 0.2783203,-0.1660157 0.2783203,-0.6298828 z m 4.7220703,-1.4892579 q 0,0.3076172 -0.2197266,0.522461 -0.2197266,0.2148437 -0.5224609,0.2148437 -0.2050782,0 -0.3759766,-0.097656 -0.1660156,-0.097656 -0.2636719,-0.2636719 -0.097656,-0.1708984 -0.097656,-0.3759766 0,-0.3027343 0.2148437,-0.5224609 0.2148438,-0.2197266 0.522461,-0.2197266 0.3027343,0 0.5224609,0.2197266 0.2197266,0.2197266 0.2197266,0.5224609 z M 9.492578,0 H 7.7298827 V -4.9707031 H 9.492578 Z m 6.118555,0 H 13.85332 v -2.6806641 q 0,-0.4101562 -0.136719,-0.7128906 -0.131836,-0.3076172 -0.585937,-0.3076172 -0.214844,0 -0.38086,0.083008 -0.161132,0.078125 -0.292968,0.2050782 -0.126953,0.1269531 -0.214844,0.2441406 -0.08789,0.1171875 -0.180664,0.2490234 V 0 h -1.757813 v -4.9707031 h 1.757813 v 0.7128906 q 0.415039,-0.4443359 0.830078,-0.6201172 0.419922,-0.180664 0.932617,-0.180664 1.78711,0 1.78711,2.1386718 z m 5.654688,-3.9111328 H 20.39668 q 0.458984,0.4003906 0.458984,0.9814453 0,0.3076172 -0.131836,0.5908203 -0.126953,0.2832031 -0.380859,0.5029297 -0.249023,0.2197266 -0.620117,0.3613281 -0.366211,0.1367188 -0.839844,0.1660157 -0.610352,0.024414 -0.610352,0.32714839 0,0.1171875 0.07813,0.17089843 0.07813,0.0537109 0.244141,0.0830078 0.170899,0.0244141 0.571289,0.0585938 0.454102,0.0390625 0.844727,0.13671875 0.390625,0.0976563 0.727539,0.41015625 0.336914,0.3125 0.336914,0.89355468 0,0.46386723 -0.253906,0.82031253 -0.249024,0.3564453 -0.810547,0.5566406 -0.561524,0.2001953 -1.484375,0.2001953 -1.328125,0 -1.953125,-0.3564453 -0.620117,-0.3564453 -0.620117,-0.9521484 0,-0.16113285 0.07812,-0.37109379 0.08301,-0.20996093 0.341796,-0.40527343 Q 16.636914,0.06835937 17.134961,0 16.95918,-0.06347656 16.832227,-0.24414063 16.705274,-0.4296875 16.705274,-0.62988281 q 0,-0.25878907 0.175781,-0.51269529 0.180664,-0.2539063 0.581055,-0.3271485 -0.556641,-0.1464843 -0.961914,-0.5517578 -0.405274,-0.4052734 -0.405274,-1.0498047 0,-0.4882812 0.185547,-0.8544922 0.19043,-0.3662109 0.522461,-0.5957031 0.332031,-0.2294922 0.771484,-0.336914 0.439453,-0.1123047 0.961914,-0.1123047 h 2.729493 z m -1.94336,0.8398437 q 0,-0.3759765 -0.258789,-0.6005859 -0.253906,-0.2294922 -0.571289,-0.2294922 -0.405273,0 -0.639648,0.2734375 -0.229493,0.2734375 -0.229493,0.5761719 0,0.2099609 0.09766,0.390625 0.102539,0.180664 0.283203,0.2929687 0.185547,0.1074219 0.439453,0.1074219 0.380859,0 0.629883,-0.2392578 0.249023,-0.2392578 0.249023,-0.5712891 z m 0.351563,3.99902348 q 0,-0.32714844 -0.351563,-0.42480469 -0.34668,-0.0927734 -0.717773,-0.0927734 -0.610352,0 -0.883789,0.12695312 -0.268555,0.13183594 -0.268555,0.41503907 0,0.55664066 1.123047,0.55664066 0.50293,0 0.800781,-0.1464844 0.297852,-0.1416016 0.297852,-0.43457032 z"
       id="text31"
       style="font-weight:700;font-size:10px;font-family:GillSans-Bold, 'Gill Sans';letter-spacing:-0.04em"
       transform="translate(19.41 151.94) scale(.88 1)"
       aria-label="Ring" />
    <g
       id="g33">
      <path
         d="M20.6,18.07c-.37,0-.71-.17-.97-.47-.51-.6-.52-1.54-.04-2.16l6.97-8.88c.38-.48,1.05-.65,1.57-.39.5.25.79.82.79,1.45v4.77l4.64-5.85c.38-.48,1.01-.64,1.53-.38.5.25.83.81.83,1.44v8.82c0,.86-.61,1.57-1.36,1.57s-1.36-.7-1.36-1.57v-4.79l-4.64,5.85c-.38.48-1.01.64-1.54.38-.5-.24-.83-.81-.83-1.44v-4.67l-4.61,5.8c-.26.32-.62.51-1,.51h0Z"
         style="fill: #2cabe1;"
         id="path31" />
      <path
         d="M20.6,18.07c-.75,0-1.35-.7-1.35-1.57v-4.93l-2.26,2.84c-.5.63-1.44.65-1.97.04-.51-.6-.52-1.53-.03-2.15l4.61-5.76c.26-.32.63-.5,1-.5.18,0,.37.04.54.12.5.25.82.81.82,1.44v8.89c0,.86-.61,1.57-1.36,1.57h0Z"
         style="fill: #ea2228;"
         id="path32" />
      <path
         d="M37.2,18.09h0c-.35,0-.68-.15-.94-.42-.76-.78-.14-1.84.29-2.3l1.95-2.36-1.26-.02c-.56-.01-1.04-.4-1.24-1-.19-.56-.07-1.21.29-1.64l3.16-3.83c.23-.28.55-.48,1.13-.47.33,0,.67.17.92.4.71.66.29,1.7-.07,2.2l-1.04,1.26,1.26.02c.56.01,1.04.4,1.24,1,.19.56.07,1.21-.29,1.64l-4.1,4.97c-.35.35-.65.55-1.3.54h0Z"
         style="fill: #00a650;"
         id="path33" />
    </g>
    <line
       x1="28.8"
       y1="73.19"
       x2="28.8"
       y2="92.19"
       style="fill: #fff; stroke: #231f20; stroke-miterlimit: 10;"
       id="line33" />
    <line
       x1="28.8"
       y1="155.3"
       x2="28.8"
       y2="174.3"
       style="fill: #fff; stroke: #231f20; stroke-miterlimit: 10;"
       id="line34" />
  </g>
  <g
     id="components">
    <circle
       id="Out"
       cx="28.8"
       cy="313.71"
       r="11.34"
       style="fill: blue;" />
    <circle
       id="Trigger"
       cx="28.8"
       cy="264.9"
       r="11.34"
       style="fill: #80ff80;" />
    <circle
       id="Ring_CV"
       data-name="Ring CV"
       cx="28.8"
       cy="177.02"
       r="11.34"
       style="fill: lime;" />
    <circle
       id="Ring"
       cx="28.8"
       cy="128.83"
       r="8.5"
       style="fill: #ff0040;" />
    <circle
       id="Pitch_CV"
       data-name="Pitch CV"
       cx="28.8"
       cy="94.82"
       r="11.34"
       style="fill: lime;" />
    <circle
       id="Pitch"
       cx="28.8"
       cy="46.63"
       r="8.5"
       style="fill: #ff0030;" />
    <text
       id="slug"
       transform="translate(13.32 368.87)"
       style="fill: #010101; font-family: MyriadPro-Regular, 'Myriad Pro'; font-size: 3px;"><tspan
         x="0"
         y="0"
         style="letter-spacing: 0em;"
         id="tspan34">R</tspan><tspan
         x="1.64"
         y="0"
         id="tspan35">imshot</tspan></text>
    <text
       id="modulename"
       transform="translate(26.88 368.87)"
       style="fill: #010101; font-family: MyriadPro-Regular, 'Myriad Pro'; font-size: 3px;"><tspan
         x="0"
         y="0"
         style="letter-spacing: 0em;"
         id="tspan36">R</tspan><tspan
         x="1.64"
         y="0"
         id="tspan37">imshot Drum </tspan><tspan
         x="18.75"
         y="0"
         style="letter-spacing: 0em;"
         id="tspan38">M</tspan><tspan
         x="21.18"
         y="0"
         style="letter-spacing: 0em;"
         id="tspan39">odule</tspan></text>
  </g>
</svg>
