<?xml version="1.0" encoding="UTF-8" standalone="no"?>
<svg
   id="svg45"
   width="57.599998"
   height="364.25"
   viewBox="0 0 57.6 364.25"
   version="1.1"
   sodipodi:docname="Rimshot_info.svg"
   inkscape:version="1.4 (e7c3feb1, 2024-10-09)"
   xmlns:inkscape="http://www.inkscape.org/namespaces/inkscape"
   xmlns:sodipodi="http://sodipodi.sourceforge.net/DTD/sodipodi-0.dtd"
   xmlns="http://www.w3.org/2000/svg"
   xmlns:svg="http://www.w3.org/2000/svg">
  <sodipodi:namedview
     id="namedview39"
     pagecolor="#ffffff"
     bordercolor="#000000"
     borderopacity="0.25"
     inkscape:showpageshadow="2"
     inkscape:pageopacity="0.0"
     inkscape:pagecheckerboard="0"
     inkscape:deskcolor="#d1d1d1"
     inkscape:zoom="2.7288709"
     inkscape:cx="28.766476"
     inkscape:cy="184.875"
     inkscape:window-width="1200"
     inkscape:window-height="1186"
     inkscape:window-x="2240"
     inkscape:window-y="25"
     inkscape:window-maximized="0"
     inkscape:current-layer="svg45" />
  <defs
     id="defs2">
    <clipPath
       id="clippath">
      <rect
         x="14.9"
         y="115.12"
         width="27.799999"
         height="25.620001"
         style="fill:none"
         id="rect1" />
    </clipPath>
    <clipPath
       id="clippath-1">
      <rect
         x="14.9"
         y="115.12"
         width="27.799999"
         height="25.620001"
         style="fill:none"
         id="rect2" />
    </clipPath>
  </defs>
  <g
     id="faceplate">
    <g
       id="rect5">
      <rect
         x="0.13"
         y="0.13"
         width="57.349998"
         height="364"
         style="fill:#ededed"
         id="rect3" />
      <path
         d="M 57.35,0.25 V 364 H 0.25 V 0.25 h 57.1 M 57.6,0 H 0 v 364.25 h 57.6 z"
         style="fill:#9d9d9e"
         id="path3" />
    </g>
    <path
       id="path6"
       d="m 44.27,261.64 c 0,-8.05 -6.98,-14.57 -15.59,-14.57 -8.61,0 -15.59,6.53 -15.59,14.57 v 54.4 0 19.77 c 0,3.11 2.55,5.65 5.67,5.65 H 38.6 c 3.12,0 5.67,-2.54 5.67,-5.65 v -19.77 0 -54.39 0 z"
       style="fill:#d1d3d4" />
    <path
       id="path7"
       d="m 44.27,310.68 c 0,-8.05 -6.98,-14.57 -15.59,-14.57 -8.61,0 -15.59,6.53 -15.59,14.57 v 5.36 0 19.77 c 0,3.11 2.55,5.65 5.67,5.65 H 38.6 c 3.12,0 5.67,-2.54 5.67,-5.65 v -19.77 0 -5.35 0 z" />
    <g
       id="text11"
       style="isolation:isolate">
      <g
         style="isolation:isolate"
         id="g6">
        <g
           style="isolation:isolate"
           id="g3">
          <text
             transform="matrix(0.88,0,0,1,15.62,289.13)"
             style="font-weight:700;font-size:8px;font-family:GillSans-Bold, 'Gill Sans';isolation:isolate"
             id="text3"><tspan
               x="0"
               y="0"
               id="tspan3">T</tspan></text>
        </g>
        <g
           style="isolation:isolate"
           id="g4">
          <text
             transform="matrix(0.88,0,0,1,20.82,289.13)"
             style="font-weight:700;font-size:8px;font-family:GillSans-Bold, 'Gill Sans';isolation:isolate"
             id="text4"><tspan
               x="0"
               y="0"
               id="tspan4">r</tspan></text>
        </g>
        <g
           style="isolation:isolate"
           id="g5">
          <text
             transform="matrix(0.88,0,0,1,23.99,289.13)"
             style="font-weight:700;font-size:8px;font-family:GillSans-Bold, 'Gill Sans';isolation:isolate"
             id="text5"><tspan
               x="0"
               y="0"
               id="tspan5">igger</tspan></text>
        </g>
      </g>
    </g>
    <g
       id="text12"
       style="isolation:isolate">
      <g
         style="isolation:isolate"
         id="g8">
        <g
           style="isolation:isolate"
           id="g7">
          <text
             transform="matrix(0.88,0,0,1,21.79,337.32)"
             style="font-weight:700;font-size:8px;font-family:GillSans-Bold, 'Gill Sans';isolation:isolate;fill:#ffffff"
             id="text6"><tspan
               x="0"
               y="0"
               id="tspan6">Out</tspan></text>
        </g>
      </g>
    </g>
    <g
       id="pips_-_fewest"
       data-name="pips - fewest">
      <path
         id="path12"
         d="m 34.5,35.77 0.71,-1.23 c -1.74,-0.9 -3.7,-1.45 -5.77,-1.55 v 1.43 c 1.81,0.09 3.53,0.56 5.06,1.35" />
      <path
         id="path13"
         d="m 39.29,40.1 1.23,-0.71 C 39.43,37.7 37.99,36.25 36.3,35.17 l -0.71,1.23 c 1.48,0.96 2.74,2.22 3.7,3.7" />
      <path
         id="path14"
         d="m 22.02,36.4 -0.71,-1.23 c -1.69,1.09 -3.14,2.53 -4.22,4.22 l 1.23,0.71 c 0.96,-1.48 2.22,-2.74 3.7,-3.7" />
      <path
         id="path15"
         d="m 41.28,46.26 h 1.43 c -0.09,-2.07 -0.64,-4.03 -1.55,-5.77 l -1.23,0.71 c 0.79,1.53 1.26,3.24 1.35,5.06" />
      <path
         id="path16"
         d="m 28.17,34.42 v -1.43 c -2.07,0.09 -4.03,0.64 -5.77,1.55 l 0.71,1.23 c 1.53,-0.79 3.24,-1.26 5.06,-1.35" />
      <path
         id="path17"
         d="m 18.32,53.68 -1.23,0.71 c 1.09,1.69 2.53,3.14 4.22,4.22 l 0.71,-1.23 c -1.48,-0.96 -2.74,-2.22 -3.7,-3.7" />
      <path
         id="path18"
         d="m 35.59,57.38 0.71,1.23 c 1.69,-1.09 3.14,-2.53 4.22,-4.22 l -1.23,-0.71 c -0.96,1.48 -2.22,2.74 -3.7,3.7" />
      <path
         id="path19"
         d="m 41.28,47.52 c -0.09,1.81 -0.56,3.53 -1.35,5.06 l 1.23,0.71 c 0.9,-1.74 1.45,-3.7 1.55,-5.77 z" />
      <path
         id="path20"
         d="M 16.33,47.52 H 14.9 c 0.09,2.07 0.64,4.03 1.55,5.77 l 1.23,-0.71 c -0.79,-1.53 -1.26,-3.24 -1.35,-5.06" />
      <path
         id="path21"
         d="m 17.68,41.2 -1.23,-0.71 c -0.9,1.74 -1.45,3.7 -1.55,5.77 h 1.43 c 0.09,-1.81 0.56,-3.53 1.35,-5.06" />
    </g>
    <g
       id="text32"
       style="isolation:isolate">
      <g
         style="isolation:isolate"
         id="g10">
        <g
           style="isolation:isolate"
           id="g9">
          <text
             transform="matrix(0.88,0,0,1,17.26,69.94)"
             style="font-weight:700;font-size:10px;font-family:GillSans-Bold, 'Gill Sans';isolation:isolate"
             id="text8"><tspan
               x="0"
               y="0"
               id="tspan8">Pitch</tspan></text>
        </g>
      </g>
    </g>
    <g
       id="pips_-_fewest-2"
       data-name="pips - fewest-2">
      <g
         clip-path="url(#clippath)"
         id="g31">
        <g
           clip-path="url(#clippath-1)"
           id="g30">
          <g
             id="g29">
            <path
               d="m 34.49,117.9 0.71,-1.23 c -1.74,-0.9 -3.7,-1.45 -5.77,-1.55 v 1.43 c 1.81,0.09 3.53,0.56 5.06,1.35"
               id="path10" />
            <path
               d="m 39.29,122.24 1.23,-0.71 c -1.09,-1.69 -2.53,-3.14 -4.22,-4.22 l -0.71,1.23 c 1.48,0.96 2.74,2.22 3.7,3.7"
               id="path11" />
            <path
               d="m 22.02,118.54 -0.71,-1.23 c -1.69,1.09 -3.14,2.53 -4.22,4.22 l 1.23,0.71 c 0.96,-1.48 2.22,-2.74 3.7,-3.7"
               id="path22" />
            <path
               d="m 41.28,128.39 h 1.43 c -0.09,-2.07 -0.64,-4.03 -1.55,-5.77 l -1.23,0.71 c 0.79,1.53 1.26,3.24 1.35,5.06"
               id="path23" />
            <path
               d="m 28.17,116.55 v -1.43 c -2.07,0.09 -4.03,0.64 -5.77,1.55 l 0.71,1.23 c 1.53,-0.79 3.24,-1.26 5.06,-1.35"
               id="path24" />
            <path
               d="m 18.31,135.81 -1.23,0.71 c 1.09,1.69 2.53,3.14 4.22,4.22 l 0.71,-1.23 c -1.48,-0.96 -2.74,-2.22 -3.7,-3.7"
               id="path25" />
            <path
               d="m 35.59,139.51 0.71,1.23 c 1.69,-1.09 3.14,-2.53 4.22,-4.22 l -1.23,-0.71 c -0.96,1.48 -2.22,2.74 -3.7,3.7"
               id="path26" />
            <path
               d="m 41.28,129.66 c -0.09,1.81 -0.56,3.53 -1.35,5.06 l 1.23,0.71 c 0.9,-1.74 1.45,-3.7 1.55,-5.77 z"
               id="path27" />
            <path
               d="M 16.33,129.66 H 14.9 c 0.09,2.07 0.64,4.03 1.55,5.77 l 1.23,-0.71 c -0.79,-1.53 -1.26,-3.24 -1.35,-5.06"
               id="path28" />
            <path
               d="m 17.68,123.33 -1.23,-0.71 c -0.9,1.74 -1.45,3.7 -1.55,5.77 h 1.43 c 0.09,-1.81 0.56,-3.53 1.35,-5.06"
               id="path29" />
          </g>
        </g>
      </g>
    </g>
    <g
       style="isolation:isolate"
       id="g33">
      <g
         style="isolation:isolate"
         id="g32">
        <text
           transform="matrix(0.88,0,0,1,18.88,152.05)"
           style="font-weight:700;font-size:10px;font-family:GillSans-Bold, 'Gill Sans';isolation:isolate"
           id="text31"><tspan
             x="0"
             y="0"
             id="tspan31">Ring</tspan></text>
      </g>
    </g>
    <line
       x1="28.799999"
       y1="155.31"
       x2="28.799999"
       y2="174.3"
       style="fill:none;stroke:#231f20;stroke-miterlimit:10"
       id="line33" />
    <g
       style="isolation:isolate"
       id="g34">
      <text
         transform="matrix(0.82,0,0,1,19.41,357.18)"
         style="font-weight:700;font-size:11px;font-family:GillSans-Bold, 'Gill Sans';isolation:isolate"
         id="text33"><tspan
           x="0"
           y="0"
           id="tspan33">RIM</tspan></text>
    </g>
    <g
       id="g35">
      <path
         id="path33"
         d="M 20.61,18.07 C 20.24,18.07 19.9,17.9 19.64,17.6 19.13,17 19.12,16.06 19.6,15.44 l 6.97,-8.88 c 0.38,-0.48 1.05,-0.65 1.57,-0.39 0.52,0.26 0.79,0.82 0.79,1.45 v 4.77 l 4.64,-5.85 c 0.38,-0.48 1.01,-0.64 1.53,-0.38 0.5,0.25 0.83,0.81 0.83,1.44 v 8.82 c 0,0.86 -0.61,1.57 -1.36,1.57 -0.75,0 -1.36,-0.7 -1.36,-1.57 v -4.79 l -4.64,5.85 c -0.38,0.48 -1.01,0.64 -1.54,0.38 -0.5,-0.24 -0.83,-0.81 -0.83,-1.44 v -4.67 l -4.61,5.8 c -0.26,0.32 -0.62,0.51 -1,0.51 h 0.02 z"
         style="fill:#2cabe1" />
      <path
         id="path34"
         d="m 20.6,18.07 c -0.75,0 -1.35,-0.7 -1.35,-1.57 v -4.93 l -2.26,2.84 c -0.5,0.63 -1.44,0.65 -1.97,0.04 -0.51,-0.6 -0.52,-1.53 -0.03,-2.15 L 19.6,6.54 c 0.26,-0.32 0.63,-0.5 1,-0.5 0.18,0 0.37,0.04 0.54,0.12 0.5,0.25 0.82,0.81 0.82,1.44 v 8.89 c 0,0.86 -0.61,1.57 -1.36,1.57 v 0 z"
         style="fill:#ea2228" />
      <path
         id="path35"
         d="m 37.2,18.09 v 0 c -0.35,0 -0.68,-0.15 -0.94,-0.42 -0.76,-0.78 -0.14,-1.84 0.29,-2.3 l 1.95,-2.36 -1.26,-0.02 c -0.56,-0.01 -1.04,-0.4 -1.24,-1 -0.19,-0.56 -0.07,-1.21 0.29,-1.64 L 39.45,6.52 C 39.68,6.24 40,6.04 40.58,6.05 c 0.33,0 0.67,0.17 0.92,0.4 0.71,0.66 0.29,1.7 -0.07,2.2 l -1.04,1.26 1.26,0.02 c 0.56,0.01 1.04,0.4 1.24,1 0.19,0.56 0.07,1.21 -0.29,1.64 l -4.1,4.97 c -0.35,0.35 -0.65,0.55 -1.3,0.54 v 0 z"
         style="fill:#00a650" />
    </g>
    <line
       id="line35"
       x1="28.799999"
       y1="73.199997"
       x2="28.799999"
       y2="92.190002"
       style="fill:none;stroke:#231f20;stroke-miterlimit:10" />
  </g>
  <g
     id="components"
     style="display:none">
    <circle
       id="Out"
       cx="28.68"
       cy="313.72"
       r="11.34"
       style="fill:#0000ff" />
    <circle
       id="Trigger"
       cx="28.68"
       cy="264.92001"
       r="11.34"
       style="fill:#80ff80" />
    <circle
       id="Ring_CV"
       data-name="Ring CV"
       cx="28.799999"
       cy="177.05"
       r="11.34"
       style="fill:#00ff00" />
    <circle
       id="Ring"
       cx="28.799999"
       cy="128.86"
       r="8.5"
       style="fill:#ff0040" />
    <circle
       id="Pitch_CV"
       data-name="Pitch CV"
       cx="28.799999"
       cy="94.839996"
       r="11.34"
       style="fill:#00ff00" />
    <circle
       id="Pitch"
       cx="28.799999"
       cy="46.650002"
       r="8.5"
       style="fill:#ff0033" />
    <g
       id="slug"
       style="isolation:isolate">
      <text
         transform="translate(13.44,369)"
         style="font-size:3px;font-family:MyriadPro-Regular, 'Myriad Pro';isolation:isolate;fill:#010101"
         id="text34"><tspan
           x="0"
           y="0"
           id="tspan34">R</tspan></text>
      <text
         transform="translate(15.08,369)"
         style="font-size:3px;font-family:MyriadPro-Regular, 'Myriad Pro';isolation:isolate;fill:#010101"
         id="text35"><tspan
           x="0"
           y="0"
           id="tspan35">imshot</tspan></text>
    </g>
    <g
       id="modulename"
       style="isolation:isolate">
      <text
         transform="translate(27.01,369)"
         style="font-size:3px;font-family:MyriadPro-Regular, 'Myriad Pro';isolation:isolate;fill:#010101"
         id="text36"><tspan
           x="0"
           y="0"
           id="tspan36">R</tspan></text>
      <text
         transform="translate(28.65,369)"
         style="font-size:3px;font-family:MyriadPro-Regular, 'Myriad Pro';isolation:isolate;fill:#010101"
         id="text37"><tspan
           x="0"
           y="0"
           id="tspan37">imshot Drum</tspan></text>
      <text
         transform="translate(45.76,369)"
         style="font-size:3px;font-family:MyriadPro-Regular, 'Myriad Pro';isolation:isolate;fill:#010101"
         id="text38"><tspan
           x="0"
           y="0"
           id="tspan38">M</tspan></text>
      <text
         transform="translate(48.19,369)"
         style="font-size:3px;font-family:MyriadPro-Regular, 'Myriad Pro';isolation:isolate;fill:#010101"
         id="text39"><tspan
           x="0"
           y="0"
           id="tspan39">odule</tspan></text>
    </g>
  </g>
</svg>
