<?xml version="1.0" encoding="UTF-8" standalone="no"?>
<svg
   width="76.289131mm"
   height="128.58908mm"
   viewBox="0 0 216.24753 364.49999"
   version="1.1"
   id="svg143"
   sodipodi:docname="Snare_info.svg"
   inkscape:version="1.4 (e7c3feb1, 2024-10-09)"
   xmlns:inkscape="http://www.inkscape.org/namespaces/inkscape"
   xmlns:sodipodi="http://sodipodi.sourceforge.net/DTD/sodipodi-0.dtd"
   xmlns="http://www.w3.org/2000/svg"
   xmlns:svg="http://www.w3.org/2000/svg">
  <defs
     id="defs143" />
  <sodipodi:namedview
     id="namedview143"
     pagecolor="#ffffff"
     bordercolor="#000000"
     borderopacity="0.25"
     inkscape:showpageshadow="2"
     inkscape:pageopacity="0.0"
     inkscape:pagecheckerboard="0"
     inkscape:deskcolor="#d1d1d1"
     inkscape:document-units="mm"
     inkscape:zoom="2.0460193"
     inkscape:cx="143.69366"
     inkscape:cy="246.57636"
     inkscape:window-width="1200"
     inkscape:window-height="1186"
     inkscape:window-x="1721"
     inkscape:window-y="25"
     inkscape:window-maximized="0"
     inkscape:current-layer="components" />
  <g
     id="faceplate"
     transform="translate(0.00377589,0.005)">
    <rect
       x="0.12"
       y="0.12"
       width="216"
       height="364.25"
       style="fill:#ededed;stroke:#9d9d9e;stroke-width:0.25px;stroke-miterlimit:10"
       id="rect1" />
    <g
       id="new_pill"
       data-name="new pill">
      <path
         d="m 18.41,336.23 c 0,3.11 2.54,5.65 5.65,5.65 h 168.13 c 3.11,0 5.65,-2.54 5.65,-5.65 v -106.3 c 0,-7.82 -6.4,-14.22 -14.22,-14.22 H 32.63 c -7.82,0 -14.22,6.4 -14.22,14.22 z"
         style="fill:#d1d3d4;stroke:#d1d3d4;stroke-miterlimit:10"
         id="path1" />
      <path
         d="M 198.24,318.84 V 297.32 H 176.7 c -7.49,0 -13.57,6.52 -13.57,14.57 v 30.53 h 15.07 c 0,0 0,0 0,0 h 14.39 c 3.12,0 5.64,-2.36 5.64,-5.25 v -18.39 0.08 z"
         id="path2" />
    </g>
    <g
       id="art">
      <text
         transform="matrix(0.88,0,0,1,18.5,193.01)"
         style="font-weight:700;font-size:10px;font-family:GillSans-Bold, 'Gill Sans';letter-spacing:-0.04em"
         id="text2"><tspan
           x="0"
           y="0"
           id="tspan2">Body/Noise</tspan></text>
      <g
         id="g17">
        <path
           d="m 43.5,143.71 c -0.83,0 -1.65,0.07 -2.45,0.17 l -0.39,-2.21 c 0.93,-0.12 1.88,-0.19 2.84,-0.19 0.96,0 1.91,0.07 2.84,0.19 l -0.39,2.21 c -0.81,-0.1 -1.62,-0.17 -2.45,-0.17 z"
           id="path3" />
        <path
           d="m 29.01,150.08 -1.73,-1.45 c 1.28,-1.4 2.74,-2.63 4.34,-3.66 l 1.12,1.94 c -1.38,0.9 -2.62,1.96 -3.73,3.16 z"
           id="path4" />
        <path
           d="m 34.47,145.91 -1.12,-1.94 c 1.67,-0.87 3.46,-1.53 5.34,-1.95 l 0.39,2.21 c -1.62,0.37 -3.16,0.94 -4.61,1.69 z"
           id="path5" />
        <path
           d="m 25.27,155.85 -2.1,-0.76 c 0.73,-1.77 1.69,-3.42 2.83,-4.92 l 1.73,1.45 c -0.98,1.3 -1.82,2.71 -2.46,4.23 z"
           id="path6" />
        <path
           d="m 47.92,144.23 0.39,-2.21 c 1.88,0.42 3.67,1.08 5.34,1.95 l -1.12,1.94 c -1.44,-0.74 -2.98,-1.31 -4.6,-1.69 z"
           id="path7" />
        <path
           d="m 23.78,162.55 h -2.26 c 0.08,-1.93 0.41,-3.8 0.96,-5.58 l 2.11,0.77 c -0.47,1.53 -0.73,3.15 -0.81,4.81 z"
           id="path8" />
        <path
           d="m 24.65,169.34 -2.1,0.76 c -0.57,-1.79 -0.91,-3.65 -1.01,-5.56 h 2.23 c 0.09,1.65 0.39,3.25 0.88,4.8 z"
           id="path9" />
        <path
           d="m 27.79,175.43 -1.71,1.44 c -1.15,-1.5 -2.11,-3.14 -2.84,-4.88 l 2.1,-0.77 c 0.64,1.5 1.46,2.91 2.45,4.2 z"
           id="path10" />
        <path
           d="M 59.27,151.62 61,150.17 c 1.14,1.5 2.1,3.15 2.83,4.92 l -2.1,0.77 c -0.64,-1.52 -1.48,-2.93 -2.46,-4.23 z"
           id="path11" />
        <path
           d="m 62.41,157.73 2.11,-0.77 c 0.55,1.78 0.88,3.65 0.96,5.58 h -2.26 c -0.08,-1.66 -0.34,-3.28 -0.81,-4.81 z"
           id="path12" />
        <path
           d="m 63.23,164.54 h 2.23 c -0.09,1.91 -0.44,3.78 -1.01,5.56 l -2.1,-0.77 c 0.48,-1.54 0.79,-3.15 0.88,-4.8 z"
           id="path13" />
        <path
           d="m 61.66,171.22 2.11,0.77 c -0.73,1.74 -1.69,3.38 -2.84,4.88 l -1.71,-1.44 c 0.99,-1.3 1.81,-2.71 2.45,-4.2 z"
           id="path14" />
        <path
           d="M 32.81,180.07 31.69,182 c -1.61,-1.03 -3.05,-2.24 -4.32,-3.62 l 1.71,-1.44 c 1.1,1.18 2.34,2.23 3.72,3.12 z"
           id="path15" />
        <path
           d="m 57.92,176.95 1.71,1.44 c -1.27,1.37 -2.71,2.59 -4.32,3.62 l -1.12,-1.93 c 1.38,-0.89 2.62,-1.94 3.72,-3.12 z"
           id="path16" />
        <path
           d="m 54.26,146.92 1.12,-1.94 c 1.6,1.03 3.06,2.26 4.34,3.66 l -1.73,1.45 c -1.11,-1.2 -2.36,-2.27 -3.74,-3.16 z"
           id="path17" />
      </g>
      <text
         transform="matrix(0.88,0,0,1,32.79,76.33)"
         style="font-weight:700;font-size:10px;font-family:GillSans-Bold, 'Gill Sans';letter-spacing:-0.04em"
         id="text17"><tspan
           x="0"
           y="0"
           id="tspan17">Pitch</tspan></text>
      <g
         id="g32">
        <path
           d="m 43.5,26.6 c -0.83,0 -1.65,0.07 -2.45,0.17 l -0.39,-2.21 c 0.93,-0.12 1.88,-0.19 2.84,-0.19 0.96,0 1.91,0.07 2.84,0.19 l -0.39,2.21 C 45.14,26.67 44.33,26.6 43.5,26.6 Z"
           id="path18" />
        <path
           d="m 29.01,32.98 -1.73,-1.45 c 1.28,-1.4 2.74,-2.63 4.34,-3.66 l 1.12,1.94 c -1.38,0.9 -2.62,1.96 -3.73,3.16 z"
           id="path19" />
        <path
           d="m 34.47,28.81 -1.12,-1.94 c 1.67,-0.87 3.46,-1.53 5.34,-1.95 l 0.39,2.21 c -1.62,0.37 -3.16,0.94 -4.61,1.69 z"
           id="path20" />
        <path
           d="m 25.27,38.74 -2.1,-0.76 C 23.9,36.21 24.86,34.56 26,33.06 l 1.73,1.45 c -0.98,1.3 -1.82,2.71 -2.46,4.23 z"
           id="path21" />
        <path
           d="m 47.92,27.12 0.39,-2.21 c 1.88,0.42 3.67,1.08 5.34,1.95 l -1.12,1.94 c -1.44,-0.74 -2.98,-1.31 -4.6,-1.69 z"
           id="path22" />
        <path
           d="m 23.78,45.44 h -2.26 c 0.08,-1.93 0.41,-3.8 0.96,-5.58 l 2.11,0.77 c -0.47,1.53 -0.73,3.15 -0.81,4.81 z"
           id="path23" />
        <path
           d="M 24.65,52.24 22.55,53 c -0.57,-1.79 -0.91,-3.65 -1.01,-5.56 h 2.23 c 0.09,1.65 0.39,3.25 0.88,4.8 z"
           id="path24" />
        <path
           d="m 27.79,58.32 -1.71,1.44 c -1.15,-1.5 -2.11,-3.14 -2.84,-4.88 l 2.1,-0.77 c 0.64,1.5 1.46,2.91 2.45,4.2 z"
           id="path25" />
        <path
           d="M 59.27,34.51 61,33.06 c 1.14,1.5 2.1,3.15 2.83,4.92 l -2.1,0.77 c -0.64,-1.52 -1.48,-2.93 -2.46,-4.23 z"
           id="path26" />
        <path
           d="m 62.41,40.62 2.11,-0.77 c 0.55,1.78 0.88,3.65 0.96,5.58 h -2.26 c -0.08,-1.66 -0.34,-3.28 -0.81,-4.81 z"
           id="path27" />
        <path
           d="m 63.23,47.44 h 2.23 c -0.09,1.91 -0.44,3.78 -1.01,5.56 l -2.1,-0.77 c 0.48,-1.54 0.79,-3.15 0.88,-4.8 z"
           id="path28" />
        <path
           d="m 61.66,54.11 2.11,0.77 c -0.73,1.74 -1.69,3.38 -2.84,4.88 l -1.71,-1.44 c 0.99,-1.3 1.81,-2.71 2.45,-4.2 z"
           id="path29" />
        <path
           d="m 32.81,62.96 -1.12,1.93 c -1.61,-1.03 -3.05,-2.24 -4.32,-3.62 l 1.71,-1.44 c 1.1,1.18 2.34,2.23 3.72,3.12 z"
           id="path30" />
        <path
           d="m 57.92,59.84 1.71,1.44 c -1.27,1.37 -2.71,2.59 -4.32,3.62 l -1.12,-1.93 c 1.38,-0.89 2.62,-1.94 3.72,-3.12 z"
           id="path31" />
        <path
           d="m 54.26,29.81 1.12,-1.94 c 1.6,1.03 3.06,2.26 4.34,3.66 l -1.73,1.45 c -1.11,-1.2 -2.36,-2.27 -3.74,-3.16 z"
           id="path32" />
      </g>
      <g
         id="g47">
        <path
           d="m 108,26.6 c -0.83,0 -1.65,0.07 -2.45,0.17 l -0.39,-2.21 c 0.93,-0.12 1.88,-0.19 2.84,-0.19 0.96,0 1.91,0.07 2.84,0.19 l -0.39,2.21 C 109.64,26.67 108.83,26.6 108,26.6 Z"
           id="path33" />
        <path
           d="m 93.51,32.98 -1.73,-1.45 c 1.28,-1.4 2.74,-2.63 4.34,-3.66 l 1.12,1.94 c -1.38,0.9 -2.62,1.96 -3.73,3.16 z"
           id="path34" />
        <path
           d="m 98.97,28.81 -1.12,-1.94 c 1.67,-0.87 3.46,-1.53 5.34,-1.95 l 0.39,2.21 c -1.62,0.37 -3.16,0.94 -4.61,1.69 z"
           id="path35" />
        <path
           d="m 89.77,38.74 -2.1,-0.76 c 0.73,-1.77 1.69,-3.42 2.83,-4.92 l 1.73,1.45 c -0.98,1.3 -1.82,2.71 -2.46,4.23 z"
           id="path36" />
        <path
           d="m 112.42,27.12 0.39,-2.21 c 1.88,0.42 3.67,1.08 5.34,1.95 l -1.12,1.94 c -1.44,-0.74 -2.98,-1.31 -4.6,-1.69 z"
           id="path37" />
        <path
           d="m 88.28,45.44 h -2.26 c 0.08,-1.93 0.41,-3.8 0.96,-5.58 l 2.11,0.77 c -0.47,1.53 -0.73,3.15 -0.81,4.81 z"
           id="path38" />
        <path
           d="M 89.15,52.24 87.05,53 c -0.57,-1.79 -0.91,-3.65 -1.01,-5.56 h 2.23 c 0.09,1.65 0.39,3.25 0.88,4.8 z"
           id="path39" />
        <path
           d="m 92.29,58.32 -1.71,1.44 c -1.15,-1.5 -2.11,-3.14 -2.84,-4.88 l 2.1,-0.77 c 0.64,1.5 1.46,2.91 2.45,4.2 z"
           id="path40" />
        <path
           d="m 123.77,34.51 1.73,-1.45 c 1.14,1.5 2.1,3.15 2.83,4.92 l -2.1,0.77 c -0.64,-1.52 -1.48,-2.93 -2.46,-4.23 z"
           id="path41" />
        <path
           d="m 126.91,40.62 2.11,-0.77 c 0.55,1.78 0.88,3.65 0.96,5.58 h -2.26 c -0.08,-1.66 -0.34,-3.28 -0.81,-4.81 z"
           id="path42" />
        <path
           d="m 127.73,47.44 h 2.23 c -0.09,1.91 -0.44,3.78 -1.01,5.56 l -2.1,-0.77 c 0.48,-1.54 0.79,-3.15 0.88,-4.8 z"
           id="path43" />
        <path
           d="m 126.16,54.11 2.11,0.77 c -0.73,1.74 -1.69,3.38 -2.84,4.88 l -1.71,-1.44 c 0.99,-1.3 1.81,-2.71 2.45,-4.2 z"
           id="path44" />
        <path
           d="m 97.31,62.96 -1.12,1.93 c -1.61,-1.03 -3.05,-2.24 -4.32,-3.62 l 1.71,-1.44 c 1.1,1.18 2.34,2.23 3.72,3.12 z"
           id="path45" />
        <path
           d="m 122.42,59.84 1.71,1.44 c -1.27,1.37 -2.71,2.59 -4.32,3.62 l -1.12,-1.93 c 1.38,-0.89 2.62,-1.94 3.72,-3.12 z"
           id="path46" />
        <path
           d="m 118.76,29.81 1.12,-1.94 c 1.6,1.03 3.06,2.26 4.34,3.66 l -1.73,1.45 c -1.11,-1.2 -2.36,-2.27 -3.74,-3.16 z"
           id="path47" />
      </g>
      <text
         transform="matrix(0.88,0,0,1,83.48,76.33)"
         style="font-weight:700;font-size:10px;font-family:GillSans-Bold, 'Gill Sans';letter-spacing:-0.04em"
         id="text47"><tspan
           x="0"
           y="0"
           id="tspan47">Pitch Decay</tspan></text>
      <text
         transform="matrix(0.88,0,0,1,142.29,76.33)"
         style="font-weight:700;font-size:10px;font-family:GillSans-Bold, 'Gill Sans';letter-spacing:-0.04em"
         id="text48"><tspan
           x="0"
           y="0"
           id="tspan48">Pitch Env Amt</tspan></text>
      <g
         id="g62">
        <path
           d="m 172.5,26.6 c -0.83,0 -1.65,0.07 -2.45,0.17 l -0.39,-2.21 c 0.93,-0.12 1.88,-0.19 2.84,-0.19 0.96,0 1.91,0.07 2.84,0.19 l -0.39,2.21 c -0.81,-0.1 -1.62,-0.17 -2.45,-0.17 z"
           id="path48" />
        <path
           d="m 158.01,32.98 -1.73,-1.45 c 1.28,-1.4 2.74,-2.63 4.34,-3.66 l 1.12,1.94 c -1.38,0.9 -2.62,1.96 -3.73,3.16 z"
           id="path49" />
        <path
           d="m 163.47,28.81 -1.12,-1.94 c 1.67,-0.87 3.46,-1.53 5.34,-1.95 l 0.39,2.21 c -1.62,0.37 -3.16,0.94 -4.61,1.69 z"
           id="path50" />
        <path
           d="m 154.27,38.74 -2.1,-0.76 c 0.73,-1.77 1.69,-3.42 2.83,-4.92 l 1.73,1.45 c -0.98,1.3 -1.82,2.71 -2.46,4.23 z"
           id="path51" />
        <path
           d="m 176.92,27.12 0.39,-2.21 c 1.88,0.42 3.67,1.08 5.34,1.95 l -1.12,1.94 c -1.44,-0.74 -2.98,-1.31 -4.6,-1.69 z"
           id="path52" />
        <path
           d="m 152.78,45.44 h -2.26 c 0.08,-1.93 0.41,-3.8 0.96,-5.58 l 2.11,0.77 c -0.47,1.53 -0.73,3.15 -0.81,4.81 z"
           id="path53" />
        <path
           d="m 153.65,52.24 -2.1,0.76 c -0.57,-1.79 -0.91,-3.65 -1.01,-5.56 h 2.23 c 0.09,1.65 0.39,3.25 0.88,4.8 z"
           id="path54" />
        <path
           d="m 156.79,58.32 -1.71,1.44 c -1.15,-1.5 -2.11,-3.14 -2.84,-4.88 l 2.1,-0.77 c 0.64,1.5 1.46,2.91 2.45,4.2 z"
           id="path55" />
        <path
           d="M 188.27,34.51 190,33.06 c 1.14,1.5 2.1,3.15 2.83,4.92 l -2.1,0.77 c -0.64,-1.52 -1.48,-2.93 -2.46,-4.23 z"
           id="path56" />
        <path
           d="m 191.41,40.62 2.11,-0.77 c 0.55,1.78 0.88,3.65 0.96,5.58 h -2.26 c -0.08,-1.66 -0.34,-3.28 -0.81,-4.81 z"
           id="path57" />
        <path
           d="m 192.23,47.44 h 2.23 c -0.09,1.91 -0.44,3.78 -1.01,5.56 l -2.1,-0.77 c 0.48,-1.54 0.79,-3.15 0.88,-4.8 z"
           id="path58" />
        <path
           d="m 190.66,54.11 2.11,0.77 c -0.73,1.74 -1.69,3.38 -2.84,4.88 l -1.71,-1.44 c 0.99,-1.3 1.81,-2.71 2.45,-4.2 z"
           id="path59" />
        <path
           d="m 161.81,62.96 -1.12,1.93 c -1.61,-1.03 -3.05,-2.24 -4.32,-3.62 l 1.71,-1.44 c 1.1,1.18 2.34,2.23 3.72,3.12 z"
           id="path60" />
        <path
           d="m 186.92,59.84 1.71,1.44 c -1.27,1.37 -2.71,2.59 -4.32,3.62 l -1.12,-1.93 c 1.38,-0.89 2.62,-1.94 3.72,-3.12 z"
           id="path61" />
        <path
           d="m 183.26,29.81 1.12,-1.94 c 1.6,1.03 3.06,2.26 4.34,3.66 l -1.73,1.45 c -1.11,-1.2 -2.36,-2.27 -3.74,-3.16 z"
           id="path62" />
      </g>
      <text
         transform="matrix(0.88,0,0,1,18.76,134.45)"
         style="font-weight:700;font-size:10px;font-family:GillSans-Bold, 'Gill Sans';letter-spacing:-0.04em"
         id="text62"><tspan
           x="0"
           y="0"
           id="tspan62">Noise Color</tspan></text>
      <g
         id="g77">
        <path
           d="m 43.5,85.16 c -0.83,0 -1.65,0.07 -2.45,0.17 l -0.39,-2.21 c 0.93,-0.12 1.88,-0.19 2.84,-0.19 0.96,0 1.91,0.07 2.84,0.19 l -0.39,2.21 c -0.81,-0.1 -1.62,-0.17 -2.45,-0.17 z"
           id="path63" />
        <path
           d="m 29.01,91.53 -1.73,-1.45 c 1.28,-1.4 2.74,-2.63 4.34,-3.66 l 1.12,1.94 c -1.38,0.9 -2.62,1.96 -3.73,3.16 z"
           id="path64" />
        <path
           d="m 34.47,87.36 -1.12,-1.94 c 1.67,-0.87 3.46,-1.53 5.34,-1.95 l 0.39,2.21 c -1.62,0.37 -3.16,0.94 -4.61,1.69 z"
           id="path65" />
        <path
           d="m 25.27,97.3 -2.1,-0.76 C 23.9,94.77 24.86,93.12 26,91.62 l 1.73,1.45 c -0.98,1.3 -1.82,2.71 -2.46,4.23 z"
           id="path66" />
        <path
           d="m 47.92,85.67 0.39,-2.21 c 1.88,0.42 3.67,1.08 5.34,1.95 l -1.12,1.94 c -1.44,-0.74 -2.98,-1.31 -4.6,-1.69 z"
           id="path67" />
        <path
           d="m 23.78,103.99 h -2.26 c 0.08,-1.93 0.41,-3.8 0.96,-5.58 l 2.11,0.77 c -0.47,1.53 -0.73,3.15 -0.81,4.81 z"
           id="path68" />
        <path
           d="m 24.65,110.79 -2.1,0.76 c -0.57,-1.79 -0.91,-3.65 -1.01,-5.56 h 2.23 c 0.09,1.65 0.39,3.25 0.88,4.8 z"
           id="path69" />
        <path
           d="m 27.79,116.87 -1.71,1.44 c -1.15,-1.5 -2.11,-3.14 -2.84,-4.88 l 2.1,-0.77 c 0.64,1.5 1.46,2.91 2.45,4.2 z"
           id="path70" />
        <path
           d="M 59.27,93.06 61,91.61 c 1.14,1.5 2.1,3.15 2.83,4.92 l -2.1,0.77 c -0.64,-1.52 -1.48,-2.93 -2.46,-4.23 z"
           id="path71" />
        <path
           d="m 62.41,99.18 2.11,-0.77 c 0.55,1.78 0.88,3.65 0.96,5.58 h -2.26 c -0.08,-1.66 -0.34,-3.28 -0.81,-4.81 z"
           id="path72" />
        <path
           d="m 63.23,105.99 h 2.23 c -0.09,1.91 -0.44,3.78 -1.01,5.56 l -2.1,-0.77 c 0.48,-1.54 0.79,-3.15 0.88,-4.8 z"
           id="path73" />
        <path
           d="m 61.66,112.67 2.11,0.77 c -0.73,1.74 -1.69,3.38 -2.84,4.88 l -1.71,-1.44 c 0.99,-1.3 1.81,-2.71 2.45,-4.2 z"
           id="path74" />
        <path
           d="m 32.81,121.51 -1.12,1.93 c -1.61,-1.03 -3.05,-2.24 -4.32,-3.62 l 1.71,-1.44 c 1.1,1.18 2.34,2.23 3.72,3.12 z"
           id="path75" />
        <path
           d="m 57.92,118.39 1.71,1.44 c -1.27,1.37 -2.71,2.59 -4.32,3.62 l -1.12,-1.93 c 1.38,-0.89 2.62,-1.94 3.72,-3.12 z"
           id="path76" />
        <path
           d="m 54.26,88.36 1.12,-1.94 c 1.6,1.03 3.06,2.26 4.34,3.66 l -1.73,1.45 c -1.11,-1.2 -2.36,-2.27 -3.74,-3.16 z"
           id="path77" />
      </g>
      <text
         transform="matrix(0.88,0,0,1,82.12,134.45)"
         style="font-weight:700;font-size:10px;font-family:GillSans-Bold, 'Gill Sans';letter-spacing:-0.04em"
         id="text77"><tspan
           x="0"
           y="0"
           id="tspan77">Noise Decay</tspan></text>
      <g
         id="g92">
        <path
           d="m 108,85.16 c -0.83,0 -1.65,0.07 -2.45,0.17 l -0.39,-2.21 c 0.93,-0.12 1.88,-0.19 2.84,-0.19 0.96,0 1.91,0.07 2.84,0.19 l -0.39,2.21 c -0.81,-0.1 -1.62,-0.17 -2.45,-0.17 z"
           id="path78" />
        <path
           d="m 93.51,91.53 -1.73,-1.45 c 1.28,-1.4 2.74,-2.63 4.34,-3.66 l 1.12,1.94 c -1.38,0.9 -2.62,1.96 -3.73,3.16 z"
           id="path79" />
        <path
           d="m 98.97,87.36 -1.12,-1.94 c 1.67,-0.87 3.46,-1.53 5.34,-1.95 l 0.39,2.21 c -1.62,0.37 -3.16,0.94 -4.61,1.69 z"
           id="path80" />
        <path
           d="m 89.77,97.3 -2.1,-0.76 c 0.73,-1.77 1.69,-3.42 2.83,-4.92 l 1.73,1.45 c -0.98,1.3 -1.82,2.71 -2.46,4.23 z"
           id="path81" />
        <path
           d="m 112.42,85.67 0.39,-2.21 c 1.88,0.42 3.67,1.08 5.34,1.95 l -1.12,1.94 c -1.44,-0.74 -2.98,-1.31 -4.6,-1.69 z"
           id="path82" />
        <path
           d="m 88.28,103.99 h -2.26 c 0.08,-1.93 0.41,-3.8 0.96,-5.58 l 2.11,0.77 c -0.47,1.53 -0.73,3.15 -0.81,4.81 z"
           id="path83" />
        <path
           d="m 89.15,110.79 -2.1,0.76 c -0.57,-1.79 -0.91,-3.65 -1.01,-5.56 h 2.23 c 0.09,1.65 0.39,3.25 0.88,4.8 z"
           id="path84" />
        <path
           d="m 92.29,116.87 -1.71,1.44 c -1.15,-1.5 -2.11,-3.14 -2.84,-4.88 l 2.1,-0.77 c 0.64,1.5 1.46,2.91 2.45,4.2 z"
           id="path85" />
        <path
           d="m 123.77,93.06 1.73,-1.45 c 1.14,1.5 2.1,3.15 2.83,4.92 l -2.1,0.77 c -0.64,-1.52 -1.48,-2.93 -2.46,-4.23 z"
           id="path86" />
        <path
           d="m 126.91,99.18 2.11,-0.77 c 0.55,1.78 0.88,3.65 0.96,5.58 h -2.26 c -0.08,-1.66 -0.34,-3.28 -0.81,-4.81 z"
           id="path87" />
        <path
           d="m 127.73,105.99 h 2.23 c -0.09,1.91 -0.44,3.78 -1.01,5.56 l -2.1,-0.77 c 0.48,-1.54 0.79,-3.15 0.88,-4.8 z"
           id="path88" />
        <path
           d="m 126.16,112.67 2.11,0.77 c -0.73,1.74 -1.69,3.38 -2.84,4.88 l -1.71,-1.44 c 0.99,-1.3 1.81,-2.71 2.45,-4.2 z"
           id="path89" />
        <path
           d="m 97.31,121.51 -1.12,1.93 c -1.61,-1.03 -3.05,-2.24 -4.32,-3.62 l 1.71,-1.44 c 1.1,1.18 2.34,2.23 3.72,3.12 z"
           id="path90" />
        <path
           d="m 122.42,118.39 1.71,1.44 c -1.27,1.37 -2.71,2.59 -4.32,3.62 l -1.12,-1.93 c 1.38,-0.89 2.62,-1.94 3.72,-3.12 z"
           id="path91" />
        <path
           d="m 118.76,88.36 1.12,-1.94 c 1.6,1.03 3.06,2.26 4.34,3.66 l -1.73,1.45 c -1.11,-1.2 -2.36,-2.27 -3.74,-3.16 z"
           id="path92" />
      </g>
      <text
         transform="matrix(0.88,0,0,1,147.86,134.45)"
         style="font-weight:700;font-size:10px;font-family:GillSans-Bold, 'Gill Sans';letter-spacing:-0.04em"
         id="text92"><tspan
           x="0"
           y="0"
           id="tspan92">Body Decay</tspan></text>
      <g
         id="g107">
        <path
           d="m 172.5,85.16 c -0.83,0 -1.65,0.07 -2.45,0.17 l -0.39,-2.21 c 0.93,-0.12 1.88,-0.19 2.84,-0.19 0.96,0 1.91,0.07 2.84,0.19 l -0.39,2.21 c -0.81,-0.1 -1.62,-0.17 -2.45,-0.17 z"
           id="path93" />
        <path
           d="m 158.01,91.53 -1.73,-1.45 c 1.28,-1.4 2.74,-2.63 4.34,-3.66 l 1.12,1.94 c -1.38,0.9 -2.62,1.96 -3.73,3.16 z"
           id="path94" />
        <path
           d="m 163.47,87.36 -1.12,-1.94 c 1.67,-0.87 3.46,-1.53 5.34,-1.95 l 0.39,2.21 c -1.62,0.37 -3.16,0.94 -4.61,1.69 z"
           id="path95" />
        <path
           d="m 154.27,97.3 -2.1,-0.76 c 0.73,-1.77 1.69,-3.42 2.83,-4.92 l 1.73,1.45 c -0.98,1.3 -1.82,2.71 -2.46,4.23 z"
           id="path96" />
        <path
           d="m 176.92,85.67 0.39,-2.21 c 1.88,0.42 3.67,1.08 5.34,1.95 l -1.12,1.94 c -1.44,-0.74 -2.98,-1.31 -4.6,-1.69 z"
           id="path97" />
        <path
           d="m 152.78,103.99 h -2.26 c 0.08,-1.93 0.41,-3.8 0.96,-5.58 l 2.11,0.77 c -0.47,1.53 -0.73,3.15 -0.81,4.81 z"
           id="path98" />
        <path
           d="m 153.65,110.79 -2.1,0.76 c -0.57,-1.79 -0.91,-3.65 -1.01,-5.56 h 2.23 c 0.09,1.65 0.39,3.25 0.88,4.8 z"
           id="path99" />
        <path
           d="m 156.79,116.87 -1.71,1.44 c -1.15,-1.5 -2.11,-3.14 -2.84,-4.88 l 2.1,-0.77 c 0.64,1.5 1.46,2.91 2.45,4.2 z"
           id="path100" />
        <path
           d="M 188.27,93.06 190,91.61 c 1.14,1.5 2.1,3.15 2.83,4.92 l -2.1,0.77 c -0.64,-1.52 -1.48,-2.93 -2.46,-4.23 z"
           id="path101" />
        <path
           d="m 191.41,99.18 2.11,-0.77 c 0.55,1.78 0.88,3.65 0.96,5.58 h -2.26 c -0.08,-1.66 -0.34,-3.28 -0.81,-4.81 z"
           id="path102" />
        <path
           d="m 192.23,105.99 h 2.23 c -0.09,1.91 -0.44,3.78 -1.01,5.56 l -2.1,-0.77 c 0.48,-1.54 0.79,-3.15 0.88,-4.8 z"
           id="path103" />
        <path
           d="m 190.66,112.67 2.11,0.77 c -0.73,1.74 -1.69,3.38 -2.84,4.88 l -1.71,-1.44 c 0.99,-1.3 1.81,-2.71 2.45,-4.2 z"
           id="path104" />
        <path
           d="m 161.81,121.51 -1.12,1.93 c -1.61,-1.03 -3.05,-2.24 -4.32,-3.62 l 1.71,-1.44 c 1.1,1.18 2.34,2.23 3.72,3.12 z"
           id="path105" />
        <path
           d="m 186.92,118.39 1.71,1.44 c -1.27,1.37 -2.71,2.59 -4.32,3.62 l -1.12,-1.93 c 1.38,-0.89 2.62,-1.94 3.72,-3.12 z"
           id="path106" />
        <path
           d="m 183.26,88.36 1.12,-1.94 c 1.6,1.03 3.06,2.26 4.34,3.66 l -1.73,1.45 c -1.11,-1.2 -2.36,-2.27 -3.74,-3.16 z"
           id="path107" />
      </g>
      <text
         transform="matrix(0.88,0,0,1,150.43,193.01)"
         style="font-weight:700;font-size:10px;font-family:GillSans-Bold, 'Gill Sans';letter-spacing:-0.04em"
         id="text107"><tspan
           x="0"
           y="0"
           id="tspan107">Saturation</tspan></text>
      <text
         transform="matrix(0.88,0,0,1,95,193.01)"
         style="font-weight:700;font-size:10px;font-family:GillSans-Bold, 'Gill Sans';letter-spacing:-0.04em"
         id="text108"><tspan
           x="0"
           y="0"
           id="tspan108">Range</tspan></text>
      <g
         id="g122">
        <path
           d="m 172.39,143.71 c -0.83,0 -1.65,0.07 -2.45,0.17 l -0.39,-2.21 c 0.93,-0.12 1.88,-0.19 2.84,-0.19 0.96,0 1.91,0.07 2.84,0.19 l -0.39,2.21 c -0.81,-0.1 -1.62,-0.17 -2.45,-0.17 z"
           id="path108" />
        <path
           d="m 157.9,150.08 -1.73,-1.45 c 1.28,-1.4 2.74,-2.63 4.34,-3.66 l 1.12,1.94 c -1.38,0.9 -2.62,1.96 -3.73,3.16 z"
           id="path109" />
        <path
           d="m 163.37,145.91 -1.12,-1.94 c 1.67,-0.87 3.46,-1.53 5.34,-1.95 l 0.39,2.21 c -1.62,0.37 -3.16,0.94 -4.61,1.69 z"
           id="path110" />
        <path
           d="m 154.16,155.85 -2.1,-0.76 c 0.73,-1.77 1.69,-3.42 2.83,-4.92 l 1.73,1.45 c -0.98,1.3 -1.82,2.71 -2.46,4.23 z"
           id="path111" />
        <path
           d="m 176.82,144.23 0.39,-2.21 c 1.88,0.42 3.67,1.08 5.34,1.95 l -1.12,1.94 c -1.44,-0.74 -2.98,-1.31 -4.6,-1.69 z"
           id="path112" />
        <path
           d="m 152.68,162.55 h -2.26 c 0.08,-1.93 0.41,-3.8 0.96,-5.58 l 2.11,0.77 c -0.47,1.53 -0.73,3.15 -0.81,4.81 z"
           id="path113" />
        <path
           d="m 153.54,169.34 -2.1,0.76 c -0.57,-1.79 -0.91,-3.65 -1.01,-5.56 h 2.23 c 0.09,1.65 0.39,3.25 0.88,4.8 z"
           id="path114" />
        <path
           d="m 156.68,175.43 -1.71,1.44 c -1.15,-1.5 -2.11,-3.14 -2.84,-4.88 l 2.1,-0.77 c 0.64,1.5 1.46,2.91 2.45,4.2 z"
           id="path115" />
        <path
           d="m 188.17,151.62 1.73,-1.45 c 1.14,1.5 2.1,3.15 2.83,4.92 l -2.1,0.77 c -0.64,-1.52 -1.48,-2.93 -2.46,-4.23 z"
           id="path116" />
        <path
           d="m 191.3,157.73 2.11,-0.77 c 0.55,1.78 0.88,3.65 0.96,5.58 h -2.26 c -0.08,-1.66 -0.34,-3.28 -0.81,-4.81 z"
           id="path117" />
        <path
           d="m 192.12,164.54 h 2.23 c -0.09,1.91 -0.44,3.78 -1.01,5.56 l -2.1,-0.77 c 0.48,-1.54 0.79,-3.15 0.88,-4.8 z"
           id="path118" />
        <path
           d="m 190.56,171.22 2.11,0.77 c -0.73,1.74 -1.69,3.38 -2.84,4.88 l -1.71,-1.44 c 0.99,-1.3 1.81,-2.71 2.45,-4.2 z"
           id="path119" />
        <path
           d="m 161.7,180.07 -1.12,1.93 c -1.61,-1.03 -3.05,-2.24 -4.32,-3.62 l 1.71,-1.44 c 1.1,1.18 2.34,2.23 3.72,3.12 z"
           id="path120" />
        <path
           d="m 186.81,176.95 1.71,1.44 c -1.27,1.37 -2.71,2.59 -4.32,3.62 l -1.12,-1.93 c 1.38,-0.89 2.62,-1.94 3.72,-3.12 z"
           id="path121" />
        <path
           d="m 183.15,146.92 1.12,-1.94 c 1.6,1.03 3.06,2.26 4.34,3.66 l -1.73,1.45 c -1.11,-1.2 -2.36,-2.27 -3.74,-3.16 z"
           id="path122" />
      </g>
      <text
         transform="matrix(0.88,0,0,1,23.36,254)"
         style="font-weight:700;font-size:8px;font-family:GillSans-Bold, 'Gill Sans';letter-spacing:-0.04em"
         id="text122"><tspan
           x="0"
           y="0"
           id="tspan122">Trigger</tspan></text>
      <text
         transform="matrix(0.88,0,0,1,75.15,254)"
         style="font-weight:700;font-size:8px;font-family:GillSans-Bold, 'Gill Sans';letter-spacing:-0.04em"
         id="text123"><tspan
           x="0"
           y="0"
           id="tspan123">Pitch</tspan></text>
      <text
         transform="matrix(0.88,0,0,1,118.57,254)"
         style="font-weight:700;font-size:8px;font-family:GillSans-Bold, 'Gill Sans';letter-spacing:-0.04em"
         id="text124"><tspan
           x="0"
           y="0"
           id="tspan124">P Decay</tspan></text>
      <text
         transform="matrix(0.88,0,0,1,169.37,254)"
         style="font-weight:700;font-size:8px;font-family:GillSans-Bold, 'Gill Sans';letter-spacing:-0.04em"
         id="text125"><tspan
           x="0"
           y="0"
           id="tspan125">P Amt</tspan></text>
      <text
         transform="matrix(0.88,0,0,1,21.67,294.93)"
         style="font-weight:700;font-size:8px;font-family:GillSans-Bold, 'Gill Sans';letter-spacing:-0.04em"
         id="text126"><tspan
           x="0"
           y="0"
           id="tspan126">N. Color</tspan></text>
      <text
         transform="matrix(0.88,0,0,1,114.35,335.66)"
         style="font-weight:700;font-size:8px;font-family:GillSans-Bold, 'Gill Sans';letter-spacing:-0.04em"
         id="text127"><tspan
           x="0"
           y="0"
           id="tspan127">Saturation</tspan></text>
      <text
         transform="matrix(0.88,0,0,1,68.71,294.93)"
         style="font-weight:700;font-size:8px;font-family:GillSans-Bold, 'Gill Sans';letter-spacing:-0.04em"
         id="text128"><tspan
           x="0"
           y="0"
           id="tspan128">N. Decay</tspan></text>
      <text
         transform="matrix(0.88,0,0,1,117.54,294.93)"
         style="font-weight:700;font-size:8px;font-family:GillSans-Bold, 'Gill Sans';letter-spacing:-0.04em"
         id="text129"><tspan
           x="0"
           y="0"
           id="tspan129">B. Decay</tspan></text>
      <text
         transform="matrix(0.88,0,0,1,172.98,294.93)"
         style="font-weight:700;font-size:8px;font-family:GillSans-Bold, 'Gill Sans';letter-spacing:-0.04em"
         id="text130"><tspan
           x="0"
           y="0"
           id="tspan130">B/N</tspan></text>
      <text
         transform="matrix(0.88,0,0,1,173.78,335.66)"
         style="font-weight:700;font-size:8px;font-family:GillSans-Bold, 'Gill Sans';letter-spacing:-0.04em;fill:#ffffff"
         id="text131"><tspan
           x="0"
           y="0"
           id="tspan131">Out</tspan></text>
      <line
         x1="146.12"
         y1="163.3"
         x2="112.42"
         y2="163.3"
         style="fill:#ffffff;stroke:#231f20;stroke-miterlimit:10"
         id="line131" />
      <g
         id="g133">
        <path
           d="m 99.93,18.31 c -0.37,0 -0.71,-0.17 -0.97,-0.47 -0.51,-0.6 -0.52,-1.54 -0.04,-2.16 l 6.97,-8.88 c 0.38,-0.48 1.05,-0.65 1.57,-0.39 0.5,0.25 0.79,0.82 0.79,1.45 v 4.77 l 4.64,-5.85 c 0.38,-0.48 1.01,-0.64 1.53,-0.38 0.5,0.25 0.83,0.81 0.83,1.44 v 8.82 c 0,0.86 -0.61,1.57 -1.36,1.57 -0.75,0 -1.36,-0.7 -1.36,-1.57 v -4.79 l -4.64,5.85 c -0.38,0.48 -1.01,0.64 -1.54,0.38 -0.5,-0.24 -0.83,-0.81 -0.83,-1.44 v -4.67 l -4.61,5.8 c -0.26,0.32 -0.62,0.51 -1,0.51 v 0 z"
           style="fill:#2cabe1"
           id="path131" />
        <path
           d="m 99.92,18.3 c -0.75,0 -1.35,-0.7 -1.35,-1.57 V 11.8 l -2.26,2.84 c -0.5,0.63 -1.44,0.65 -1.97,0.04 -0.51,-0.6 -0.52,-1.53 -0.03,-2.15 l 4.61,-5.76 c 0.26,-0.32 0.63,-0.5 1,-0.5 0.18,0 0.37,0.04 0.54,0.12 0.5,0.25 0.82,0.81 0.82,1.44 v 8.89 c 0,0.86 -0.61,1.57 -1.36,1.57 v 0 z"
           style="fill:#ea2228"
           id="path132" />
        <path
           d="m 116.52,18.33 v 0 c -0.35,0 -0.68,-0.15 -0.94,-0.42 -0.76,-0.78 -0.14,-1.84 0.29,-2.3 l 1.95,-2.36 -1.26,-0.02 c -0.56,-0.01 -1.04,-0.4 -1.24,-1 -0.19,-0.56 -0.07,-1.21 0.29,-1.64 l 3.16,-3.83 c 0.23,-0.28 0.55,-0.48 1.13,-0.47 0.33,0 0.67,0.17 0.92,0.4 0.71,0.66 0.29,1.7 -0.07,2.2 l -1.04,1.26 1.26,0.02 c 0.56,0.01 1.04,0.4 1.24,1 0.19,0.56 0.07,1.21 -0.29,1.64 l -4.1,4.97 c -0.35,0.35 -0.65,0.55 -1.3,0.54 v 0 z"
           style="fill:#00a650"
           id="path133" />
      </g>
      <text
         transform="matrix(0.82,0,0,1,91.3,357.29)"
         style="font-weight:700;font-size:11px;font-family:GillSans-Bold, 'Gill Sans'"
         id="text135"><tspan
           x="0"
           y="0"
           id="tspan133">S</tspan><tspan
           x="6.73"
           y="0"
           style="letter-spacing:-0.01em"
           id="tspan134">N</tspan><tspan
           x="16.530001"
           y="0"
           id="tspan135">ARE</tspan></text>
    </g>
  </g>
  <g
     id="components"
     style="display:none"
     transform="translate(0.00377589,0.005)">
    <circle
       id="Out"
       cx="180.38"
       cy="313.95001"
       r="11.34"
       style="fill:#0000ff" />
    <circle
       id="Saturation_CV"
       data-name="Saturation CV"
       cx="132.10001"
       cy="313.95001"
       r="11.34"
       style="fill:#00ff00" />
    <circle
       id="BN_CV"
       data-name="BN CV"
       cx="180.38"
       cy="272.34"
       r="11.34"
       style="fill:#00ff00" />
    <circle
       id="B_Decay_CV"
       data-name="B Decay CV"
       cx="132.10001"
       cy="272.34"
       r="11.34"
       style="fill:#00ff00" />
    <circle
       id="N_Decay_CV"
       data-name="N Decay CV"
       cx="83.82"
       cy="272.34"
       r="11.34"
       style="fill:#00ff00" />
    <circle
       id="N_Color_CV"
       data-name="N Color CV"
       cx="35.540001"
       cy="272.34"
       r="11.34"
       style="fill:#00ff00" />
    <circle
       id="P_Amt_CV"
       data-name="P Amt CV"
       cx="180.38"
       cy="232.21001"
       r="11.34"
       style="fill:#00ff00" />
    <circle
       id="P_Decay_CV"
       data-name="P Decay CV"
       cx="132.10001"
       cy="232.21001"
       r="11.34"
       style="fill:#00ff00" />
    <circle
       id="Pitch_CV"
       data-name="Pitch CV"
       cx="83.82"
       cy="232.21001"
       r="11.34"
       style="fill:#00ff00" />
    <circle
       id="Trigger"
       cx="35.540001"
       cy="232.21001"
       r="11.34"
       style="fill:#80ff80" />
    <circle
       id="Saturation_MediumBlackKnob"
       data-name="Saturation#MediumBlackKnob"
       cx="172.39"
       cy="163.21001"
       r="17.01"
       style="fill:#ff0000" />
    <rect
       id="Range_Switch_Low_High"
       data-name="Range Switch@Low@High"
       x="102.33"
       y="154.67"
       width="11.34"
       height="17.01"
       transform="rotate(180,108,163.18)"
       style="fill:#ff8080" />
    <circle
       id="Body_Noise_MediumBlackKnob"
       data-name="Body Noise#MediumBlackKnob"
       cx="43.5"
       cy="163.3"
       r="17.01"
       style="fill:#ff0028"
       inkscape:label="Body_Noise_Davies1900hBlackKnob" />
    <circle
       id="Body_Decay_MediumBlackKnob"
       data-name="Body Decay#MediumBlackKnob"
       cx="172.5"
       cy="104.62"
       r="17.01"
       style="fill:#ff0028"
       inkscape:label="Body_Decay_Davies1900hBlackKnob" />
    <circle
       id="Noise_Decay_MediumBlackKnob"
       data-name="Noise Decay#MediumBlackKnob"
       cx="108"
       cy="104.62"
       r="17.01"
       style="fill:#ff0021"
       inkscape:label="Noise_Decay_Davies1900hBlackKnob" />
    <circle
       id="Noise_Color_MediumBlackKnob"
       data-name="Noise Color#MediumBlackKnob"
       cx="43.5"
       cy="104.62"
       r="17.01"
       style="fill:#ff0019"
       inkscape:label="Noise_Color_Davies1900hBlackKnob" />
    <circle
       id="Pitch_Env_Amount_MediumBlackKnob"
       data-name="Pitch Env Amount#MediumBlackKnob"
       cx="172.5"
       cy="46.41"
       r="17.01"
       style="fill:#ff0019"
       inkscape:label="Pitch_Env_Amount_Davies1900hBlackKnob" />
    <circle
       id="Pitch_Decay_MediumBlackKnob"
       data-name="Pitch Decay#MediumBlackKnob"
       cx="108"
       cy="46.41"
       r="17.01"
       style="fill:#ff000f"
       inkscape:label="Pitch_Decay_Davies1900hBlackKnob" />
    <circle
       id="Pitch_MediumBlackKnob"
       data-name="Pitch#MediumBlackKnob"
       cx="43.5"
       cy="46.41"
       r="17.01"
       style="fill:#ff0019"
       inkscape:label="Pitch_Davies1900hBlackKnob" />
    <text
       id="slug"
       transform="translate(177.11,369.11)"
       style="font-size:3px;font-family:MyriadPro-Regular, 'Myriad Pro';fill:#010101"><tspan
         x="0"
         y="0"
         id="tspan136">Sna</tspan><tspan
         x="4.5900002"
         y="0"
         style="letter-spacing:-0.01em"
         id="tspan137">r</tspan><tspan
         x="5.54"
         y="0"
         id="tspan138">e</tspan></text>
    <text
       id="modulename"
       transform="translate(185.67,369.11)"
       style="font-size:3px;font-family:MyriadPro-Regular, 'Myriad Pro';fill:#010101"><tspan
         x="0"
         y="0"
         id="tspan139">Sna</tspan><tspan
         x="4.5900002"
         y="0"
         style="letter-spacing:-0.01em"
         id="tspan140">r</tspan><tspan
         x="5.54"
         y="0"
         id="tspan141">e Drum</tspan><tspan
         x="15.45"
         y="0"
         style="letter-spacing:0em"
         id="tspan142">M</tspan><tspan
         x="17.879999"
         y="0"
         style="letter-spacing:0em"
         id="tspan143">odule</tspan></text>
  </g>
</svg>
