<?xml version="1.0" encoding="UTF-8" standalone="no"?>
<svg
   id="svg67"
   width="144"
   height="364.20001"
   viewBox="0 0 144 364.20001"
   version="1.1"
   sodipodi:docname="Tom_info.svg"
   inkscape:version="1.4 (e7c3feb1, 2024-10-09)"
   xmlns:inkscape="http://www.inkscape.org/namespaces/inkscape"
   xmlns:sodipodi="http://sodipodi.sourceforge.net/DTD/sodipodi-0.dtd"
   xmlns="http://www.w3.org/2000/svg"
   xmlns:svg="http://www.w3.org/2000/svg">
  <defs
     id="defs80" />
  <sodipodi:namedview
     id="namedview80"
     pagecolor="#ffffff"
     bordercolor="#000000"
     borderopacity="0.25"
     inkscape:showpageshadow="2"
     inkscape:pageopacity="0.0"
     inkscape:pagecheckerboard="0"
     inkscape:deskcolor="#d1d1d1"
     inkscape:zoom="2.7288709"
     inkscape:cx="72.19103"
     inkscape:cy="184.875"
     inkscape:window-width="1200"
     inkscape:window-height="1186"
     inkscape:window-x="2977"
     inkscape:window-y="61"
     inkscape:window-maximized="0"
     inkscape:current-layer="faceplate" />
  <g
     id="faceplate">
    <g
       id="g1">
      <rect
         x="0.1"
         y="0.1"
         width="143.8"
         height="364"
         style="fill:#ededed"
         id="rect1" />
      <path
         d="M 143.8,0.2 V 364 H 0.2 V 0.2 H 143.7 M 144,0 H 0 v 364.2 h 144 z"
         style="fill:#9d9d9e"
         id="path1" />
    </g>
    <g
       id="g11">
      <path
         d="m 46.8,40.4 1.1,-2 C 45.1,37 42.1,36.1 38.8,36 v 2.3 c 2.9,0.1 5.6,0.9 8,2.1 z"
         id="path2" />
      <path
         d="m 54.4,47.3 2,-1.1 c -1.7,-2.7 -4,-5 -6.7,-6.7 l -1.1,2 c 2.3,1.5 4.3,3.5 5.8,5.8 z"
         id="path3" />
      <path
         d="m 27.1,41.4 -1.1,-2 c -2.7,1.7 -5,4 -6.7,6.7 l 2,1.1 c 1.5,-2.3 3.5,-4.3 5.9,-5.8 z"
         id="path4" />
      <path
         d="m 57.6,57 h 2.3 c -0.2,-3.3 -1,-6.4 -2.4,-9.1 l -2,1.1 c 1.2,2.4 2,5.1 2.1,8 z"
         id="path5" />
      <path
         d="M 36.8,38.3 V 36 c -3.3,0.2 -6.4,1 -9.1,2.4 l 1.1,2 c 2.4,-1.2 5.1,-2 8,-2.1 z"
         id="path6" />
      <path
         d="m 21.3,68.7 -2,1.1 c 1.7,2.7 4,5 6.7,6.7 l 1.1,-1.9 c -2.3,-1.5 -4.3,-3.5 -5.9,-5.8 v 0 z"
         id="path7" />
      <path
         d="m 48.6,74.6 1.1,1.9 c 2.7,-1.7 5,-4 6.7,-6.7 l -2,-1.1 C 52.9,71 50.9,73 48.6,74.5 v 0 z"
         id="path8" />
      <path
         d="m 57.6,59 c -0.1,2.9 -0.9,5.6 -2.1,8 l 2,1.1 c 1.4,-2.8 2.3,-5.8 2.4,-9.1 z"
         id="path9" />
      <path
         d="m 18.1,59 h -2.3 c 0.1,3.3 1,6.4 2.4,9.1 l 2,-1.1 c -1.2,-2.4 -2,-5.1 -2.1,-8 z"
         id="path10" />
      <path
         d="m 20.3,49 -2,-1.1 C 16.9,50.7 16,53.7 15.9,57 h 2.3 c 0.1,-2.9 0.9,-5.6 2.1,-8 z"
         id="path11" />
    </g>
    <path
       d="m 12.6,291.8 v -62 c 0,-7.8 6.4,-14.2 14.2,-14.2 h 90.6 c 7.8,0 14.2,6.4 14.2,14.2 v 62 -0.9 45.2 c 0,3.1 -2.5,5.6 -5.7,5.6 H 18.2 c -3.1,0 -5.6,-2.5 -5.6,-5.6 v -45.2"
       style="fill:#d1d3d4;stroke:#d1d3d4;stroke-miterlimit:10"
       id="path12" />
    <path
       d="m 132.2,318.7 v -21.5 h -21.5 c -7.5,0 -13.6,6.5 -13.6,14.6 v 30.5 h 29.5 c 3.1,0 5.6,-2.4 5.6,-5.2 z"
       id="path13" />
    <g
       id="g23">
      <path
         d="m 46.8,145.6 1.1,-1.9 c -2.8,-1.4 -5.8,-2.3 -9.1,-2.4 v 2.3 c 2.9,0.1 5.6,0.9 8,2.1 v 0 z"
         id="path14" />
      <path
         d="m 54.4,152.4 2,-1.1 c -1.7,-2.7 -4,-5 -6.7,-6.7 l -1.1,1.9 c 2.3,1.5 4.3,3.5 5.8,5.9 z"
         id="path15" />
      <path
         d="M 27.1,146.6 26,144.7 c -2.7,1.7 -5,4 -6.7,6.7 l 2,1.1 c 1.5,-2.3 3.5,-4.3 5.9,-5.9 z"
         id="path16" />
      <path
         d="m 57.6,162.2 h 2.3 c -0.2,-3.3 -1,-6.4 -2.4,-9.1 l -2,1.1 c 1.2,2.4 2,5.1 2.1,8 z"
         id="path17" />
      <path
         d="m 36.8,143.5 v -2.3 c -3.3,0.1 -6.4,1 -9.1,2.4 l 1.1,1.9 c 2.4,-1.2 5.1,-2 8,-2.1 v 0 z"
         id="path18" />
      <path
         d="m 21.3,173.9 -2,1.1 c 1.7,2.7 4,5 6.7,6.7 l 1.1,-1.9 c -2.3,-1.5 -4.3,-3.5 -5.9,-5.9 z"
         id="path19" />
      <path
         d="m 48.6,179.8 1.1,1.9 c 2.7,-1.7 5,-4 6.7,-6.7 l -2,-1.1 c -1.5,2.3 -3.5,4.3 -5.8,5.9 z"
         id="path20" />
      <path
         d="m 57.6,164.2 c -0.1,2.9 -0.9,5.6 -2.1,8 l 2,1.1 c 1.4,-2.8 2.3,-5.8 2.4,-9.1 z"
         id="path21" />
      <path
         d="m 18.1,164.2 h -2.3 c 0.1,3.3 1,6.4 2.4,9.1 l 2,-1.1 c -1.2,-2.4 -2,-5.1 -2.1,-8 z"
         id="path22" />
      <path
         d="m 20.3,154.2 -2,-1.1 c -1.4,2.8 -2.3,5.8 -2.4,9.1 h 2.3 c 0.1,-2.9 0.9,-5.6 2.1,-8 z"
         id="path23" />
    </g>
    <g
       id="g33">
      <path
         d="m 115.4,145.6 1.1,-1.9 c -2.8,-1.4 -5.8,-2.3 -9.1,-2.4 v 2.3 c 2.9,0.1 5.6,0.9 8,2.1 v 0 z"
         id="path24" />
      <path
         d="m 123,152.4 1.9,-1.1 c -1.7,-2.7 -4,-5 -6.7,-6.7 l -1.1,1.9 c 2.3,1.5 4.3,3.5 5.8,5.9 z"
         id="path25" />
      <path
         d="m 95.7,146.6 -1.1,-1.9 c -2.7,1.7 -5,4 -6.7,6.7 l 1.9,1.1 c 1.5,-2.3 3.5,-4.3 5.8,-5.9 z"
         id="path26" />
      <path
         d="m 126.1,162.2 h 2.3 c -0.1,-3.3 -1,-6.4 -2.4,-9.1 l -1.9,1.1 c 1.2,2.4 2,5.1 2.1,8 z"
         id="path27" />
      <path
         d="m 105.4,143.5 v -2.3 c -3.3,0.1 -6.4,1 -9.1,2.4 l 1.1,1.9 c 2.4,-1.2 5.1,-2 8,-2.1 v 0 z"
         id="path28" />
      <path
         d="m 89.8,173.9 -1.9,1.1 c 1.7,2.7 4,5 6.7,6.7 l 1.1,-1.9 c -2.3,-1.5 -4.3,-3.5 -5.8,-5.9 z"
         id="path29" />
      <path
         d="m 117.1,179.8 1.1,1.9 c 2.7,-1.7 5,-4 6.7,-6.7 l -1.9,-1.1 c -1.5,2.3 -3.5,4.3 -5.8,5.9 z"
         id="path30" />
      <path
         d="m 126.1,164.2 c -0.1,2.9 -0.9,5.6 -2.1,8 l 1.9,1.1 c 1.4,-2.8 2.3,-5.8 2.4,-9.1 H 126 Z"
         id="path31" />
      <path
         d="m 86.7,164.2 h -2.3 c 0.2,3.3 1,6.4 2.4,9.1 l 1.9,-1.1 c -1.2,-2.4 -2,-5.1 -2.1,-8 z"
         id="path32" />
      <path
         d="m 88.8,154.2 -1.9,-1.1 c -1.4,2.8 -2.3,5.8 -2.4,9.1 h 2.3 c 0.1,-2.9 0.9,-5.6 2.1,-8 z"
         id="path33" />
    </g>
    <g
       style="isolation:isolate"
       id="g35">
      <g
         style="isolation:isolate"
         id="g34">
        <text
           transform="matrix(0.9,0,0,1,13.2,193.1)"
           style="font-weight:700;font-size:10px;font-family:GillSans-Bold, 'Gill Sans';isolation:isolate"
           id="text33"><tspan
             x="0"
             y="0"
             id="tspan33">Pitch Decay</tspan></text>
      </g>
    </g>
    <g
       style="isolation:isolate"
       id="g38">
      <g
         style="isolation:isolate"
         id="g37">
        <text
           transform="matrix(0.9,0,0,1,84.4,193.1)"
           style="font-weight:700;font-size:10px;font-family:GillSans-Bold, 'Gill Sans';isolation:isolate"
           id="text37"><tspan
             x="0"
             y="0"
             id="tspan35">Env D</tspan><tspan
             x="29.85"
             y="0"
             style="letter-spacing:0.01em"
             id="tspan36">e</tspan><tspan
             x="35.950001"
             y="0"
             id="tspan37">pth</tspan></text>
      </g>
    </g>
    <g
       style="isolation:isolate"
       id="g40">
      <g
         style="isolation:isolate"
         id="g39">
        <text
           transform="matrix(0.9,0,0,1,55.8,127.5)"
           style="font-weight:700;font-size:10px;font-family:GillSans-Bold, 'Gill Sans';isolation:isolate"
           id="text38"><tspan
             x="0"
             y="0"
             id="tspan38">L | M | H</tspan></text>
      </g>
    </g>
    <g
       style="isolation:isolate"
       id="g43">
      <g
         style="isolation:isolate"
         id="g42">
        <text
           transform="matrix(0.8,0,0,1,17.1,253.8)"
           style="font-weight:700;font-size:8px;font-family:GillSans-Bold, 'Gill Sans';isolation:isolate"
           id="text42"><tspan
             x="0"
             y="0"
             style="letter-spacing:-0.03em"
             id="tspan40">T</tspan><tspan
             x="5.9099998"
             y="0"
             style="letter-spacing:-0.04em"
             id="tspan41">r</tspan><tspan
             x="9.5200005"
             y="0"
             id="tspan42">igger</tspan></text>
      </g>
    </g>
    <g
       style="isolation:isolate"
       id="g45">
      <g
         style="isolation:isolate"
         id="g44">
        <text
           transform="matrix(0.8,0,0,1,63.1,253.8)"
           style="font-weight:700;font-size:8px;font-family:GillSans-Bold, 'Gill Sans';isolation:isolate"
           id="text43"><tspan
             x="0"
             y="0"
             id="tspan43">Pitch</tspan></text>
      </g>
    </g>
    <g
       style="isolation:isolate"
       id="g47">
      <g
         style="isolation:isolate"
         id="g46">
        <text
           transform="matrix(0.8,0,0,1,17.1,294.8)"
           style="font-weight:700;font-size:8px;font-family:GillSans-Bold, 'Gill Sans';isolation:isolate"
           id="text46"><tspan
             x="0"
             y="0"
             style="letter-spacing:-0.12em"
             id="tspan45">P</tspan><tspan
             x="4.6700001"
             y="0"
             id="tspan46">. Decay</tspan></text>
      </g>
    </g>
    <g
       style="isolation:isolate"
       id="g52">
      <g
         style="isolation:isolate"
         id="g51">
        <text
           transform="matrix(0.8,0,0,1,92,294.8)"
           style="font-weight:700;font-size:8px;font-family:GillSans-Bold, 'Gill Sans';isolation:isolate"
           id="text51"><tspan
             x="0"
             y="0"
             id="tspan47">En</tspan><tspan
             x="10.27"
             y="0"
             style="letter-spacing:-0.06em"
             id="tspan48">v</tspan><tspan
             x="14.47"
             y="0"
             id="tspan49">. D</tspan><tspan
             x="25.67"
             y="0"
             style="letter-spacing:0.01em"
             id="tspan50">e</tspan><tspan
             x="30.549999"
             y="0"
             id="tspan51">pth</tspan></text>
      </g>
    </g>
    <g
       style="isolation:isolate"
       id="g54">
      <g
         style="isolation:isolate"
         id="g53">
        <text
           transform="matrix(0.8,0,0,1,108.4,335.8)"
           style="font-weight:700;font-size:8px;font-family:GillSans-Bold, 'Gill Sans';isolation:isolate;fill:#ffffff"
           id="text52"><tspan
             x="0"
             y="0"
             id="tspan52">Out</tspan></text>
      </g>
    </g>
    <g
       id="g63">
      <path
         d="m 115.4,40.4 1.1,-2 C 113.7,37 110.7,36.1 107.4,36 v 2.3 c 2.9,0.1 5.6,0.9 8,2.1 z"
         id="path54" />
      <path
         d="m 123,47.3 1.9,-1.1 c -1.7,-2.7 -4,-5 -6.7,-6.7 l -1.1,2 c 2.3,1.5 4.3,3.5 5.8,5.8 z"
         id="path55" />
      <path
         d="m 95.7,41.4 -1.1,-2 c -2.7,1.7 -5,4 -6.7,6.7 l 1.9,1.1 c 1.5,-2.3 3.5,-4.3 5.8,-5.8 z"
         id="path56" />
      <path
         d="m 126.1,57 h 2.3 c -0.1,-3.3 -1,-6.4 -2.4,-9.1 l -1.9,1.1 c 1.2,2.4 2,5.1 2.1,8 z"
         id="path57" />
      <path
         d="M 105.4,38.3 V 36 c -3.3,0.2 -6.4,1 -9.1,2.4 l 1.1,2 c 2.4,-1.2 5.1,-2 8,-2.1 z"
         id="path58" />
      <path
         d="m 89.8,68.7 -1.9,1.1 c 1.7,2.7 4,5 6.7,6.7 l 1.1,-1.9 c -2.3,-1.5 -4.3,-3.5 -5.8,-5.8 v 0 z"
         id="path59" />
      <path
         d="m 117.1,74.6 1.1,1.9 c 2.7,-1.7 5,-4 6.7,-6.7 L 123,68.7 c -1.5,2.3 -3.5,4.3 -5.8,5.8 v 0 z"
         id="path60" />
      <path
         d="m 126.1,59 c -0.1,2.9 -0.9,5.6 -2.1,8 l 1.9,1.1 c 1.4,-2.8 2.3,-5.8 2.4,-9.1 H 126 Z"
         id="path61" />
      <path
         d="m 86.7,59 h -2.3 c 0.2,3.3 1,6.4 2.4,9.1 L 88.7,67 c -1.2,-2.4 -2,-5.1 -2.1,-8 z"
         id="path62" />
      <path
         d="m 88.8,49 -1.9,-1.1 c -1.4,2.8 -2.3,5.8 -2.4,9.1 h 2.3 c 0.1,-2.9 0.9,-5.6 2.1,-8 z"
         id="path63" />
    </g>
    <g
       style="isolation:isolate"
       id="g65">
      <g
         style="isolation:isolate"
         id="g64">
        <text
           transform="matrix(0.9,0,0,1,82.1,87.8)"
           style="font-weight:700;font-size:10px;font-family:GillSans-Bold, 'Gill Sans';isolation:isolate"
           id="text63"><tspan
             x="0"
             y="0"
             id="tspan63">Amp Decay</tspan></text>
      </g>
    </g>
    <g
       style="isolation:isolate"
       id="g67">
      <g
         style="isolation:isolate"
         id="g66">
        <text
           transform="matrix(0.9,0,0,1,27.1,87.8)"
           style="font-weight:700;font-size:10px;font-family:GillSans-Bold, 'Gill Sans';isolation:isolate"
           id="text65"><tspan
             x="0"
             y="0"
             id="tspan65">Pitch</tspan></text>
      </g>
    </g>
    <g
       id="g69">
      <path
         d="m 63.9,18.2 c -0.4,0 -0.7,-0.2 -1,-0.5 -0.5,-0.6 -0.5,-1.5 0,-2.2 l 7,-8.9 C 70.3,6.1 71,5.9 71.5,6.2 72,6.4 72.3,7 72.3,7.7 v 4.8 l 4.6,-5.8 c 0.4,-0.5 1,-0.6 1.5,-0.4 0.5,0.2 0.8,0.8 0.8,1.4 v 8.8 c 0,0.9 -0.6,1.6 -1.4,1.6 -0.8,0 -1.4,-0.7 -1.4,-1.6 v -4.8 l -4.6,5.8 c -0.4,0.5 -1,0.6 -1.5,0.4 -0.5,-0.2 -0.8,-0.8 -0.8,-1.4 v -4.7 l -4.6,5.8 c -0.3,0.3 -0.6,0.5 -1,0.5 v 0 z"
         style="fill:#2cabe1"
         id="path67" />
      <path
         d="m 63.9,18.2 c -0.8,0 -1.3,-0.7 -1.3,-1.6 v -4.9 l -2.3,2.8 c -0.5,0.6 -1.4,0.6 -2,0 -0.5,-0.6 -0.5,-1.5 0,-2.2 l 4.6,-5.8 c 0.3,-0.3 0.6,-0.5 1,-0.5 0.4,0 0.4,0 0.5,0.1 0.5,0.2 0.8,0.8 0.8,1.4 v 8.9 c 0,0.9 -0.6,1.6 -1.4,1.6 v 0 z"
         style="fill:#ea2228"
         id="path68" />
      <path
         d="m 80.5,18.2 v 0 c -0.3,0 -0.7,-0.1 -0.9,-0.4 C 78.8,17 79.5,16 79.9,15.5 l 1.9,-2.4 h -1.3 c -0.6,0 -1,-0.4 -1.2,-1 -0.2,-0.6 0,-1.2 0.3,-1.6 l 3.2,-3.8 c 0.2,-0.3 0.6,-0.5 1.1,-0.5 0.3,0 0.7,0.2 0.9,0.4 0.7,0.7 0.3,1.7 0,2.2 l -1,1.3 h 1.3 c 0.6,0 1,0.4 1.2,1 0.2,0.6 0,1.2 -0.3,1.6 l -4.1,5 c -0.3,0.4 -0.7,0.5 -1.3,0.5 z"
         style="fill:#00a650"
         id="path69" />
    </g>
    <g
       style="isolation:isolate"
       id="g72">
      <g
         style="isolation:isolate"
         id="g70">
        <text
           transform="matrix(0.8,0,0,1,60.8,357.2)"
           style="font-weight:700;font-size:11px;font-family:GillSans-Bold, 'Gill Sans';isolation:isolate"
           id="text69"><tspan
             x="0"
             y="0"
             id="tspan69">T</tspan></text>
      </g>
      <g
         style="isolation:isolate"
         id="g71">
        <text
           transform="matrix(0.8,0,0,1,67.2,357.2)"
           style="font-weight:700;font-size:11px;font-family:GillSans-Bold, 'Gill Sans';isolation:isolate"
           id="text70"><tspan
             x="0"
             y="0"
             id="tspan70">OM</tspan></text>
      </g>
    </g>
    <g
       style="isolation:isolate"
       id="g74">
      <g
         style="isolation:isolate"
         id="g73">
        <text
           transform="matrix(0.8,0,0,1,99.3,253.9)"
           style="font-weight:700;font-size:8px;font-family:GillSans-Bold, 'Gill Sans';isolation:isolate"
           id="text72"><tspan
             x="0"
             y="0"
             id="tspan72">A. Decay</tspan></text>
      </g>
    </g>
  </g>
  <g
     id="components"
     style="display:none">
    <circle
       id="Out"
       cx="114.7"
       cy="313.70001"
       r="11.3"
       style="fill:#0000ff" />
    <circle
       id="Env_Depth_CV"
       data-name="Env Depth CV"
       cx="114.6"
       cy="272.10001"
       r="11.3"
       style="fill:#00ff00" />
    <circle
       id="P_Decay_CV"
       data-name="P Decay CV"
       cx="29.4"
       cy="272.10001"
       r="11.3"
       style="fill:#00ff00" />
    <circle
       id="A_Decay_CV"
       data-name="A Decay CV"
       cx="114.6"
       cy="232"
       r="11.3"
       style="fill:#00ff00" />
    <circle
       id="Pitch_CV"
       data-name="Pitch CV"
       cx="71.599998"
       cy="232"
       r="11.3"
       style="fill:#00ff00" />
    <circle
       id="Trigger"
       cx="29.4"
       cy="232"
       r="11.3"
       style="fill:#80ff80" />
    <circle
       id="Env_Depth"
       data-name="Env Depth"
       cx="106.3"
       cy="162.7"
       r="17"
       style="fill:#ff0032" />
    <circle
       id="Pitch_Decay"
       data-name="Pitch Decay"
       cx="37.700001"
       cy="162.7"
       r="17"
       style="fill:#ff0000" />
    <rect
       id="Range_Switch_Low_Medium_High"
       data-name="Range Switch@Low@Medium@High"
       x="63.5"
       y="104.5"
       width="17"
       height="11.3"
       style="fill:#ffc081" />
    <circle
       id="Amp_Decay"
       data-name="Amp Decay"
       cx="106.3"
       cy="57.700001"
       r="17"
       style="fill:#ff0032" />
    <circle
       id="Pitch"
       cx="37.700001"
       cy="57.700001"
       r="17"
       style="fill:#ff0032" />
    <g
       id="slug"
       style="isolation:isolate">
      <g
         style="isolation:isolate"
         id="g75">
        <text
           transform="translate(105.3,369)"
           style="font-size:3px;font-family:MyriadPro-Regular, 'Myriad Pro';isolation:isolate;fill:#010101"
           id="text74"><tspan
             x="0"
             y="0"
             id="tspan74">T</tspan></text>
      </g>
      <g
         style="isolation:isolate"
         id="g76">
        <text
           transform="translate(106.6,369)"
           style="font-size:3px;font-family:MyriadPro-Regular, 'Myriad Pro';isolation:isolate;fill:#010101"
           id="text75"><tspan
             x="0"
             y="0"
             id="tspan75">om</tspan></text>
      </g>
    </g>
    <g
       id="modulename"
       style="isolation:isolate">
      <g
         style="isolation:isolate"
         id="g77">
        <text
           transform="translate(116.8,369)"
           style="font-size:3px;font-family:MyriadPro-Regular, 'Myriad Pro';isolation:isolate;fill:#010101"
           id="text76"><tspan
             x="0"
             y="0"
             id="tspan76">T</tspan></text>
      </g>
      <g
         style="isolation:isolate"
         id="g78">
        <text
           transform="translate(118.1,369)"
           style="font-size:3px;font-family:MyriadPro-Regular, 'Myriad Pro';isolation:isolate;fill:#010101"
           id="text77"><tspan
             x="0"
             y="0"
             id="tspan77">om Drum</tspan></text>
      </g>
      <g
         style="isolation:isolate"
         id="g79">
        <text
           transform="translate(130.7,369)"
           style="font-size:3px;font-family:MyriadPro-Regular, 'Myriad Pro';isolation:isolate;fill:#010101"
           id="text78"><tspan
             x="0"
             y="0"
             id="tspan78">M</tspan></text>
      </g>
      <g
         style="isolation:isolate"
         id="g80">
        <text
           transform="translate(133.1,369)"
           style="font-size:3px;font-family:MyriadPro-Regular, 'Myriad Pro';isolation:isolate;fill:#010101"
           id="text79"><tspan
             x="0"
             y="0"
             id="tspan79">odule</tspan></text>
      </g>
    </g>
  </g>
</svg>
