<?xml version="1.0" encoding="UTF-8" standalone="no"?>
<svg
   id="svg67"
   width="144"
   height="369.75"
   viewBox="0 0 144 369.75"
   version="1.1"
   sodipodi:docname="Tom_info.svg"
   inkscape:version="1.4 (e7c3feb1, 2024-10-09)"
   xmlns:inkscape="http://www.inkscape.org/namespaces/inkscape"
   xmlns:sodipodi="http://sodipodi.sourceforge.net/DTD/sodipodi-0.dtd"
   xmlns="http://www.w3.org/2000/svg"
   xmlns:svg="http://www.w3.org/2000/svg">
  <defs
     id="defs80" />
  <sodipodi:namedview
     id="namedview80"
     pagecolor="#ffffff"
     bordercolor="#000000"
     borderopacity="0.25"
     inkscape:showpageshadow="2"
     inkscape:pageopacity="0.0"
     inkscape:pagecheckerboard="0"
     inkscape:deskcolor="#d1d1d1"
     inkscape:zoom="2.7288709"
     inkscape:cx="72.007805"
     inkscape:cy="184.875"
     inkscape:window-width="1200"
     inkscape:window-height="1186"
     inkscape:window-x="2240"
     inkscape:window-y="25"
     inkscape:window-maximized="0"
     inkscape:current-layer="svg67" />
  <g
     id="faceplate">
    <g
       id="g1">
      <rect
         x=".1"
         y=".1"
         width="143.8"
         height="364"
         style="fill: #ededed;"
         id="rect1" />
      <path
         d="M143.8.2v363.8H.2V.2h143.5M144,0H0v364.2h144V0h0Z"
         style="fill: #9d9d9e;"
         id="path1" />
    </g>
    <g
       id="g11">
      <path
         d="M46.8,40.4l1.1-2c-2.8-1.4-5.8-2.3-9.1-2.4v2.3c2.9.1,5.6.9,8,2.1h0Z"
         id="path2" />
      <path
         d="M54.4,47.3l2-1.1c-1.7-2.7-4-5-6.7-6.7l-1.1,2c2.3,1.5,4.3,3.5,5.8,5.8h0Z"
         id="path3" />
      <path
         d="M27.1,41.4l-1.1-2c-2.7,1.7-5,4-6.7,6.7l2,1.1c1.5-2.3,3.5-4.3,5.9-5.8h-.1Z"
         id="path4" />
      <path
         d="M57.6,57h2.3c-.2-3.3-1-6.4-2.4-9.1l-2,1.1c1.2,2.4,2,5.1,2.1,8h0Z"
         id="path5" />
      <path
         d="M36.8,38.3v-2.3c-3.3.2-6.4,1-9.1,2.4l1.1,2c2.4-1.2,5.1-2,8-2.1h0Z"
         id="path6" />
      <path
         d="M21.3,68.7l-2,1.1c1.7,2.7,4,5,6.7,6.7l1.1-1.9c-2.3-1.5-4.3-3.5-5.9-5.8h0l.1-.1Z"
         id="path7" />
      <path
         d="M48.6,74.6l1.1,1.9c2.7-1.7,5-4,6.7-6.7l-2-1.1c-1.5,2.3-3.5,4.3-5.8,5.8h0v.1Z"
         id="path8" />
      <path
         d="M57.6,59c-.1,2.9-.9,5.6-2.1,8l2,1.1c1.4-2.8,2.3-5.8,2.4-9.1h-2.3Z"
         id="path9" />
      <path
         d="M18.1,59h-2.3c.1,3.3,1,6.4,2.4,9.1l2-1.1c-1.2-2.4-2-5.1-2.1-8h0Z"
         id="path10" />
      <path
         d="M20.3,49l-2-1.1c-1.4,2.8-2.3,5.8-2.4,9.1h2.3c.1-2.9.9-5.6,2.1-8h0Z"
         id="path11" />
    </g>
    <path
       d="M12.6,291.8v-62c0-7.8,6.4-14.2,14.2-14.2h90.6c7.8,0,14.2,6.4,14.2,14.2v62-.9,45.2c0,3.1-2.5,5.6-5.7,5.6H18.2c-3.1,0-5.6-2.5-5.6-5.6v-45.2"
       style="fill: #d1d3d4; stroke: #d1d3d4; stroke-miterlimit: 10;"
       id="path12" />
    <path
       d="M132.2,318.7v-21.5h-21.5c-7.5,0-13.6,6.5-13.6,14.6v30.5h29.5c3.1,0,5.6-2.4,5.6-5.2v-18.4h0Z"
       id="path13" />
    <g
       id="g23">
      <path
         d="M46.8,145.6l1.1-1.9c-2.8-1.4-5.8-2.3-9.1-2.4v2.3c2.9.1,5.6.9,8,2.1h0v-.1Z"
         id="path14" />
      <path
         d="M54.4,152.4l2-1.1c-1.7-2.7-4-5-6.7-6.7l-1.1,1.9c2.3,1.5,4.3,3.5,5.8,5.9h0Z"
         id="path15" />
      <path
         d="M27.1,146.6l-1.1-1.9c-2.7,1.7-5,4-6.7,6.7l2,1.1c1.5-2.3,3.5-4.3,5.9-5.9h-.1Z"
         id="path16" />
      <path
         d="M57.6,162.2h2.3c-.2-3.3-1-6.4-2.4-9.1l-2,1.1c1.2,2.4,2,5.1,2.1,8h0Z"
         id="path17" />
      <path
         d="M36.8,143.5v-2.3c-3.3.1-6.4,1-9.1,2.4l1.1,1.9c2.4-1.2,5.1-2,8-2.1h0v.1Z"
         id="path18" />
      <path
         d="M21.3,173.9l-2,1.1c1.7,2.7,4,5,6.7,6.7l1.1-1.9c-2.3-1.5-4.3-3.5-5.9-5.9h.1Z"
         id="path19" />
      <path
         d="M48.6,179.8l1.1,1.9c2.7-1.7,5-4,6.7-6.7l-2-1.1c-1.5,2.3-3.5,4.3-5.8,5.9h0Z"
         id="path20" />
      <path
         d="M57.6,164.2c-.1,2.9-.9,5.6-2.1,8l2,1.1c1.4-2.8,2.3-5.8,2.4-9.1h-2.3Z"
         id="path21" />
      <path
         d="M18.1,164.2h-2.3c.1,3.3,1,6.4,2.4,9.1l2-1.1c-1.2-2.4-2-5.1-2.1-8h0Z"
         id="path22" />
      <path
         d="M20.3,154.2l-2-1.1c-1.4,2.8-2.3,5.8-2.4,9.1h2.3c.1-2.9.9-5.6,2.1-8h0Z"
         id="path23" />
    </g>
    <g
       id="g33">
      <path
         d="M115.4,145.6l1.1-1.9c-2.8-1.4-5.8-2.3-9.1-2.4v2.3c2.9.1,5.6.9,8,2.1h0v-.1Z"
         id="path24" />
      <path
         d="M123,152.4l1.9-1.1c-1.7-2.7-4-5-6.7-6.7l-1.1,1.9c2.3,1.5,4.3,3.5,5.8,5.9h.1Z"
         id="path25" />
      <path
         d="M95.7,146.6l-1.1-1.9c-2.7,1.7-5,4-6.7,6.7l1.9,1.1c1.5-2.3,3.5-4.3,5.8-5.9h.1Z"
         id="path26" />
      <path
         d="M126.1,162.2h2.3c-.1-3.3-1-6.4-2.4-9.1l-1.9,1.1c1.2,2.4,2,5.1,2.1,8h-.1Z"
         id="path27" />
      <path
         d="M105.4,143.5v-2.3c-3.3.1-6.4,1-9.1,2.4l1.1,1.9c2.4-1.2,5.1-2,8-2.1h0v.1Z"
         id="path28" />
      <path
         d="M89.8,173.9l-1.9,1.1c1.7,2.7,4,5,6.7,6.7l1.1-1.9c-2.3-1.5-4.3-3.5-5.8-5.9h-.1Z"
         id="path29" />
      <path
         d="M117.1,179.8l1.1,1.9c2.7-1.7,5-4,6.7-6.7l-1.9-1.1c-1.5,2.3-3.5,4.3-5.8,5.9h-.1Z"
         id="path30" />
      <path
         d="M126.1,164.2c-.1,2.9-.9,5.6-2.1,8l1.9,1.1c1.4-2.8,2.3-5.8,2.4-9.1h-2.3.1Z"
         id="path31" />
      <path
         d="M86.7,164.2h-2.3c.2,3.3,1,6.4,2.4,9.1l1.9-1.1c-1.2-2.4-2-5.1-2.1-8h.1Z"
         id="path32" />
      <path
         d="M88.8,154.2l-1.9-1.1c-1.4,2.8-2.3,5.8-2.4,9.1h2.3c.1-2.9.9-5.6,2.1-8h-.1Z"
         id="path33" />
    </g>
    <g
       style="isolation: isolate;"
       id="g35">
      <g
         style="isolation: isolate;"
         id="g34">
        <text
           transform="translate(13.2 193.1) scale(.9 1)"
           style="font-family: GillSans-Bold, 'Gill Sans'; font-size: 10px; font-weight: 700; isolation: isolate;"
           id="text33"><tspan
             x="0"
             y="0"
             id="tspan33">Pitch Decay</tspan></text>
      </g>
    </g>
    <g
       style="isolation: isolate;"
       id="g38">
      <g
         style="isolation: isolate;"
         id="g37">
        <text
           transform="translate(84.4 193.1) scale(.9 1)"
           style="font-family: GillSans-Bold, 'Gill Sans'; font-size: 10px; font-weight: 700; isolation: isolate;"
           id="text37"><tspan
             x="0"
             y="0"
             id="tspan35">Env D</tspan><tspan
             x="29.85"
             y="0"
             style="letter-spacing: .01em;"
             id="tspan36">e</tspan><tspan
             x="35.95"
             y="0"
             id="tspan37">pth</tspan></text>
      </g>
    </g>
    <g
       style="isolation: isolate;"
       id="g40">
      <g
         style="isolation: isolate;"
         id="g39">
        <text
           transform="translate(55.8 127.5) scale(.9 1)"
           style="font-family: GillSans-Bold, 'Gill Sans'; font-size: 10px; font-weight: 700; isolation: isolate;"
           id="text38"><tspan
             x="0"
             y="0"
             id="tspan38">L | M | H</tspan></text>
      </g>
    </g>
    <g
       style="isolation: isolate;"
       id="g43">
      <g
         style="isolation: isolate;"
         id="g42">
        <text
           transform="translate(17.1 253.8) scale(.8 1)"
           style="font-family: GillSans-Bold, 'Gill Sans'; font-size: 8px; font-weight: 700; isolation: isolate;"
           id="text42"><tspan
             x="0"
             y="0"
             style="letter-spacing: -.03em;"
             id="tspan40">T</tspan><tspan
             x="5.91"
             y="0"
             style="letter-spacing: -.04em;"
             id="tspan41">r</tspan><tspan
             x="9.52"
             y="0"
             id="tspan42">igger</tspan></text>
      </g>
    </g>
    <g
       style="isolation: isolate;"
       id="g45">
      <g
         style="isolation: isolate;"
         id="g44">
        <text
           transform="translate(63.1 253.8) scale(.8 1)"
           style="font-family: GillSans-Bold, 'Gill Sans'; font-size: 8px; font-weight: 700; isolation: isolate;"
           id="text43"><tspan
             x="0"
             y="0"
             id="tspan43">Pitch</tspan></text>
      </g>
    </g>
    <g
       style="isolation: isolate;"
       id="g47">
      <g
         style="isolation: isolate;"
         id="g46">
        <text
           transform="translate(17.1 294.8) scale(.8 1)"
           style="font-family: GillSans-Bold, 'Gill Sans'; font-size: 8px; font-weight: 700; isolation: isolate;"
           id="text46"><tspan
             x="0"
             y="0"
             style="letter-spacing: -.12em;"
             id="tspan45">P</tspan><tspan
             x="4.67"
             y="0"
             id="tspan46">. Decay</tspan></text>
      </g>
    </g>
    <g
       style="isolation: isolate;"
       id="g52">
      <g
         style="isolation: isolate;"
         id="g51">
        <text
           transform="translate(92 294.8) scale(.8 1)"
           style="font-family: GillSans-Bold, 'Gill Sans'; font-size: 8px; font-weight: 700; isolation: isolate;"
           id="text51"><tspan
             x="0"
             y="0"
             id="tspan47">En</tspan><tspan
             x="10.27"
             y="0"
             style="letter-spacing: -.06em;"
             id="tspan48">v</tspan><tspan
             x="14.47"
             y="0"
             id="tspan49">. D</tspan><tspan
             x="25.67"
             y="0"
             style="letter-spacing: .01em;"
             id="tspan50">e</tspan><tspan
             x="30.55"
             y="0"
             id="tspan51">pth</tspan></text>
      </g>
    </g>
    <g
       style="isolation: isolate;"
       id="g54">
      <g
         style="isolation: isolate;"
         id="g53">
        <text
           transform="translate(108.4 335.8) scale(.8 1)"
           style="fill: #fff; font-family: GillSans-Bold, 'Gill Sans'; font-size: 8px; font-weight: 700; isolation: isolate;"
           id="text52"><tspan
             x="0"
             y="0"
             id="tspan52">Out</tspan></text>
      </g>
    </g>
    <g
       id="g63">
      <path
         d="M115.4,40.4l1.1-2c-2.8-1.4-5.8-2.3-9.1-2.4v2.3c2.9.1,5.6.9,8,2.1h0Z"
         id="path54" />
      <path
         d="M123,47.3l1.9-1.1c-1.7-2.7-4-5-6.7-6.7l-1.1,2c2.3,1.5,4.3,3.5,5.8,5.8h.1Z"
         id="path55" />
      <path
         d="M95.7,41.4l-1.1-2c-2.7,1.7-5,4-6.7,6.7l1.9,1.1c1.5-2.3,3.5-4.3,5.8-5.8h.1Z"
         id="path56" />
      <path
         d="M126.1,57h2.3c-.1-3.3-1-6.4-2.4-9.1l-1.9,1.1c1.2,2.4,2,5.1,2.1,8h-.1Z"
         id="path57" />
      <path
         d="M105.4,38.3v-2.3c-3.3.2-6.4,1-9.1,2.4l1.1,2c2.4-1.2,5.1-2,8-2.1h0Z"
         id="path58" />
      <path
         d="M89.8,68.7l-1.9,1.1c1.7,2.7,4,5,6.7,6.7l1.1-1.9c-2.3-1.5-4.3-3.5-5.8-5.8h0l-.1-.1Z"
         id="path59" />
      <path
         d="M117.1,74.6l1.1,1.9c2.7-1.7,5-4,6.7-6.7l-1.9-1.1c-1.5,2.3-3.5,4.3-5.8,5.8h0l-.1.1Z"
         id="path60" />
      <path
         d="M126.1,59c-.1,2.9-.9,5.6-2.1,8l1.9,1.1c1.4-2.8,2.3-5.8,2.4-9.1h-2.3.1Z"
         id="path61" />
      <path
         d="M86.7,59h-2.3c.2,3.3,1,6.4,2.4,9.1l1.9-1.1c-1.2-2.4-2-5.1-2.1-8h.1Z"
         id="path62" />
      <path
         d="M88.8,49l-1.9-1.1c-1.4,2.8-2.3,5.8-2.4,9.1h2.3c.1-2.9.9-5.6,2.1-8h-.1Z"
         id="path63" />
    </g>
    <g
       style="isolation: isolate;"
       id="g65">
      <g
         style="isolation: isolate;"
         id="g64">
        <text
           transform="translate(82.1 87.8) scale(.9 1)"
           style="font-family: GillSans-Bold, 'Gill Sans'; font-size: 10px; font-weight: 700; isolation: isolate;"
           id="text63"><tspan
             x="0"
             y="0"
             id="tspan63">Amp Decay</tspan></text>
      </g>
    </g>
    <g
       style="isolation: isolate;"
       id="g67">
      <g
         style="isolation: isolate;"
         id="g66">
        <text
           transform="translate(27.1 87.8) scale(.9 1)"
           style="font-family: GillSans-Bold, 'Gill Sans'; font-size: 10px; font-weight: 700; isolation: isolate;"
           id="text65"><tspan
             x="0"
             y="0"
             id="tspan65">Pitch</tspan></text>
      </g>
    </g>
    <g
       id="g69">
      <path
         d="M63.9,18.2c-.4,0-.7-.2-1-.5-.5-.6-.5-1.5,0-2.2l7-8.9c.4-.5,1.1-.7,1.6-.4.5.2.8.8.8,1.5v4.8l4.6-5.8c.4-.5,1-.6,1.5-.4s.8.8.8,1.4v8.8c0,.9-.6,1.6-1.4,1.6s-1.4-.7-1.4-1.6v-4.8l-4.6,5.8c-.4.5-1,.6-1.5.4s-.8-.8-.8-1.4v-4.7l-4.6,5.8c-.3.3-.6.5-1,.5h0v.1Z"
         style="fill: #2cabe1;"
         id="path67" />
      <path
         d="M63.9,18.2c-.8,0-1.3-.7-1.3-1.6v-4.9l-2.3,2.8c-.5.6-1.4.6-2,0-.5-.6-.5-1.5,0-2.2l4.6-5.8c.3-.3.6-.5,1-.5s.4,0,.5.1c.5.2.8.8.8,1.4v8.9c0,.9-.6,1.6-1.4,1.6h0l.1.2Z"
         style="fill: #ea2228;"
         id="path68" />
      <path
         d="M80.5,18.2h0c-.3,0-.7-.1-.9-.4-.8-.8-.1-1.8.3-2.3l1.9-2.4h-1.3c-.6,0-1-.4-1.2-1s0-1.2.3-1.6l3.2-3.8c.2-.3.6-.5,1.1-.5.3,0,.7.2.9.4.7.7.3,1.7,0,2.2l-1,1.3h1.3c.6,0,1,.4,1.2,1s0,1.2-.3,1.6l-4.1,5c-.3.4-.7.5-1.3.5h-.1Z"
         style="fill: #00a650;"
         id="path69" />
    </g>
    <g
       style="isolation: isolate;"
       id="g72">
      <g
         style="isolation: isolate;"
         id="g70">
        <text
           transform="translate(60.8 357.2) scale(.8 1)"
           style="font-family: GillSans-Bold, 'Gill Sans'; font-size: 11px; font-weight: 700; isolation: isolate;"
           id="text69"><tspan
             x="0"
             y="0"
             id="tspan69">T</tspan></text>
      </g>
      <g
         style="isolation: isolate;"
         id="g71">
        <text
           transform="translate(67.2 357.2) scale(.8 1)"
           style="font-family: GillSans-Bold, 'Gill Sans'; font-size: 11px; font-weight: 700; isolation: isolate;"
           id="text70"><tspan
             x="0"
             y="0"
             id="tspan70">OM</tspan></text>
      </g>
    </g>
    <g
       style="isolation: isolate;"
       id="g74">
      <g
         style="isolation: isolate;"
         id="g73">
        <text
           transform="translate(99.3 253.9) scale(.8 1)"
           style="font-family: GillSans-Bold, 'Gill Sans'; font-size: 8px; font-weight: 700; isolation: isolate;"
           id="text72"><tspan
             x="0"
             y="0"
             id="tspan72">A. Decay</tspan></text>
      </g>
    </g>
  </g>
  <g
     id="components"
     style="display:none">
    <circle
       id="Out"
       cx="114.7"
       cy="313.70001"
       r="11.3"
       style="fill:#0000ff" />
    <circle
       id="Env_Depth_CV"
       data-name="Env Depth CV"
       cx="114.6"
       cy="272.10001"
       r="11.3"
       style="fill:#00ff00" />
    <circle
       id="P_Decay_CV"
       data-name="P Decay CV"
       cx="29.4"
       cy="272.10001"
       r="11.3"
       style="fill:#00ff00" />
    <circle
       id="A_Decay_CV"
       data-name="A Decay CV"
       cx="114.6"
       cy="232"
       r="11.3"
       style="fill:#00ff00" />
    <circle
       id="Pitch_CV"
       data-name="Pitch CV"
       cx="71.599998"
       cy="232"
       r="11.3"
       style="fill:#00ff00" />
    <circle
       id="Trigger"
       cx="29.4"
       cy="232"
       r="11.3"
       style="fill:#80ff80" />
    <circle
       id="Env_Depth"
       data-name="Env Depth"
       cx="106.3"
       cy="162.7"
       r="17"
       style="fill:#ff0032" />
    <circle
       id="Pitch_Decay"
       data-name="Pitch Decay"
       cx="37.700001"
       cy="162.7"
       r="17"
       style="fill:#ff0000" />
    <rect
       id="Range_Switch_Low_Medium_High"
       data-name="Range Switch@Low@Medium@High"
       x="63.5"
       y="104.5"
       width="17"
       height="11.3"
       style="fill:#ffc081" />
    <circle
       id="Amp_Decay"
       data-name="Amp Decay"
       cx="106.3"
       cy="57.700001"
       r="17"
       style="fill:#ff0032" />
    <circle
       id="Pitch"
       cx="37.700001"
       cy="57.700001"
       r="17"
       style="fill:#ff0032" />
    <g
       id="slug"
       style="isolation:isolate">
      <g
         style="isolation:isolate"
         id="g75">
        <text
           transform="translate(105.3,369)"
           style="font-size:3px;font-family:MyriadPro-Regular, 'Myriad Pro';isolation:isolate;fill:#010101"
           id="text74"><tspan
             x="0"
             y="0"
             id="tspan74">T</tspan></text>
      </g>
      <g
         style="isolation:isolate"
         id="g76">
        <text
           transform="translate(106.6,369)"
           style="font-size:3px;font-family:MyriadPro-Regular, 'Myriad Pro';isolation:isolate;fill:#010101"
           id="text75"><tspan
             x="0"
             y="0"
             id="tspan75">om</tspan></text>
      </g>
    </g>
    <g
       id="modulename"
       style="isolation:isolate">
      <g
         style="isolation:isolate"
         id="g77">
        <text
           transform="translate(116.8,369)"
           style="font-size:3px;font-family:MyriadPro-Regular, 'Myriad Pro';isolation:isolate;fill:#010101"
           id="text76"><tspan
             x="0"
             y="0"
             id="tspan76">T</tspan></text>
      </g>
      <g
         style="isolation:isolate"
         id="g78">
        <text
           transform="translate(118.1,369)"
           style="font-size:3px;font-family:MyriadPro-Regular, 'Myriad Pro';isolation:isolate;fill:#010101"
           id="text77"><tspan
             x="0"
             y="0"
             id="tspan77">om Drum</tspan></text>
      </g>
      <g
         style="isolation:isolate"
         id="g79">
        <text
           transform="translate(130.7,369)"
           style="font-size:3px;font-family:MyriadPro-Regular, 'Myriad Pro';isolation:isolate;fill:#010101"
           id="text78"><tspan
             x="0"
             y="0"
             id="tspan78">M</tspan></text>
      </g>
      <g
         style="isolation:isolate"
         id="g80">
        <text
           transform="translate(133.1,369)"
           style="font-size:3px;font-family:MyriadPro-Regular, 'Myriad Pro';isolation:isolate;fill:#010101"
           id="text79"><tspan
             x="0"
             y="0"
             id="tspan79">odule</tspan></text>
      </g>
    </g>
  </g>
</svg>
