<?xml version="1.0" encoding="UTF-8" standalone="no"?>
<svg
   width="20.409006mm"
   height="128.59262mm"
   viewBox="0 0 57.847183 364.5"
   version="1.1"
   id="svg56"
   sodipodi:docname="Accent.svg"
   inkscape:version="1.4 (e7c3feb1, 2024-10-09)"
   xmlns:inkscape="http://www.inkscape.org/namespaces/inkscape"
   xmlns:sodipodi="http://sodipodi.sourceforge.net/DTD/sodipodi-0.dtd"
   xmlns="http://www.w3.org/2000/svg"
   xmlns:svg="http://www.w3.org/2000/svg">
  <sodipodi:namedview
     id="namedview1"
     pagecolor="#ffffff"
     bordercolor="#000000"
     borderopacity="0.25"
     inkscape:showpageshadow="2"
     inkscape:pageopacity="0.0"
     inkscape:pagecheckerboard="0"
     inkscape:deskcolor="#d1d1d1"
     inkscape:document-units="mm"
     inkscape:zoom="2.076049"
     inkscape:cx="38.775578"
     inkscape:cy="204.47494"
     inkscape:window-width="1200"
     inkscape:window-height="1186"
     inkscape:window-x="2658"
     inkscape:window-y="43"
     inkscape:window-maximized="0"
     inkscape:current-layer="g56" />
  <defs
     id="defs2">
    <clipPath
       id="clip-path">
      <rect
         x="15.02"
         y="32.849998"
         width="27.799999"
         height="25.620001"
         style="fill:none"
         id="rect1" />
    </clipPath>
    <clipPath
       id="clip-path-3">
      <rect
         x="15.02"
         y="80.650002"
         width="27.799999"
         height="25.620001"
         style="fill:none"
         id="rect2" />
    </clipPath>
  </defs>
  <g
     id="faceplate"
     transform="translate(-0.00640788,-0.005)">
    <rect
       x="0.13"
       y="0.13"
       width="57.599998"
       height="364.25"
       style="fill:#ededed;stroke:#9d9d9e;stroke-width:0.25px;stroke-miterlimit:10"
       id="rect3" />
    <g
       id="pips_-_fewest"
       data-name="pips - fewest">
      <g
         clip-path="url(#clip-path)"
         id="g13">
        <g
           clip-path="url(#clip-path)"
           id="g12">
          <path
             d="m 34.62,35.63 0.71,-1.24 a 13.86,13.86 0 0 0 -5.77,-1.54 v 1.43 a 12.39,12.39 0 0 1 5.06,1.35"
             id="path3" />
          <path
             d="m 39.41,40 1.24,-0.71 A 14,14 0 0 0 36.42,35 l -0.71,1.23 a 12.55,12.55 0 0 1 3.7,3.7"
             id="path4" />
          <path
             d="M 22.14,36.26 21.43,35 a 14,14 0 0 0 -4.23,4.22 l 1.24,0.71 a 12.55,12.55 0 0 1 3.7,-3.7"
             id="path5" />
          <path
             d="m 41.4,46.12 h 1.43 a 13.83,13.83 0 0 0 -1.55,-5.77 l -1.23,0.71 a 12.47,12.47 0 0 1 1.35,5.06"
             id="path6" />
          <path
             d="m 28.29,34.28 v -1.43 a 13.86,13.86 0 0 0 -5.77,1.54 l 0.71,1.24 a 12.39,12.39 0 0 1 5.06,-1.35"
             id="path7" />
          <path
             d="m 18.44,53.54 -1.24,0.71 a 14,14 0 0 0 4.23,4.22 l 0.71,-1.23 a 12.55,12.55 0 0 1 -3.7,-3.7"
             id="path8" />
          <path
             d="m 35.71,57.24 0.71,1.23 a 14,14 0 0 0 4.23,-4.22 l -1.24,-0.71 a 12.55,12.55 0 0 1 -3.7,3.7"
             id="path9" />
          <path
             d="m 41.4,47.38 a 12.47,12.47 0 0 1 -1.35,5.06 l 1.23,0.71 a 13.83,13.83 0 0 0 1.55,-5.77 z"
             id="path10" />
          <path
             d="M 16.45,47.38 H 15 a 13.83,13.83 0 0 0 1.55,5.77 l 1.23,-0.71 a 12.47,12.47 0 0 1 -1.35,-5.06"
             id="path11" />
          <path
             d="M 17.8,41.06 16.57,40.35 A 13.83,13.83 0 0 0 15,46.12 h 1.43 a 12.47,12.47 0 0 1 1.35,-5.06"
             id="path12" />
        </g>
      </g>
    </g>
    <g
       id="pips_-_fewest-2"
       data-name="pips - fewest" />
    <path
       d="m 28.63,198.27 c 8,0 14.54,6.09 14.54,13.58 v 109.8 c 0,7.48 -6.52,13.57 -14.54,13.57 -8.02,0 -14.54,-6.09 -14.54,-13.57 v -109.8 c 0,-7.49 6.53,-13.58 14.54,-13.58 m 0,-1.05 C 20,197.22 13,203.77 13,211.85 v 109.8 c 0,8.08 7,14.63 15.59,14.63 8.59,0 15.59,-6.55 15.59,-14.63 v -109.8 c 0,-8.08 -7,-14.63 -15.59,-14.63 z"
       id="path26" />
    <g
       id="g33">
      <path
         d="m 21.57,288 h -1.44 v -5.41 h 1.44 z"
         id="path29" />
      <path
         d="m 26,288 h -1.21 v -2.14 a 1.42,1.42 0 0 0 -0.1,-0.57 0.39,0.39 0 0 0 -0.41,-0.25 0.5,0.5 0 0 0 -0.27,0.07 0.62,0.62 0 0 0 -0.2,0.16 0.94,0.94 0 0 0 -0.16,0.2 l -0.12,0.2 V 288 h -1.24 v -4 h 1.24 v 0.57 a 1.73,1.73 0 0 1 0.58,-0.5 1.45,1.45 0 0 1 0.66,-0.14 c 0.83,0 1.25,0.57 1.25,1.71 z"
         id="path30" />
      <path
         d="m 30.33,286 a 2.86,2.86 0 0 1 -0.1,0.77 2.28,2.28 0 0 1 -0.31,0.67 1.47,1.47 0 0 1 -0.52,0.47 1.51,1.51 0 0 1 -0.75,0.17 1.34,1.34 0 0 1 -0.54,-0.08 1.92,1.92 0 0 1 -0.39,-0.22 v 2 H 26.48 V 284 h 1.24 v 0.36 a 1.53,1.53 0 0 1 0.41,-0.31 1.29,1.29 0 0 1 0.61,-0.12 1.52,1.52 0 0 1 0.75,0.21 1.65,1.65 0 0 1 0.6,0.67 2.45,2.45 0 0 1 0.24,1.19 z M 29,286 a 1.61,1.61 0 0 0 -0.1,-0.59 0.78,0.78 0 0 0 -0.26,-0.32 0.6,0.6 0 0 0 -0.33,-0.1 0.77,0.77 0 0 0 -0.36,0.08 1.21,1.21 0 0 0 -0.26,0.2 v 1.52 l 0.14,0.09 L 28,287 a 0.52,0.52 0 0 0 0.16,0.06 0.57,0.57 0 0 0 0.18,0 0.58,0.58 0 0 0 0.49,-0.29 A 1.29,1.29 0 0 0 29,286 Z"
         id="path31" />
      <path
         d="m 34.37,288 h -1.23 v -0.56 a 1.94,1.94 0 0 1 -0.55,0.47 1.38,1.38 0 0 1 -0.69,0.16 1,1 0 0 1 -1,-0.52 3,3 0 0 1 -0.23,-1.19 V 284 h 1.24 v 2.14 a 1.62,1.62 0 0 0 0.09,0.57 0.39,0.39 0 0 0 0.41,0.25 0.54,0.54 0 0 0 0.43,-0.18 2.92,2.92 0 0 0 0.33,-0.45 V 284 h 1.23 z"
         id="path32" />
      <path
         d="m 37.65,287.75 a 3.23,3.23 0 0 1 -0.53,0.21 2.6,2.6 0 0 1 -0.65,0.09 c -0.89,0 -1.34,-0.49 -1.34,-1.48 V 285 h -0.56 v -0.24 l 1.66,-1.93 h 0.14 V 284 h 1.18 v 1 h -1.18 v 1.28 a 1.86,1.86 0 0 0 0,0.36 0.34,0.34 0 0 0 0.13,0.22 0.49,0.49 0 0 0 0.34,0.1 1.68,1.68 0 0 0 0.78,-0.29 z"
         id="path33" />
    </g>
    <path
       d="m 44.22,308.21 c 0,-8.08 -7,-14.63 -15.59,-14.63 -8.59,0 -15.63,6.55 -15.63,14.63 v 8.11 0 19.84 a 5.68,5.68 0 0 0 5.67,5.67 h 19.88 a 5.68,5.68 0 0 0 5.67,-5.67 v -19.84 0 z"
       id="path46" />
    <g
       id="g49">
      <path
         d="m 27.86,334.14 a 3.26,3.26 0 0 1 -0.3,1.4 2.42,2.42 0 0 1 -0.92,1 3.11,3.11 0 0 1 -3,0 2.36,2.36 0 0 1 -0.9,-1 3.11,3.11 0 0 1 -0.3,-1.36 3.25,3.25 0 0 1 0.29,-1.36 2.38,2.38 0 0 1 0.91,-1 2.75,2.75 0 0 1 1.5,-0.39 3,3 0 0 1 1.18,0.23 2.3,2.3 0 0 1 0.85,0.6 2.51,2.51 0 0 1 0.5,0.89 3.1,3.1 0 0 1 0.19,0.99 z m -1.46,0 a 2,2 0 0 0 -0.08,-0.56 1.14,1.14 0 0 0 -0.24,-0.43 1,1 0 0 0 -0.39,-0.29 1.25,1.25 0 0 0 -0.53,-0.11 1.12,1.12 0 0 0 -0.91,0.39 1.47,1.47 0 0 0 -0.33,1 1.52,1.52 0 0 0 0.33,1 1.18,1.18 0 0 0 0.91,0.38 1.2,1.2 0 0 0 0.67,-0.18 1.14,1.14 0 0 0 0.43,-0.49 1.81,1.81 0 0 0 0.14,-0.71 z"
         style="fill:#ffffff"
         id="path47" />
      <path
         d="m 32,336.85 h -1.28 v -0.56 a 1.82,1.82 0 0 1 -0.55,0.47 1.35,1.35 0 0 1 -0.69,0.16 1,1 0 0 1 -1,-0.52 2.84,2.84 0 0 1 -0.24,-1.19 v -2.33 h 1.24 V 335 a 1.42,1.42 0 0 0 0.1,0.57 0.4,0.4 0 0 0 0.41,0.25 0.55,0.55 0 0 0 0.43,-0.18 3.8,3.8 0 0 0 0.32,-0.45 v -2.33 H 32 Z"
         style="fill:#ffffff"
         id="path48" />
      <path
         d="m 35.23,336.62 a 2.37,2.37 0 0 1 -0.53,0.2 2.14,2.14 0 0 1 -0.65,0.1 c -0.89,0 -1.33,-0.49 -1.33,-1.48 v -1.59 h -0.56 v -0.24 l 1.66,-1.93 H 34 v 1.2 h 1.18 v 1 H 34 v 1.28 a 1.78,1.78 0 0 0 0,0.35 0.35,0.35 0 0 0 0.14,0.23 0.51,0.51 0 0 0 0.34,0.09 1.65,1.65 0 0 0 0.77,-0.28 z"
         style="fill:#ffffff"
         id="path49" />
    </g>
    <g
       id="g55"
       style="display:inline">
      <path
         d="m 34.54,6.76 -5.53,7 v -6 A 1.27,1.27 0 0 0 28.37,6.59 0.89,0.89 0 0 0 27.24,6.88 L 20,16.13 a 1.49,1.49 0 0 0 0,1.79 0.9,0.9 0 0 0 1.46,0 l 5.5,-7 v 6 a 1.29,1.29 0 0 0 0.64,1.18 0.92,0.92 0 0 0 1.14,-0.3 l 5.53,-7 v 6.15 a 1.05,1.05 0 1 0 2.06,0 V 7.64 a 1.28,1.28 0 0 0 -0.65,-1.18 0.91,0.91 0 0 0 -1.14,0.3 z"
         style="stroke:#000000;stroke-width:0.6px"
         id="path53" />
      <path
         d="m 20,6.68 -4.81,6.13 a 1.47,1.47 0 0 0 0,1.79 0.9,0.9 0 0 0 1.46,0 L 19.7,10.73 V 17 a 1.17,1.17 0 0 0 1,1.26 1.17,1.17 0 0 0 1,-1.26 V 7.56 A 1.29,1.29 0 0 0 21.05,6.39 0.91,0.91 0 0 0 20,6.68 Z"
         style="stroke:#000000;stroke-width:0.6px"
         id="path54" />
      <path
         d="m 42.91,11.2 a 1.05,1.05 0 0 0 -0.95,-0.77 h -2.1 l 1.53,-1.95 c 0,0 0.8,-1.17 0.1,-1.82 a 1.27,1.27 0 0 0 -1.58,0.06 l -3.23,4.1 a 1.45,1.45 0 0 0 -0.2,1.37 1,1 0 0 0 1,0.78 h 2.1 L 37,16.14 c 0,0 -1,1.13 -0.27,1.89 0.73,0.76 1.75,-0.14 1.75,-0.14 l 4.18,-5.31 a 1.5,1.5 0 0 0 0.25,-1.38 z"
         style="stroke:#000000;stroke-width:0.6px"
         id="path55" />
    </g>
    <path
       d="m 14.983422,358.32213 h -2.089756 l -0.551734,-1.37201 H 9.4026017 l -0.5615,1.37201 h -2.089756 l 2.993038,-6.76729 h 2.2557653 z m -3.110221,-2.54872 -0.991169,-2.4706 -1.0009353,2.4706 z m 9.926342,2.04093 q -0.419904,0.21972 -0.859339,0.35155 -0.439435,0.13183 -0.888635,0.18554 -0.444317,0.0586 -0.922812,0.0586 -0.883752,0 -1.586848,-0.24413 -0.698213,-0.24413 -1.215769,-0.71775 -0.512674,-0.47849 -0.771452,-1.11323 -0.253896,-0.63962 -0.253896,-1.40131 0,-0.87399 0.302722,-1.52826 0.302722,-0.65915 0.844691,-1.0937 0.546852,-0.43455 1.240182,-0.63962 0.698213,-0.20995 1.469665,-0.20995 1.152296,0 2.612195,0.51267 v 1.7968 q -0.502908,-0.31249 -0.996052,-0.51756 -0.48826,-0.20995 -1.152295,-0.20995 -0.590796,0 -1.103469,0.23437 -0.512674,0.23436 -0.825161,0.66891 -0.312487,0.43456 -0.312487,1.01559 0,0.51267 0.273426,0.94234 0.273426,0.42479 0.756804,0.67868 0.488261,0.24901 1.098587,0.24901 0.493143,0 0.932578,-0.11718 0.439435,-0.12206 0.737274,-0.26854 0.302721,-0.14648 0.620091,-0.34667 z m 7.289733,0 q -0.419904,0.21972 -0.859339,0.35155 -0.439435,0.13183 -0.888635,0.18554 -0.444317,0.0586 -0.922812,0.0586 -0.883752,0 -1.586848,-0.24413 -0.698213,-0.24413 -1.215769,-0.71775 -0.512674,-0.47849 -0.771452,-1.11323 -0.253896,-0.63962 -0.253896,-1.40131 0,-0.87399 0.302722,-1.52826 0.302721,-0.65915 0.844691,-1.0937 0.546852,-0.43455 1.240182,-0.63962 0.698213,-0.20995 1.469665,-0.20995 1.152296,0 2.612195,0.51267 v 1.7968 q -0.502908,-0.31249 -0.996052,-0.51756 -0.48826,-0.20995 -1.152295,-0.20995 -0.590796,0 -1.103469,0.23437 -0.512674,0.23436 -0.825161,0.66891 -0.312487,0.43456 -0.312487,1.01559 0,0.51267 0.273426,0.94234 0.273426,0.42479 0.756804,0.67868 0.488261,0.24901 1.098587,0.24901 0.493143,0 0.932578,-0.11718 0.439435,-0.12206 0.737274,-0.26854 0.302721,-0.14648 0.620091,-0.34667 z m 6.474338,0.50779 h -5.102325 v -6.76729 h 5.01932 v 1.35736 h -2.97839 v 1.24018 h 2.841677 v 1.36225 h -2.841677 v 1.44525 h 3.061395 z m 8.715455,0 h -1.81633 l -3.510595,-3.76937 v 3.76937 h -2.0214 v -6.76729 h 1.811448 l 3.500829,3.74984 v -3.74984 h 2.036048 z m 8.188131,-5.12186 h -2.480365 v 5.12186 h -2.036047 v -5.12186 h -2.480365 v -1.64543 H 52.4672 Z"
       id="text1"
       style="font-weight:bold;font-size:9.99958px;font-family:'Gill Sans';-inkscape-font-specification:'Gill Sans Bold';fill:#1a1a1a;stroke-width:0.74997"
       aria-label="ACCENT" />
    <path
       d="m 17.808528,70.937781 h -1.880784 l -0.496563,-1.234814 h -2.645402 l -0.505351,1.234814 h -1.880784 l 2.69374,-6.090577 h 2.030193 z m -2.799205,-2.293854 -0.892054,-2.223544 -0.900843,2.223544 z m 11.319861,2.293854 h -1.581968 v -2.386135 q 0,-0.474591 -0.158197,-0.707492 -0.153803,-0.237295 -0.492168,-0.237295 -0.329577,0 -0.540506,0.20214 -0.210929,0.197746 -0.421858,0.500957 v 2.627825 h -1.581968 v -2.386135 q 0,-0.452619 -0.145014,-0.698703 -0.145013,-0.246084 -0.514139,-0.246084 -0.175775,0 -0.325183,0.07031 -0.145013,0.07031 -0.237295,0.158197 -0.09228,0.08789 -0.224112,0.259267 -0.131831,0.171379 -0.166986,0.215323 v 2.627825 h -1.581968 v -4.473454 h 1.581968 v 0.641576 q 0.355943,-0.377915 0.725069,-0.549295 0.369126,-0.17138 0.852505,-0.17138 0.228507,0 0.435041,0.04394 0.206535,0.03955 0.404281,0.140619 0.20214,0.10107 0.364732,0.276845 0.162591,0.175774 0.259267,0.408675 0.382309,-0.430647 0.790984,-0.650365 0.413069,-0.219718 0.94918,-0.219718 0.536112,0 0.896449,0.215324 0.364732,0.215323 0.536111,0.623998 0.175775,0.404281 0.175775,0.984336 z m 5.879647,-2.241122 q 0,0.667942 -0.290028,1.190871 -0.290027,0.522928 -0.870082,0.826139 -0.575661,0.30321 -1.406194,0.30321 -0.830533,0 -1.410588,-0.30321 -0.575661,-0.303211 -0.865688,-0.826139 -0.285633,-0.522929 -0.285633,-1.190871 0,-0.505351 0.158197,-0.91842 0.162591,-0.413069 0.487773,-0.729463 0.329577,-0.320788 0.808562,-0.492168 0.478984,-0.17138 1.107377,-0.17138 0.632787,0 1.116167,0.175774 0.487773,0.17138 0.804167,0.48338 0.320788,0.311999 0.483379,0.729463 0.162591,0.417463 0.162591,0.922814 z m -1.665461,0 q 0,-0.531717 -0.232901,-0.830533 -0.228506,-0.30321 -0.667942,-0.30321 -0.435041,0 -0.667942,0.30321 -0.228506,0.298816 -0.228506,0.830533 0,0.527323 0.2329,0.834928 0.232901,0.307605 0.663548,0.307605 0.439436,0 0.667942,-0.303211 0.232901,-0.307605 0.232901,-0.839322 z m 7.20235,2.241122 h -1.586362 v -0.637182 q -0.333971,0.360337 -0.703097,0.540506 -0.364732,0.175774 -0.878871,0.175774 -1.015096,0 -1.313912,-0.588844 -0.298817,-0.593238 -0.298817,-1.335884 v -2.627824 h 1.586363 v 2.416895 q 0,0.364732 0.118647,0.641576 0.123042,0.27245 0.527323,0.27245 0.347154,0 0.549294,-0.197746 0.202141,-0.197746 0.41307,-0.505351 v -2.627824 h 1.586362 z m 5.787367,0 h -1.581968 v -2.412502 q 0,-0.369125 -0.123042,-0.641575 -0.118648,-0.276845 -0.527323,-0.276845 -0.193352,0 -0.34276,0.0747 -0.145014,0.07031 -0.263661,0.184563 -0.114253,0.114253 -0.193352,0.219718 -0.0791,0.105464 -0.162591,0.224112 v 2.627825 h -1.581968 v -4.473454 h 1.581968 v 0.641576 q 0.37352,-0.399887 0.747041,-0.558084 0.377914,-0.162591 0.839321,-0.162591 1.608335,0 1.608335,1.924728 z m 4.477848,-0.259267 q -0.246084,0.118647 -0.681125,0.228506 -0.430647,0.109859 -0.826139,0.109859 -1.709404,0 -1.709404,-1.669855 v -1.784108 h -0.71628 v -0.276845 l 2.122473,-2.162023 h 0.180169 v 1.340279 h 1.511658 v 1.098589 h -1.511658 v 1.43256 q 0,0.250478 0.03076,0.40428 0.03076,0.153803 0.17138,0.259267 0.145014,0.10107 0.435042,0.10107 0.377914,0 0.993124,-0.316393 z"
       id="text13"
       style="font-weight:bold;font-size:8.99964px;font-family:'Gill Sans';-inkscape-font-specification:'Gill Sans Bold';fill:#1a1a1a;stroke-width:0.74997"
       aria-label="Amount" />
    <path
       d="m 26.460634,233.60418 h -1.984296 v 4.0975 h -1.628841 v -4.0975 h -1.984295 v -1.31635 h 5.597432 z m 3.988122,0.33593 -0.519511,1.4101 q -0.320299,-0.30468 -0.648411,-0.30468 -0.296863,0 -0.515605,0.20312 -0.214835,0.19921 -0.414046,0.74216 v 1.71087 H 26.94499 v -3.97641 h 1.406193 v 0.9609 q 0.132808,-0.35545 0.468732,-0.69138 0.335924,-0.33983 0.789031,-0.33983 0.238271,0 0.414046,0.0703 0.17968,0.0703 0.425764,0.21484 z m 1.472597,-1.13277 q 0,0.24608 -0.175774,0.41795 -0.175774,0.17187 -0.417952,0.17187 -0.164056,0 -0.300769,-0.0781 -0.132807,-0.0781 -0.210929,-0.21093 -0.07812,-0.13671 -0.07812,-0.30077 0,-0.24218 0.171868,-0.41795 0.171868,-0.17578 0.417952,-0.17578 0.242178,0 0.417952,0.17578 0.175774,0.17577 0.175774,0.41795 z m 0.113277,4.89434 h -1.4101 v -3.97641 h 1.4101 z m 4.968551,-3.12879 h -0.695285 q 0.367173,0.3203 0.367173,0.78513 0,0.24608 -0.105465,0.47264 -0.101558,0.22655 -0.304675,0.40232 -0.199211,0.17578 -0.496074,0.28906 -0.292957,0.10937 -0.671848,0.1328 -0.488262,0.0195 -0.488262,0.26171 0,0.0937 0.0625,0.13671 0.0625,0.043 0.195305,0.0664 0.136713,0.0195 0.457013,0.0469 0.363266,0.0312 0.675754,0.10937 0.312487,0.0781 0.582008,0.32811 0.26952,0.24999 0.26952,0.71482 0,0.37108 -0.203117,0.65622 -0.19921,0.28515 -0.648411,0.4453 -0.449201,0.16015 -1.187453,0.16015 -1.062457,0 -1.562437,-0.28515 -0.496074,-0.28514 -0.496074,-0.76169 0,-0.1289 0.0625,-0.29686 0.0664,-0.16796 0.273427,-0.32421 0.210929,-0.15624 0.609351,-0.21092 -0.14062,-0.0508 -0.242178,-0.19531 -0.101559,-0.14843 -0.101559,-0.30858 0,-0.20702 0.14062,-0.41014 0.144525,-0.20312 0.464825,-0.26171 -0.445295,-0.11718 -0.769501,-0.44139 -0.324205,-0.3242 -0.324205,-0.83981 0,-0.39061 0.148431,-0.68356 0.152338,-0.29296 0.417952,-0.47655 0.265615,-0.18358 0.617163,-0.26952 0.351548,-0.0898 0.7695,-0.0898 h 2.183507 z m -1.554625,0.67185 q 0,-0.30077 -0.207023,-0.48045 -0.203117,-0.18358 -0.457013,-0.18358 -0.324206,0 -0.511699,0.21874 -0.183586,0.21874 -0.183586,0.46092 0,0.16796 0.07812,0.31248 0.08203,0.14453 0.226553,0.23437 0.148432,0.0859 0.351549,0.0859 0.304675,0 0.503886,-0.19139 0.199211,-0.1914 0.199211,-0.45702 z m 0.281238,3.19909 q 0,-0.26171 -0.281238,-0.33983 -0.277333,-0.0742 -0.574196,-0.0742 -0.488262,0 -0.707003,0.10156 -0.214835,0.10546 -0.214835,0.33201 0,0.4453 0.898401,0.4453 0.402328,0 0.6406,-0.11718 0.238271,-0.11328 0.238271,-0.34765 z"
       id="text3"
       style="font-weight:bold;font-size:7.99968px;font-family:'Gill Sans';-inkscape-font-specification:'Gill Sans Bold';fill:#1a1a1a;stroke-width:0.74997"
       aria-label="Trig"
       transform="translate(0.00640788,0.005)" />
  </g>
  <g
     id="g56"
     transform="translate(-0.00640788,-0.005)"
     style="display:inline"
     inkscape:label="components">
    <circle
       style="fill:#ff0080;fill-opacity:1;stroke-width:1.26325"
       id="path13"
       cx="29.220276"
       cy="47.181789"
       r="4.2517991"
       inkscape:label="Amount" />
    <circle
       style="fill:#80ff80;fill-opacity:1;stroke-width:1.26325"
       id="path13-7"
       cx="28.560278"
       cy="215.6295"
       r="4.2517991"
       inkscape:label="Trig" />
    <circle
       style="display:inline;fill:#80ff80;fill-opacity:1;stroke-width:1.26325"
       id="path13-7-0"
       cx="28.560278"
       cy="88.275688"
       r="4.2517991"
       inkscape:label="Amount CV" />
    <circle
       style="fill:#80ff80;fill-opacity:1;stroke-width:1.26325"
       id="path13-7-7"
       cx="28.11474"
       cy="263.27869"
       r="4.2517991"
       inkscape:label="Audio" />
    <circle
       style="fill:#0000ff;fill-opacity:1;stroke-width:1.26325"
       id="path13-7-4"
       cx="28.864712"
       cy="312.8212"
       r="4.2517991"
       inkscape:label="Accented" />
    <text
       xml:space="preserve"
       style="font-weight:bold;font-size:9.99958px;font-family:'Gill Sans';-inkscape-font-specification:'Gill Sans Bold';text-align:start;writing-mode:lr-tb;direction:ltr;text-anchor:start;fill:#1a1a1a;stroke-width:0.74997"
       x="11.919805"
       y="376.4212"
       id="text2"
       inkscape:label="modulename"
       transform="translate(0.00640788,0.005)"><tspan
         sodipodi:role="line"
         id="tspan1"
         style="stroke-width:0.74997"
         x="11.919805"
         y="376.4212">Accent</tspan></text>
    <text
       xml:space="preserve"
       style="font-weight:bold;font-size:9.99958px;font-family:'Gill Sans';-inkscape-font-specification:'Gill Sans Bold';text-align:start;writing-mode:lr-tb;direction:ltr;text-anchor:start;fill:#1a1a1a;stroke-width:0.74997"
       x="56.744137"
       y="376.66742"
       id="text2-8"
       inkscape:label="slug"
       transform="translate(0.00640788,0.005)"><tspan
         sodipodi:role="line"
         id="tspan1-3"
         style="stroke-width:0.74997"
         x="56.744137"
         y="376.66742">Accent</tspan></text>
  </g>
</svg>
