<?xml version="1.0" encoding="UTF-8" standalone="no"?>
<svg
   width="20.40826mm"
   height="128.58792mm"
   viewBox="0 0 57.84507 364.50002"
   version="1.1"
   id="svg45"
   sodipodi:docname="Clave_info.svg"
   inkscape:version="1.4 (e7c3feb1, 2024-10-09)"
   xmlns:inkscape="http://www.inkscape.org/namespaces/inkscape"
   xmlns:sodipodi="http://sodipodi.sourceforge.net/DTD/sodipodi-0.dtd"
   xmlns="http://www.w3.org/2000/svg"
   xmlns:svg="http://www.w3.org/2000/svg">
  <sodipodi:namedview
     id="namedview1"
     pagecolor="#ffffff"
     bordercolor="#000000"
     borderopacity="0.25"
     inkscape:showpageshadow="2"
     inkscape:pageopacity="0.0"
     inkscape:pagecheckerboard="0"
     inkscape:deskcolor="#d1d1d1"
     inkscape:document-units="mm"
     inkscape:zoom="2.0466466"
     inkscape:cx="38.355425"
     inkscape:cy="246.50079"
     inkscape:window-width="1200"
     inkscape:window-height="1186"
     inkscape:window-x="2240"
     inkscape:window-y="25"
     inkscape:window-maximized="0"
     inkscape:current-layer="svg45" />
  <defs
     id="defs4">
    <clipPath
       id="clippath-2">
      <rect
         x="15.02"
         y="129.42"
         width="27.799999"
         height="25.620001"
         style="fill:none"
         id="rect3" />
    </clipPath>
    <clipPath
       id="clippath-3">
      <rect
         x="15.02"
         y="129.42"
         width="27.799999"
         height="25.620001"
         style="fill:none"
         id="rect4" />
    </clipPath>
  </defs>
  <g
     id="faceplate"
     transform="translate(0.00253326,0.005)">
    <rect
       x="0.12"
       y="0.12"
       width="57.599998"
       height="364.25"
       style="fill:#ededed;stroke:#9d9d9e;stroke-width:0.25px;stroke-miterlimit:10"
       id="rect5" />
    <rect
       x="0.12"
       y="0.12"
       width="57.599998"
       height="364.25"
       style="fill:#ededed;stroke:#9d9d9e;stroke-width:0.25px;stroke-miterlimit:10"
       id="rect6" />
    <path
       d="m 44.39,261.76 c 0,-8.05 -6.98,-14.57 -15.59,-14.57 -8.61,0 -15.59,6.53 -15.59,14.57 v 54.4 c 0,0 0,0 0,0 v 19.77 c 0,3.11 2.55,5.65 5.67,5.65 h 19.84 c 3.12,0 5.67,-2.54 5.67,-5.65 v -19.77 c 0,0 0,0 0,0 v -54.39 z"
       style="fill:#d1d3d4"
       id="path6" />
    <path
       d="m 44.39,310.8 c 0,-8.05 -6.98,-14.57 -15.59,-14.57 -8.61,0 -15.59,6.53 -15.59,14.57 v 5.36 c 0,0 0,0 0,0 v 19.77 c 0,3.11 2.55,5.65 5.67,5.65 h 19.84 c 3.12,0 5.67,-2.54 5.67,-5.65 v -19.77 c 0,0 0,0 0,0 v -5.35 z"
       id="path7" />
    <text
       transform="matrix(0.82,0,0,1,13.03,357.18)"
       style="font-weight:700;font-size:11px;font-family:GillSans-Bold, 'Gill Sans'"
       id="text10"><tspan
         x="0"
         y="0"
         id="tspan7">C</tspan><tspan
         x="8.1700001"
         y="0"
         style="letter-spacing:-0.01em"
         id="tspan8">L</tspan><tspan
         x="14.98"
         y="0"
         style="letter-spacing:-0.07em"
         id="tspan9">A</tspan><tspan
         x="23.35"
         y="0"
         id="tspan10">VE</tspan></text>
    <text
       transform="matrix(0.88,0,0,1,16.33,289.25)"
       style="font-weight:700;font-size:8px;font-family:GillSans-Bold, 'Gill Sans';letter-spacing:-0.04em"
       id="text11"><tspan
         x="0"
         y="0"
         id="tspan11">Trigger</tspan></text>
    <text
       transform="matrix(0.88,0,0,1,22.19,337.44)"
       style="font-weight:700;font-size:8px;font-family:GillSans-Bold, 'Gill Sans';letter-spacing:-0.04em;fill:#ffffff"
       id="text12"><tspan
         x="0"
         y="0"
         id="tspan12">Out</tspan></text>
    <g
       id="pips_-_fewest"
       data-name="pips - fewest">
      <path
         d="m 34.62,35.89 0.71,-1.23 c -1.74,-0.9 -3.7,-1.45 -5.77,-1.55 v 1.43 c 1.81,0.09 3.53,0.56 5.06,1.35"
         id="path12" />
      <path
         d="m 39.41,40.22 1.23,-0.71 c -1.09,-1.69 -2.53,-3.14 -4.22,-4.22 l -0.71,1.23 c 1.48,0.96 2.74,2.22 3.7,3.7"
         id="path13" />
      <path
         d="m 22.14,36.52 -0.71,-1.23 c -1.69,1.09 -3.14,2.53 -4.22,4.22 l 1.23,0.71 c 0.96,-1.48 2.22,-2.74 3.7,-3.7"
         id="path14" />
      <path
         d="m 41.4,46.38 h 1.43 c -0.09,-2.07 -0.64,-4.03 -1.55,-5.77 l -1.23,0.71 c 0.79,1.53 1.26,3.24 1.35,5.06"
         id="path15" />
      <path
         d="m 28.29,34.54 v -1.43 c -2.07,0.09 -4.03,0.64 -5.77,1.55 l 0.71,1.23 c 1.53,-0.79 3.24,-1.26 5.06,-1.35"
         id="path16" />
      <path
         d="m 18.44,53.8 -1.23,0.71 c 1.09,1.69 2.53,3.14 4.22,4.22 l 0.71,-1.23 c -1.48,-0.96 -2.74,-2.22 -3.7,-3.7"
         id="path17" />
      <path
         d="m 35.71,57.5 0.71,1.23 c 1.69,-1.09 3.14,-2.53 4.22,-4.22 L 39.41,53.8 c -0.96,1.48 -2.22,2.74 -3.7,3.7"
         id="path18" />
      <path
         d="m 41.4,47.64 c -0.09,1.81 -0.56,3.53 -1.35,5.06 l 1.23,0.71 c 0.9,-1.74 1.45,-3.7 1.55,-5.77 z"
         id="path19" />
      <path
         d="m 16.45,47.64 h -1.43 c 0.09,2.07 0.64,4.03 1.55,5.77 L 17.8,52.7 c -0.79,-1.53 -1.26,-3.24 -1.35,-5.06"
         id="path20" />
      <path
         d="m 17.8,41.32 -1.23,-0.71 c -0.9,1.74 -1.45,3.7 -1.55,5.77 h 1.43 c 0.09,-1.81 0.56,-3.53 1.35,-5.06"
         id="path21" />
    </g>
    <g
       id="pips_-_fewest-2"
       data-name="pips - fewest">
      <g
         clip-path="url(#clippath-2)"
         id="g32">
        <g
           clip-path="url(#clippath-3)"
           id="g31">
          <path
             d="m 34.62,132.2 0.71,-1.23 c -1.74,-0.9 -3.7,-1.45 -5.77,-1.55 v 1.43 c 1.81,0.09 3.53,0.56 5.06,1.35"
             id="path22" />
          <path
             d="m 39.41,136.53 1.23,-0.71 c -1.09,-1.69 -2.53,-3.14 -4.22,-4.22 l -0.71,1.23 c 1.48,0.96 2.74,2.22 3.7,3.7"
             id="path23" />
          <path
             d="m 22.14,132.83 -0.71,-1.23 c -1.69,1.09 -3.14,2.53 -4.22,4.22 l 1.23,0.71 c 0.96,-1.48 2.22,-2.74 3.7,-3.7"
             id="path24" />
          <path
             d="m 41.4,142.69 h 1.43 c -0.09,-2.07 -0.64,-4.03 -1.55,-5.77 l -1.23,0.71 c 0.79,1.53 1.26,3.24 1.35,5.06"
             id="path25" />
          <path
             d="m 28.29,130.84 v -1.43 c -2.07,0.09 -4.03,0.64 -5.77,1.55 l 0.71,1.23 c 1.53,-0.79 3.24,-1.26 5.06,-1.35"
             id="path26" />
          <path
             d="m 18.44,150.1 -1.23,0.71 c 1.09,1.69 2.53,3.14 4.22,4.22 l 0.71,-1.23 c -1.48,-0.96 -2.74,-2.22 -3.7,-3.7"
             id="path27" />
          <path
             d="m 35.71,153.81 0.71,1.23 c 1.69,-1.09 3.14,-2.53 4.22,-4.22 l -1.23,-0.71 c -0.96,1.48 -2.22,2.74 -3.7,3.7"
             id="path28" />
          <path
             d="m 41.4,143.95 c -0.09,1.81 -0.56,3.53 -1.35,5.06 l 1.23,0.71 c 0.9,-1.74 1.45,-3.7 1.55,-5.77 z"
             id="path29" />
          <path
             d="m 16.45,143.95 h -1.43 c 0.09,2.07 0.64,4.03 1.55,5.77 l 1.23,-0.71 c -0.79,-1.53 -1.26,-3.24 -1.35,-5.06"
             id="path30" />
          <path
             d="m 17.8,137.63 -1.23,-0.71 c -0.9,1.74 -1.45,3.7 -1.55,5.77 h 1.43 c 0.09,-1.81 0.56,-3.53 1.35,-5.06"
             id="path31" />
        </g>
      </g>
    </g>
    <text
       transform="matrix(0.88,0,0,1,18.13,70.06)"
       style="font-weight:700;font-size:10px;font-family:GillSans-Bold, 'Gill Sans';letter-spacing:-0.04em"
       id="text32"><tspan
         x="0"
         y="0"
         id="tspan32">Pitch</tspan></text>
    <text
       transform="matrix(0.88,0,0,1,16.06,166.34)"
       style="font-weight:700;font-size:10px;font-family:GillSans-Bold, 'Gill Sans';letter-spacing:-0.04em"
       id="text33"><tspan
         x="0"
         y="0"
         id="tspan33">Decay</tspan></text>
    <g
       id="g35">
      <path
         d="m 20.73,18.19 c -0.37,0 -0.71,-0.17 -0.97,-0.47 -0.51,-0.6 -0.52,-1.54 -0.04,-2.16 l 6.97,-8.88 c 0.38,-0.48 1.05,-0.65 1.57,-0.39 0.5,0.25 0.79,0.82 0.79,1.45 v 4.77 l 4.64,-5.85 c 0.38,-0.48 1.01,-0.64 1.53,-0.38 0.5,0.25 0.83,0.81 0.83,1.44 v 8.82 c 0,0.86 -0.61,1.57 -1.36,1.57 -0.75,0 -1.36,-0.7 -1.36,-1.57 v -4.79 l -4.64,5.85 c -0.38,0.48 -1.01,0.64 -1.54,0.38 -0.5,-0.24 -0.83,-0.81 -0.83,-1.44 v -4.67 l -4.61,5.8 c -0.26,0.32 -0.62,0.51 -1,0.51 v 0 z"
         style="fill:#2cabe1"
         id="path33" />
      <path
         d="m 20.72,18.19 c -0.75,0 -1.35,-0.7 -1.35,-1.57 v -4.93 l -2.26,2.84 c -0.5,0.63 -1.44,0.65 -1.97,0.04 -0.51,-0.6 -0.52,-1.53 -0.03,-2.15 l 4.61,-5.76 c 0.26,-0.32 0.63,-0.5 1,-0.5 0.18,0 0.37,0.04 0.54,0.12 0.5,0.25 0.82,0.81 0.82,1.44 v 8.89 c 0,0.86 -0.61,1.57 -1.36,1.57 v 0 z"
         style="fill:#ea2228"
         id="path34" />
      <path
         d="m 37.32,18.21 v 0 c -0.35,0 -0.68,-0.15 -0.94,-0.42 -0.76,-0.78 -0.14,-1.84 0.29,-2.3 l 1.95,-2.36 -1.26,-0.02 c -0.56,-0.01 -1.04,-0.4 -1.24,-1 -0.19,-0.56 -0.07,-1.21 0.29,-1.64 l 3.16,-3.83 c 0.23,-0.28 0.55,-0.48 1.13,-0.47 0.33,0 0.67,0.17 0.92,0.4 0.71,0.66 0.29,1.7 -0.07,2.2 l -1.04,1.26 1.26,0.02 c 0.56,0.01 1.04,0.4 1.24,1 0.19,0.56 0.07,1.21 -0.29,1.64 l -4.1,4.97 c -0.35,0.35 -0.65,0.55 -1.3,0.54 v 0 z"
         style="fill:#00a650"
         id="path35" />
    </g>
    <line
       x1="28.92"
       y1="73.32"
       x2="28.92"
       y2="92.309998"
       style="fill:#ffffff;stroke:#231f20;stroke-miterlimit:10"
       id="line35" />
    <line
       x1="28.92"
       y1="169.60001"
       x2="28.92"
       y2="188.60001"
       style="fill:#ffffff;stroke:#231f20;stroke-miterlimit:10"
       id="line36" />
  </g>
  <g
     id="components"
     style="display:none"
     transform="translate(0.00253326,0.005)">
    <circle
       id="Out"
       cx="28.799999"
       cy="313.84"
       r="11.34"
       style="fill:#0000ff" />
    <circle
       id="Trigger"
       cx="28.799999"
       cy="265.04001"
       r="11.34"
       style="fill:#80ff80" />
    <circle
       id="Decay_CV"
       data-name="Decay CV"
       cx="28.93"
       cy="191.34"
       r="11.34"
       style="fill:#00ff00" />
    <circle
       id="Decay_SmallBlackKnob"
       data-name="Decay#SmallBlackKnob"
       cx="28.92"
       cy="143.14999"
       r="8.5"
       style="fill:#ff0040"
       inkscape:label="Decay_Knob9mm" />
    <circle
       id="Pitch_CV"
       data-name="Pitch CV"
       cx="28.92"
       cy="94.959999"
       r="11.34"
       style="fill:#00ff00" />
    <circle
       id="Pitch_SmallBlackKnob"
       data-name="Pitch#SmallBlackKnob"
       cx="28.92"
       cy="46.77"
       r="8.5"
       style="fill:#ff0040"
       inkscape:label="Pitch_Knob9mm" />
    <text
       id="slug"
       transform="translate(21.44,369)"
       style="font-size:3px;font-family:MyriadPro-Regular, 'Myriad Pro';fill:#010101"><tspan
         x="0"
         y="0"
         id="tspan36">Cl</tspan><tspan
         x="2.45"
         y="0"
         style="letter-spacing:0em"
         id="tspan37">a</tspan><tspan
         x="3.8699999"
         y="0"
         style="letter-spacing:-0.01em"
         id="tspan38">v</tspan><tspan
         x="5.2800002"
         y="0"
         id="tspan39">e</tspan></text>
    <text
       id="modulename"
       transform="translate(30.01,369)"
       style="font-size:3px;font-family:MyriadPro-Regular, 'Myriad Pro';fill:#010101"><tspan
         x="0"
         y="0"
         id="tspan40">Cl</tspan><tspan
         x="2.45"
         y="0"
         style="letter-spacing:0em"
         id="tspan41">a</tspan><tspan
         x="3.8699999"
         y="0"
         style="letter-spacing:-0.01em"
         id="tspan42">v</tspan><tspan
         x="5.2800002"
         y="0"
         id="tspan43">e Drum</tspan><tspan
         x="15.19"
         y="0"
         style="letter-spacing:0em"
         id="tspan44">M</tspan><tspan
         x="17.620001"
         y="0"
         style="letter-spacing:0em"
         id="tspan45">odule</tspan></text>
  </g>
</svg>
