<?xml version="1.0" encoding="UTF-8" standalone="no"?>
<svg
   width="50.888359mm"
   height="128.58792mm"
   viewBox="0 0 144.24535 364.50002"
   version="1.1"
   id="svg51"
   sodipodi:docname="Congabongo_info.svg"
   inkscape:version="1.4 (e7c3feb1, 2024-10-09)"
   xmlns:inkscape="http://www.inkscape.org/namespaces/inkscape"
   xmlns:sodipodi="http://sodipodi.sourceforge.net/DTD/sodipodi-0.dtd"
   xmlns="http://www.w3.org/2000/svg"
   xmlns:svg="http://www.w3.org/2000/svg">
  <defs
     id="defs51" />
  <sodipodi:namedview
     id="namedview51"
     pagecolor="#ffffff"
     bordercolor="#000000"
     borderopacity="0.25"
     inkscape:showpageshadow="2"
     inkscape:pageopacity="0.0"
     inkscape:pagecheckerboard="0"
     inkscape:deskcolor="#d1d1d1"
     inkscape:document-units="mm"
     inkscape:zoom="2.0466466"
     inkscape:cx="96.010713"
     inkscape:cy="324.67745"
     inkscape:window-width="1200"
     inkscape:window-height="1186"
     inkscape:window-x="2240"
     inkscape:window-y="25"
     inkscape:window-maximized="0"
     inkscape:current-layer="svg51" />
  <g
     id="faceplate"
     transform="translate(0.00267633,0.005)">
    <rect
       x="0.12"
       y="0.12"
       width="144"
       height="364.25"
       style="fill:#ededed;stroke:#9d9d9e;stroke-width:0.25px;stroke-miterlimit:10"
       id="rect1" />
    <path
       d="m 12.61,291.83 v -62.01 c 0,-7.82 6.4,-14.22 14.22,-14.22 h 90.62 c 7.82,0 14.22,6.4 14.22,14.22 v 62.01 -0.93 45.22 c 0,3.11 -2.54,5.65 -5.65,5.65 H 18.25 c -3.11,0 -5.65,-2.54 -5.65,-5.65 V 290.9"
       style="fill:#d1d3d4;stroke:#d1d3d4;stroke-miterlimit:10"
       id="path1" />
    <path
       d="m 132.19,318.66 v -21.52 h -21.54 c -7.49,0 -13.57,6.52 -13.57,14.57 v 30.53 h 15.07 c 0,0 0,0 0,0 h 14.39 c 3.12,0 5.64,-2.36 5.64,-5.25 v -18.39 0.08 z"
       id="path2" />
    <g
       id="g12">
      <path
         d="m 81.11,40.4 1.13,-1.95 c -2.75,-1.43 -5.84,-2.3 -9.12,-2.44 v 2.26 c 2.87,0.14 5.57,0.89 7.99,2.14 z"
         id="path3" />
      <path
         d="m 88.69,47.26 1.95,-1.13 c -1.72,-2.68 -4,-4.96 -6.68,-6.68 l -1.13,1.95 c 2.34,1.52 4.33,3.51 5.85,5.85 z"
         id="path4" />
      <path
         d="m 61.39,41.4 -1.13,-1.95 c -2.68,1.72 -4.96,4 -6.68,6.68 l 1.95,1.13 c 1.52,-2.34 3.51,-4.33 5.85,-5.85 z"
         id="path5" />
      <path
         d="m 91.83,56.98 h 2.26 C 93.94,53.7 93.08,50.61 91.65,47.86 l -1.95,1.13 c 1.24,2.42 1.99,5.13 2.14,8 z"
         id="path6" />
      <path
         d="m 71.11,38.27 v -2.26 c -3.28,0.15 -6.37,1.01 -9.12,2.44 l 1.13,1.95 c 2.42,-1.24 5.13,-1.99 8,-2.14 z"
         id="path7" />
      <path
         d="m 55.53,68.71 -1.95,1.13 c 1.72,2.68 4,4.96 6.68,6.68 l 1.13,-1.95 c -2.34,-1.52 -4.33,-3.51 -5.85,-5.85 z"
         id="path8" />
      <path
         d="m 82.84,74.56 1.13,1.95 c 2.68,-1.72 4.96,-4 6.68,-6.68 L 88.7,68.7 c -1.52,2.34 -3.51,4.33 -5.85,5.85 z"
         id="path9" />
      <path
         d="m 91.83,58.98 c -0.14,2.87 -0.89,5.57 -2.14,8 l 1.95,1.13 c 1.43,-2.75 2.3,-5.84 2.44,-9.12 h -2.26 z"
         id="path10" />
      <path
         d="m 52.4,58.98 h -2.26 c 0.15,3.28 1.01,6.37 2.44,9.12 l 1.95,-1.13 c -1.24,-2.42 -1.99,-5.13 -2.14,-8 z"
         id="path11" />
      <path
         d="m 54.53,48.99 -1.95,-1.13 c -1.43,2.75 -2.3,5.84 -2.44,9.12 h 2.26 c 0.14,-2.87 0.89,-5.57 2.14,-8 z"
         id="path12" />
    </g>
    <g
       id="g22">
      <path
         d="m 81.11,101.8 1.13,-1.95 c -2.75,-1.43 -5.84,-2.3 -9.12,-2.44 v 2.26 c 2.87,0.14 5.57,0.89 7.99,2.14 z"
         id="path13" />
      <path
         d="m 88.69,108.66 1.95,-1.13 c -1.72,-2.68 -4,-4.96 -6.68,-6.68 l -1.13,1.95 c 2.34,1.52 4.33,3.51 5.85,5.85 z"
         id="path14" />
      <path
         d="m 61.39,102.81 -1.13,-1.95 c -2.68,1.72 -4.96,4 -6.68,6.68 l 1.95,1.13 c 1.52,-2.34 3.51,-4.33 5.85,-5.85 z"
         id="path15" />
      <path
         d="m 91.83,118.39 h 2.26 c -0.15,-3.28 -1.01,-6.37 -2.44,-9.12 l -1.95,1.13 c 1.24,2.42 1.99,5.13 2.14,8 z"
         id="path16" />
      <path
         d="m 71.11,99.67 v -2.26 c -3.28,0.15 -6.37,1.01 -9.12,2.44 l 1.13,1.95 c 2.42,-1.24 5.13,-1.99 8,-2.14 z"
         id="path17" />
      <path
         d="m 55.53,130.11 -1.95,1.13 c 1.72,2.68 4,4.96 6.68,6.68 l 1.13,-1.95 c -2.34,-1.52 -4.33,-3.51 -5.85,-5.85 z"
         id="path18" />
      <path
         d="m 82.84,135.97 1.13,1.95 c 2.68,-1.72 4.96,-4 6.68,-6.68 l -1.95,-1.13 c -1.52,2.34 -3.51,4.33 -5.85,5.85 z"
         id="path19" />
      <path
         d="m 91.83,120.39 c -0.14,2.87 -0.89,5.57 -2.14,8 l 1.95,1.13 c 1.43,-2.75 2.3,-5.84 2.44,-9.12 h -2.26 z"
         id="path20" />
      <path
         d="m 52.4,120.39 h -2.26 c 0.15,3.28 1.01,6.37 2.44,9.12 l 1.95,-1.13 c -1.24,-2.42 -1.99,-5.13 -2.14,-8 z"
         id="path21" />
      <path
         d="m 54.53,110.39 -1.95,-1.13 c -1.43,2.75 -2.3,5.84 -2.44,9.12 h 2.26 c 0.14,-2.87 0.89,-5.57 2.14,-8 z"
         id="path22" />
    </g>
    <g
       id="g25">
      <path
         d="m 63.93,18.19 c -0.37,0 -0.71,-0.17 -0.97,-0.47 -0.51,-0.6 -0.52,-1.54 -0.04,-2.16 l 6.97,-8.88 c 0.38,-0.48 1.05,-0.65 1.57,-0.39 0.5,0.25 0.79,0.82 0.79,1.45 v 4.77 l 4.64,-5.85 c 0.38,-0.48 1.01,-0.64 1.53,-0.38 0.5,0.25 0.83,0.81 0.83,1.44 v 8.82 c 0,0.86 -0.61,1.57 -1.36,1.57 -0.75,0 -1.36,-0.7 -1.36,-1.57 v -4.79 l -4.64,5.85 c -0.38,0.48 -1.01,0.64 -1.54,0.38 -0.5,-0.24 -0.83,-0.81 -0.83,-1.44 v -4.67 l -4.61,5.8 c -0.26,0.32 -0.62,0.51 -1,0.51 v 0 z"
         style="fill:#2cabe1"
         id="path23" />
      <path
         d="m 63.92,18.19 c -0.75,0 -1.35,-0.7 -1.35,-1.57 v -4.93 l -2.26,2.84 c -0.5,0.63 -1.44,0.65 -1.97,0.04 -0.51,-0.6 -0.52,-1.53 -0.03,-2.15 l 4.61,-5.76 c 0.26,-0.32 0.63,-0.5 1,-0.5 0.18,0 0.37,0.04 0.54,0.12 0.5,0.25 0.82,0.81 0.82,1.44 v 8.89 c 0,0.86 -0.61,1.57 -1.36,1.57 v 0 z"
         style="fill:#ea2228"
         id="path24" />
      <path
         d="m 80.52,18.21 v 0 c -0.35,0 -0.68,-0.15 -0.94,-0.42 -0.76,-0.78 -0.14,-1.84 0.29,-2.3 l 1.95,-2.36 -1.26,-0.02 C 80,13.1 79.52,12.71 79.32,12.11 79.13,11.55 79.25,10.9 79.61,10.47 L 82.77,6.64 C 83,6.36 83.32,6.16 83.9,6.17 c 0.33,0 0.67,0.17 0.92,0.4 0.71,0.66 0.29,1.7 -0.07,2.2 l -1.04,1.26 1.26,0.02 c 0.56,0.01 1.04,0.4 1.24,1 0.19,0.56 0.07,1.21 -0.29,1.64 l -4.1,4.97 c -0.35,0.35 -0.65,0.55 -1.3,0.54 v 0 z"
         style="fill:#00a650"
         id="path25" />
    </g>
    <path
       d="m 12.19,318.63 v -21.52 h 1.14 c 0,0 20.4,0 20.4,0 7.49,0 13.57,6.52 13.57,14.57 v 30.07 c 0,0 0,0.46 0,0.46 H 32.23 c 0,0 0,0 0,0 H 17.84 c -3.12,0 -5.64,-2.36 -5.64,-5.25 v -9.31 c 0,0 0,-9.08 0,-9.08 v 0.08 z"
       id="path26" />
    <text
       transform="matrix(0.88,0,0,1,30.11,176.94)"
       style="font-weight:700;font-size:10px;font-family:GillSans-Bold, 'Gill Sans';letter-spacing:-0.04em"
       id="text26"><tspan
         x="0"
         y="0"
         id="tspan26">Conga</tspan></text>
    <text
       transform="matrix(0.88,0,0,1,61.36,87.76)"
       style="font-weight:700;font-size:10px;font-family:GillSans-Bold, 'Gill Sans';letter-spacing:-0.04em"
       id="text27"><tspan
         x="0"
         y="0"
         id="tspan27">Pitch</tspan></text>
    <text
       transform="matrix(0.88,0,0,1,86.87,176.94)"
       style="font-weight:700;font-size:10px;font-family:GillSans-Bold, 'Gill Sans';letter-spacing:-0.04em"
       id="text28"><tspan
         x="0"
         y="0"
         id="tspan28">Bongo</tspan></text>
    <text
       transform="matrix(0.88,0,0,1,60.25,149.07)"
       style="font-weight:700;font-size:10px;font-family:GillSans-Bold, 'Gill Sans';letter-spacing:-0.04em"
       id="text29"><tspan
         x="0"
         y="0"
         id="tspan29">Decay</tspan></text>
    <text
       transform="matrix(0.82,0,0,1,17.13,253.8)"
       style="font-weight:700;font-size:8px;font-family:GillSans-Bold, 'Gill Sans'"
       id="text30"><tspan
         x="0"
         y="0"
         id="tspan30">Slap LO</tspan></text>
    <text
       transform="matrix(0.82,0,0,1,15.44,293.38)"
       style="font-weight:700;font-size:8px;font-family:GillSans-Bold, 'Gill Sans'"
       id="text31"><tspan
         x="0"
         y="0"
         id="tspan31">Tone LO</tspan></text>
    <text
       transform="matrix(0.82,0,0,1,17.25,336.34)"
       style="font-weight:700;font-size:8px;font-family:GillSans-Bold, 'Gill Sans';fill:#ffffff"
       id="text32"><tspan
         x="0"
         y="0"
         id="tspan32">Out LO</tspan></text>
    <text
       transform="matrix(0.82,0,0,1,103.21,336.34)"
       style="font-weight:700;font-size:8px;font-family:GillSans-Bold, 'Gill Sans';fill:#ffffff"
       id="text33"><tspan
         x="0"
         y="0"
         id="tspan33">Out HI</tspan></text>
    <text
       transform="matrix(0.82,0,0,1,102.13,253.8)"
       style="font-weight:700;font-size:8px;font-family:GillSans-Bold, 'Gill Sans'"
       id="text34"><tspan
         x="0"
         y="0"
         id="tspan34">Slap HI</tspan></text>
    <text
       transform="matrix(0.82,0,0,1,99.4,293.38)"
       style="font-weight:700;font-size:8px;font-family:GillSans-Bold, 'Gill Sans'"
       id="text35"><tspan
         x="0"
         y="0"
         id="tspan35">Tone HI</tspan></text>
    <text
       transform="matrix(0.82,0,0,1,63.51,253.8)"
       style="font-weight:700;font-size:8px;font-family:GillSans-Bold, 'Gill Sans'"
       id="text36"><tspan
         x="0"
         y="0"
         id="tspan36">Pitch</tspan></text>
    <text
       transform="matrix(0.82,0,0,1,61,293.38)"
       style="font-weight:700;font-size:8px;font-family:GillSans-Bold, 'Gill Sans'"
       id="text37"><tspan
         x="0"
         y="0"
         id="tspan37">Decay</tspan></text>
    <text
       transform="matrix(0.82,0,0,1,35.01,357.18)"
       style="font-weight:700;font-size:11px;font-family:GillSans-Bold, 'Gill Sans'"
       id="text43"><tspan
         x="0"
         y="0"
         style="letter-spacing:-0.01em"
         id="tspan38">CO</tspan><tspan
         x="17.219999"
         y="0"
         id="tspan39">N</tspan><tspan
         x="27.18"
         y="0"
         style="letter-spacing:-0.01em"
         id="tspan40">G</tspan><tspan
         x="35.810001"
         y="0"
         id="tspan41">AB</tspan><tspan
         x="53.209999"
         y="0"
         style="letter-spacing:-0.01em"
         id="tspan42">O</tspan><tspan
         x="62.419998"
         y="0"
         id="tspan43">NGO</tspan></text>
  </g>
  <g
     id="components"
     style="display:none"
     transform="translate(0.00267633,0.005)">
    <circle
       id="Out_HI"
       data-name="Out HI"
       cx="114.74"
       cy="313.84"
       r="11.34"
       style="fill:#0000ff" />
    <circle
       id="Out_LO"
       data-name="Out LO"
       cx="29.51"
       cy="313.84"
       r="11.34"
       style="fill:#0000ff" />
    <circle
       id="Tone_HI"
       data-name="Tone HI"
       cx="114.74"
       cy="272.23001"
       r="11.34"
       style="fill:#00ff00" />
    <circle
       id="Decay_CV"
       data-name="Decay CV"
       cx="71.699997"
       cy="272.23001"
       r="11.34"
       style="fill:#00ff00" />
    <circle
       id="Tone_LO"
       data-name="Tone LO"
       cx="29.51"
       cy="272.23001"
       r="11.34"
       style="fill:#00ff00" />
    <circle
       id="Slap_HI"
       data-name="Slap HI"
       cx="114.74"
       cy="232.10001"
       r="11.34"
       style="fill:#80ff80" />
    <circle
       id="Pitch_CV"
       data-name="Pitch CV"
       cx="71.699997"
       cy="232.10001"
       r="11.34"
       style="fill:#00ff00" />
    <circle
       id="Slap_LO"
       data-name="Slap LO"
       cx="29.51"
       cy="232.2"
       r="11.34"
       style="fill:#80ff80" />
    <rect
       id="Mode_Switch_Conga_Bongo"
       data-name="Mode Switch@Conga@Bongo"
       x="66.440002"
       y="165.32001"
       width="11.34"
       height="17.01"
       transform="rotate(-90,72.11,173.82)"
       style="fill:#ff8080" />
    <circle
       id="Decay_MediumBlackKnob"
       data-name="Decay#MediumBlackKnob"
       cx="72.110001"
       cy="119.09"
       r="17.01"
       style="fill:#ff0020"
       inkscape:label="Decay_Davies1900hBlackKnob" />
    <circle
       id="Pitch_MediumBlackKnob"
       data-name="Pitch#MediumBlackKnob"
       cx="72.110001"
       cy="57.849998"
       r="17.01"
       style="fill:#ff0000"
       inkscape:label="Pitch_Davies1900hBlackKnob" />
    <text
       id="slug"
       transform="translate(86.27,369)"
       style="font-size:3px;font-family:MyriadPro-Regular, 'Myriad Pro';fill:#010101"><tspan
         x="0"
         y="0"
         style="letter-spacing:-0.01em"
         id="tspan44">C</tspan><tspan
         x="1.71"
         y="0"
         style="letter-spacing:0em"
         id="tspan45">ongabongo</tspan></text>
    <text
       id="modulename"
       transform="translate(106.45,369)"
       style="font-size:3px;font-family:MyriadPro-Regular, 'Myriad Pro';fill:#010101"><tspan
         x="0"
         y="0"
         style="letter-spacing:-0.01em"
         id="tspan46">C</tspan><tspan
         x="1.71"
         y="0"
         style="letter-spacing:0em"
         id="tspan47">onga &amp;</tspan><tspan
         x="11.23"
         y="0"
         style="letter-spacing:0em"
         id="tspan48">B</tspan><tspan
         x="12.87"
         y="0"
         style="letter-spacing:0em"
         id="tspan49">ongo Drum</tspan><tspan
         x="27.91"
         y="0"
         style="letter-spacing:0em"
         id="tspan50">M</tspan><tspan
         x="30.34"
         y="0"
         style="letter-spacing:0em"
         id="tspan51">odule</tspan></text>
  </g>
</svg>
