<?xml version="1.0" encoding="UTF-8" standalone="no"?>
<svg
   width="144"
   height="369.62"
   viewBox="0 0 144 369.62"
   version="1.1"
   id="svg52"
   sodipodi:docname="Congabongo_info.svg"
   inkscape:version="1.4 (e7c3feb1, 2024-10-09)"
   xmlns:inkscape="http://www.inkscape.org/namespaces/inkscape"
   xmlns:sodipodi="http://sodipodi.sourceforge.net/DTD/sodipodi-0.dtd"
   xmlns="http://www.w3.org/2000/svg"
   xmlns:svg="http://www.w3.org/2000/svg">
  <defs
     id="defs52" />
  <sodipodi:namedview
     id="namedview52"
     pagecolor="#ffffff"
     bordercolor="#000000"
     borderopacity="0.25"
     inkscape:showpageshadow="2"
     inkscape:pageopacity="0.0"
     inkscape:pagecheckerboard="0"
     inkscape:deskcolor="#d1d1d1"
     inkscape:zoom="2.3754126"
     inkscape:cx="71.987493"
     inkscape:cy="184.81"
     inkscape:window-width="1920"
     inkscape:window-height="1027"
     inkscape:window-x="1920"
     inkscape:window-y="25"
     inkscape:window-maximized="1"
     inkscape:current-layer="components" />
  <g
     id="faceplate">
    <g
       id="g1">
      <rect
         x=".13"
         y=".13"
         width="143.75"
         height="364"
         style="fill: #ededed;"
         id="rect1" />
      <path
         d="M143.75.25v363.75H.25V.25h143.5M144,0H0v364.25h144V0h0Z"
         style="fill: #9d9d9e;"
         id="path1" />
    </g>
    <path
       d="M12.48,291.71v-62.01c0-7.82,6.4-14.22,14.22-14.22h90.62c7.82,0,14.22,6.4,14.22,14.22v62.01-.93,45.22c0,3.11-2.54,5.65-5.65,5.65H18.13c-3.11,0-5.65-2.54-5.65-5.65v-45.22"
       style="fill: #d1d3d4; stroke: #d1d3d4; stroke-miterlimit: 10;"
       id="path2" />
    <path
       d="M132.06,318.53v-21.52h-21.54c-7.49,0-13.57,6.52-13.57,14.57v30.53h15.07s0,0,0,0h14.39c3.12,0,5.64-2.36,5.64-5.25v-18.39.08Z"
       id="path3" />
    <g
       id="g13">
      <path
         d="M80.98,40.28l1.13-1.95c-2.75-1.43-5.84-2.3-9.12-2.44v2.26c2.87.14,5.57.89,7.99,2.14Z"
         id="path4" />
      <path
         d="M88.57,47.13l1.95-1.13c-1.72-2.68-4-4.96-6.68-6.68l-1.13,1.95c2.34,1.52,4.33,3.51,5.85,5.85Z"
         id="path5" />
      <path
         d="M61.26,41.28l-1.13-1.95c-2.68,1.72-4.96,4-6.68,6.68l1.95,1.13c1.52-2.34,3.51-4.33,5.85-5.85Z"
         id="path6" />
      <path
         d="M91.71,56.86h2.26c-.15-3.28-1.01-6.37-2.44-9.12l-1.95,1.13c1.24,2.42,1.99,5.13,2.14,8Z"
         id="path7" />
      <path
         d="M70.99,38.14v-2.26c-3.28.15-6.37,1.01-9.12,2.44l1.13,1.95c2.42-1.24,5.13-1.99,8-2.14Z"
         id="path8" />
      <path
         d="M55.41,68.59l-1.95,1.13c1.72,2.68,4,4.96,6.68,6.68l1.13-1.95c-2.34-1.52-4.33-3.51-5.85-5.85Z"
         id="path9" />
      <path
         d="M82.72,74.44l1.13,1.95c2.68-1.72,4.96-4,6.68-6.68l-1.95-1.13c-1.52,2.34-3.51,4.33-5.85,5.85Z"
         id="path10" />
      <path
         d="M91.71,58.86c-.14,2.87-.89,5.57-2.14,8l1.95,1.13c1.43-2.75,2.3-5.84,2.44-9.12h-2.26Z"
         id="path11" />
      <path
         d="M52.27,58.86h-2.26c.15,3.28,1.01,6.37,2.44,9.12l1.95-1.13c-1.24-2.42-1.99-5.13-2.14-8Z"
         id="path12" />
      <path
         d="M54.41,48.86l-1.95-1.13c-1.43,2.75-2.3,5.84-2.44,9.12h2.26c.14-2.87.89-5.57,2.14-8Z"
         id="path13" />
    </g>
    <g
       id="g23">
      <path
         d="M80.98,101.68l1.13-1.95c-2.75-1.43-5.84-2.3-9.12-2.44v2.26c2.87.14,5.57.89,7.99,2.14Z"
         id="path14" />
      <path
         d="M88.57,108.53l1.95-1.13c-1.72-2.68-4-4.96-6.68-6.68l-1.13,1.95c2.34,1.52,4.33,3.51,5.85,5.85Z"
         id="path15" />
      <path
         d="M61.26,102.68l-1.13-1.95c-2.68,1.72-4.96,4-6.68,6.68l1.95,1.13c1.52-2.34,3.51-4.33,5.85-5.85Z"
         id="path16" />
      <path
         d="M91.71,118.26h2.26c-.15-3.28-1.01-6.37-2.44-9.12l-1.95,1.13c1.24,2.42,1.99,5.13,2.14,8Z"
         id="path17" />
      <path
         d="M70.99,99.54v-2.26c-3.28.15-6.37,1.01-9.12,2.44l1.13,1.95c2.42-1.24,5.13-1.99,8-2.14Z"
         id="path18" />
      <path
         d="M55.41,129.99l-1.95,1.13c1.72,2.68,4,4.96,6.68,6.68l1.13-1.95c-2.34-1.52-4.33-3.51-5.85-5.85Z"
         id="path19" />
      <path
         d="M82.72,135.84l1.13,1.95c2.68-1.72,4.96-4,6.68-6.68l-1.95-1.13c-1.52,2.34-3.51,4.33-5.85,5.85Z"
         id="path20" />
      <path
         d="M91.71,120.26c-.14,2.87-.89,5.57-2.14,8l1.95,1.13c1.43-2.75,2.3-5.84,2.44-9.12h-2.26Z"
         id="path21" />
      <path
         d="M52.27,120.26h-2.26c.15,3.28,1.01,6.37,2.44,9.12l1.95-1.13c-1.24-2.42-1.99-5.13-2.14-8Z"
         id="path22" />
      <path
         d="M54.41,110.26l-1.95-1.13c-1.43,2.75-2.3,5.84-2.44,9.12h2.26c.14-2.87.89-5.57,2.14-8Z"
         id="path23" />
    </g>
    <g
       id="g26">
      <path
         d="M63.8,18.07c-.37,0-.71-.17-.97-.47-.51-.6-.52-1.54-.04-2.16l6.97-8.88c.38-.48,1.05-.65,1.57-.39.5.25.79.82.79,1.45v4.77l4.64-5.85c.38-.48,1.01-.64,1.53-.38.5.25.83.81.83,1.44v8.82c0,.86-.61,1.57-1.36,1.57s-1.36-.7-1.36-1.57v-4.79l-4.64,5.85c-.38.48-1.01.64-1.54.38-.5-.24-.83-.81-.83-1.44v-4.67l-4.61,5.8c-.26.32-.62.51-1,.51h0Z"
         style="fill: #2cabe1;"
         id="path24" />
      <path
         d="M63.8,18.07c-.75,0-1.35-.7-1.35-1.57v-4.93l-2.26,2.84c-.5.63-1.44.65-1.97.04-.51-.6-.52-1.53-.03-2.15l4.61-5.76c.26-.32.63-.5,1-.5.18,0,.37.04.54.12.5.25.82.81.82,1.44v8.89c0,.86-.61,1.57-1.36,1.57h0Z"
         style="fill: #ea2228;"
         id="path25" />
      <path
         d="M80.4,18.09h0c-.35,0-.68-.15-.94-.42-.76-.78-.14-1.84.29-2.3l1.95-2.36-1.26-.02c-.56-.01-1.04-.4-1.24-1-.19-.56-.07-1.21.29-1.64l3.16-3.83c.23-.28.55-.48,1.13-.47.33,0,.67.17.92.4.71.66.29,1.7-.07,2.2l-1.04,1.26,1.26.02c.56.01,1.04.4,1.24,1,.19.56.07,1.21-.29,1.64l-4.1,4.97c-.35.35-.65.55-1.3.54h0Z"
         style="fill: #00a650;"
         id="path26" />
    </g>
    <path
       d="M12.06,318.51v-21.52h1.14s20.4,0,20.4,0c7.49,0,13.57,6.52,13.57,14.57v30.07s0,.46,0,.46h-15.07s0,0,0,0h-14.39c-3.12,0-5.64-2.36-5.64-5.25v-9.31s0-9.08,0-9.08v.08Z"
       id="path27" />
    <path
       d="M 6.9091797,-0.5078125 Q 6.4892578,-0.28808594 6.0498047,-0.15625 5.6103516,-0.02441406 5.1611328,0.02929688 4.7167969,0.08789062 4.2382812,0.08789062 q -0.883789,0 -1.586914,-0.24414062 Q 1.953125,-0.40039063 1.4355469,-0.87402344 0.92285156,-1.3525391 0.6640625,-1.9873047 0.41015625,-2.6269531 0.41015625,-3.3886719 q 0,-0.8740234 0.30273437,-1.5283203 0.30273438,-0.6591797 0.84472658,-1.09375 0.546875,-0.4345703 1.2402344,-0.6396484 0.6982422,-0.209961 1.4697265,-0.209961 1.1523438,0 2.6123047,0.5126954 v 1.796875 q -0.5029297,-0.3125 -0.9960937,-0.5175782 -0.4882813,-0.2099609 -1.1523438,-0.2099609 -0.5908203,0 -1.1035156,0.234375 -0.5126953,0.234375 -0.8251953,0.6689453 -0.3125,0.4345703 -0.3125,1.015625 0,0.5126953 0.2734375,0.9423828 0.2734375,0.4248047 0.7568359,0.678711 0.4882813,0.2490234 1.0986328,0.2490234 0.4931641,0 0.9326172,-0.1171875 Q 5.9912109,-1.7285156 6.2890625,-1.875 6.5917969,-2.0214844 6.9091797,-2.2216797 Z m 6.1722653,-1.9824219 q 0,0.7421875 -0.322265,1.3232422 -0.322266,0.5810547 -0.966797,0.91796876 -0.639649,0.33691406 -1.5625,0.33691406 -0.9228518,0 -1.5673831,-0.33691406 Q 8.0228515,-0.5859375 7.7005858,-1.1669922 7.383203,-1.7480469 7.383203,-2.4902344 q 0,-0.5615234 0.1757813,-1.0205078 0.180664,-0.4589844 0.5419922,-0.8105469 0.3662109,-0.3564453 0.8984375,-0.546875 0.5322265,-0.1904296 1.230469,-0.1904296 0.703125,0 1.240234,0.1953125 0.541992,0.1904296 0.893555,0.5371093 0.356445,0.3466797 0.537109,0.8105469 0.180664,0.4638672 0.180664,1.0253906 z m -1.850586,0 q 0,-0.5908203 -0.258789,-0.9228515 Q 10.718164,-3.75 10.229883,-3.75 q -0.4833987,0 -0.7421878,0.3369141 -0.2539062,0.3320312 -0.2539062,0.9228515 0,0.5859375 0.258789,0.9277344 0.2587891,0.3417969 0.737305,0.3417969 0.488281,0 0.742187,-0.3369141 0.258789,-0.3417969 0.258789,-0.9326172 z M 18.902148,0 h -1.757812 v -2.6806641 q 0,-0.4101562 -0.136719,-0.7128906 -0.131836,-0.3076172 -0.585938,-0.3076172 -0.214843,0 -0.380859,0.083008 -0.161133,0.078125 -0.292969,0.2050782 -0.126953,0.1269531 -0.214843,0.2441406 -0.08789,0.1171875 -0.180664,0.2490234 V 0 h -1.757813 v -4.9707031 h 1.757813 v 0.7128906 q 0.415039,-0.4443359 0.830078,-0.6201172 0.419922,-0.180664 0.932617,-0.180664 1.787109,0 1.787109,2.1386718 z m 5.654687,-3.9111328 h -0.86914 q 0.458984,0.4003906 0.458984,0.9814453 0,0.3076172 -0.131836,0.5908203 -0.126953,0.2832031 -0.380859,0.5029297 -0.249024,0.2197266 -0.620118,0.3613281 -0.366211,0.1367188 -0.839843,0.1660157 -0.610352,0.024414 -0.610352,0.32714839 0,0.1171875 0.07813,0.17089843 0.07813,0.0537109 0.244141,0.0830078 0.170898,0.0244141 0.571289,0.0585938 0.454101,0.0390625 0.844726,0.13671875 0.390625,0.0976563 0.727539,0.41015625 0.336914,0.3125 0.336914,0.89355468 0,0.46386723 -0.253906,0.82031253 -0.249023,0.3564453 -0.810547,0.5566406 -0.561523,0.2001953 -1.484375,0.2001953 -1.328125,0 -1.953125,-0.3564453 -0.620117,-0.3564453 -0.620117,-0.9521484 0,-0.16113285 0.07813,-0.37109379 0.08301,-0.20996093 0.341797,-0.40527343 Q 19.927929,0.06835937 20.425976,0 20.250195,-0.06347656 20.123241,-0.24414063 19.996288,-0.4296875 19.996288,-0.62988281 q 0,-0.25878907 0.175782,-0.51269529 0.180664,-0.2539063 0.581054,-0.3271485 -0.55664,-0.1464843 -0.961914,-0.5517578 -0.405273,-0.4052734 -0.405273,-1.0498047 0,-0.4882812 0.185547,-0.8544922 0.190429,-0.3662109 0.522461,-0.5957031 0.332031,-0.2294922 0.771484,-0.336914 0.439453,-0.1123047 0.961914,-0.1123047 h 2.729492 z m -1.943359,0.8398437 q 0,-0.3759765 -0.258789,-0.6005859 -0.253907,-0.2294922 -0.571289,-0.2294922 -0.405274,0 -0.639649,0.2734375 -0.229492,0.2734375 -0.229492,0.5761719 0,0.2099609 0.09766,0.390625 0.102539,0.180664 0.283203,0.2929687 0.185547,0.1074219 0.439454,0.1074219 0.380859,0 0.629882,-0.2392578 0.249024,-0.2392578 0.249024,-0.5712891 z m 0.351562,3.99902348 q 0,-0.32714844 -0.351562,-0.42480469 -0.34668,-0.0927734 -0.717774,-0.0927734 -0.610351,0 -0.883789,0.12695312 -0.268554,0.13183594 -0.268554,0.41503907 0,0.55664066 1.123046,0.55664066 0.50293,0 0.800782,-0.1464844 0.297851,-0.1416016 0.297851,-0.43457032 z m 7.119532,-1.17675782 q -0.385742,0.15136719 -0.712891,0.24414063 -0.327148,0.09277343 -0.786133,0.09277343 -0.43457,0 -0.605468,-0.15136718 -0.170899,-0.15625 -0.244141,-0.37597657 -0.283203,0.22949219 -0.629883,0.38085938 -0.346679,0.14648437 -0.908203,0.14648437 -0.541992,0 -0.878906,-0.18554687 -0.332031,-0.19042969 -0.46875,-0.47363281 -0.131836,-0.28808594 -0.131836,-0.59082034 0,-0.4589843 0.229492,-0.7568359 0.234375,-0.3027344 0.625,-0.4931641 0.390625,-0.1904297 1.035156,-0.3955078 0.366211,-0.1171875 0.551758,-0.1757812 0.19043,-0.063477 0.283203,-0.097656 0.09277,-0.03418 0.195313,-0.087891 0,-0.3613281 -0.146485,-0.5664063 -0.146484,-0.2050781 -0.634765,-0.2050781 -0.576172,0 -1.069336,0.2539063 -0.493164,0.2539062 -0.90332,0.6542968 v -1.3476562 q 0.327148,-0.234375 0.708007,-0.3808594 0.38086,-0.1513672 0.795899,-0.2246094 0.415039,-0.073242 0.839844,-0.073242 1.079101,0 1.621093,0.4199218 0.546875,0.4150391 0.546875,1.147461 v 1.9189453 q 0,0.2734375 0.04883,0.4101562 0.05371,0.131836 0.19043,0.131836 0.166016,0 0.449219,-0.1416016 z M 27.638281,-1.2011719 v -1.1767578 q -0.625,0.2539063 -0.913086,0.4589844 -0.288086,0.2001953 -0.288086,0.546875 0,0.2490234 0.141602,0.38085936 0.146484,0.13183594 0.336914,0.13183594 0.180664,0 0.356445,-0.0976563 0.180664,-0.10253905 0.366211,-0.24414065 z"
       id="text27"
       style="font-weight:700;font-size:10px;font-family:GillSans-Bold, 'Gill Sans';letter-spacing:-0.04em"
       transform="translate(29.98 176.81) scale(.88 1)"
       aria-label="Conga" />
    <path
       d="m 6.7089844,-4.6386719 q 0,0.3759766 -0.131836,0.7373047 -0.1269531,0.3564453 -0.415039,0.6689453 -0.288086,0.3076172 -0.78125,0.5029297 -0.4882813,0.1904297 -1.1523438,0.1904297 H 2.890625 V 0 H 0.84960938 V -6.7675781 H 4.2285156 q 0.6640625,0 1.1523438,0.1953125 0.493164,0.1953125 0.78125,0.5078125 0.2880859,0.3125 0.415039,0.6787109 0.131836,0.366211 0.131836,0.7470703 z m -2.0800782,0.00977 q 0,-0.4833985 -0.2880859,-0.6591797 Q 4.0576172,-5.46875 3.3203125,-5.46875 H 2.890625 v 1.6308594 h 0.4394531 q 0.5078125,0 0.78125,-0.063477 0.2734375,-0.063477 0.3955078,-0.234375 0.1220703,-0.1708984 0.1220703,-0.493164 z m 4.233789,-1.4892579 q 0,0.3076172 -0.2197265,0.522461 -0.2197266,0.2148437 -0.522461,0.2148437 -0.2050781,0 -0.3759765,-0.097656 -0.1660157,-0.097656 -0.2636719,-0.2636719 -0.097656,-0.1708984 -0.097656,-0.3759766 0,-0.3027343 0.2148438,-0.5224609 0.2148437,-0.2197266 0.5224609,-0.2197266 0.3027344,0 0.522461,0.2197266 0.2197265,0.2197266 0.2197265,0.5224609 z M 9.0042968,0 H 7.2416015 v -4.9707031 h 1.7626953 z m 4.7318362,-0.28808594 q -0.273438,0.13183594 -0.756836,0.25390625 -0.478516,0.12207031 -0.917969,0.12207031 -1.899414,0 -1.899414,-1.85546872 V -3.75 H 9.3660154 v -0.3076172 l 2.3583986,-2.4023437 h 0.200195 v 1.4892578 h 1.679688 V -3.75 h -1.679688 v 1.5917969 q 0,0.2783203 0.03418,0.4492187 0.03418,0.1708985 0.19043,0.288086 0.161132,0.1123047 0.483398,0.1123047 0.419922,0 1.103516,-0.3515625 z m 4.629297,0.0585937 q -0.219727,0.0830078 -0.463867,0.15625 -0.244141,0.06835938 -0.551758,0.11230469 -0.302734,0.04882812 -0.664063,0.04882812 -0.815429,0 -1.381836,-0.27343749 -0.561523,-0.27832032 -0.86914,-0.69335938 Q 14.132031,-1.2988281 14.014844,-1.7333984 13.897656,-2.1679688 13.897656,-2.5 q 0,-0.3320313 0.117188,-0.7666016 0.12207,-0.4345703 0.419922,-0.8398437 0.297851,-0.4052734 0.859375,-0.6787109 0.566406,-0.2734375 1.391601,-0.2734375 0.551758,0 0.898438,0.078125 0.34668,0.078125 0.703125,0.2099609 v 1.3818359 q -0.859375,-0.2734375 -1.342774,-0.2734375 -0.46875,0 -0.83496,0.2832031 -0.361329,0.2832032 -0.361329,0.8789063 0,0.3955078 0.180664,0.6689453 0.180665,0.2685547 0.458985,0.3955078 0.27832,0.1269532 0.55664,0.1269532 0.263672,0 0.600586,-0.078125 0.336914,-0.078125 0.820313,-0.2246094 z M 24.127539,0 h -1.757813 v -2.578125 q 0,-0.029297 0,-0.053711 0.0049,-0.029297 0.0049,-0.1171875 0,-0.3564454 -0.151367,-0.6542969 -0.151367,-0.2978516 -0.576172,-0.2978516 -0.332031,0 -0.585938,0.2246094 -0.253906,0.2197266 -0.483398,0.5566406 V 0 h -1.757813 v -6.7675781 h 1.757813 v 2.5097656 q 0.43457,-0.4638672 0.859375,-0.6298828 0.424805,-0.1708984 0.90332,-0.1708984 1.78711,0 1.78711,2.0068359 z"
       id="text28"
       style="font-weight:700;font-size:10px;font-family:GillSans-Bold, 'Gill Sans';letter-spacing:-0.04em"
       transform="translate(61.24 87.63) scale(.88 1)"
       aria-label="Pitch" />
    <path
       d="m 7.03125,-1.9189453 q 0,0.8740234 -0.6005859,1.39648436 Q 5.8349609,0 4.7607422,0 H 0.84960938 V -6.7675781 H 4.1210937 q 0.6347657,0 1.1035157,0.1220703 0.4736328,0.1220703 0.7617187,0.3369141 0.288086,0.2099609 0.4296875,0.4980468 0.1416016,0.288086 0.1416016,0.6298828 0,0.3710938 -0.1464844,0.6884766 -0.1464844,0.3125 -0.3662109,0.5175781 -0.2148438,0.2001953 -0.4345703,0.2832031 0.6933593,0.2734375 1.0546875,0.6933594 Q 7.03125,-2.5830078 7.03125,-1.9189453 Z M 4.6484375,-4.8193359 q 0,-0.4882813 -0.3222656,-0.6494141 Q 4.0039062,-5.6298828 3.3203125,-5.6298828 H 2.890625 v 1.6210937 h 0.4394531 q 0.6982422,0 1.0058594,-0.1611328 0.3125,-0.1611328 0.3125,-0.649414 z m 0.3320312,2.8173828 q 0,-0.8691407 -1.2597656,-0.8691407 H 2.890625 v 1.7333985 h 0.8300781 q 1.2597656,0 1.2597656,-0.8642578 z m 8.1595703,-0.4882813 q 0,0.7421875 -0.322266,1.3232422 -0.322265,0.5810547 -0.966797,0.91796876 -0.639648,0.33691406 -1.5625,0.33691406 -0.9228511,0 -1.5673823,-0.33691406 Q 8.0814452,-0.5859375 7.7591796,-1.1669922 7.4417968,-1.7480469 7.4417968,-2.4902344 q 0,-0.5615234 0.1757812,-1.0205078 0.1806641,-0.4589844 0.5419922,-0.8105469 0.366211,-0.3564453 0.8984375,-0.546875 0.5322266,-0.1904296 1.2304683,-0.1904296 0.703125,0 1.240235,0.1953125 0.541992,0.1904296 0.893555,0.5371093 0.356445,0.3466797 0.537109,0.8105469 0.180664,0.4638672 0.180664,1.0253906 z m -1.850586,0 q 0,-0.5908203 -0.258789,-0.9228515 Q 10.776758,-3.75 10.288476,-3.75 q -0.483398,0 -0.742187,0.3369141 -0.2539063,0.3320312 -0.2539063,0.9228515 0,0.5859375 0.2587891,0.9277344 0.258789,0.3417969 0.7373042,0.3417969 0.488282,0 0.742188,-0.3369141 0.258789,-0.3417969 0.258789,-0.9326172 z M 18.960742,0 h -1.757813 v -2.6806641 q 0,-0.4101562 -0.136718,-0.7128906 -0.131836,-0.3076172 -0.585938,-0.3076172 -0.214844,0 -0.380859,0.083008 -0.161133,0.078125 -0.292969,0.2050782 -0.126953,0.1269531 -0.214844,0.2441406 -0.08789,0.1171875 -0.180664,0.2490234 V 0 h -1.757812 v -4.9707031 h 1.757812 v 0.7128906 q 0.415039,-0.4443359 0.830078,-0.6201172 0.419922,-0.180664 0.932618,-0.180664 1.787109,0 1.787109,2.1386718 z m 5.654687,-3.9111328 h -0.869141 q 0.458985,0.4003906 0.458985,0.9814453 0,0.3076172 -0.131836,0.5908203 -0.126953,0.2832031 -0.38086,0.5029297 -0.249023,0.2197266 -0.620117,0.3613281 -0.366211,0.1367188 -0.839844,0.1660157 -0.610351,0.024414 -0.610351,0.32714839 0,0.1171875 0.07813,0.17089843 0.07813,0.0537109 0.24414,0.0830078 0.170899,0.0244141 0.57129,0.0585938 0.454101,0.0390625 0.844726,0.13671875 0.390625,0.0976563 0.727539,0.41015625 0.336914,0.3125 0.336914,0.89355468 0,0.46386723 -0.253906,0.82031253 -0.249023,0.3564453 -0.810547,0.5566406 -0.561523,0.2001953 -1.484375,0.2001953 -1.328125,0 -1.953125,-0.3564453 -0.620117,-0.3564453 -0.620117,-0.9521484 0,-0.16113285 0.07813,-0.37109379 0.08301,-0.20996093 0.341797,-0.40527343 Q 19.986523,0.06835937 20.48457,0 20.308788,-0.06347656 20.181835,-0.24414063 20.054882,-0.4296875 20.054882,-0.62988281 q 0,-0.25878907 0.175781,-0.51269529 0.180664,-0.2539063 0.581055,-0.3271485 -0.556641,-0.1464843 -0.961914,-0.5517578 -0.405274,-0.4052734 -0.405274,-1.0498047 0,-0.4882812 0.185547,-0.8544922 0.19043,-0.3662109 0.522461,-0.5957031 0.332032,-0.2294922 0.771485,-0.336914 0.439453,-0.1123047 0.961914,-0.1123047 h 2.729492 z m -1.943359,0.8398437 q 0,-0.3759765 -0.25879,-0.6005859 -0.253906,-0.2294922 -0.571289,-0.2294922 -0.405273,0 -0.639648,0.2734375 -0.229492,0.2734375 -0.229492,0.5761719 0,0.2099609 0.09766,0.390625 0.102539,0.180664 0.283203,0.2929687 0.185547,0.1074219 0.439453,0.1074219 0.38086,0 0.629883,-0.2392578 0.249024,-0.2392578 0.249024,-0.5712891 z m 0.351562,3.99902348 q 0,-0.32714844 -0.351562,-0.42480469 -0.34668,-0.0927734 -0.717774,-0.0927734 -0.610351,0 -0.883789,0.12695312 -0.268555,0.13183594 -0.268555,0.41503907 0,0.55664066 1.123047,0.55664066 0.50293,0 0.800781,-0.1464844 0.297852,-0.1416016 0.297852,-0.43457032 z m 7.309961,-3.41796878 q 0,0.7421875 -0.322265,1.3232422 -0.322266,0.5810547 -0.966797,0.91796876 -0.639649,0.33691406 -1.5625,0.33691406 -0.922852,0 -1.567383,-0.33691406 Q 25.275,-0.5859375 24.952734,-1.1669922 q -0.317383,-0.5810547 -0.317383,-1.3232422 0,-0.5615234 0.175781,-1.0205078 0.180664,-0.4589844 0.541993,-0.8105469 0.366211,-0.3564453 0.898437,-0.546875 0.532227,-0.1904296 1.230469,-0.1904296 0.703125,0 1.240234,0.1953125 0.541992,0.1904296 0.893555,0.5371093 0.356445,0.3466797 0.537109,0.8105469 0.180664,0.4638672 0.180664,1.0253906 z m -1.850586,0 q 0,-0.5908203 -0.258789,-0.9228515 Q 27.970312,-3.75 27.482031,-3.75 q -0.483399,0 -0.742188,0.3369141 -0.253906,0.3320312 -0.253906,0.9228515 0,0.5859375 0.258789,0.9277344 0.258789,0.3417969 0.737305,0.3417969 0.488281,0 0.742187,-0.3369141 0.258789,-0.3417969 0.258789,-0.9326172 z"
       id="text29"
       style="font-weight:700;font-size:10px;font-family:GillSans-Bold, 'Gill Sans';letter-spacing:-0.04em"
       transform="translate(86.74 176.81) scale(.88 1)"
       aria-label="Bongo" />
    <path
       d="m 7.8076172,-3.2617188 q 0,1.0400391 -0.3808594,1.6699219 Q 7.0507812,-0.96191406 6.5380859,-0.57128906 5.8105469,0 4.5019531,0 H 0.84960938 V -6.7675781 H 3.6621094 q 0.6347656,0 1.0839843,0.068359 0.4541016,0.063477 0.8154297,0.1855468 0.3613282,0.1171875 0.6152344,0.2685547 0.2539063,0.1464844 0.4541016,0.3173828 0.3466797,0.2832032 0.6054687,0.6689453 0.2636719,0.3857422 0.4150391,0.8935547 0.15625,0.5078125 0.15625,1.1035156 z m -2.0751953,-0.087891 q 0,-0.8251953 -0.3173828,-1.2841797 -0.3125,-0.4638671 -0.756836,-0.6201171 -0.4394531,-0.15625 -0.8984375,-0.15625 H 2.890625 v 4.008789 h 0.8691406 q 0.8007813,0 1.3867188,-0.3808594 0.5859375,-0.3808593 0.5859375,-1.5673828 z m 7.7445311,1.2890625 H 9.9759765 q 0.1025395,0.4541016 0.5029295,0.7421875 0.400391,0.288086 0.908203,0.288086 0.888672,0 1.962891,-0.4980469 v 1.08886717 q -0.385742,0.20019532 -0.9375,0.36621094 -0.546875,0.16113281 -1.396484,0.16113281 -0.917969,0 -1.5625005,-0.34179687 -0.6445312,-0.34179687 -0.9667968,-0.92773435 -0.3173829,-0.5859375 -0.3173829,-1.328125 0,-0.7324219 0.3173829,-1.3085938 0.3222656,-0.5810547 0.9667968,-0.9082031 0.6445315,-0.3320312 1.5625005,-0.3320312 0.605468,0 1.166992,0.2636718 0.566406,0.2587891 0.927734,0.8544922 0.366211,0.5908203 0.366211,1.5283203 z m -1.650391,-0.8691406 q 0,-0.4785156 -0.239257,-0.7617188 -0.234375,-0.2880859 -0.678711,-0.2880859 -0.439453,0 -0.712891,0.2929688 -0.2685547,0.2880859 -0.2685547,0.7568359 z m 6.372461,2.70019531 q -0.219726,0.0830078 -0.463867,0.15625 -0.244141,0.06835938 -0.551758,0.11230469 -0.302734,0.04882812 -0.664062,0.04882812 -0.81543,0 -1.381836,-0.27343749 Q 14.575976,-0.46386719 14.268359,-0.87890625 13.965625,-1.2988281 13.848437,-1.7333984 13.73125,-2.1679688 13.73125,-2.5 q 0,-0.3320313 0.117187,-0.7666016 0.122071,-0.4345703 0.419922,-0.8398437 0.297852,-0.4052734 0.859375,-0.6787109 0.566406,-0.2734375 1.391602,-0.2734375 0.551758,0 0.898437,0.078125 0.34668,0.078125 0.703125,0.2099609 v 1.3818359 q -0.859375,-0.2734375 -1.342773,-0.2734375 -0.46875,0 -0.834961,0.2832031 -0.361328,0.2832032 -0.361328,0.8789063 0,0.3955078 0.180664,0.6689453 0.180664,0.2685547 0.458984,0.3955078 0.27832,0.1269532 0.556641,0.1269532 0.263672,0 0.600586,-0.078125 0.336914,-0.078125 0.820312,-0.2246094 z m 5.610742,-0.0195313 q -0.385742,0.15136719 -0.712891,0.24414063 -0.327148,0.09277343 -0.786133,0.09277343 -0.43457,0 -0.605468,-0.15136718 -0.170899,-0.15625 -0.244141,-0.37597657 -0.283203,0.22949219 -0.629883,0.38085938 -0.346679,0.14648437 -0.908203,0.14648437 -0.541992,0 -0.878906,-0.18554687 -0.332031,-0.19042969 -0.46875,-0.47363281 -0.131836,-0.28808594 -0.131836,-0.59082034 0,-0.4589843 0.229492,-0.7568359 0.234375,-0.3027344 0.625,-0.4931641 0.390625,-0.1904297 1.035156,-0.3955078 0.366211,-0.1171875 0.551758,-0.1757812 0.19043,-0.063477 0.283203,-0.097656 0.09277,-0.03418 0.195313,-0.087891 0,-0.3613281 -0.146485,-0.5664063 -0.146484,-0.2050781 -0.634765,-0.2050781 -0.576172,0 -1.069336,0.2539063 -0.493164,0.2539062 -0.90332,0.6542968 v -1.3476562 q 0.327148,-0.234375 0.708007,-0.3808594 0.38086,-0.1513672 0.795899,-0.2246094 0.415039,-0.073242 0.839844,-0.073242 1.079101,0 1.621093,0.4199218 0.546875,0.4150391 0.546875,1.147461 v 1.9189453 q 0,0.2734375 0.04883,0.4101562 0.05371,0.131836 0.19043,0.131836 0.166016,0 0.449219,-0.1416016 z M 21.363476,-1.2011719 v -1.1767578 q -0.625,0.2539063 -0.913086,0.4589844 -0.288086,0.2001953 -0.288086,0.546875 0,0.2490234 0.141601,0.38085936 0.146485,0.13183594 0.336915,0.13183594 0.180664,0 0.356445,-0.0976563 0.180664,-0.10253905 0.366211,-0.24414065 z m 7.925195,-3.7695312 -3.378906,7.2314453 h -1.777344 l 1.367188,-2.91015626 -1.967773,-4.32128904 h 1.889648 L 26.432226,-2.5 27.579687,-4.9707031 Z"
       id="text30"
       style="font-weight:700;font-size:10px;font-family:GillSans-Bold, 'Gill Sans';letter-spacing:-0.04em"
       transform="translate(60.13 148.95) scale(.88 1)"
       aria-label="Decay" />
    <path
       d="m 4.4648437,-1.5742187 q 0,0.5078125 -0.2617187,0.8789062 Q 3.9453125,-0.32421875 3.4804688,-0.125 3.015625,0.0703125 2.4140625,0.0703125 2.2460938,0.0703125 2,0.046875 1.7578125,0.02734375 1.3515625,-0.0703125 0.94921875,-0.16796875 0.51171875,-0.359375 V -1.6875 q 0.41015625,0.2539063 0.80468745,0.421875 0.3984375,0.1679688 0.8515626,0.1679688 0.4179687,0 0.5390625,-0.1367188 0.125,-0.140625 0.125,-0.2617187 0,-0.21875 -0.2109375,-0.3671875 Q 2.4101563,-2.015625 2.0078125,-2.1757813 1.5625,-2.3632813 1.2265625,-2.5820313 0.890625,-2.8046875 0.67578125,-3.1367188 0.46484375,-3.46875 0.46484375,-3.921875 q 0,-0.4375 0.21484375,-0.7890625 0.21484375,-0.3554687 0.65625,-0.5664062 0.4414062,-0.2109375 1.078125,-0.2109375 0.453125,0 0.8359375,0.089844 0.3867188,0.085937 0.6367188,0.1953125 0.2499999,0.109375 0.3437499,0.171875 v 1.2695312 Q 3.8984375,-4 3.4882813,-4.1875 3.0820313,-4.375 2.6171875,-4.375 2.3125,-4.375 2.1757813,-4.2578125 2.0390625,-4.140625 2.0390625,-3.96875 q 0,0.1601562 0.1367188,0.2773437 0.1367187,0.1171875 0.4882812,0.2851563 0.625,0.2929687 1,0.5273437 0.375,0.234375 0.5859375,0.5429688 0.2148437,0.3046875 0.2148437,0.7617188 z M 6.8242187,0 H 5.4140625 v -5.4140625 h 1.4101562 z m 5.0937503,-0.19921875 q -0.308594,0.12109375 -0.570313,0.1953125 -0.261718,0.07421875 -0.628906,0.07421875 -0.347656,0 -0.484375,-0.12109375 -0.136719,-0.125 -0.195312,-0.30078125 Q 9.8125,-0.16796875 9.5351563,-0.046875 9.2578125,0.0703125 8.8085938,0.0703125 8.375,0.0703125 8.1054688,-0.078125 7.8398437,-0.23046875 7.7304687,-0.45703125 7.625,-0.6875 7.625,-0.9296875 q 0,-0.3671875 0.1835937,-0.6054687 0.1875,-0.2421875 0.5000001,-0.3945313 0.3125,-0.1523438 0.828125,-0.3164063 0.2929687,-0.09375 0.4414062,-0.140625 0.1523438,-0.050781 0.2265625,-0.078125 0.074219,-0.027344 0.15625,-0.070312 0,-0.2890625 -0.1171875,-0.453125 -0.1171875,-0.1640625 -0.5078125,-0.1640625 -0.4609375,0 -0.8554687,0.203125 -0.3945313,0.203125 -0.7226563,0.5234375 v -1.078125 q 0.2617188,-0.1875 0.5664063,-0.3046875 0.3046875,-0.1210937 0.6367187,-0.1796875 0.3320313,-0.058594 0.671875,-0.058594 0.8632815,0 1.2968755,0.3359375 0.4375,0.3320312 0.4375,0.9179687 v 1.5351563 q 0,0.21875 0.03906,0.328125 0.04297,0.10546875 0.152344,0.10546875 0.132812,0 0.359375,-0.11328125 z M 9.9609375,-0.9609375 v -0.9414062 q -0.5,0.203125 -0.7304687,0.3671875 Q 9,-1.375 9,-1.0976562 9,-0.8984375 9.1132813,-0.79296875 9.2304688,-0.6875 9.3828125,-0.6875 q 0.1445313,0 0.2851563,-0.078125 Q 9.8125,-0.84765625 9.9609375,-0.9609375 Z M 16.839844,-2.015625 q 0,0.3984375 -0.113282,0.7695313 -0.113281,0.3710937 -0.347656,0.67187495 -0.230469,0.296875 -0.597656,0.47265625 -0.363281,0.171875 -0.847656,0.171875 -0.390625,0 -0.617188,-0.08203125 -0.222656,-0.08203125 -0.445312,-0.21875 V 1.8085937 h -1.40625 v -5.7851562 h 1.40625 v 0.359375 q 0.210937,-0.1835938 0.464844,-0.3046875 0.257812,-0.125 0.695312,-0.125 0.433594,0 0.851563,0.2148437 0.417968,0.2148438 0.687499,0.671875 0.269532,0.453125 0.269532,1.1445313 z m -1.480469,0.03125 q 0,-0.359375 -0.113281,-0.5820313 -0.113281,-0.2265625 -0.292969,-0.3242187 -0.179687,-0.1015625 -0.371094,-0.1015625 -0.25,0 -0.410156,0.082031 -0.160156,0.078125 -0.300781,0.1992188 v 1.5195313 q 0.07422,0.039063 0.15625,0.089844 0.08594,0.046875 0.167969,0.082031 0.08594,0.0351562 0.179687,0.0585937 0.09766,0.0234375 0.207031,0.0234375 0.332032,0 0.554688,-0.28125 Q 15.359375,-1.5 15.359375,-1.984375 Z M 24.289062,0 h -4.113281 v -5.4140625 h 1.632813 v 4.1171875 h 2.480468 z m 6.285157,-2.7109375 q 0,0.7578125 -0.351563,1.3945313 -0.347656,0.6367187 -1.039062,1.0117187 -0.691407,0.375 -1.683594,0.375 -1.003906,0 -1.699219,-0.390625 -0.695312,-0.390625 -1.035156,-1.0273437 -0.335938,-0.6367188 -0.335938,-1.3632813 0,-0.7304688 0.335938,-1.3632812 0.335937,-0.6367188 1.03125,-1.0234375 0.699219,-0.390625 1.703125,-0.390625 0.75,0 1.335937,0.2226562 0.589844,0.2226563 0.96875,0.6054688 0.378907,0.3789062 0.574219,0.8867187 0.195313,0.5039062 0.195313,1.0625 z m -1.664063,0 q 0,-0.3046875 -0.08984,-0.5546875 -0.08984,-0.2539063 -0.273437,-0.4375 -0.179688,-0.1875 -0.441406,-0.2890625 Q 27.84375,-4.0976562 27.5,-4.0976562 q -0.65625,0 -1.03125,0.3828124 -0.375,0.3828125 -0.375,1.0039063 0,0.6210937 0.375,1.0078125 0.378906,0.3828125 1.03125,0.3828125 0.449219,0 0.765625,-0.1757812 0.316406,-0.1796875 0.480469,-0.4921875 0.164062,-0.3164063 0.164062,-0.7226563 z"
       id="text31"
       style="font-weight:700;font-size:8px;font-family:GillSans-Bold, 'Gill Sans'"
       transform="translate(17.01 253.68) scale(.82 1)"
       aria-label="Slap LO" />
    <path
       d="M 5.8710937,-4.0976562 H 3.8867188 V 0 H 2.2578125 v -4.0976562 h -1.984375 v -1.3164063 h 5.5976562 z m 4.3125003,2.1054687 q 0,0.59375 -0.2578127,1.05859375 Q 9.6679688,-0.46875 9.1523438,-0.19921875 8.640625,0.0703125 7.9023437,0.0703125 q -0.7382812,0 -1.2539062,-0.26953125 Q 6.1367187,-0.46875 5.8789062,-0.93359375 5.625,-1.3984375 5.625,-1.9921875 q 0,-0.4492188 0.140625,-0.8164063 0.1445312,-0.3671875 0.4335937,-0.6484375 0.2929688,-0.2851562 0.71875,-0.4375 0.4257813,-0.1523437 0.984375,-0.1523437 0.5625001,0 0.9921876,0.15625 0.4335937,0.1523437 0.7148437,0.4296875 0.2851563,0.2773437 0.429688,0.6484375 0.144531,0.3710937 0.144531,0.8203125 z m -1.480469,0 q 0,-0.4726563 -0.2070312,-0.7382813 Q 8.2929688,-3 7.9023437,-3 q -0.3867187,0 -0.59375,0.2695312 -0.203125,0.265625 -0.203125,0.7382813 0,0.46875 0.2070313,0.7421875 0.2070312,0.2734375 0.5898437,0.2734375 0.3906251,0 0.5937501,-0.2695312 Q 8.703125,-1.5195312 8.703125,-1.9921875 Z M 15.160156,0 h -1.40625 v -2.1445313 q 0,-0.328125 -0.109375,-0.5703125 -0.105468,-0.2460937 -0.46875,-0.2460937 -0.171875,0 -0.304687,0.066406 -0.128906,0.0625 -0.234375,0.1640625 -0.101563,0.1015625 -0.171875,0.1953125 -0.07031,0.09375 -0.144531,0.1992188 V 0 h -1.40625 v -3.9765625 h 1.40625 V -3.40625 q 0.332031,-0.3554688 0.664062,-0.4960938 0.335938,-0.1445312 0.746094,-0.1445312 1.429687,0 1.429687,1.7109375 z m 4.921875,-1.6484375 H 17.28125 q 0.08203,0.3632813 0.402344,0.59375 0.320312,0.23046875 0.726562,0.23046875 0.710938,0 1.570313,-0.39843745 v 0.8710937 q -0.308594,0.16015625 -0.75,0.29296875 -0.4375,0.12890625 -1.117188,0.12890625 -0.734375,0 -1.25,-0.2734375 -0.515625,-0.2734375 -0.773437,-0.7421875 -0.253906,-0.46875 -0.253906,-1.0625 0,-0.5859375 0.253906,-1.046875 0.257812,-0.4648438 0.773437,-0.7265625 0.515625,-0.265625 1.25,-0.265625 0.484375,0 0.933594,0.2109375 0.453125,0.2070312 0.742187,0.6835937 0.292969,0.4726563 0.292969,1.2226563 z M 18.761719,-2.34375 q 0,-0.3828125 -0.191407,-0.609375 -0.1875,-0.2304688 -0.542968,-0.2304688 -0.351563,0 -0.570313,0.234375 Q 17.242187,-2.71875 17.242187,-2.34375 Z M 27.492187,0 h -4.113281 v -5.4140625 h 1.632813 v 4.1171875 h 2.480468 z m 6.285157,-2.7109375 q 0,0.7578125 -0.351563,1.3945313 -0.347656,0.6367187 -1.039062,1.0117187 -0.691407,0.375 -1.683594,0.375 -1.003906,0 -1.699219,-0.390625 -0.695312,-0.390625 -1.035156,-1.0273437 -0.335938,-0.6367188 -0.335938,-1.3632813 0,-0.7304688 0.335938,-1.3632812 0.335937,-0.6367188 1.03125,-1.0234375 0.699219,-0.390625 1.703125,-0.390625 0.75,0 1.335937,0.2226562 0.589844,0.2226563 0.96875,0.6054688 0.378907,0.3789062 0.574219,0.8867187 0.195313,0.5039062 0.195313,1.0625 z m -1.664063,0 q 0,-0.3046875 -0.08984,-0.5546875 -0.08984,-0.2539063 -0.273437,-0.4375 -0.179688,-0.1875 -0.441406,-0.2890625 -0.261719,-0.1054687 -0.605469,-0.1054687 -0.65625,0 -1.03125,0.3828124 -0.375,0.3828125 -0.375,1.0039063 0,0.6210937 0.375,1.0078125 0.378906,0.3828125 1.03125,0.3828125 0.449219,0 0.765625,-0.1757812 0.316406,-0.1796875 0.480469,-0.4921875 0.164062,-0.3164063 0.164062,-0.7226563 z"
       id="text32"
       style="font-weight:700;font-size:8px;font-family:GillSans-Bold, 'Gill Sans'"
       transform="translate(15.32 293.26) scale(.82 1)"
       aria-label="Tone LO" />
    <path
       d="m 6.4726562,-2.7109375 q 0,0.7578125 -0.3515625,1.3945313 -0.3476562,0.6367187 -1.0390625,1.0117187 -0.6914062,0.375 -1.6835937,0.375 -1.0039062,0 -1.6992188,-0.390625 Q 1.0039062,-0.7109375 0.6640625,-1.3476562 0.328125,-1.984375 0.328125,-2.7109375 q 0,-0.7304688 0.3359375,-1.3632812 Q 1,-4.7109375 1.6953125,-5.0976562 q 0.6992188,-0.390625 1.703125,-0.390625 0.75,0 1.3359375,0.2226562 0.5898437,0.2226563 0.96875,0.6054688 0.3789062,0.3789062 0.5742187,0.8867187 0.1953125,0.5039062 0.1953125,1.0625 z m -1.6640625,0 q 0,-0.3046875 -0.089844,-0.5546875 -0.089844,-0.2539063 -0.2734375,-0.4375 -0.1796875,-0.1875 -0.4414063,-0.2890625 -0.2617187,-0.1054687 -0.6054687,-0.1054687 -0.65625,0 -1.03125,0.3828124 -0.375,0.3828125 -0.375,1.0039063 0,0.6210937 0.375,1.0078125 0.3789063,0.3828125 1.03125,0.3828125 0.4492188,0 0.765625,-0.1757812 0.3164062,-0.1796875 0.4804687,-0.4921875 0.1640625,-0.3164063 0.1640625,-0.7226563 z M 11.449219,0 h -1.410156 v -0.56640625 q -0.2968755,0.3203125 -0.6250005,0.48046875 -0.3242187,0.15625 -0.78125,0.15625 -0.9023438,0 -1.1679688,-0.5234375 -0.265625,-0.52734375 -0.265625,-1.1875 V -3.9765625 H 8.609375 v 2.1484375 q 0,0.3242188 0.1054688,0.5703125 0.109375,0.2421875 0.46875,0.2421875 0.3085937,0 0.4882812,-0.1757812 0.1796875,-0.1757813 0.367188,-0.4492188 v -2.3359375 h 1.410156 z m 4.035156,-0.23046875 q -0.21875,0.10546875 -0.605469,0.203125 -0.382812,0.09765625 -0.734375,0.09765625 -1.519531,0 -1.519531,-1.484375 V -3 H 11.988281 V -3.2460938 L 13.875,-5.1679687 h 0.160156 v 1.1914062 h 1.34375 V -3 h -1.34375 v 1.2734375 q 0,0.2226563 0.02734,0.359375 0.02734,0.1367188 0.152344,0.2304688 0.128906,0.089844 0.386719,0.089844 0.335937,0 0.882812,-0.28125 z M 22.820312,0 h -4.113281 v -5.4140625 h 1.632813 v 4.1171875 h 2.480468 z m 6.285157,-2.7109375 q 0,0.7578125 -0.351563,1.3945313 -0.347656,0.6367187 -1.039062,1.0117187 -0.691407,0.375 -1.683594,0.375 -1.003906,0 -1.699219,-0.390625 -0.695312,-0.390625 -1.035156,-1.0273437 -0.335938,-0.6367188 -0.335938,-1.3632813 0,-0.7304688 0.335938,-1.3632812 0.335937,-0.6367188 1.03125,-1.0234375 0.699219,-0.390625 1.703125,-0.390625 0.75,0 1.335937,0.2226562 0.589844,0.2226563 0.96875,0.6054688 0.378907,0.3789062 0.574219,0.8867187 0.195313,0.5039062 0.195313,1.0625 z m -1.664063,0 q 0,-0.3046875 -0.08984,-0.5546875 -0.08984,-0.2539063 -0.273437,-0.4375 -0.179688,-0.1875 -0.441406,-0.2890625 -0.261719,-0.1054687 -0.605469,-0.1054687 -0.65625,0 -1.03125,0.3828124 -0.375,0.3828125 -0.375,1.0039063 0,0.6210937 0.375,1.0078125 0.378906,0.3828125 1.03125,0.3828125 0.449219,0 0.765625,-0.1757812 0.316406,-0.1796875 0.480469,-0.4921875 0.164062,-0.3164063 0.164062,-0.7226563 z"
       id="text33"
       style="font-weight:700;font-size:8px;font-family:GillSans-Bold, 'Gill Sans';fill:#ffffff"
       transform="translate(17.13 336.21) scale(.82 1)"
       aria-label="Out LO" />
    <path
       d="m 6.4726562,-2.7109375 q 0,0.7578125 -0.3515625,1.3945313 -0.3476562,0.6367187 -1.0390625,1.0117187 -0.6914062,0.375 -1.6835937,0.375 -1.0039062,0 -1.6992188,-0.390625 Q 1.0039062,-0.7109375 0.6640625,-1.3476562 0.328125,-1.984375 0.328125,-2.7109375 q 0,-0.7304688 0.3359375,-1.3632812 Q 1,-4.7109375 1.6953125,-5.0976562 q 0.6992188,-0.390625 1.703125,-0.390625 0.75,0 1.3359375,0.2226562 0.5898437,0.2226563 0.96875,0.6054688 0.3789062,0.3789062 0.5742187,0.8867187 0.1953125,0.5039062 0.1953125,1.0625 z m -1.6640625,0 q 0,-0.3046875 -0.089844,-0.5546875 -0.089844,-0.2539063 -0.2734375,-0.4375 -0.1796875,-0.1875 -0.4414063,-0.2890625 -0.2617187,-0.1054687 -0.6054687,-0.1054687 -0.65625,0 -1.03125,0.3828124 -0.375,0.3828125 -0.375,1.0039063 0,0.6210937 0.375,1.0078125 0.3789063,0.3828125 1.03125,0.3828125 0.4492188,0 0.765625,-0.1757812 0.3164062,-0.1796875 0.4804687,-0.4921875 0.1640625,-0.3164063 0.1640625,-0.7226563 z M 11.449219,0 h -1.410156 v -0.56640625 q -0.2968755,0.3203125 -0.6250005,0.48046875 -0.3242187,0.15625 -0.78125,0.15625 -0.9023438,0 -1.1679688,-0.5234375 -0.265625,-0.52734375 -0.265625,-1.1875 V -3.9765625 H 8.609375 v 2.1484375 q 0,0.3242188 0.1054688,0.5703125 0.109375,0.2421875 0.46875,0.2421875 0.3085937,0 0.4882812,-0.1757812 0.1796875,-0.1757813 0.367188,-0.4492188 v -2.3359375 h 1.410156 z m 4.035156,-0.23046875 q -0.21875,0.10546875 -0.605469,0.203125 -0.382812,0.09765625 -0.734375,0.09765625 -1.519531,0 -1.519531,-1.484375 V -3 H 11.988281 V -3.2460938 L 13.875,-5.1679687 h 0.160156 v 1.1914062 h 1.34375 V -3 h -1.34375 v 1.2734375 q 0,0.2226563 0.02734,0.359375 0.02734,0.1367188 0.152344,0.2304688 0.128906,0.089844 0.386719,0.089844 0.335937,0 0.882812,-0.28125 z M 24.425781,0 H 22.796875 V -2.1132813 H 20.339844 V 0 h -1.632813 v -5.4140625 h 1.632813 v 1.9882812 h 2.457031 v -1.9882812 h 1.628906 z m 3,0 h -1.632812 v -5.4140625 h 1.632812 z"
       id="text34"
       style="font-weight:700;font-size:8px;font-family:GillSans-Bold, 'Gill Sans';fill:#ffffff"
       transform="translate(103.09 336.21) scale(.82 1)"
       aria-label="Out HI" />
    <path
       d="m 4.4648437,-1.5742187 q 0,0.5078125 -0.2617187,0.8789062 Q 3.9453125,-0.32421875 3.4804688,-0.125 3.015625,0.0703125 2.4140625,0.0703125 2.2460938,0.0703125 2,0.046875 1.7578125,0.02734375 1.3515625,-0.0703125 0.94921875,-0.16796875 0.51171875,-0.359375 V -1.6875 q 0.41015625,0.2539063 0.80468745,0.421875 0.3984375,0.1679688 0.8515626,0.1679688 0.4179687,0 0.5390625,-0.1367188 0.125,-0.140625 0.125,-0.2617187 0,-0.21875 -0.2109375,-0.3671875 Q 2.4101563,-2.015625 2.0078125,-2.1757813 1.5625,-2.3632813 1.2265625,-2.5820313 0.890625,-2.8046875 0.67578125,-3.1367188 0.46484375,-3.46875 0.46484375,-3.921875 q 0,-0.4375 0.21484375,-0.7890625 0.21484375,-0.3554687 0.65625,-0.5664062 0.4414062,-0.2109375 1.078125,-0.2109375 0.453125,0 0.8359375,0.089844 0.3867188,0.085937 0.6367188,0.1953125 0.2499999,0.109375 0.3437499,0.171875 v 1.2695312 Q 3.8984375,-4 3.4882813,-4.1875 3.0820313,-4.375 2.6171875,-4.375 2.3125,-4.375 2.1757813,-4.2578125 2.0390625,-4.140625 2.0390625,-3.96875 q 0,0.1601562 0.1367188,0.2773437 0.1367187,0.1171875 0.4882812,0.2851563 0.625,0.2929687 1,0.5273437 0.375,0.234375 0.5859375,0.5429688 0.2148437,0.3046875 0.2148437,0.7617188 z M 6.8242187,0 H 5.4140625 v -5.4140625 h 1.4101562 z m 5.0937503,-0.19921875 q -0.308594,0.12109375 -0.570313,0.1953125 -0.261718,0.07421875 -0.628906,0.07421875 -0.347656,0 -0.484375,-0.12109375 -0.136719,-0.125 -0.195312,-0.30078125 Q 9.8125,-0.16796875 9.5351563,-0.046875 9.2578125,0.0703125 8.8085938,0.0703125 8.375,0.0703125 8.1054688,-0.078125 7.8398437,-0.23046875 7.7304687,-0.45703125 7.625,-0.6875 7.625,-0.9296875 q 0,-0.3671875 0.1835937,-0.6054687 0.1875,-0.2421875 0.5000001,-0.3945313 0.3125,-0.1523438 0.828125,-0.3164063 0.2929687,-0.09375 0.4414062,-0.140625 0.1523438,-0.050781 0.2265625,-0.078125 0.074219,-0.027344 0.15625,-0.070312 0,-0.2890625 -0.1171875,-0.453125 -0.1171875,-0.1640625 -0.5078125,-0.1640625 -0.4609375,0 -0.8554687,0.203125 -0.3945313,0.203125 -0.7226563,0.5234375 v -1.078125 q 0.2617188,-0.1875 0.5664063,-0.3046875 0.3046875,-0.1210937 0.6367187,-0.1796875 0.3320313,-0.058594 0.671875,-0.058594 0.8632815,0 1.2968755,0.3359375 0.4375,0.3320312 0.4375,0.9179687 v 1.5351563 q 0,0.21875 0.03906,0.328125 0.04297,0.10546875 0.152344,0.10546875 0.132812,0 0.359375,-0.11328125 z M 9.9609375,-0.9609375 v -0.9414062 q -0.5,0.203125 -0.7304687,0.3671875 Q 9,-1.375 9,-1.0976562 9,-0.8984375 9.1132813,-0.79296875 9.2304688,-0.6875 9.3828125,-0.6875 q 0.1445313,0 0.2851563,-0.078125 Q 9.8125,-0.84765625 9.9609375,-0.9609375 Z M 16.839844,-2.015625 q 0,0.3984375 -0.113282,0.7695313 -0.113281,0.3710937 -0.347656,0.67187495 -0.230469,0.296875 -0.597656,0.47265625 -0.363281,0.171875 -0.847656,0.171875 -0.390625,0 -0.617188,-0.08203125 -0.222656,-0.08203125 -0.445312,-0.21875 V 1.8085937 h -1.40625 v -5.7851562 h 1.40625 v 0.359375 q 0.210937,-0.1835938 0.464844,-0.3046875 0.257812,-0.125 0.695312,-0.125 0.433594,0 0.851563,0.2148437 0.417968,0.2148438 0.687499,0.671875 0.269532,0.453125 0.269532,1.1445313 z m -1.480469,0.03125 q 0,-0.359375 -0.113281,-0.5820313 -0.113281,-0.2265625 -0.292969,-0.3242187 -0.179687,-0.1015625 -0.371094,-0.1015625 -0.25,0 -0.410156,0.082031 -0.160156,0.078125 -0.300781,0.1992188 v 1.5195313 q 0.07422,0.039063 0.15625,0.089844 0.08594,0.046875 0.167969,0.082031 0.08594,0.0351562 0.179687,0.0585937 0.09766,0.0234375 0.207031,0.0234375 0.332032,0 0.554688,-0.28125 Q 15.359375,-1.5 15.359375,-1.984375 Z M 25.894531,0 H 24.265625 V -2.1132813 H 21.808594 V 0 h -1.632813 v -5.4140625 h 1.632813 v 1.9882812 h 2.457031 v -1.9882812 h 1.628906 z m 3,0 h -1.632812 v -5.4140625 h 1.632812 z"
       id="text35"
       style="font-weight:700;font-size:8px;font-family:GillSans-Bold, 'Gill Sans'"
       transform="translate(102 253.68) scale(.82 1)"
       aria-label="Slap HI" />
    <path
       d="M 5.8710937,-4.0976562 H 3.8867188 V 0 H 2.2578125 v -4.0976562 h -1.984375 v -1.3164063 h 5.5976562 z m 4.3125003,2.1054687 q 0,0.59375 -0.2578127,1.05859375 Q 9.6679688,-0.46875 9.1523438,-0.19921875 8.640625,0.0703125 7.9023437,0.0703125 q -0.7382812,0 -1.2539062,-0.26953125 Q 6.1367187,-0.46875 5.8789062,-0.93359375 5.625,-1.3984375 5.625,-1.9921875 q 0,-0.4492188 0.140625,-0.8164063 0.1445312,-0.3671875 0.4335937,-0.6484375 0.2929688,-0.2851562 0.71875,-0.4375 0.4257813,-0.1523437 0.984375,-0.1523437 0.5625001,0 0.9921876,0.15625 0.4335937,0.1523437 0.7148437,0.4296875 0.2851563,0.2773437 0.429688,0.6484375 0.144531,0.3710937 0.144531,0.8203125 z m -1.480469,0 q 0,-0.4726563 -0.2070312,-0.7382813 Q 8.2929688,-3 7.9023437,-3 q -0.3867187,0 -0.59375,0.2695312 -0.203125,0.265625 -0.203125,0.7382813 0,0.46875 0.2070313,0.7421875 0.2070312,0.2734375 0.5898437,0.2734375 0.3906251,0 0.5937501,-0.2695312 Q 8.703125,-1.5195312 8.703125,-1.9921875 Z M 15.160156,0 h -1.40625 v -2.1445313 q 0,-0.328125 -0.109375,-0.5703125 -0.105468,-0.2460937 -0.46875,-0.2460937 -0.171875,0 -0.304687,0.066406 -0.128906,0.0625 -0.234375,0.1640625 -0.101563,0.1015625 -0.171875,0.1953125 -0.07031,0.09375 -0.144531,0.1992188 V 0 h -1.40625 v -3.9765625 h 1.40625 V -3.40625 q 0.332031,-0.3554688 0.664062,-0.4960938 0.335938,-0.1445312 0.746094,-0.1445312 1.429687,0 1.429687,1.7109375 z m 4.921875,-1.6484375 H 17.28125 q 0.08203,0.3632813 0.402344,0.59375 0.320312,0.23046875 0.726562,0.23046875 0.710938,0 1.570313,-0.39843745 v 0.8710937 q -0.308594,0.16015625 -0.75,0.29296875 -0.4375,0.12890625 -1.117188,0.12890625 -0.734375,0 -1.25,-0.2734375 -0.515625,-0.2734375 -0.773437,-0.7421875 -0.253906,-0.46875 -0.253906,-1.0625 0,-0.5859375 0.253906,-1.046875 0.257812,-0.4648438 0.773437,-0.7265625 0.515625,-0.265625 1.25,-0.265625 0.484375,0 0.933594,0.2109375 0.453125,0.2070312 0.742187,0.6835937 0.292969,0.4726563 0.292969,1.2226563 z M 18.761719,-2.34375 q 0,-0.3828125 -0.191407,-0.609375 -0.1875,-0.2304688 -0.542968,-0.2304688 -0.351563,0 -0.570313,0.234375 Q 17.242187,-2.71875 17.242187,-2.34375 Z M 29.097656,0 H 27.46875 V -2.1132813 H 25.011719 V 0 h -1.632813 v -5.4140625 h 1.632813 v 1.9882812 h 2.457031 v -1.9882812 h 1.628906 z m 3,0 h -1.632812 v -5.4140625 h 1.632812 z"
       id="text36"
       style="font-weight:700;font-size:8px;font-family:GillSans-Bold, 'Gill Sans'"
       transform="translate(99.27 293.26) scale(.82 1)"
       aria-label="Tone HI" />
    <path
       d="m 5.3671875,-3.7109375 q 0,0.3007812 -0.1054688,0.5898437 -0.1015625,0.2851563 -0.3320312,0.5351563 -0.2304688,0.2460937 -0.625,0.4023437 Q 3.9140625,-2.03125 3.3828125,-2.03125 H 2.3125 V 0 H 0.6796875 v -5.4140625 h 2.703125 q 0.53125,0 0.921875,0.15625 0.3945312,0.15625 0.625,0.40625 0.2304687,0.25 0.3320312,0.5429688 0.1054688,0.2929687 0.1054688,0.5976562 z m -1.6640625,0.00781 q 0,-0.3867187 -0.2304687,-0.5273437 Q 3.2460938,-4.375 2.65625,-4.375 H 2.3125 v 1.3046875 h 0.3515625 q 0.40625,0 0.625,-0.050781 0.21875,-0.050781 0.3164063,-0.1875 0.097656,-0.1367187 0.097656,-0.3945312 z m 3.7070312,-1.1914062 q 0,0.2460937 -0.1757812,0.4179687 -0.1757813,0.171875 -0.4179688,0.171875 -0.1640625,0 -0.3007812,-0.078125 -0.1328125,-0.078125 -0.2109375,-0.2109375 -0.078125,-0.1367187 -0.078125,-0.3007812 0,-0.2421875 0.171875,-0.4179688 0.171875,-0.1757812 0.4179687,-0.1757812 0.2421875,0 0.4179688,0.1757812 0.1757812,0.1757813 0.1757812,0.4179688 z M 7.5234375,0 H 6.1132812 v -3.9765625 h 1.4101563 z m 4.1054685,-0.23046875 q -0.21875,0.10546875 -0.605468,0.203125 -0.382813,0.09765625 -0.734375,0.09765625 -1.5195317,0 -1.5195317,-1.484375 V -3 H 8.1328125 v -0.2460938 l 1.8867185,-1.9218749 h 0.160157 v 1.1914062 h 1.34375 V -3 h -1.34375 v 1.2734375 q 0,0.2226563 0.02734,0.359375 0.02734,0.1367188 0.152344,0.2304688 0.128906,0.089844 0.386719,0.089844 0.335937,0 0.882812,-0.28125 z m 4.023438,0.046875 q -0.175781,0.0664063 -0.371094,0.125 -0.195312,0.0546875 -0.441406,0.08984375 -0.242188,0.0390625 -0.53125,0.0390625 -0.652344,0 -1.105469,-0.21875 Q 12.753906,-0.37109375 12.507813,-0.703125 12.265625,-1.0390625 12.171875,-1.3867187 12.078125,-1.734375 12.078125,-2 q 0,-0.265625 0.09375,-0.6132813 0.09766,-0.3476562 0.335938,-0.671875 0.238281,-0.3242187 0.6875,-0.5429687 0.453125,-0.21875 1.113281,-0.21875 0.441406,0 0.71875,0.0625 0.277344,0.0625 0.5625,0.1679687 v 1.1054688 q -0.6875,-0.21875 -1.074219,-0.21875 -0.375,0 -0.667969,0.2265625 Q 13.558594,-2.4765625 13.558594,-2 q 0,0.3164063 0.144531,0.5351563 0.144531,0.2148437 0.367188,0.3164062 0.222656,0.1015625 0.445312,0.1015625 0.210938,0 0.480469,-0.0625 0.269531,-0.0625 0.65625,-0.1796875 z M 20.582031,0 h -1.40625 v -2.0625 q 0,-0.023437 0,-0.042969 0.0039,-0.023437 0.0039,-0.09375 0,-0.2851562 -0.121093,-0.5234375 -0.121094,-0.2382812 -0.460938,-0.2382812 -0.265625,0 -0.46875,0.1796875 -0.203125,0.1757812 -0.386719,0.4453125 V 0 h -1.40625 v -5.4140625 h 1.40625 V -3.40625 q 0.347657,-0.3710938 0.6875,-0.5039063 0.339844,-0.1367187 0.722657,-0.1367187 1.429687,0 1.429687,1.6054687 z"
       id="text37"
       style="font-weight:700;font-size:8px;font-family:GillSans-Bold, 'Gill Sans'"
       transform="translate(63.39 253.68) scale(.82 1)"
       aria-label="Pitch" />
    <path
       d="m 6.2460937,-2.609375 q 0,0.8320313 -0.3046875,1.3359375 Q 5.640625,-0.76953125 5.2304687,-0.45703125 4.6484375,0 3.6015625,0 h -2.921875 v -5.4140625 h 2.25 q 0.5078125,0 0.8671875,0.054687 0.3632812,0.050781 0.6523437,0.1484375 0.2890625,0.09375 0.4921875,0.2148438 0.203125,0.1171875 0.3632813,0.2539062 0.2773437,0.2265625 0.484375,0.5351563 Q 6,-3.8984375 6.1210937,-3.4921875 q 0.125,0.40625 0.125,0.8828125 z m -1.6601562,-0.070312 q 0,-0.6601563 -0.2539063,-1.0273438 -0.25,-0.3710937 -0.6054687,-0.4960937 -0.3515625,-0.125 -0.71875,-0.125 H 2.3125 v 3.2070313 h 0.6953125 q 0.640625,0 1.109375,-0.3046875 0.46875,-0.3046875 0.46875,-1.2539063 z m 6.5156255,1.03125 H 8.3007813 q 0.082031,0.3632813 0.4023437,0.59375 0.3203125,0.23046875 0.7265625,0.23046875 0.7109375,0 1.5703125,-0.39843745 v 0.8710937 q -0.308594,0.16015625 -0.75,0.29296875 -0.4375,0.12890625 -1.1171875,0.12890625 -0.734375,0 -1.25,-0.2734375 -0.515625,-0.2734375 -0.7734375,-0.7421875 -0.2539063,-0.46875 -0.2539063,-1.0625 0,-0.5859375 0.2539063,-1.046875 0.2578125,-0.4648438 0.7734375,-0.7265625 0.515625,-0.265625 1.25,-0.265625 0.484375,0 0.9335935,0.2109375 0.453125,0.2070312 0.742188,0.6835937 0.292969,0.4726563 0.292969,1.2226563 z M 9.78125,-2.34375 q 0,-0.3828125 -0.1914062,-0.609375 -0.1875,-0.2304688 -0.5429688,-0.2304688 -0.3515625,0 -0.5703125,0.234375 Q 8.2617188,-2.71875 8.2617188,-2.34375 Z m 5.417969,2.16015625 q -0.175781,0.0664063 -0.371094,0.125 -0.195312,0.0546875 -0.441406,0.08984375 -0.242188,0.0390625 -0.53125,0.0390625 -0.652344,0 -1.105469,-0.21875 Q 12.300781,-0.37109375 12.054688,-0.703125 11.8125,-1.0390625 11.71875,-1.3867187 11.625,-1.734375 11.625,-2 q 0,-0.265625 0.09375,-0.6132813 0.09766,-0.3476562 0.335938,-0.671875 0.238281,-0.3242187 0.6875,-0.5429687 0.453125,-0.21875 1.113281,-0.21875 0.441406,0 0.71875,0.0625 0.277344,0.0625 0.5625,0.1679687 v 1.1054688 q -0.6875,-0.21875 -1.074219,-0.21875 -0.375,0 -0.667969,0.2265625 Q 13.105469,-2.4765625 13.105469,-2 q 0,0.3164063 0.144531,0.5351563 0.144531,0.2148437 0.367188,0.3164062 0.222656,0.1015625 0.445312,0.1015625 0.210938,0 0.480469,-0.0625 0.269531,-0.0625 0.65625,-0.1796875 z m 4.808593,-0.015625 Q 19.699219,-0.078125 19.4375,-0.00390625 19.175781,0.0703125 18.808594,0.0703125 q -0.347657,0 -0.484375,-0.12109375 -0.136719,-0.125 -0.195313,-0.30078125 -0.226562,0.18359375 -0.503906,0.3046875 -0.277344,0.1171875 -0.726563,0.1171875 -0.433593,0 -0.703125,-0.1484375 Q 15.929688,-0.23046875 15.820313,-0.45703125 15.714844,-0.6875 15.714844,-0.9296875 q 0,-0.3671875 0.183594,-0.6054687 0.187499,-0.2421875 0.499999,-0.3945313 0.3125,-0.1523438 0.828125,-0.3164063 0.292969,-0.09375 0.441407,-0.140625 0.152343,-0.050781 0.226562,-0.078125 0.07422,-0.027344 0.15625,-0.070312 0,-0.2890625 -0.117187,-0.453125 -0.117188,-0.1640625 -0.507813,-0.1640625 -0.460937,0 -0.855469,0.203125 -0.394531,0.203125 -0.722656,0.5234375 v -1.078125 q 0.261719,-0.1875 0.566406,-0.3046875 0.304688,-0.1210937 0.636719,-0.1796875 0.332031,-0.058594 0.671875,-0.058594 0.863281,0 1.296875,0.3359375 0.4375,0.3320312 0.4375,0.9179687 v 1.5351563 q 0,0.21875 0.03906,0.328125 0.04297,0.10546875 0.152343,0.10546875 0.132813,0 0.359375,-0.11328125 z M 18.050781,-0.9609375 v -0.9414062 q -0.5,0.203125 -0.730469,0.3671875 -0.230468,0.1601562 -0.230468,0.4375 0,0.1992187 0.113281,0.30468745 0.117187,0.10546875 0.269531,0.10546875 0.144531,0 0.285156,-0.078125 0.144532,-0.0820313 0.292969,-0.1953125 z m 6.660156,-3.015625 -2.703125,5.7851562 h -1.421875 l 1.09375,-2.32812495 -1.574218,-3.45703125 h 1.511718 L 22.425781,-2 23.34375,-3.9765625 Z"
       id="text38"
       style="font-weight:700;font-size:8px;font-family:GillSans-Bold, 'Gill Sans'"
       transform="translate(60.88 293.26) scale(.82 1)"
       aria-label="Decay" />
    <g
       id="text44"
       style="font-weight:700;font-size:11px;font-family:GillSans-Bold, 'Gill Sans'"
       transform="translate(34.89 357.06) scale(.82 1)"
       aria-label="CONGABONGO">
      <path
         style="letter-spacing:-0.01em"
         d="M 7.6000977,-0.55859375 Q 7.1381836,-0.31689453 6.6547852,-0.171875 6.1713867,-0.02685547 5.6772461,0.03222656 5.1884766,0.09667969 4.6621094,0.09667969 q -0.972168,0 -1.7456055,-0.26855469 Q 2.1484375,-0.44042969 1.5791016,-0.96142578 1.0151367,-1.487793 0.73046875,-2.1860352 0.45117188,-2.8896484 0.45117188,-3.7275391 q 0,-0.9614257 0.33300781,-1.6811523 0.33300781,-0.7250977 0.92919921,-1.203125 0.6015625,-0.4780273 1.3642578,-0.7036133 0.7680664,-0.230957 1.6166992,-0.230957 1.2675782,0 2.8735352,0.5639648 v 1.9765625 q -0.5532227,-0.34375 -1.0957031,-0.5693359 -0.5371094,-0.230957 -1.2675782,-0.230957 -0.6499023,0 -1.2138671,0.2578125 -0.5639649,0.2578125 -0.9077149,0.7358398 -0.34375,0.4780273 -0.34375,1.1171875 0,0.5639648 0.3007813,1.0366211 0.3007812,0.4672851 0.8325195,0.746582 0.5371094,0.2739258 1.2084961,0.2739258 0.5424805,0 1.0258789,-0.1289062 Q 6.590332,-1.9013672 6.9179687,-2.0625 7.2509766,-2.2236328 7.6000977,-2.4438477 Z M 16.808945,-3.7275391 q 0,1.0419922 -0.483398,1.9174805 -0.478028,0.87548829 -1.428711,1.39111329 -0.950684,0.515625 -2.314942,0.515625 -1.380371,0 -2.336425,-0.53710938 Q 9.2894139,-0.97753906 8.8221288,-1.8530273 8.3602147,-2.7285156 8.3602147,-3.7275391 q 0,-1.0043945 0.4619141,-1.8745117 0.461914,-0.8754883 1.4179692,-1.4072265 0.961425,-0.5371094 2.341796,-0.5371094 1.03125,0 1.836914,0.3061523 0.811036,0.3061524 1.332032,0.8325196 0.520996,0.5209961 0.78955,1.2192382 0.268555,0.6928711 0.268555,1.4609375 z m -2.288086,0 q 0,-0.4189453 -0.123535,-0.7626953 -0.123535,-0.3491211 -0.375976,-0.6015625 -0.247071,-0.2578125 -0.606934,-0.3974609 -0.359863,-0.1450195 -0.83252,-0.1450195 -0.902343,0 -1.417968,0.5263671 -0.515625,0.5263672 -0.515625,1.3803711 0,0.8540039 0.515625,1.3857422 0.520996,0.5263672 1.417968,0.5263672 0.617676,0 1.052735,-0.2416992 0.435058,-0.2470703 0.660644,-0.6767578 0.225586,-0.4350586 0.225586,-0.9936524 z"
         id="path52" />
      <path
         d="M 26.238066,0 H 24.240019 L 20.378202,-4.1464844 V 0 H 18.15457 v -7.4443359 h 1.992675 l 3.851075,4.125 v -4.125 h 2.239746 z"
         id="path53" />
      <path
         style="letter-spacing:-0.01em"
         d="m 35.13459,-0.52636719 q -0.241699,0.0913086 -0.413574,0.15039063 -0.171875,0.059082 -0.333008,0.10742187 -0.155762,0.0483398 -0.456543,0.12353516 -0.510254,0.11816406 -1.020508,0.17724609 -0.504882,0.06445313 -1.068847,0.06445313 -1.133301,0 -2.094727,-0.41357422 -0.961426,-0.41357422 -1.541504,-1.28369137 -0.574707,-0.8701172 -0.574707,-2.1376954 0,-0.8164062 0.29541,-1.6005859 0.300782,-0.7895508 0.913086,-1.262207 0.504883,-0.3920899 1.020508,-0.5961914 0.520996,-0.2094727 1.015137,-0.2792969 0.49414,-0.069824 1.090332,-0.069824 0.98291,0 1.62207,0.1503906 0.63916,0.1450195 1.401856,0.3867188 v 1.7617187 q -0.504883,-0.2954101 -1.068848,-0.4941406 -0.563965,-0.1987305 -1.407227,-0.1987305 -0.972168,0 -1.557617,0.3706055 -0.580078,0.3652344 -0.811035,0.8754883 -0.225586,0.5102539 -0.225586,0.9882812 0,0.5639649 0.263184,1.0419922 0.263183,0.4726562 0.794922,0.7626953 0.531738,0.284668 1.283691,0.284668 0.429687,0 0.913086,-0.112793 v -0.8754883 h -1.009766 v -1.4985351 h 2.970215 z"
         id="path54" />
      <path
         d="M 44.919376,0 H 42.620548 L 42.013615,-1.5092773 H 38.780216 L 38.16254,0 h -2.298828 l 3.292481,-7.4443359 h 2.481445 z m -3.421386,-2.8037109 -1.090332,-2.7177735 -1.101075,2.7177735 z m 11.209472,0.6928711 q 0,0.9614257 -0.660644,1.53613277 Q 51.391544,0 50.209904,0 h -4.302246 v -7.4443359 h 3.598632 q 0.698243,0 1.213868,0.1342773 0.520996,0.1342774 0.83789,0.3706055 0.316895,0.230957 0.472656,0.5478515 0.155762,0.3168946 0.155762,0.6928711 0,0.4082032 -0.161133,0.7573243 -0.161132,0.34375 -0.402832,0.5693359 -0.236328,0.2202148 -0.478027,0.3115234 0.762695,0.3007813 1.160156,0.7626953 0.402832,0.456543 0.402832,1.1870118 z m -2.621093,-3.1904297 q 0,-0.5371094 -0.354493,-0.7143555 -0.354492,-0.1772461 -1.106445,-0.1772461 h -0.472656 v 1.7832031 h 0.483398 q 0.768067,0 1.106446,-0.1772461 0.34375,-0.1772461 0.34375,-0.7143554 z m 0.365234,3.0991211 q 0,-0.9560547 -1.385742,-0.9560547 h -0.913086 v 1.9067383 h 0.913086 q 1.385742,0 1.385742,-0.9506836 z"
         id="path55" />
      <path
         style="letter-spacing:-0.01em"
         d="m 62.109901,-3.7275391 q 0,1.0419922 -0.483398,1.9174805 -0.478027,0.87548829 -1.428711,1.39111329 -0.950684,0.515625 -2.314941,0.515625 -1.380371,0 -2.336426,-0.53710938 -0.956055,-0.53710937 -1.42334,-1.41259761 -0.461914,-0.8754883 -0.461914,-1.8745118 0,-1.0043945 0.461914,-1.8745117 0.461914,-0.8754883 1.417969,-1.4072265 0.961426,-0.5371094 2.341797,-0.5371094 1.03125,0 1.836914,0.3061523 0.811035,0.3061524 1.332031,0.8325196 0.520996,0.5209961 0.789551,1.2192382 0.268554,0.6928711 0.268554,1.4609375 z m -2.288086,0 q 0,-0.4189453 -0.123535,-0.7626953 -0.123535,-0.3491211 -0.375976,-0.6015625 -0.247071,-0.2578125 -0.606934,-0.3974609 -0.359863,-0.1450195 -0.832519,-0.1450195 -0.902344,0 -1.417969,0.5263671 -0.515625,0.5263672 -0.515625,1.3803711 0,0.8540039 0.515625,1.3857422 0.520996,0.5263672 1.417969,0.5263672 0.617675,0 1.052734,-0.2416992 0.435059,-0.2470703 0.660645,-0.6767578 0.225585,-0.4350586 0.225585,-0.9936524 z"
         id="path56" />
      <path
         d="M 71.438065,0 H 69.440018 L 65.578201,-4.1464844 V 0 h -2.223633 v -7.4443359 h 1.992676 l 3.851074,4.125 v -4.125 h 2.239747 z m 8.88916,-0.52636719 q -0.241699,0.0913086 -0.413574,0.15039063 -0.171875,0.059082 -0.333008,0.10742187 -0.155762,0.0483398 -0.456543,0.12353516 -0.510254,0.11816406 -1.020508,0.17724609 -0.504883,0.06445313 -1.068848,0.06445313 -1.133301,0 -2.094726,-0.41357422 -0.961426,-0.41357422 -1.541504,-1.28369137 -0.574707,-0.8701172 -0.574707,-2.1376954 0,-0.8164062 0.29541,-1.6005859 0.300781,-0.7895508 0.913086,-1.262207 0.504883,-0.3920899 1.020508,-0.5961914 0.520996,-0.2094727 1.015136,-0.2792969 0.494141,-0.069824 1.090332,-0.069824 0.982911,0 1.622071,0.1503906 0.63916,0.1450195 1.401855,0.3867188 v 1.7617187 q -0.504883,-0.2954101 -1.068847,-0.4941406 -0.563965,-0.1987305 -1.407227,-0.1987305 -0.972168,0 -1.557617,0.3706055 -0.580078,0.3652344 -0.811035,0.8754883 -0.225586,0.5102539 -0.225586,0.9882812 0,0.5639649 0.263183,1.0419922 0.263184,0.4726562 0.794922,0.7626953 0.531738,0.284668 1.283692,0.284668 0.429687,0 0.913086,-0.112793 V -2.6049805 H 77.35701 v -1.4985351 h 2.970215 z m 9.732422,-3.20117191 q 0,1.0419922 -0.483399,1.9174805 -0.478027,0.87548829 -1.428711,1.39111329 -0.950683,0.515625 -2.314941,0.515625 -1.380371,0 -2.336426,-0.53710938 -0.956055,-0.53710937 -1.42334,-1.41259761 -0.461914,-0.8754883 -0.461914,-1.8745118 0,-1.0043945 0.461914,-1.8745117 0.461914,-0.8754883 1.417969,-1.4072265 0.961426,-0.5371094 2.341797,-0.5371094 1.03125,0 1.836914,0.3061523 0.811035,0.3061524 1.332031,0.8325196 0.520996,0.5209961 0.789551,1.2192382 0.268555,0.6928711 0.268555,1.4609375 z m -2.288086,0 q 0,-0.4189453 -0.123535,-0.7626953 -0.123536,-0.3491211 -0.375977,-0.6015625 -0.24707,-0.2578125 -0.606934,-0.3974609 -0.359863,-0.1450195 -0.832519,-0.1450195 -0.902344,0 -1.417969,0.5263671 -0.515625,0.5263672 -0.515625,1.3803711 0,0.8540039 0.515625,1.3857422 0.520996,0.5263672 1.417969,0.5263672 0.617676,0 1.052734,-0.2416992 0.435059,-0.2470703 0.660645,-0.6767578 0.225586,-0.4350586 0.225586,-0.9936524 z"
         id="path57" />
    </g>
  </g>
  <g
     id="components">
    <circle
       id="Out_HI"
       data-name="Out HI"
       cx="114.74"
       cy="313.84"
       r="11.34"
       style="fill: blue;" />
    <circle
       id="Out_LO"
       data-name="Out LO"
       cx="29.51"
       cy="313.84"
       r="11.34"
       style="fill: blue;" />
    <circle
       id="Tone_HI"
       data-name="Tone HI"
       cx="114.74"
       cy="272.23"
       r="11.34"
       style="fill: lime;" />
    <circle
       id="Decay_CV"
       data-name="Decay CV"
       cx="71.7"
       cy="272.23"
       r="11.34"
       style="fill: lime;" />
    <circle
       id="Tone_LO"
       data-name="Tone LO"
       cx="29.51"
       cy="272.23"
       r="11.34"
       style="fill: lime;" />
    <circle
       id="Slap_HI"
       data-name="Slap HI"
       cx="114.74"
       cy="232.1"
       r="11.34"
       style="fill: #80ff80;" />
    <circle
       id="Pitch_CV"
       data-name="Pitch CV"
       cx="71.7"
       cy="232.1"
       r="11.34"
       style="fill: lime;" />
    <circle
       id="Slap_LO"
       data-name="Slap LO"
       cx="29.51"
       cy="232.2"
       r="11.34"
       style="fill: #80ff80;" />
    <rect
       id="Mode_Switch_Conga_Bongo"
       data-name="Mode Switch@Conga@Bongo"
       x="66.44"
       y="165.32"
       width="11.34"
       height="17.01"
       transform="translate(-101.72 245.93) rotate(-90)"
       style="fill: #ff8080;" />
    <circle
       id="Decay"
       cx="72.11"
       cy="119.09"
       r="17.01"
       style="fill: #ff0040;" />
    <circle
       id="Pitch"
       cx="72.11"
       cy="57.85"
       r="17.01"
       style="fill: red;" />
    <text
       id="slug"
       transform="translate(86.15 368.87)"
       style="fill: #010101; font-family: MyriadPro-Regular, 'Myriad Pro'; font-size: 3px;"><tspan
         x="0"
         y="0"
         style="letter-spacing: -.01em;"
         id="tspan45">C</tspan><tspan
         x="1.71"
         y="0"
         style="letter-spacing: 0em;"
         id="tspan46">ongabongo</tspan></text>
    <text
       id="modulename"
       transform="translate(106.32 368.87)"
       style="fill: #010101; font-family: MyriadPro-Regular, 'Myriad Pro'; font-size: 3px;"><tspan
         x="0"
         y="0"
         style="letter-spacing: -.01em;"
         id="tspan47">C</tspan><tspan
         x="1.71"
         y="0"
         style="letter-spacing: 0em;"
         id="tspan48">onga &amp; </tspan><tspan
         x="11.23"
         y="0"
         style="letter-spacing: 0em;"
         id="tspan49">B</tspan><tspan
         x="12.87"
         y="0"
         style="letter-spacing: 0em;"
         id="tspan50">ongo Drum </tspan><tspan
         x="27.91"
         y="0"
         style="letter-spacing: 0em;"
         id="tspan51">M</tspan><tspan
         x="30.34"
         y="0"
         style="letter-spacing: 0em;"
         id="tspan52">odule</tspan></text>
  </g>
</svg>
