<svg xmlns="http://www.w3.org/2000/svg" xmlns:inkscape="http://www.inkscape.org/namespaces/inkscape" xmlns:sodipodi="http://sodipodi.sourceforge.net/DTD/sodipodi-0.dtd" width="57.6" height="369.63" viewBox="0 0 57.6 369.63" version="1.1" id="svg44" sodipodi:docname="Duck_info.svg" inkscape:version="1.4 (e7c3feb1, 2024-10-09)">
  <sodipodi:namedview id="namedview44" pagecolor="#ffffff" bordercolor="#000000" borderopacity="0.25" inkscape:showpageshadow="2" inkscape:pageopacity="0.0" inkscape:pagecheckerboard="0" inkscape:deskcolor="#d1d1d1" inkscape:zoom="2.3753483" inkscape:cx="28.627381" inkscape:cy="184.815" inkscape:window-width="1920" inkscape:window-height="1027" inkscape:window-x="1920" inkscape:window-y="25" inkscape:window-maximized="0" inkscape:current-layer="components" />
  <defs id="defs4">
    <clipPath id="clippath">
      <rect x="14.9" y="32.98" width="27.8" height="25.62" style="fill: none;" id="rect1" />
    </clipPath>
    <clipPath id="clippath-1">
      <rect x="14.9" y="32.98" width="27.8" height="25.62" style="fill: none;" id="rect2" />
    </clipPath>
    <clipPath id="clippath-2">
      <rect x="14.9" y="115.12" width="27.8" height="25.62" style="fill: none;" id="rect3" />
    </clipPath>
    <clipPath id="clippath-3">
      <rect x="14.9" y="115.12" width="27.8" height="25.62" style="fill: none;" id="rect4" />
    </clipPath>
  </defs>
  <g id="faceplate">
    <g id="g5">
      <rect x=".13" y=".13" width="57.35" height="364" style="fill: #ededed;" id="rect5" />
      <path d="M57.35.25v363.75H.25V.25h57.1M57.6,0H0v364.25h57.6V0h0Z" style="fill: #9d9d9e;" id="path5" />
    </g>
    <path d="m 8.5883789,-3.5878906 q 0,1.1440429 -0.4189453,1.836914 Q 7.7558594,-1.0581055 7.1918945,-0.62841797 6.3916016,0 4.9521484,0 H 0.93457031 V -7.4443359 H 4.0283203 q 0.6982422,0 1.1923828,0.075195 0.4995117,0.069824 0.8969727,0.2041015 0.3974609,0.1289063 0.6767578,0.2954102 0.2792969,0.1611328 0.4995117,0.3491211 0.3813477,0.3115234 0.6660156,0.7358398 0.2900391,0.4243164 0.456543,0.9829102 0.171875,0.5585937 0.171875,1.2138672 z m -2.2827148,-0.09668 q 0,-0.9077149 -0.3491211,-1.4125977 Q 5.612793,-5.6074219 5.1240234,-5.7792969 4.640625,-5.9511719 4.1357422,-5.9511719 H 3.1796875 v 4.409668 h 0.9560547 q 0.8808594,0 1.5253906,-0.4189453 0.6445313,-0.4189453 0.6445313,-1.7241211 z M 17.72998,-3.3354492 q 0,0.9560547 -0.359863,1.6328125 -0.354492,0.6713867 -0.945312,1.06347654 -0.58545,0.39208985 -1.267578,0.56396485 -0.676758,0.171875 -1.353516,0.171875 -0.945313,0 -1.842285,-0.32226563 Q 11.069824,-0.54785156 10.468262,-1.3212891 9.8666992,-2.0947266 9.8666992,-3.3354492 v -4.1088867 h 2.2397458 v 3.5288086 q 0,0.7358398 0.209473,1.2192382 0.214844,0.4780274 0.59082,0.7036133 0.381348,0.2202149 0.896973,0.2202149 0.494141,0 0.875488,-0.2202149 0.381348,-0.2202148 0.590821,-0.6982422 0.214843,-0.4780273 0.214843,-1.2138672 v -3.5395507 h 2.245117 z m 8.427247,2.77685545 q -0.461915,0.24169922 -0.945313,0.38671875 -0.483398,0.14501953 -0.977539,0.20410156 -0.48877,0.06445313 -1.015137,0.06445313 -0.972168,0 -1.745605,-0.26855469 -0.768067,-0.26855469 -1.337403,-0.78955078 -0.563964,-0.52636722 -0.848632,-1.22460942 -0.279297,-0.7036132 -0.279297,-1.5415039 0,-0.9614257 0.333008,-1.6811523 0.333007,-0.7250977 0.929199,-1.203125 0.601562,-0.4780273 1.364258,-0.7036133 0.768066,-0.230957 1.616699,-0.230957 1.267578,0 2.873535,0.5639648 v 1.9765625 q -0.553223,-0.34375 -1.095703,-0.5693359 -0.53711,-0.230957 -1.267578,-0.230957 -0.649903,0 -1.213867,0.2578125 -0.563965,0.2578125 -0.907715,0.7358398 -0.34375,0.4780273 -0.34375,1.1171875 0,0.5639648 0.300781,1.0366211 0.300781,0.4672851 0.832519,0.746582 0.53711,0.2739258 1.208497,0.2739258 0.54248,0 1.025878,-0.1289062 0.483399,-0.1342774 0.811036,-0.2954102 0.333007,-0.1611328 0.682129,-0.3813477 z M 35.497559,0 h -2.739258 l -2.84668,-3.4858398 V 0 h -2.245117 v -7.4443359 h 2.245117 v 3.3300781 l 2.696289,-3.3300781 h 2.438477 l -2.771485,3.4858398 z" id="text5" style="font-weight:700;font-size:11px;font-family:GillSans-Bold, 'Gill Sans'" transform="translate(14.23 357.06) scale(.82 1)" aria-label="DUCK" />
    <g id="pips_-_fewest" data-name="pips - fewest">
      <g style="clip-path: url(#clippath);" clip-path="url(#clippath)" id="g16">
        <g style="clip-path: url(#clippath-1);" clip-path="url(#clippath-1)" id="g15">
          <path d="M34.49,35.76l.71-1.23c-1.74-.9-3.7-1.45-5.77-1.55v1.43c1.81.09,3.53.56,5.06,1.35" id="path6" />
          <path d="M39.29,40.1l1.23-.71c-1.09-1.69-2.53-3.14-4.22-4.22l-.71,1.23c1.48.96,2.74,2.22,3.7,3.7" id="path7" />
          <path d="M22.01,36.4l-.71-1.23c-1.69,1.09-3.14,2.53-4.22,4.22l1.23.71c.96-1.48,2.22-2.74,3.7-3.7" id="path8" />
          <path d="M41.27,46.25h1.43c-.09-2.07-.64-4.03-1.55-5.77l-1.23.71c.79,1.53,1.26,3.24,1.35,5.06" id="path9" />
          <path d="M28.17,34.41v-1.43c-2.07.09-4.03.64-5.77,1.55l.71,1.23c1.53-.79,3.24-1.26,5.06-1.35" id="path10" />
          <path d="M18.31,53.67l-1.23.71c1.09,1.69,2.53,3.14,4.22,4.22l.71-1.23c-1.48-.96-2.74-2.22-3.7-3.7" id="path11" />
          <path d="M35.59,57.38l.71,1.23c1.69-1.09,3.14-2.53,4.22-4.22l-1.23-.71c-.96,1.48-2.22,2.74-3.7,3.7" id="path12" />
          <path d="M41.27,47.52c-.09,1.81-.56,3.53-1.35,5.06l1.23.71c.9-1.74,1.45-3.7,1.55-5.77h-1.43Z" id="path13" />
          <path d="M16.33,47.52h-1.43c.09,2.07.64,4.03,1.55,5.77l1.23-.71c-.79-1.53-1.26-3.24-1.35-5.06" id="path14" />
          <path d="M17.68,41.2l-1.23-.71c-.9,1.74-1.45,3.7-1.55,5.77h1.43c.09-1.81.56-3.53,1.35-5.06" id="path15" />
        </g>
      </g>
    </g>
    <g id="pips_-_fewest-2" data-name="pips - fewest">
      <g style="clip-path: url(#clippath-2);" clip-path="url(#clippath-2)" id="g26">
        <g style="clip-path: url(#clippath-3);" clip-path="url(#clippath-3)" id="g25">
          <path d="M34.49,117.9l.71-1.23c-1.74-.9-3.7-1.45-5.77-1.55v1.43c1.81.09,3.53.56,5.06,1.35" id="path16" />
          <path d="M39.29,122.23l1.23-.71c-1.09-1.69-2.53-3.14-4.22-4.22l-.71,1.23c1.48.96,2.74,2.22,3.7,3.7" id="path17" />
          <path d="M22.01,118.53l-.71-1.23c-1.69,1.09-3.14,2.53-4.22,4.22l1.23.71c.96-1.48,2.22-2.74,3.7-3.7" id="path18" />
          <path d="M41.27,128.39h1.43c-.09-2.07-.64-4.03-1.55-5.77l-1.23.71c.79,1.53,1.26,3.24,1.35,5.06" id="path19" />
          <path d="M28.17,116.55v-1.43c-2.07.09-4.03.64-5.77,1.55l.71,1.23c1.53-.79,3.24-1.26,5.06-1.35" id="path20" />
          <path d="M18.31,135.81l-1.23.71c1.09,1.69,2.53,3.14,4.22,4.22l.71-1.23c-1.48-.96-2.74-2.22-3.7-3.7" id="path21" />
          <path d="M35.59,139.51l.71,1.23c1.69-1.09,3.14-2.53,4.22-4.22l-1.23-.71c-.96,1.48-2.22,2.74-3.7,3.7" id="path22" />
          <path d="M41.27,129.65c-.09,1.81-.56,3.53-1.35,5.06l1.23.71c.9-1.74,1.45-3.7,1.55-5.77h-1.43Z" id="path23" />
          <path d="M16.33,129.65h-1.43c.09,2.07.64,4.03,1.55,5.77l1.23-.71c-.79-1.53-1.26-3.24-1.35-5.06" id="path24" />
          <path d="M17.68,123.33l-1.23-.71c-.9,1.74-1.45,3.7-1.55,5.77h1.43c.09-1.81.56-3.53,1.35-5.06" id="path25" />
        </g>
      </g>
    </g>
    <path d="M 8.28125,0 H 6.1914062 L 5.6396484,-1.3720703 H 2.7001953 L 2.1386719,0 H 0.04882812 L 3.0419922,-6.7675781 H 5.2978516 Z M 5.1708984,-2.5488281 4.1796875,-5.0195312 3.1787109,-2.5488281 Z M 17.349023,0 h -1.757812 v -2.6513672 q 0,-0.5273437 -0.175781,-0.7861328 -0.170899,-0.2636719 -0.546875,-0.2636719 -0.366211,0 -0.600586,0.2246094 -0.234375,0.2197266 -0.46875,0.5566406 V 0 h -1.757813 v -2.6513672 q 0,-0.5029297 -0.161133,-0.7763672 -0.161132,-0.2734375 -0.571289,-0.2734375 -0.195312,0 -0.361328,0.078125 -0.161133,0.078125 -0.263672,0.1757813 -0.102539,0.097656 -0.249023,0.2880859 -0.146485,0.1904297 -0.185547,0.2392578 V 0 H 8.4916015 v -4.9707031 h 1.7578125 v 0.7128906 q 0.395508,-0.4199219 0.805664,-0.6103516 0.410156,-0.1904296 0.947266,-0.1904296 0.253906,0 0.483398,0.048828 0.229492,0.043945 0.449219,0.15625 0.224609,0.1123047 0.405273,0.3076172 0.180664,0.1953125 0.288086,0.4541015 0.424805,-0.4785156 0.878906,-0.7226562 0.458985,-0.2441406 1.054688,-0.2441406 0.595703,0 0.996094,0.2392578 0.405273,0.2392578 0.595703,0.6933593 0.195312,0.4492188 0.195312,1.09375 z m 6.133204,-2.4902344 q 0,0.7421875 -0.322265,1.3232422 -0.322266,0.5810547 -0.966797,0.91796876 -0.639649,0.33691406 -1.5625,0.33691406 -0.922852,0 -1.567383,-0.33691406 -0.639648,-0.33691406 -0.961914,-0.91796876 -0.317383,-0.5810547 -0.317383,-1.3232422 0,-0.5615234 0.175781,-1.0205078 0.180664,-0.4589844 0.541993,-0.8105469 0.366211,-0.3564453 0.898437,-0.546875 0.532227,-0.1904296 1.230469,-0.1904296 0.703125,0 1.240234,0.1953125 0.541992,0.1904296 0.893555,0.5371093 0.356445,0.3466797 0.537109,0.8105469 0.180664,0.4638672 0.180664,1.0253906 z m -1.850586,0 q 0,-0.5908203 -0.258789,-0.9228515 Q 21.118946,-3.75 20.630665,-3.75 q -0.483399,0 -0.742188,0.3369141 -0.253906,0.3320312 -0.253906,0.9228515 0,0.5859375 0.258789,0.9277344 0.258789,0.3417969 0.737305,0.3417969 0.488281,0 0.742187,-0.3369141 0.258789,-0.3417969 0.258789,-0.9326172 z M 29.23457,0 h -1.762696 v -0.70800781 q -0.371094,0.40039062 -0.78125,0.60058594 -0.405273,0.19531249 -0.976562,0.19531249 -1.12793,0 -1.459961,-0.65429687 Q 23.92207,-1.2255859 23.92207,-2.0507813 v -2.9199218 h 1.762695 v 2.6855468 q 0,0.4052735 0.131836,0.7128907 0.136719,0.3027344 0.585937,0.3027344 0.385742,0 0.610352,-0.2197266 0.224609,-0.2197266 0.458984,-0.5615235 v -2.9199218 h 1.762696 z m 6.030664,0 h -1.757813 v -2.6806641 q 0,-0.4101562 -0.136718,-0.7128906 -0.131836,-0.3076172 -0.585938,-0.3076172 -0.214844,0 -0.380859,0.083008 -0.161133,0.078125 -0.292969,0.2050782 -0.126953,0.1269531 -0.214844,0.2441406 -0.08789,0.1171875 -0.180664,0.2490234 V 0 h -1.757812 v -4.9707031 h 1.757812 v 0.7128906 q 0.415039,-0.4443359 0.830078,-0.6201172 0.419922,-0.180664 0.932618,-0.180664 1.787109,0 1.787109,2.1386718 z m 4.575586,-0.28808594 q -0.273437,0.13183594 -0.756836,0.25390625 -0.478515,0.12207031 -0.917968,0.12207031 -1.899414,0 -1.899414,-1.85546872 V -3.75 h -0.795899 v -0.3076172 l 2.358399,-2.4023437 h 0.200195 v 1.4892578 h 1.679687 V -3.75 h -1.679687 v 1.5917969 q 0,0.2783203 0.03418,0.4492187 0.03418,0.1708985 0.190429,0.288086 0.161133,0.1123047 0.483399,0.1123047 0.419922,0 1.103515,-0.3515625 z" id="text26" style="font-weight:700;font-size:10px;font-family:GillSans-Bold, 'Gill Sans';letter-spacing:-0.04em" transform="translate(11.18 69.94) scale(.88 1)" aria-label="Amount" />
    <path d="M 7.3388672,-5.1220703 H 4.8583984 V 0 H 2.8222656 V -5.1220703 H 0.34179688 V -6.7675781 H 7.3388672 Z m 2.070703,-0.9960938 q 0,0.3076172 -0.2197265,0.522461 -0.2197266,0.2148437 -0.522461,0.2148437 -0.2050781,0 -0.3759765,-0.097656 -0.1660157,-0.097656 -0.2636719,-0.2636719 -0.097656,-0.1708984 -0.097656,-0.3759766 0,-0.3027343 0.2148438,-0.5224609 0.2148437,-0.2197266 0.5224609,-0.2197266 0.3027344,0 0.522461,0.2197266 0.2197265,0.2197266 0.2197265,0.5224609 z M 9.5511718,0 H 7.7884765 v -4.9707031 h 1.7626953 z m 9.6683592,0 h -1.757812 v -2.6513672 q 0,-0.5273437 -0.175782,-0.7861328 -0.170898,-0.2636719 -0.546875,-0.2636719 -0.366211,0 -0.600586,0.2246094 -0.234375,0.2197266 -0.46875,0.5566406 V 0 h -1.757812 v -2.6513672 q 0,-0.5029297 -0.161133,-0.7763672 -0.161133,-0.2734375 -0.571289,-0.2734375 -0.195313,0 -0.361328,0.078125 -0.161133,0.078125 -0.263672,0.1757813 -0.102539,0.097656 -0.249023,0.2880859 -0.146485,0.1904297 -0.185547,0.2392578 V 0 h -1.757813 v -4.9707031 h 1.757813 v 0.7128906 q 0.395507,-0.4199219 0.805664,-0.6103516 0.410156,-0.1904296 0.947265,-0.1904296 0.253907,0 0.483399,0.048828 0.229492,0.043945 0.449219,0.15625 0.224609,0.1123047 0.405273,0.3076172 0.180664,0.1953125 0.288086,0.4541015 0.424805,-0.4785156 0.878906,-0.7226562 0.458985,-0.2441406 1.054688,-0.2441406 0.595703,0 0.996093,0.2392578 0.405274,0.2392578 0.595704,0.6933593 0.195312,0.4492188 0.195312,1.09375 z m 5.742578,-2.0605469 h -3.500977 q 0.102539,0.4541016 0.50293,0.7421875 0.40039,0.288086 0.908203,0.288086 0.888672,0 1.96289,-0.4980469 v 1.08886717 q -0.385742,0.20019532 -0.9375,0.36621094 -0.546875,0.16113281 -1.396484,0.16113281 -0.917969,0 -1.5625,-0.34179687 -0.644531,-0.34179687 -0.966797,-0.92773435 -0.317383,-0.5859375 -0.317383,-1.328125 0,-0.7324219 0.317383,-1.3085938 0.322266,-0.5810547 0.966797,-0.9082031 0.644531,-0.3320312 1.5625,-0.3320312 0.605469,0 1.166992,0.2636718 0.566407,0.2587891 0.927735,0.8544922 0.366211,0.5908203 0.366211,1.5283203 z m -1.650391,-0.8691406 q 0,-0.4785156 -0.239258,-0.7617188 -0.234375,-0.2880859 -0.678711,-0.2880859 -0.439453,0 -0.71289,0.2929688 -0.268555,0.2880859 -0.268555,0.7568359 z" id="text27" style="font-weight:700;font-size:10px;font-family:GillSans-Bold, 'Gill Sans';letter-spacing:-0.04em" transform="translate(17.62 152.04) scale(.88 1)" aria-label="Time" />
    <g id="g29">
      <path d="M20.6,18.07c-.37,0-.71-.17-.97-.47-.51-.6-.52-1.54-.04-2.16l6.97-8.88c.38-.48,1.05-.65,1.57-.39.5.25.79.82.79,1.45v4.77l4.64-5.85c.38-.48,1.01-.64,1.53-.38.5.25.83.81.83,1.44v8.82c0,.86-.61,1.57-1.36,1.57s-1.36-.7-1.36-1.57v-4.79l-4.64,5.85c-.38.48-1.01.64-1.54.38-.5-.24-.83-.81-.83-1.44v-4.67l-4.61,5.8c-.26.32-.62.51-1,.51h0Z" style="fill: #2cabe1;" id="path27" />
      <path d="M20.6,18.07c-.75,0-1.35-.7-1.35-1.57v-4.93l-2.26,2.84c-.5.63-1.44.65-1.97.04-.51-.6-.52-1.53-.03-2.15l4.61-5.76c.26-.32.63-.5,1-.5.18,0,.37.04.54.12.5.25.82.81.82,1.44v8.89c0,.86-.61,1.57-1.36,1.57h0Z" style="fill: #ea2228;" id="path28" />
      <path d="M37.2,18.09h0c-.35,0-.68-.15-.94-.42-.76-.78-.14-1.84.29-2.3l1.95-2.36-1.26-.02c-.56-.01-1.04-.4-1.24-1-.19-.56-.07-1.21.29-1.64l3.16-3.83c.23-.28.55-.48,1.13-.47.33,0,.67.17.92.4.71.66.29,1.7-.07,2.2l-1.04,1.26,1.26.02c.56.01,1.04.4,1.24,1,.19.56.07,1.21-.29,1.64l-4.1,4.97c-.35.35-.65.55-1.3.54h0Z" style="fill: #00a650;" id="path29" />
    </g>
    <line x1="28.8" y1="73.19" x2="28.8" y2="92.19" style="fill: #fff; stroke: #231f20; stroke-miterlimit: 10;" id="line29" />
    <line x1="28.8" y1="155.3" x2="28.8" y2="174.3" style="fill: #fff; stroke: #231f20; stroke-miterlimit: 10;" id="line30" />
    <path d="M 2.3203125,0 H 0.6875 v -5.4140625 h 1.6328125 z m 5.0628126,0 h -1.40625 v -2.1445313 q 0,-0.328125 -0.109375,-0.5703125 -0.1054688,-0.2460937 -0.46875,-0.2460937 -0.171875,0 -0.3046875,0.066406 -0.1289063,0.0625 -0.234375,0.1640625 -0.1015625,0.1015625 -0.171875,0.1953125 -0.070312,0.09375 -0.1445313,0.1992188 V 0 h -1.40625 v -3.9765625 h 1.40625 V -3.40625 q 0.3320313,-0.3554688 0.6640625,-0.4960938 0.3359375,-0.1445312 0.7460938,-0.1445312 1.4296875,0 1.4296875,1.7109375 z m 4.8909379,-2.015625 q 0,0.3984375 -0.113282,0.7695313 -0.113281,0.3710937 -0.347656,0.67187495 -0.230469,0.296875 -0.597656,0.47265625 -0.363281,0.171875 -0.847656,0.171875 -0.3906254,0 -0.6171879,-0.08203125 Q 9.5279689,-0.09375 9.3053126,-0.23046875 V 1.8085937 h -1.40625 v -5.7851562 h 1.40625 v 0.359375 q 0.2109375,-0.1835938 0.4648438,-0.3046875 0.2578126,-0.125 0.6953126,-0.125 0.433594,0 0.851562,0.2148437 0.417969,0.2148438 0.6875,0.671875 0.269532,0.453125 0.269532,1.1445313 z m -1.480469,0.03125 q 0,-0.359375 -0.113281,-0.5820313 -0.113282,-0.2265625 -0.292969,-0.3242187 -0.179688,-0.1015625 -0.371094,-0.1015625 -0.2499999,0 -0.4101561,0.082031 -0.1601563,0.078125 -0.3007813,0.1992188 v 1.5195313 q 0.074219,0.039063 0.15625,0.089844 0.085937,0.046875 0.1679688,0.082031 0.085937,0.0351562 0.1796875,0.0585937 0.097656,0.0234375 0.2070311,0.0234375 0.332031,0 0.554688,-0.28125 Q 10.793594,-1.5 10.793594,-1.984375 Z M 16.875937,0 h -1.410156 v -0.56640625 q -0.296875,0.3203125 -0.625,0.48046875 -0.324219,0.15625 -0.78125,0.15625 -0.902344,0 -1.167969,-0.5234375 -0.265625,-0.52734375 -0.265625,-1.1875 v -2.3359375 h 1.410157 v 2.1484375 q 0,0.3242188 0.105468,0.5703125 0.109375,0.2421875 0.46875,0.2421875 0.308594,0 0.488282,-0.1757812 0.179687,-0.1757813 0.367187,-0.4492188 v -2.3359375 h 1.410156 z m 3.715156,-0.23046875 q -0.21875,0.10546875 -0.605469,0.203125 -0.382812,0.09765625 -0.734375,0.09765625 -1.519531,0 -1.519531,-1.484375 V -3 h -0.636719 v -0.2460938 l 1.886719,-1.9218749 h 0.160156 v 1.1914062 h 1.34375 V -3 h -1.34375 v 1.2734375 q 0,0.2226563 0.02734,0.359375 0.02734,0.1367188 0.152344,0.2304688 0.128906,0.089844 0.386719,0.089844 0.335937,0 0.882812,-0.28125 z" id="text30" style="font-weight:700;font-size:8px;font-family:GillSans-Bold, 'Gill Sans';letter-spacing:-0.04em" transform="translate(19.54 289.12) scale(.88 1)" aria-label="Input" />
    <path d="m 6.4726562,-2.7109375 q 0,0.7578125 -0.3515625,1.3945313 -0.3476562,0.6367187 -1.0390625,1.0117187 -0.6914062,0.375 -1.6835937,0.375 -1.0039062,0 -1.6992188,-0.390625 Q 1.0039062,-0.7109375 0.6640625,-1.3476562 0.328125,-1.984375 0.328125,-2.7109375 q 0,-0.7304688 0.3359375,-1.3632812 Q 1,-4.7109375 1.6953125,-5.0976562 q 0.6992188,-0.390625 1.703125,-0.390625 0.75,0 1.3359375,0.2226562 0.5898437,0.2226563 0.96875,0.6054688 0.3789062,0.3789062 0.5742187,0.8867187 0.1953125,0.5039062 0.1953125,1.0625 z m -1.6640625,0 q 0,-0.3046875 -0.089844,-0.5546875 -0.089844,-0.2539063 -0.2734375,-0.4375 -0.1796875,-0.1875 -0.4414063,-0.2890625 -0.2617187,-0.1054687 -0.6054687,-0.1054687 -0.65625,0 -1.03125,0.3828124 -0.375,0.3828125 -0.375,1.0039063 0,0.6210937 0.375,1.0078125 0.3789063,0.3828125 1.03125,0.3828125 0.4492188,0 0.765625,-0.1757812 0.3164062,-0.1796875 0.4804687,-0.4921875 0.1640625,-0.3164063 0.1640625,-0.7226563 z M 11.129219,0 H 9.7190623 v -0.56640625 q -0.296875,0.3203125 -0.625,0.48046875 -0.3242187,0.15625 -0.78125,0.15625 -0.9023437,0 -1.1679687,-0.5234375 -0.265625,-0.52734375 -0.265625,-1.1875 v -2.3359375 h 1.4101562 v 2.1484375 q 0,0.3242188 0.1054688,0.5703125 0.109375,0.2421875 0.46875,0.2421875 0.3085937,0 0.4882812,-0.1757812 0.1796875,-0.1757813 0.3671875,-0.4492188 v -2.3359375 h 1.4101567 z m 3.715156,-0.23046875 q -0.21875,0.10546875 -0.605469,0.203125 -0.382813,0.09765625 -0.734375,0.09765625 -1.519531,0 -1.519531,-1.484375 V -3 H 11.348281 V -3.2460938 L 13.235,-5.1679687 h 0.160156 v 1.1914062 h 1.34375 V -3 h -1.34375 v 1.2734375 q 0,0.2226563 0.02734,0.359375 0.02734,0.1367188 0.152343,0.2304688 0.128907,0.089844 0.386719,0.089844 0.335938,0 0.882813,-0.28125 z" id="text31" style="font-weight:700;font-size:8px;font-family:GillSans-Bold, 'Gill Sans';letter-spacing:-0.04em;fill:#ffffff" transform="translate(22.07 337.31) scale(.88 1)" aria-label="Out" />
    <path d="M 5.8710937,-4.0976562 H 3.8867188 V 0 H 2.2578125 v -4.0976562 h -1.984375 v -1.3164063 h 5.5976562 z m 3.6682811,0.3359374 -0.5195312,1.4101563 Q 8.6995311,-2.65625 8.3714061,-2.65625 q -0.296875,0 -0.515625,0.203125 -0.2148438,0.1992187 -0.4140625,0.7421875 V 0 h -1.40625 v -3.9765625 h 1.40625 v 0.9609375 q 0.1328125,-0.3554688 0.46875,-0.6914063 0.3359375,-0.3398437 0.7890625,-0.3398437 0.2382812,0 0.4140625,0.070312 0.1796875,0.070312 0.4257812,0.2148437 z m 1.1526562,-1.1328124 q 0,0.2460937 -0.175781,0.4179687 -0.175782,0.171875 -0.417969,0.171875 -0.1640626,0 -0.3007813,-0.078125 -0.1328125,-0.078125 -0.2109375,-0.2109375 -0.078125,-0.1367187 -0.078125,-0.3007812 0,-0.2421875 0.171875,-0.4179688 0.171875,-0.1757812 0.4179688,-0.1757812 0.242187,0 0.417969,0.1757812 0.175781,0.1757813 0.175781,0.4179688 z M 10.805312,0 H 9.3951559 v -3.9765625 h 1.4101561 z m 4.64875,-3.1289063 H 14.75875 q 0.367187,0.3203125 0.367187,0.7851563 0,0.2460937 -0.105468,0.4726563 -0.101563,0.2265625 -0.304688,0.4023437 -0.199219,0.1757813 -0.496094,0.2890625 -0.292968,0.109375 -0.671875,0.1328125 -0.488281,0.019531 -0.488281,0.26171875 0,0.09375 0.0625,0.13671875 0.0625,0.0429687 0.195313,0.0664063 0.136718,0.0195313 0.457031,0.046875 0.363281,0.03125 0.675781,0.109375 0.3125,0.078125 0.582031,0.328125 0.269532,0.25 0.269532,0.71484375 0,0.37109375 -0.203125,0.65625 -0.199219,0.2851562 -0.648438,0.4453125 -0.449219,0.1601562 -1.1875,0.1601562 -1.0625,0 -1.5625,-0.2851562 -0.496094,-0.2851563 -0.496094,-0.76171875 0,-0.12890625 0.0625,-0.296875 Q 11.332969,0.3671875 11.54,0.2109375 11.750937,0.0546875 12.149375,0 12.00875,-0.05078125 11.907187,-0.1953125 11.805625,-0.34375 11.805625,-0.50390625 q 0,-0.20703125 0.140625,-0.41015625 0.144531,-0.203125 0.464844,-0.2617187 -0.445313,-0.1171875 -0.769532,-0.4414063 -0.324218,-0.3242187 -0.324218,-0.8398438 0,-0.390625 0.148437,-0.6835937 0.152344,-0.2929688 0.417969,-0.4765625 0.265625,-0.1835938 0.617187,-0.2695313 0.351563,-0.089844 0.769532,-0.089844 h 2.183593 z m -1.554687,0.671875 q 0,-0.3007812 -0.207031,-0.4804687 -0.203125,-0.1835938 -0.457032,-0.1835938 -0.324218,0 -0.511718,0.21875 -0.183594,0.21875 -0.183594,0.4609375 0,0.1679688 0.07813,0.3125 0.08203,0.1445313 0.226562,0.2343751 0.148438,0.085937 0.351563,0.085937 0.304687,0 0.503906,-0.1914063 0.199219,-0.1914063 0.199219,-0.4570313 z m 0.28125,3.1992188 q 0,-0.26171875 -0.28125,-0.33984375 -0.277344,-0.0742188 -0.574219,-0.0742188 -0.488281,0 -0.707031,0.1015625 -0.214844,0.10546875 -0.214844,0.33203125 0,0.44531245 0.898438,0.44531245 0.402343,0 0.640625,-0.1171875 0.238281,-0.1132812 0.238281,-0.3476562 z m 5.457344,-3.8710938 h -0.695312 q 0.367187,0.3203125 0.367187,0.7851563 0,0.2460937 -0.105469,0.4726563 -0.101562,0.2265625 -0.304687,0.4023437 -0.199219,0.1757813 -0.496094,0.2890625 -0.292969,0.109375 -0.671875,0.1328125 -0.488281,0.019531 -0.488281,0.26171875 0,0.09375 0.0625,0.13671875 0.0625,0.0429687 0.195312,0.0664063 0.136719,0.0195313 0.457032,0.046875 0.363281,0.03125 0.675781,0.109375 0.3125,0.078125 0.582031,0.328125 0.269531,0.25 0.269531,0.71484375 0,0.37109375 -0.203125,0.65625 -0.199218,0.2851562 -0.648437,0.4453125 -0.449219,0.1601562 -1.1875,0.1601562 -1.0625,0 -1.5625,-0.2851562 -0.496094,-0.2851563 -0.496094,-0.76171875 0,-0.12890625 0.0625,-0.296875 Q 15.516875,0.3671875 15.723907,0.2109375 15.934844,0.0546875 16.333282,0 16.192657,-0.05078125 16.091094,-0.1953125 15.989532,-0.34375 15.989532,-0.50390625 q 0,-0.20703125 0.140625,-0.41015625 0.144531,-0.203125 0.464843,-0.2617187 -0.445312,-0.1171875 -0.769531,-0.4414063 -0.324219,-0.3242187 -0.324219,-0.8398438 0,-0.390625 0.148438,-0.6835937 0.152344,-0.2929688 0.417969,-0.4765625 0.265625,-0.1835938 0.617187,-0.2695313 0.351563,-0.089844 0.769531,-0.089844 h 2.183594 z m -1.554687,0.671875 q 0,-0.3007812 -0.207032,-0.4804687 -0.203125,-0.1835938 -0.457031,-0.1835938 -0.324219,0 -0.511719,0.21875 -0.183593,0.21875 -0.183593,0.4609375 0,0.1679688 0.07813,0.3125 0.08203,0.1445313 0.226562,0.2343751 0.148438,0.085937 0.351563,0.085937 0.304687,0 0.503906,-0.1914063 0.199219,-0.1914063 0.199219,-0.4570313 z m 0.28125,3.1992188 q 0,-0.26171875 -0.28125,-0.33984375 -0.277344,-0.0742188 -0.574219,-0.0742188 -0.488281,0 -0.707031,0.1015625 -0.214844,0.10546875 -0.214844,0.33203125 0,0.44531245 0.898437,0.44531245 0.402344,0 0.640625,-0.1171875 0.238282,-0.1132812 0.238282,-0.3476562 z M 23.9,-1.6484375 h -2.800782 q 0.08203,0.3632813 0.402344,0.59375 0.320313,0.23046875 0.726563,0.23046875 0.710937,0 1.570312,-0.39843745 v 0.8710937 q -0.308594,0.16015625 -0.75,0.29296875 -0.4375,0.12890625 -1.117187,0.12890625 -0.734375,0 -1.25,-0.2734375 -0.515625,-0.2734375 -0.773438,-0.7421875 -0.253906,-0.46875 -0.253906,-1.0625 0,-0.5859375 0.253906,-1.046875 0.257813,-0.4648438 0.773438,-0.7265625 0.515625,-0.265625 1.25,-0.265625 0.484375,0 0.933593,0.2109375 0.453125,0.2070312 0.742188,0.6835937 Q 23.9,-2.6796875 23.9,-1.9296875 Z M 22.579687,-2.34375 q 0,-0.3828125 -0.191406,-0.609375 -0.1875,-0.2304688 -0.542969,-0.2304688 -0.351562,0 -0.570312,0.234375 Q 21.060156,-2.71875 21.060156,-2.34375 Z M 27.7675,-3.7617188 27.247969,-2.3515625 Q 26.927656,-2.65625 26.599531,-2.65625 q -0.296875,0 -0.515625,0.203125 -0.214844,0.1992187 -0.414062,0.7421875 V 0 h -1.40625 v -3.9765625 h 1.40625 v 0.9609375 q 0.132812,-0.3554688 0.46875,-0.6914063 0.335937,-0.3398437 0.789062,-0.3398437 0.238281,0 0.414063,0.070312 0.179687,0.070312 0.425781,0.2148437 z" id="text32" style="font-weight:700;font-size:8px;font-family:GillSans-Bold, 'Gill Sans';letter-spacing:-0.04em" transform="translate(16.2 240.93) scale(.88 1)" aria-label="Trigger" />
    <g id="g33">
      <path d="M13.08,324.44v-110.18c0-8.03,6.98-14.54,15.59-14.54s15.59,6.51,15.59,14.54v110.18H13.08Z" style="fill: #d1d3d4;" id="path32" />
      <path d="M44.27,310.67c0-8.05-6.98-14.57-15.59-14.57s-15.59,6.53-15.59,14.57v5.36s0,0,0,0v19.77c0,3.11,2.55,5.65,5.67,5.65h19.84c3.12,0,5.67-2.54,5.67-5.65v-19.77s0,0,0,0v-5.35Z" style="fill: #d1d3d4;" id="path33" />
    </g>
    <path d="M44.27,310.67c0-8.05-6.98-14.57-15.59-14.57s-15.59,6.53-15.59,14.57v5.36s0,0,0,0v19.77c0,3.11,2.55,5.65,5.67,5.65h19.84c3.12,0,5.67-2.54,5.67-5.65v-19.77s0,0,0,0v-5.35Z" id="path34" />
    <path d="M 2.3203125,0 H 0.6875 v -5.4140625 h 1.6328125 z m 5.0628126,0 h -1.40625 v -2.1445313 q 0,-0.328125 -0.109375,-0.5703125 -0.1054688,-0.2460937 -0.46875,-0.2460937 -0.171875,0 -0.3046875,0.066406 -0.1289063,0.0625 -0.234375,0.1640625 -0.1015625,0.1015625 -0.171875,0.1953125 -0.070312,0.09375 -0.1445313,0.1992188 V 0 h -1.40625 v -3.9765625 h 1.40625 V -3.40625 q 0.3320313,-0.3554688 0.6640625,-0.4960938 0.3359375,-0.1445312 0.7460938,-0.1445312 1.4296875,0 1.4296875,1.7109375 z m 4.8909379,-2.015625 q 0,0.3984375 -0.113282,0.7695313 -0.113281,0.3710937 -0.347656,0.67187495 -0.230469,0.296875 -0.597656,0.47265625 -0.363281,0.171875 -0.847656,0.171875 -0.3906254,0 -0.6171879,-0.08203125 Q 9.5279689,-0.09375 9.3053126,-0.23046875 V 1.8085937 h -1.40625 v -5.7851562 h 1.40625 v 0.359375 q 0.2109375,-0.1835938 0.4648438,-0.3046875 0.2578126,-0.125 0.6953126,-0.125 0.433594,0 0.851562,0.2148437 0.417969,0.2148438 0.6875,0.671875 0.269532,0.453125 0.269532,1.1445313 z m -1.480469,0.03125 q 0,-0.359375 -0.113281,-0.5820313 -0.113282,-0.2265625 -0.292969,-0.3242187 -0.179688,-0.1015625 -0.371094,-0.1015625 -0.2499999,0 -0.4101561,0.082031 -0.1601563,0.078125 -0.3007813,0.1992188 v 1.5195313 q 0.074219,0.039063 0.15625,0.089844 0.085937,0.046875 0.1679688,0.082031 0.085937,0.0351562 0.1796875,0.0585937 0.097656,0.0234375 0.2070311,0.0234375 0.332031,0 0.554688,-0.28125 Q 10.793594,-1.5 10.793594,-1.984375 Z M 16.875937,0 h -1.410156 v -0.56640625 q -0.296875,0.3203125 -0.625,0.48046875 -0.324219,0.15625 -0.78125,0.15625 -0.902344,0 -1.167969,-0.5234375 -0.265625,-0.52734375 -0.265625,-1.1875 v -2.3359375 h 1.410157 v 2.1484375 q 0,0.3242188 0.105468,0.5703125 0.109375,0.2421875 0.46875,0.2421875 0.308594,0 0.488282,-0.1757812 0.179687,-0.1757813 0.367187,-0.4492188 v -2.3359375 h 1.410156 z m 3.715156,-0.23046875 q -0.21875,0.10546875 -0.605469,0.203125 -0.382812,0.09765625 -0.734375,0.09765625 -1.519531,0 -1.519531,-1.484375 V -3 h -0.636719 v -0.2460938 l 1.886719,-1.9218749 h 0.160156 v 1.1914062 h 1.34375 V -3 h -1.34375 v 1.2734375 q 0,0.2226563 0.02734,0.359375 0.02734,0.1367188 0.152344,0.2304688 0.128906,0.089844 0.386719,0.089844 0.335937,0 0.882812,-0.28125 z" id="text34" style="font-weight:700;font-size:8px;font-family:GillSans-Bold, 'Gill Sans';letter-spacing:-0.04em" transform="translate(19.54 289.12) scale(.88 1)" aria-label="Input" />
    <path d="m 6.4726562,-2.7109375 q 0,0.7578125 -0.3515625,1.3945313 -0.3476562,0.6367187 -1.0390625,1.0117187 -0.6914062,0.375 -1.6835937,0.375 -1.0039062,0 -1.6992188,-0.390625 Q 1.0039062,-0.7109375 0.6640625,-1.3476562 0.328125,-1.984375 0.328125,-2.7109375 q 0,-0.7304688 0.3359375,-1.3632812 Q 1,-4.7109375 1.6953125,-5.0976562 q 0.6992188,-0.390625 1.703125,-0.390625 0.75,0 1.3359375,0.2226562 0.5898437,0.2226563 0.96875,0.6054688 0.3789062,0.3789062 0.5742187,0.8867187 0.1953125,0.5039062 0.1953125,1.0625 z m -1.6640625,0 q 0,-0.3046875 -0.089844,-0.5546875 -0.089844,-0.2539063 -0.2734375,-0.4375 -0.1796875,-0.1875 -0.4414063,-0.2890625 -0.2617187,-0.1054687 -0.6054687,-0.1054687 -0.65625,0 -1.03125,0.3828124 -0.375,0.3828125 -0.375,1.0039063 0,0.6210937 0.375,1.0078125 0.3789063,0.3828125 1.03125,0.3828125 0.4492188,0 0.765625,-0.1757812 0.3164062,-0.1796875 0.4804687,-0.4921875 0.1640625,-0.3164063 0.1640625,-0.7226563 z M 11.129219,0 H 9.7190623 v -0.56640625 q -0.296875,0.3203125 -0.625,0.48046875 -0.3242187,0.15625 -0.78125,0.15625 -0.9023437,0 -1.1679687,-0.5234375 -0.265625,-0.52734375 -0.265625,-1.1875 v -2.3359375 h 1.4101562 v 2.1484375 q 0,0.3242188 0.1054688,0.5703125 0.109375,0.2421875 0.46875,0.2421875 0.3085937,0 0.4882812,-0.1757812 0.1796875,-0.1757813 0.3671875,-0.4492188 v -2.3359375 h 1.4101567 z m 3.715156,-0.23046875 q -0.21875,0.10546875 -0.605469,0.203125 -0.382813,0.09765625 -0.734375,0.09765625 -1.519531,0 -1.519531,-1.484375 V -3 H 11.348281 V -3.2460938 L 13.235,-5.1679687 h 0.160156 v 1.1914062 h 1.34375 V -3 h -1.34375 v 1.2734375 q 0,0.2226563 0.02734,0.359375 0.02734,0.1367188 0.152343,0.2304688 0.128907,0.089844 0.386719,0.089844 0.335938,0 0.882813,-0.28125 z" id="text35" style="font-weight:700;font-size:8px;font-family:GillSans-Bold, 'Gill Sans';letter-spacing:-0.04em;fill:#ffffff" transform="translate(22.07 337.31) scale(.88 1)" aria-label="Out" />
    <path d="M 5.8710937,-4.0976562 H 3.8867188 V 0 H 2.2578125 v -4.0976562 h -1.984375 v -1.3164063 h 5.5976562 z m 3.6682811,0.3359374 -0.5195312,1.4101563 Q 8.6995311,-2.65625 8.3714061,-2.65625 q -0.296875,0 -0.515625,0.203125 -0.2148438,0.1992187 -0.4140625,0.7421875 V 0 h -1.40625 v -3.9765625 h 1.40625 v 0.9609375 q 0.1328125,-0.3554688 0.46875,-0.6914063 0.3359375,-0.3398437 0.7890625,-0.3398437 0.2382812,0 0.4140625,0.070312 0.1796875,0.070312 0.4257812,0.2148437 z m 1.1526562,-1.1328124 q 0,0.2460937 -0.175781,0.4179687 -0.175782,0.171875 -0.417969,0.171875 -0.1640626,0 -0.3007813,-0.078125 -0.1328125,-0.078125 -0.2109375,-0.2109375 -0.078125,-0.1367187 -0.078125,-0.3007812 0,-0.2421875 0.171875,-0.4179688 0.171875,-0.1757812 0.4179688,-0.1757812 0.242187,0 0.417969,0.1757812 0.175781,0.1757813 0.175781,0.4179688 z M 10.805312,0 H 9.3951559 v -3.9765625 h 1.4101561 z m 4.64875,-3.1289063 H 14.75875 q 0.367187,0.3203125 0.367187,0.7851563 0,0.2460937 -0.105468,0.4726563 -0.101563,0.2265625 -0.304688,0.4023437 -0.199219,0.1757813 -0.496094,0.2890625 -0.292968,0.109375 -0.671875,0.1328125 -0.488281,0.019531 -0.488281,0.26171875 0,0.09375 0.0625,0.13671875 0.0625,0.0429687 0.195313,0.0664063 0.136718,0.0195313 0.457031,0.046875 0.363281,0.03125 0.675781,0.109375 0.3125,0.078125 0.582031,0.328125 0.269532,0.25 0.269532,0.71484375 0,0.37109375 -0.203125,0.65625 -0.199219,0.2851562 -0.648438,0.4453125 -0.449219,0.1601562 -1.1875,0.1601562 -1.0625,0 -1.5625,-0.2851562 -0.496094,-0.2851563 -0.496094,-0.76171875 0,-0.12890625 0.0625,-0.296875 Q 11.332969,0.3671875 11.54,0.2109375 11.750937,0.0546875 12.149375,0 12.00875,-0.05078125 11.907187,-0.1953125 11.805625,-0.34375 11.805625,-0.50390625 q 0,-0.20703125 0.140625,-0.41015625 0.144531,-0.203125 0.464844,-0.2617187 -0.445313,-0.1171875 -0.769532,-0.4414063 -0.324218,-0.3242187 -0.324218,-0.8398438 0,-0.390625 0.148437,-0.6835937 0.152344,-0.2929688 0.417969,-0.4765625 0.265625,-0.1835938 0.617187,-0.2695313 0.351563,-0.089844 0.769532,-0.089844 h 2.183593 z m -1.554687,0.671875 q 0,-0.3007812 -0.207031,-0.4804687 -0.203125,-0.1835938 -0.457032,-0.1835938 -0.324218,0 -0.511718,0.21875 -0.183594,0.21875 -0.183594,0.4609375 0,0.1679688 0.07813,0.3125 0.08203,0.1445313 0.226562,0.2343751 0.148438,0.085937 0.351563,0.085937 0.304687,0 0.503906,-0.1914063 0.199219,-0.1914063 0.199219,-0.4570313 z m 0.28125,3.1992188 q 0,-0.26171875 -0.28125,-0.33984375 -0.277344,-0.0742188 -0.574219,-0.0742188 -0.488281,0 -0.707031,0.1015625 -0.214844,0.10546875 -0.214844,0.33203125 0,0.44531245 0.898438,0.44531245 0.402343,0 0.640625,-0.1171875 0.238281,-0.1132812 0.238281,-0.3476562 z m 5.457344,-3.8710938 h -0.695312 q 0.367187,0.3203125 0.367187,0.7851563 0,0.2460937 -0.105469,0.4726563 -0.101562,0.2265625 -0.304687,0.4023437 -0.199219,0.1757813 -0.496094,0.2890625 -0.292969,0.109375 -0.671875,0.1328125 -0.488281,0.019531 -0.488281,0.26171875 0,0.09375 0.0625,0.13671875 0.0625,0.0429687 0.195312,0.0664063 0.136719,0.0195313 0.457032,0.046875 0.363281,0.03125 0.675781,0.109375 0.3125,0.078125 0.582031,0.328125 0.269531,0.25 0.269531,0.71484375 0,0.37109375 -0.203125,0.65625 -0.199218,0.2851562 -0.648437,0.4453125 -0.449219,0.1601562 -1.1875,0.1601562 -1.0625,0 -1.5625,-0.2851562 -0.496094,-0.2851563 -0.496094,-0.76171875 0,-0.12890625 0.0625,-0.296875 Q 15.516875,0.3671875 15.723907,0.2109375 15.934844,0.0546875 16.333282,0 16.192657,-0.05078125 16.091094,-0.1953125 15.989532,-0.34375 15.989532,-0.50390625 q 0,-0.20703125 0.140625,-0.41015625 0.144531,-0.203125 0.464843,-0.2617187 -0.445312,-0.1171875 -0.769531,-0.4414063 -0.324219,-0.3242187 -0.324219,-0.8398438 0,-0.390625 0.148438,-0.6835937 0.152344,-0.2929688 0.417969,-0.4765625 0.265625,-0.1835938 0.617187,-0.2695313 0.351563,-0.089844 0.769531,-0.089844 h 2.183594 z m -1.554687,0.671875 q 0,-0.3007812 -0.207032,-0.4804687 -0.203125,-0.1835938 -0.457031,-0.1835938 -0.324219,0 -0.511719,0.21875 -0.183593,0.21875 -0.183593,0.4609375 0,0.1679688 0.07813,0.3125 0.08203,0.1445313 0.226562,0.2343751 0.148438,0.085937 0.351563,0.085937 0.304687,0 0.503906,-0.1914063 0.199219,-0.1914063 0.199219,-0.4570313 z m 0.28125,3.1992188 q 0,-0.26171875 -0.28125,-0.33984375 -0.277344,-0.0742188 -0.574219,-0.0742188 -0.488281,0 -0.707031,0.1015625 -0.214844,0.10546875 -0.214844,0.33203125 0,0.44531245 0.898437,0.44531245 0.402344,0 0.640625,-0.1171875 0.238282,-0.1132812 0.238282,-0.3476562 z M 23.9,-1.6484375 h -2.800782 q 0.08203,0.3632813 0.402344,0.59375 0.320313,0.23046875 0.726563,0.23046875 0.710937,0 1.570312,-0.39843745 v 0.8710937 q -0.308594,0.16015625 -0.75,0.29296875 -0.4375,0.12890625 -1.117187,0.12890625 -0.734375,0 -1.25,-0.2734375 -0.515625,-0.2734375 -0.773438,-0.7421875 -0.253906,-0.46875 -0.253906,-1.0625 0,-0.5859375 0.253906,-1.046875 0.257813,-0.4648438 0.773438,-0.7265625 0.515625,-0.265625 1.25,-0.265625 0.484375,0 0.933593,0.2109375 0.453125,0.2070312 0.742188,0.6835937 Q 23.9,-2.6796875 23.9,-1.9296875 Z M 22.579687,-2.34375 q 0,-0.3828125 -0.191406,-0.609375 -0.1875,-0.2304688 -0.542969,-0.2304688 -0.351562,0 -0.570312,0.234375 Q 21.060156,-2.71875 21.060156,-2.34375 Z M 27.7675,-3.7617188 27.247969,-2.3515625 Q 26.927656,-2.65625 26.599531,-2.65625 q -0.296875,0 -0.515625,0.203125 -0.214844,0.1992187 -0.414062,0.7421875 V 0 h -1.40625 v -3.9765625 h 1.40625 v 0.9609375 q 0.132812,-0.3554688 0.46875,-0.6914063 0.335937,-0.3398437 0.789062,-0.3398437 0.238281,0 0.414063,0.070312 0.179687,0.070312 0.425781,0.2148437 z" id="text36" style="font-weight:700;font-size:8px;font-family:GillSans-Bold, 'Gill Sans';letter-spacing:-0.04em" transform="translate(16.2 240.93) scale(.88 1)" aria-label="Trigger" />
  </g>
  <g /></svg>