<?xml version="1.0" encoding="UTF-8"?>
<svg id="svg56" xmlns="http://www.w3.org/2000/svg" width="57.6" height="369.62" xmlns:xlink="http://www.w3.org/1999/xlink" viewBox="0 0 57.6 369.62">
  <defs>
    <clipPath id="clippath">
      <rect x="14.9" y="32.98" width="27.8" height="25.62" style="fill: none;"/>
    </clipPath>
    <clipPath id="clippath-1">
      <rect x="14.9" y="32.98" width="27.8" height="25.62" style="fill: none;"/>
    </clipPath>
    <clipPath id="clippath-2">
      <rect x="14.9" y="115.12" width="27.8" height="25.62" style="fill: none;"/>
    </clipPath>
    <clipPath id="clippath-3">
      <rect x="14.9" y="115.12" width="27.8" height="25.62" style="fill: none;"/>
    </clipPath>
  </defs>
  <g id="faceplate">
    <g>
      <rect x=".13" y=".12" width="57.35" height="364" style="fill: #ededed;"/>
      <path d="M57.35.25v363.75H.25V.25h57.1M57.6,0H0v364.25h57.6V0h0Z" style="fill: #9d9d9e;"/>
    </g>
    <text transform="translate(14.23 357.06) scale(.82 1)" style="font-family: GillSans-Bold, &apos;Gill Sans&apos;; font-size: 11px; font-weight: 700;"><tspan x="0" y="0">DUCK</tspan></text>
    <g id="pips_-_fewest" data-name="pips - fewest">
      <g style="clip-path: url(#clippath);">
        <g style="clip-path: url(#clippath-1);">
          <path d="M34.49,35.76l.71-1.23c-1.74-.9-3.7-1.45-5.77-1.55v1.43c1.81.09,3.53.56,5.06,1.35"/>
          <path d="M39.29,40.1l1.23-.71c-1.09-1.69-2.53-3.14-4.22-4.22l-.71,1.23c1.48.96,2.74,2.22,3.7,3.7"/>
          <path d="M22.01,36.4l-.71-1.23c-1.69,1.09-3.14,2.53-4.22,4.22l1.23.71c.96-1.48,2.22-2.74,3.7-3.7"/>
          <path d="M41.27,46.25h1.43c-.09-2.07-.64-4.03-1.55-5.77l-1.23.71c.79,1.53,1.26,3.24,1.35,5.06"/>
          <path d="M28.17,34.41v-1.43c-2.07.09-4.03.64-5.77,1.55l.71,1.23c1.53-.79,3.24-1.26,5.06-1.35"/>
          <path d="M18.31,53.67l-1.23.71c1.09,1.69,2.53,3.14,4.22,4.22l.71-1.23c-1.48-.96-2.74-2.22-3.7-3.7"/>
          <path d="M35.59,57.38l.71,1.23c1.69-1.09,3.14-2.53,4.22-4.22l-1.23-.71c-.96,1.48-2.22,2.74-3.7,3.7"/>
          <path d="M41.27,47.52c-.09,1.81-.56,3.53-1.35,5.06l1.23.71c.9-1.74,1.45-3.7,1.55-5.77h-1.43Z"/>
          <path d="M16.33,47.52h-1.43c.09,2.07.64,4.03,1.55,5.77l1.23-.71c-.79-1.53-1.26-3.24-1.35-5.06"/>
          <path d="M17.68,41.2l-1.23-.71c-.9,1.74-1.45,3.7-1.55,5.77h1.43c.09-1.81.56-3.53,1.35-5.06"/>
        </g>
      </g>
    </g>
    <g id="pips_-_fewest-2" data-name="pips - fewest">
      <g style="clip-path: url(#clippath-2);">
        <g style="clip-path: url(#clippath-3);">
          <path d="M34.49,117.9l.71-1.23c-1.74-.9-3.7-1.45-5.77-1.55v1.43c1.81.09,3.53.56,5.06,1.35"/>
          <path d="M39.29,122.23l1.23-.71c-1.09-1.69-2.53-3.14-4.22-4.22l-.71,1.23c1.48.96,2.74,2.22,3.7,3.7"/>
          <path d="M22.01,118.53l-.71-1.23c-1.69,1.09-3.14,2.53-4.22,4.22l1.23.71c.96-1.48,2.22-2.74,3.7-3.7"/>
          <path d="M41.27,128.39h1.43c-.09-2.07-.64-4.03-1.55-5.77l-1.23.71c.79,1.53,1.26,3.24,1.35,5.06"/>
          <path d="M28.17,116.55v-1.43c-2.07.09-4.03.64-5.77,1.55l.71,1.23c1.53-.79,3.24-1.26,5.06-1.35"/>
          <path d="M18.31,135.81l-1.23.71c1.09,1.69,2.53,3.14,4.22,4.22l.71-1.23c-1.48-.96-2.74-2.22-3.7-3.7"/>
          <path d="M35.59,139.51l.71,1.23c1.69-1.09,3.14-2.53,4.22-4.22l-1.23-.71c-.96,1.48-2.22,2.74-3.7,3.7"/>
          <path d="M41.27,129.65c-.09,1.81-.56,3.53-1.35,5.06l1.23.71c.9-1.74,1.45-3.7,1.55-5.77h-1.43Z"/>
          <path d="M16.33,129.65h-1.43c.09,2.07.64,4.03,1.55,5.77l1.23-.71c-.79-1.53-1.26-3.24-1.35-5.06"/>
          <path d="M17.68,123.33l-1.23-.71c-.9,1.74-1.45,3.7-1.55,5.77h1.43c.09-1.81.56-3.53,1.35-5.06"/>
        </g>
      </g>
    </g>
    <text transform="translate(18 69.94) scale(.88 1)" style="font-family: GillSans-Bold, &apos;Gill Sans&apos;; font-size: 10px; font-weight: 700; letter-spacing: -.04em;"><tspan x="0" y="0">Pitch</tspan></text>
    <text transform="translate(15.94 152.04) scale(.88 1)" style="font-family: GillSans-Bold, &apos;Gill Sans&apos;; font-size: 10px; font-weight: 700; letter-spacing: -.04em;"><tspan x="0" y="0">Decay</tspan></text>
    <g>
      <path d="M20.6,18.07c-.37,0-.71-.17-.97-.47-.51-.6-.52-1.54-.04-2.16l6.97-8.88c.38-.48,1.05-.65,1.57-.39.5.25.79.82.79,1.45v4.77l4.64-5.85c.38-.48,1.01-.64,1.53-.38.5.25.83.81.83,1.44v8.82c0,.86-.61,1.57-1.36,1.57s-1.36-.7-1.36-1.57v-4.79l-4.64,5.85c-.38.48-1.01.64-1.54.38-.5-.24-.83-.81-.83-1.44v-4.67l-4.61,5.8c-.26.32-.62.51-1,.51h0Z" style="fill: #2cabe1;"/>
      <path d="M20.6,18.07c-.75,0-1.35-.7-1.35-1.57v-4.93l-2.26,2.84c-.5.63-1.44.65-1.97.04-.51-.6-.52-1.53-.03-2.15l4.61-5.76c.26-.32.63-.5,1-.5.18,0,.37.04.54.12.5.25.82.81.82,1.44v8.89c0,.86-.61,1.57-1.36,1.57h0Z" style="fill: #ea2228;"/>
      <path d="M37.2,18.09h0c-.35,0-.68-.15-.94-.42-.76-.78-.14-1.84.29-2.3l1.95-2.36-1.26-.02c-.56-.01-1.04-.4-1.24-1-.19-.56-.07-1.21.29-1.64l3.16-3.83c.23-.28.55-.48,1.13-.47.33,0,.67.17.92.4.71.66.29,1.7-.07,2.2l-1.04,1.26,1.26.02c.56.01,1.04.4,1.24,1,.19.56.07,1.21-.29,1.64l-4.1,4.97c-.35.35-.65.55-1.3.54h0Z" style="fill: #00a650;"/>
    </g>
    <line x1="28.8" y1="73.19" x2="28.8" y2="92.19" style="fill: #fff; stroke: #231f20; stroke-miterlimit: 10;"/>
    <line x1="28.8" y1="155.3" x2="28.8" y2="174.3" style="fill: #fff; stroke: #231f20; stroke-miterlimit: 10;"/>
    <text transform="translate(19.54 289.12) scale(.88 1)" style="font-family: GillSans-Bold, &apos;Gill Sans&apos;; font-size: 8px; font-weight: 700; letter-spacing: -.04em;"><tspan x="0" y="0">Input</tspan></text>
    <text transform="translate(22.07 337.31) scale(.88 1)" style="fill: #fff; font-family: GillSans-Bold, &apos;Gill Sans&apos;; font-size: 8px; font-weight: 700; letter-spacing: -.04em;"><tspan x="0" y="0">Out</tspan></text>
    <text transform="translate(16.2 240.93) scale(.88 1)" style="font-family: GillSans-Bold, &apos;Gill Sans&apos;; font-size: 8px; font-weight: 700; letter-spacing: -.04em;"><tspan x="0" y="0">Trigger</tspan></text>
    <g>
      <path d="M13.08,324.44v-110.18c0-8.03,6.98-14.54,15.59-14.54s15.59,6.51,15.59,14.54v110.18H13.08Z" style="fill: #d1d3d4;"/>
      <path d="M44.27,310.67c0-8.05-6.98-14.57-15.59-14.57s-15.59,6.53-15.59,14.57v5.36s0,0,0,0v19.77c0,3.11,2.55,5.65,5.67,5.65h19.84c3.12,0,5.67-2.54,5.67-5.65v-19.77s0,0,0,0v-5.35Z" style="fill: #d1d3d4;"/>
    </g>
    <path d="M44.27,310.67c0-8.05-6.98-14.57-15.59-14.57s-15.59,6.53-15.59,14.57v5.36s0,0,0,0v19.77c0,3.11,2.55,5.65,5.67,5.65h19.84c3.12,0,5.67-2.54,5.67-5.65v-19.77s0,0,0,0v-5.35Z"/>
    <text transform="translate(19.54 289.12) scale(.88 1)" style="font-family: GillSans-Bold, &apos;Gill Sans&apos;; font-size: 8px; font-weight: 700; letter-spacing: -.04em;"><tspan x="0" y="0">Input</tspan></text>
    <text transform="translate(22.07 337.31) scale(.88 1)" style="fill: #fff; font-family: GillSans-Bold, &apos;Gill Sans&apos;; font-size: 8px; font-weight: 700; letter-spacing: -.04em;"><tspan x="0" y="0">Out</tspan></text>
    <text transform="translate(16.2 240.93) scale(.88 1)" style="font-family: GillSans-Bold, &apos;Gill Sans&apos;; font-size: 8px; font-weight: 700; letter-spacing: -.04em;"><tspan x="0" y="0">Trigger</tspan></text>
  </g>
  <g id="components">
    <circle id="Out" cx="28.68" cy="313.71" r="11.34" style="fill: blue;"/>
    <circle id="Input" cx="28.68" cy="264.91" r="11.34" style="fill: lime;"/>
    <circle id="Trigger" cx="28.68" cy="216.73" r="11.34" style="fill: #80ff80;"/>
    <circle id="Decay_CV" data-name="Decay CV" cx="28.8" cy="177.04" r="11.34" style="fill: lime;"/>
    <circle id="Decay" cx="28.8" cy="128.85" r="8.5" style="fill: #ff0020;"/>
    <circle id="Pitch_CV" data-name="Pitch CV" cx="28.8" cy="94.84" r="11.34" style="fill: lime;"/>
    <circle id="Pitch" cx="28.8" cy="46.65" r="8.5" style="fill: #ff0080;"/>
    <text id="slug" transform="translate(21.32 368.87)" style="fill: #010101; font-family: MyriadPro-Regular, &apos;Myriad Pro&apos;; font-size: 3px;"><tspan x="0" y="0" style="letter-spacing: 0em;">D</tspan><tspan x="2.01" y="0">uck</tspan></text>
    <text id="modulename" transform="translate(29.88 368.87)" style="fill: #010101; font-family: MyriadPro-Regular, &apos;Myriad Pro&apos;; font-size: 3px;"><tspan x="0" y="0" style="letter-spacing: 0em;">D</tspan><tspan x="2.01" y="0">uc</tspan><tspan x="5" y="0" style="letter-spacing: .02em;">k</tspan><tspan x="6.46" y="0">ing </tspan><tspan x="11.14" y="0" style="letter-spacing: 0em;">M</tspan><tspan x="13.57" y="0">odule</tspan></text>
  </g>
</svg>