<svg xmlns="http://www.w3.org/2000/svg" xmlns:inkscape="http://www.inkscape.org/namespaces/inkscape" xmlns:sodipodi="http://sodipodi.sourceforge.net/DTD/sodipodi-0.dtd" width="20.320108mm" height="128.5mm" viewBox="0 0 76.800412 485.66929" version="1.1" id="svg28" sodipodi:docname="Maraca_info.svg" inkscape:version="1.4 (e7c3feb1, 2024-10-09)">
  <sodipodi:namedview id="namedview28" pagecolor="#ffffff" bordercolor="#000000" borderopacity="0.25" inkscape:showpageshadow="2" inkscape:pageopacity="0.0" inkscape:pagecheckerboard="0" inkscape:deskcolor="#d1d1d1" inkscape:zoom="2.070929" inkscape:cx="139.30946" inkscape:cy="189.28703" inkscape:window-width="1920" inkscape:window-height="1027" inkscape:window-x="2240" inkscape:window-y="271" inkscape:window-maximized="0" inkscape:current-layer="components" inkscape:document-units="mm" />
  <defs id="defs2">
    <clipPath id="clippath">
      <rect x="14.9" y="32.98" width="27.799999" height="25.620001" style="fill:none" id="rect1" />
    </clipPath>
    <clipPath id="clippath-1">
      <rect x="14.9" y="32.98" width="27.799999" height="25.620001" style="fill:none" id="rect2" />
    </clipPath>
  </defs>
  <g id="faceplate" transform="scale(1.3333405)">
    <g id="g3">
      <rect x="0.13" y="0.13" width="57.349998" height="364" style="fill:#ededed" id="rect3" />
      <path d="M 57.35,0.25 V 364 H 0.25 V 0.25 h 57.1 M 57.6,0 H 0 v 364.25 h 57.6 z" style="fill:#9d9d9e" id="path3" />
    </g>
    <path d="m 44.27,252.93829 c 0,-8.05 -6.98,-14.57 -15.59,-14.57 -8.61,0 -15.59,6.53 -15.59,14.57 v 54.4 c 0,0 0,0 0,0 v 19.77 c 0,3.11 2.55,5.65 5.67,5.65 H 38.6 c 3.12,0 5.67,-2.54 5.67,-5.65 v -19.77 c 0,0 0,0 0,0 v -54.39 z" style="fill:#d1d3d4" id="path4" />
    <path d="m 44.27,301.97829 c 0,-8.05 -6.98,-14.57 -15.59,-14.57 -8.61,0 -15.59,6.53 -15.59,14.57 v 5.36 c 0,0 0,0 0,0 v 19.77 c 0,3.11 2.55,5.65 5.67,5.65 H 38.6 c 3.12,0 5.67,-2.54 5.67,-5.65 v -19.77 c 0,0 0,0 0,0 v -5.35 z" id="path5" />
    <path d="m 21.366562,276.33064 h -1.746249 v 4.09765 h -1.433438 v -4.09765 h -1.74625 v -1.31641 h 4.925937 z m 3.228088,0.33594 -0.457188,1.41015 q -0.281875,-0.30469 -0.570625,-0.30469 -0.26125,0 -0.45375,0.20313 -0.189062,0.19922 -0.364375,0.74219 v 1.71093 h -1.2375 v -3.97656 h 1.2375 v 0.96094 q 0.116875,-0.35547 0.4125,-0.69141 0.295625,-0.33984 0.694375,-0.33984 0.209688,0 0.364375,0.0703 0.158125,0.0703 0.374688,0.21485 z m 1.014337,-1.13282 q 0,0.2461 -0.154687,0.41797 -0.154688,0.17188 -0.367813,0.17188 -0.144375,0 -0.264687,-0.0781 -0.116875,-0.0781 -0.185625,-0.21094 -0.06875,-0.13671 -0.06875,-0.30078 0,-0.24218 0.15125,-0.41797 0.15125,-0.17578 0.367812,-0.17578 0.213125,0 0.367813,0.17578 0.154687,0.17579 0.154687,0.41797 z m 0.09969,4.89453 h -1.240938 v -3.97656 h 1.240938 z m 4.0909,-3.1289 H 29.1877 q 0.323125,0.32031 0.323125,0.78515 0,0.2461 -0.09281,0.47266 -0.08938,0.22656 -0.268126,0.40234 -0.175312,0.17579 -0.436562,0.28907 -0.257812,0.10937 -0.59125,0.13281 -0.429688,0.0195 -0.429688,0.26172 0,0.0937 0.055,0.13672 0.055,0.043 0.171876,0.0664 0.120312,0.0195 0.402187,0.0469 0.319687,0.0312 0.594687,0.10937 0.275,0.0781 0.512188,0.32813 0.237188,0.25 0.237188,0.71484 0,0.3711 -0.17875,0.65625 -0.175313,0.28516 -0.570626,0.44532 -0.395312,0.16015 -1.045,0.16015 -0.935,0 -1.375,-0.28515 -0.436562,-0.28516 -0.436562,-0.76172 0,-0.12891 0.055,-0.29688 0.05844,-0.16797 0.240625,-0.32422 0.185625,-0.15625 0.53625,-0.21094 -0.12375,-0.0508 -0.213125,-0.19531 -0.08938,-0.14844 -0.08938,-0.30859 0,-0.20703 0.12375,-0.41016 0.127187,-0.20312 0.409063,-0.26172 -0.391876,-0.11718 -0.677188,-0.4414 -0.285312,-0.32422 -0.285312,-0.83985 0,-0.39062 0.130624,-0.68359 0.134063,-0.29297 0.367813,-0.47656 0.23375,-0.1836 0.543125,-0.26953 0.309375,-0.0899 0.677188,-0.0899 h 1.921562 z m -1.368125,0.67187 q 0,-0.30078 -0.182187,-0.48047 -0.17875,-0.18359 -0.402188,-0.18359 -0.285312,0 -0.450312,0.21875 -0.161563,0.21875 -0.161563,0.46094 0,0.16797 0.06875,0.3125 0.07219,0.14453 0.199375,0.23437 0.130625,0.0859 0.309375,0.0859 0.268125,0 0.443438,-0.19141 0.175312,-0.1914 0.175312,-0.45703 z m 0.2475,3.19922 q 0,-0.26172 -0.2475,-0.33984 -0.244063,-0.0742 -0.505313,-0.0742 -0.429687,0 -0.622187,0.10156 -0.189063,0.10547 -0.189063,0.33203 0,0.44532 0.790626,0.44532 0.354062,0 0.56375,-0.11719 0.209687,-0.11328 0.209687,-0.34766 z m 4.802463,-3.87109 H 32.86954 q 0.323125,0.32031 0.323125,0.78515 0,0.2461 -0.09281,0.47266 -0.08938,0.22656 -0.268125,0.40234 -0.175312,0.17579 -0.436562,0.28907 -0.257813,0.10937 -0.59125,0.13281 -0.429688,0.0195 -0.429688,0.26172 0,0.0937 0.055,0.13672 0.055,0.043 0.171875,0.0664 0.120313,0.0195 0.402188,0.0469 0.319687,0.0312 0.594687,0.10937 0.275,0.0781 0.512188,0.32813 0.237187,0.25 0.237187,0.71484 0,0.3711 -0.17875,0.65625 -0.175312,0.28516 -0.570625,0.44532 -0.395312,0.16015 -1.045,0.16015 -0.935,0 -1.375,-0.28515 -0.436562,-0.28516 -0.436562,-0.76172 0,-0.12891 0.055,-0.29688 0.05844,-0.16797 0.240625,-0.32422 0.185625,-0.15625 0.53625,-0.21094 -0.12375,-0.0508 -0.213125,-0.19531 -0.08938,-0.14844 -0.08938,-0.30859 0,-0.20703 0.12375,-0.41016 0.127187,-0.20312 0.409062,-0.26172 -0.391875,-0.11718 -0.677187,-0.4414 -0.285313,-0.32422 -0.285313,-0.83985 0,-0.39062 0.130625,-0.68359 0.134063,-0.29297 0.367813,-0.47656 0.23375,-0.1836 0.543125,-0.26953 0.309375,-0.0899 0.677187,-0.0899 h 1.921563 z m -1.368125,0.67187 q 0,-0.30078 -0.182188,-0.48047 -0.17875,-0.18359 -0.402187,-0.18359 -0.285313,0 -0.450313,0.21875 -0.161562,0.21875 -0.161562,0.46094 0,0.16797 0.06875,0.3125 0.07219,0.14453 0.199374,0.23437 0.130626,0.0859 0.309376,0.0859 0.268124,0 0.443437,-0.19141 0.175313,-0.1914 0.175313,-0.45703 z m 0.2475,3.19922 q 0,-0.26172 -0.2475,-0.33984 -0.244063,-0.0742 -0.505313,-0.0742 -0.429687,0 -0.622187,0.10156 -0.189063,0.10547 -0.189063,0.33203 0,0.44532 0.790625,0.44532 0.354063,0 0.56375,-0.11719 0.209688,-0.11328 0.209688,-0.34766 z m 4.87121,-2.39062 h -2.464688 q 0.07219,0.36328 0.354063,0.59375 0.281875,0.23047 0.639375,0.23047 0.625625,0 1.381875,-0.39844 v 0.87109 q -0.271563,0.16016 -0.66,0.29297 -0.385,0.12891 -0.983125,0.12891 -0.64625,0 -1.1,-0.27344 -0.45375,-0.27344 -0.680625,-0.74219 -0.223438,-0.46875 -0.223438,-1.0625 0,-0.58594 0.223438,-1.04687 0.226875,-0.46485 0.680625,-0.72657 0.45375,-0.26562 1.1,-0.26562 0.42625,0 0.821562,0.21094 0.39875,0.20703 0.653125,0.68359 0.257813,0.47266 0.257813,1.22266 z m -1.161875,-0.69532 q 0,-0.38281 -0.168438,-0.60937 -0.165,-0.23047 -0.477812,-0.23047 -0.309375,0 -0.501875,0.23438 -0.189063,0.23046 -0.189063,0.60546 z m 4.565275,-1.41796 -0.457187,1.41015 q -0.281876,-0.30469 -0.570626,-0.30469 -0.26125,0 -0.45375,0.20313 -0.189062,0.19922 -0.364374,0.74219 v 1.71093 h -1.2375 v -3.97656 h 1.2375 v 0.96094 q 0.116874,-0.35547 0.4125,-0.69141 0.295624,-0.33984 0.694374,-0.33984 0.209688,0 0.364376,0.0703 0.158124,0.0703 0.374687,0.21485 z" id="text5" style="font-weight:700;font-size:8px;font-family:GillSans-Bold, 'Gill Sans';letter-spacing:-0.04em;stroke-width:0.938083" aria-label="Trigger" />
    <path d="m 27.765937,325.90736 q 0,0.75781 -0.309375,1.39453 -0.305937,0.63672 -0.914375,1.01172 -0.608437,0.375 -1.481562,0.375 -0.883437,0 -1.495313,-0.39063 -0.611875,-0.39062 -0.910937,-1.02734 -0.295625,-0.63672 -0.295625,-1.36328 0,-0.73047 0.295625,-1.36328 0.295625,-0.63672 0.9075,-1.02344 0.615313,-0.39063 1.49875,-0.39063 0.66,0 1.175625,0.22266 0.519062,0.22266 0.8525,0.60547 0.333437,0.3789 0.505312,0.88672 0.171875,0.5039 0.171875,1.0625 z m -1.464375,0 q 0,-0.30469 -0.07906,-0.55469 -0.07906,-0.25391 -0.240625,-0.4375 -0.158125,-0.1875 -0.388438,-0.28906 -0.230312,-0.10547 -0.532812,-0.10547 -0.5775,0 -0.9075,0.38281 -0.33,0.38281 -0.33,1.00391 0,0.62109 0.33,1.00781 0.333437,0.38281 0.9075,0.38281 0.395312,0 0.67375,-0.17578 0.278437,-0.17969 0.422812,-0.49219 0.144375,-0.3164 0.144375,-0.72265 z m 5.562151,2.71093 h -1.240938 v -0.5664 q -0.26125,0.32031 -0.55,0.48047 -0.285313,0.15625 -0.6875,0.15625 -0.794063,0 -1.027813,-0.52344 -0.23375,-0.52734 -0.23375,-1.1875 v -2.33594 h 1.240938 v 2.14844 q 0,0.32422 0.09281,0.57031 0.09625,0.24219 0.4125,0.24219 0.271563,0 0.429688,-0.17578 0.158125,-0.17578 0.323125,-0.44922 v -2.33594 h 1.240938 z m 3.269337,-0.23046 q -0.1925,0.10546 -0.532813,0.20312 -0.336875,0.0977 -0.64625,0.0977 -1.337187,0 -1.337187,-1.48438 v -1.58594 h -0.560313 v -0.24609 l 1.660313,-1.92187 h 0.140937 v 1.1914 h 1.1825 v 0.97656 h -1.1825 v 1.27344 q 0,0.22266 0.02406,0.35938 0.02406,0.13672 0.134062,0.23047 0.113438,0.0898 0.340313,0.0898 0.295625,0 0.776875,-0.28125 z" id="text6" style="font-weight:700;font-size:8px;font-family:GillSans-Bold, 'Gill Sans';letter-spacing:-0.04em;fill:#ffffff;stroke-width:0.938083" aria-label="Out" />
    <g id="pips_-_fewest" data-name="pips - fewest">
      <g clip-path="url(#clippath)" id="g16">
        <g clip-path="url(#clippath-1)" id="g15">
          <path d="m 34.49,35.76 0.71,-1.23 c -1.74,-0.9 -3.7,-1.45 -5.77,-1.55 v 1.43 c 1.81,0.09 3.53,0.56 5.06,1.35" id="path6" />
          <path d="m 39.29,40.1 1.23,-0.71 C 39.43,37.7 37.99,36.25 36.3,35.17 l -0.71,1.23 c 1.48,0.96 2.74,2.22 3.7,3.7" id="path7" />
          <path d="M 22.01,36.4 21.3,35.17 c -1.69,1.09 -3.14,2.53 -4.22,4.22 l 1.23,0.71 c 0.96,-1.48 2.22,-2.74 3.7,-3.7" id="path8" />
          <path d="m 41.27,46.25 h 1.43 c -0.09,-2.07 -0.64,-4.03 -1.55,-5.77 l -1.23,0.71 c 0.79,1.53 1.26,3.24 1.35,5.06" id="path9" />
          <path d="m 28.17,34.41 v -1.43 c -2.07,0.09 -4.03,0.64 -5.77,1.55 l 0.71,1.23 c 1.53,-0.79 3.24,-1.26 5.06,-1.35" id="path10" />
          <path d="m 18.31,53.67 -1.23,0.71 c 1.09,1.69 2.53,3.14 4.22,4.22 l 0.71,-1.23 c -1.48,-0.96 -2.74,-2.22 -3.7,-3.7" id="path11" />
          <path d="m 35.59,57.38 0.71,1.23 c 1.69,-1.09 3.14,-2.53 4.22,-4.22 l -1.23,-0.71 c -0.96,1.48 -2.22,2.74 -3.7,3.7" id="path12" />
          <path d="m 41.27,47.52 c -0.09,1.81 -0.56,3.53 -1.35,5.06 l 1.23,0.71 c 0.9,-1.74 1.45,-3.7 1.55,-5.77 z" id="path13" />
          <path d="M 16.33,47.52 H 14.9 c 0.09,2.07 0.64,4.03 1.55,5.77 l 1.23,-0.71 c -0.79,-1.53 -1.26,-3.24 -1.35,-5.06" id="path14" />
          <path d="m 17.68,41.2 -1.23,-0.71 c -0.9,1.74 -1.45,3.7 -1.55,5.77 h 1.43 c 0.09,-1.81 0.56,-3.53 1.35,-5.06" id="path15" />
        </g>
      </g>
    </g>
    <path d="m 7.8076172,-3.2617188 q 0,1.0400391 -0.3808594,1.6699219 Q 7.0507812,-0.96191406 6.5380859,-0.57128906 5.8105469,0 4.5019531,0 H 0.84960938 V -6.7675781 H 3.6621094 q 0.6347656,0 1.0839843,0.068359 0.4541016,0.063477 0.8154297,0.1855468 0.3613282,0.1171875 0.6152344,0.2685547 0.2539063,0.1464844 0.4541016,0.3173828 0.3466797,0.2832032 0.6054687,0.6689453 0.2636719,0.3857422 0.4150391,0.8935547 0.15625,0.5078125 0.15625,1.103516 z m -2.0751953,-0.087891 q 0,-0.8251953 -0.3173828,-1.2841797 -0.3125,-0.4638671 -0.756836,-0.6201171 -0.4394531,-0.15625 -0.8984375,-0.15625 H 2.890625 v 4.008789 h 0.8691406 q 0.8007813,0 1.3867188,-0.3808594 0.5859375,-0.3808593 0.5859375,-1.5673828 z m 7.7445311,1.2890625 H 9.9759765 q 0.1025395,0.4541016 0.5029295,0.7421875 0.400391,0.288086 0.908203,0.288086 0.888672,0 1.962891,-0.4980469 v 1.08886717 q -0.385742,0.20019532 -0.9375,0.36621094 -0.546875,0.16113281 -1.396484,0.16113281 -0.917969,0 -1.5625005,-0.34179687 Q 8.8089843,-0.59570352 8.4867187,-1.181641 8.1693358,-1.7675785 8.1693358,-2.509766 q 0,-0.7324219 0.3173829,-1.3085938 0.3222656,-0.5810547 0.9667968,-0.9082031 0.6445315,-0.3320312 1.5625005,-0.3320312 0.605468,0 1.166992,0.2636718 0.566406,0.2587891 0.927734,0.8544922 0.366211,0.5908203 0.366211,1.5283203 z m -1.650391,-0.8691406 q 0,-0.4785156 -0.239257,-0.7617188 -0.234375,-0.2880859 -0.678711,-0.2880859 -0.439453,0 -0.712891,0.2929688 -0.2685547,0.2880859 -0.2685547,0.7568359 z m 6.372461,2.70019531 q -0.219726,0.0830078 -0.463867,0.15625 -0.244141,0.06835938 -0.551758,0.11230469 -0.302734,0.04882812 -0.664062,0.04882812 -0.81543,0 -1.381836,-0.27343749 Q 14.575976,-0.46386719 14.268359,-0.87890625 13.965625,-1.2988281 13.848437,-1.7333984 13.73125,-2.1679688 13.73125,-2.5 q 0,-0.3320313 0.117187,-0.7666016 0.122071,-0.4345703 0.419922,-0.8398437 0.297852,-0.4052734 0.859375,-0.6787109 0.566406,-0.2734375 1.391602,-0.2734375 0.551758,0 0.898437,0.078125 0.34668,0.078125 0.703125,0.2099609 v 1.3818359 q -0.859375,-0.2734375 -1.342773,-0.2734375 -0.46875,0 -0.834961,0.2832031 -0.361328,0.2832032 -0.361328,0.8789063 0,0.3955078 0.180664,0.6689453 0.180664,0.2685547 0.458984,0.3955078 0.27832,0.1269532 0.556641,0.1269532 0.263672,0 0.600586,-0.078125 0.336914,-0.078125 0.820312,-0.2246094 z m 5.610742,-0.0195313 q -0.385742,0.15136719 -0.712891,0.24414063 -0.327148,0.09277343 -0.786133,0.09277343 -0.43457,0 -0.605468,-0.15136718 -0.170899,-0.15625 -0.244141,-0.37597657 -0.283203,0.22949219 -0.629883,0.38085938 -0.346679,0.14648437 -0.908203,0.14648437 -0.541992,0 -0.878906,-0.18554687 -0.332031,-0.19042969 -0.46875,-0.47363281 -0.131836,-0.28808594 -0.131836,-0.59082039 0,-0.4589843 0.229492,-0.7568359 0.234375,-0.3027344 0.625,-0.4931641 0.390625,-0.1904297 1.035156,-0.3955078 0.366211,-0.1171875 0.551758,-0.1757812 0.19043,-0.063477 0.283203,-0.097656 0.09277,-0.03418 0.195313,-0.087891 0,-0.3613281 -0.146485,-0.5664063 -0.146484,-0.2050781 -0.634765,-0.2050781 -0.576172,0 -1.069336,0.2539063 -0.493164,0.2539062 -0.90332,0.6542968 v -1.3476561 q 0.327148,-0.234375 0.708007,-0.3808595 0.38086,-0.1513672 0.795899,-0.2246094 0.415039,-0.073242 0.839844,-0.073242 1.079101,0 1.621093,0.4199218 0.546875,0.415039 0.546875,1.1474609 v 1.9189453 q 0,0.2734375 0.04883,0.4101562 0.05371,0.131836 0.19043,0.131836 0.166016,0 0.449219,-0.1416016 z M 21.363476,-1.2011719 v -1.1767578 q -0.625,0.2539063 -0.913086,0.4589844 -0.288086,0.2001953 -0.288086,0.546875 0,0.2490234 0.141601,0.38085936 0.146485,0.13183594 0.336915,0.13183594 0.180664,0 0.356445,-0.0976563 0.180664,-0.1025391 0.366211,-0.2441406 z m 7.925195,-3.7695312 -3.378906,7.2314453 h -1.777344 l 1.367188,-2.91015626 -1.967773,-4.32128904 h 1.889648 L 26.432226,-2.5 27.579687,-4.9707031 Z" id="text16" style="font-weight:700;font-size:10px;font-family:GillSans-Bold, 'Gill Sans';letter-spacing:-0.04em" transform="matrix(0.88,0,0,1,15.97,68.64)" aria-label="Decay" />
    <path d="m 21.866074,348.36829 h -1.840996 v -4.31298 l -1.66042,2.49756 h -0.145342 l -1.664824,-2.49756 v 4.31298 h -1.788144 v -7.44433 h 1.669228 l 1.876231,2.79297 1.885039,-2.79297 h 1.669228 z m 7.45207,0 h -1.977529 l -0.480068,-1.32128 q -0.264258,-0.7251 -0.475664,-1.05811 -0.211407,-0.33838 -0.414004,-0.42969 -0.198193,-0.0967 -0.515303,-0.0967 h -0.207002 v 2.90576 h -1.840996 v -7.44433 h 3.131455 q 0.757539,0 1.242012,0.37598 0.484473,0.37597 0.695879,0.91308 0.215811,0.53711 0.215811,1.02051 0,0.56396 -0.180577,0.95605 -0.176172,0.38672 -0.374365,0.56397 -0.198193,0.17724 -0.444834,0.33838 0.295088,0.20947 0.484473,0.49951 0.193789,0.28467 0.524111,1.16016 z m -2.50164,-5.09179 q 0,-0.51563 -0.277471,-0.71973 -0.277471,-0.2041 -0.90288,-0.2041 h -0.387579 v 1.79395 h 0.396387 q 0.673857,0 0.920498,-0.17725 0.251045,-0.18262 0.251045,-0.69287 z m 8.804189,4.5332 q -0.378769,0.2417 -0.775156,0.38672 -0.396387,0.14502 -0.801582,0.2041 -0.400791,0.0645 -0.832412,0.0645 -0.797178,0 -1.431397,-0.26855 -0.629814,-0.26855 -1.09667,-0.78955 -0.462451,-0.52637 -0.695879,-1.22461 -0.229023,-0.70361 -0.229023,-1.5415 0,-0.96143 0.273066,-1.68116 0.273067,-0.72509 0.761944,-1.20312 0.493281,-0.47803 1.118691,-0.70361 0.629815,-0.23096 1.325693,-0.23096 1.039415,0 2.3563,0.56396 v 1.97657 q -0.453643,-0.34375 -0.898477,-0.56934 -0.44043,-0.23096 -1.039414,-0.23096 -0.53292,0 -0.995371,0.25782 -0.462452,0.25781 -0.744327,0.73583 -0.281875,0.47803 -0.281875,1.11719 0,0.56397 0.246642,1.03662 0.24664,0.46729 0.682665,0.74659 0.44043,0.27392 0.990967,0.27392 0.444834,0 0.841221,-0.1289 0.396387,-0.13428 0.665048,-0.29542 0.273067,-0.16113 0.559346,-0.38134 z m 7.940947,0.55859 h -1.885039 l -0.497685,-1.50927 h -2.651387 l -0.506494,1.50927 h -1.885039 l 2.699834,-7.44433 h 2.034785 z m -2.805536,-2.80371 -0.894073,-2.71777 -0.902881,2.71777 z" id="text17" style="font-weight:700;font-size:11px;font-family:GillSans-Bold, 'Gill Sans';stroke-width:0.905538" aria-label="MRCA" />
    <line x1="28.799999" y1="71.190002" x2="28.799999" y2="92.190002" style="fill:#ffffff;stroke:#231f20;stroke-miterlimit:10" id="line17" />
    <g id="g19" transform="translate(0.36215438,8.6917051)">
      <path d="m 20.6,18.07 c -0.37,0 -0.71,-0.17 -0.97,-0.47 -0.51,-0.6 -0.52,-1.54 -0.04,-2.16 l 6.97,-8.88 c 0.38,-0.48 1.05,-0.65 1.57,-0.39 0.5,0.25 0.79,0.82 0.79,1.45 v 4.77 l 4.64,-5.85 c 0.38,-0.48 1.01,-0.64 1.53,-0.38 0.5,0.25 0.83,0.81 0.83,1.44 v 8.82 c 0,0.86 -0.61,1.57 -1.36,1.57 -0.75,0 -1.36,-0.7 -1.36,-1.57 v -4.79 l -4.64,5.85 c -0.38,0.48 -1.01,0.64 -1.54,0.38 -0.5,-0.24 -0.83,-0.81 -0.83,-1.44 v -4.67 l -4.61,5.8 c -0.26,0.32 -0.62,0.51 -1,0.51 v 0 z" style="fill:#2cabe1" id="path17" />
      <path d="m 20.6,18.07 c -0.75,0 -1.35,-0.7 -1.35,-1.57 v -4.93 l -2.26,2.84 c -0.5,0.63 -1.44,0.65 -1.97,0.04 -0.51,-0.6 -0.52,-1.53 -0.03,-2.15 L 19.6,6.54 c 0.26,-0.32 0.63,-0.5 1,-0.5 0.18,0 0.37,0.04 0.54,0.12 0.5,0.25 0.82,0.81 0.82,1.44 v 8.89 c 0,0.86 -0.61,1.57 -1.36,1.57 v 0 z" style="fill:#ea2228" id="path18" />
      <path d="m 37.2,18.09 v 0 c -0.35,0 -0.68,-0.15 -0.94,-0.42 -0.76,-0.78 -0.14,-1.84 0.29,-2.3 l 1.95,-2.36 -1.26,-0.02 c -0.56,-0.01 -1.04,-0.4 -1.24,-1 -0.19,-0.56 -0.07,-1.21 0.29,-1.64 L 39.45,6.52 C 39.68,6.24 40,6.04 40.58,6.05 c 0.33,0 0.67,0.17 0.92,0.4 0.71,0.66 0.29,1.7 -0.07,2.2 l -1.04,1.26 1.26,0.02 c 0.56,0.01 1.04,0.4 1.24,1 0.19,0.56 0.07,1.21 -0.29,1.64 l -4.1,4.97 c -0.35,0.35 -0.65,0.55 -1.3,0.54 v 0 z" style="fill:#00a650" id="path19" />
    </g>
  </g>
  <g /></svg>