<?xml version="1.0" encoding="UTF-8" standalone="no"?>
<svg
   width="20.32mm"
   height="130.4mm"
   viewBox="0 0 57.6 369.63"
   version="1.1"
   id="svg39"
   sodipodi:docname="Rimshot_info.svg"
   inkscape:version="1.4 (e7c3feb1, 2024-10-09)"
   xmlns:inkscape="http://www.inkscape.org/namespaces/inkscape"
   xmlns:sodipodi="http://sodipodi.sourceforge.net/DTD/sodipodi-0.dtd"
   xmlns="http://www.w3.org/2000/svg"
   xmlns:svg="http://www.w3.org/2000/svg">
  <sodipodi:namedview
     id="namedview39"
     pagecolor="#ffffff"
     bordercolor="#000000"
     borderopacity="0.25"
     inkscape:showpageshadow="2"
     inkscape:pageopacity="0.0"
     inkscape:pagecheckerboard="0"
     inkscape:deskcolor="#d1d1d1"
     inkscape:document-units="mm"
     inkscape:zoom="2.0472745"
     inkscape:cx="38.343661"
     inkscape:cy="246.42519"
     inkscape:window-width="1200"
     inkscape:window-height="1186"
     inkscape:window-x="2169"
     inkscape:window-y="62"
     inkscape:window-maximized="0"
     inkscape:current-layer="svg39" />
  <defs
     id="defs4">
    <clipPath
       id="clippath">
      <rect
         x="14.9"
         y="32.98"
         width="27.8"
         height="25.62"
         style="fill: none;"
         id="rect1" />
    </clipPath>
    <clipPath
       id="clippath-1">
      <rect
         x="14.9"
         y="32.98"
         width="27.8"
         height="25.62"
         style="fill: none;"
         id="rect2" />
    </clipPath>
    <clipPath
       id="clippath-2">
      <rect
         x="14.9"
         y="115.12"
         width="27.8"
         height="25.62"
         style="fill: none;"
         id="rect3" />
    </clipPath>
    <clipPath
       id="clippath-3">
      <rect
         x="14.9"
         y="115.12"
         width="27.8"
         height="25.62"
         style="fill: none;"
         id="rect4" />
    </clipPath>
  </defs>
  <g
     id="faceplate">
    <g
       id="g5">
      <rect
         x=".13"
         y=".13"
         width="57.35"
         height="364"
         style="fill: #ededed;"
         id="rect5" />
      <path
         d="M57.35.25v363.75H.25V.25h57.1M57.6,0H0v364.25h57.6V0h0Z"
         style="fill: #9d9d9e;"
         id="path5" />
    </g>
    <path
       d="M44.27,261.63c0-8.05-6.98-14.57-15.59-14.57s-15.59,6.53-15.59,14.57v54.4s0,0,0,0v19.77c0,3.11,2.55,5.65,5.67,5.65h19.84c3.12,0,5.67-2.54,5.67-5.65v-19.77s0,0,0,0v-54.39Z"
       style="fill: #d1d3d4;"
       id="path6" />
    <path
       d="M44.27,310.67c0-8.05-6.98-14.57-15.59-14.57s-15.59,6.53-15.59,14.57v5.36s0,0,0,0v19.77c0,3.11,2.55,5.65,5.67,5.65h19.84c3.12,0,5.67-2.54,5.67-5.65v-19.77s0,0,0,0v-5.35Z"
       id="path7" />
    <g
       id="pips_-_fewest"
       data-name="pips - fewest">
      <g
         style="clip-path: url(#clippath);"
         clip-path="url(#clippath)"
         id="g18">
        <g
           style="clip-path: url(#clippath-1);"
           clip-path="url(#clippath-1)"
           id="g17">
          <path
             d="M34.49,35.76l.71-1.23c-1.74-.9-3.7-1.45-5.77-1.55v1.43c1.81.09,3.53.56,5.06,1.35"
             id="path8" />
          <path
             d="M39.29,40.1l1.23-.71c-1.09-1.69-2.53-3.14-4.22-4.22l-.71,1.23c1.48.96,2.74,2.22,3.7,3.7"
             id="path9" />
          <path
             d="M22.01,36.4l-.71-1.23c-1.69,1.09-3.14,2.53-4.22,4.22l1.23.71c.96-1.48,2.22-2.74,3.7-3.7"
             id="path10" />
          <path
             d="M41.27,46.25h1.43c-.09-2.07-.64-4.03-1.55-5.77l-1.23.71c.79,1.53,1.26,3.24,1.35,5.06"
             id="path11" />
          <path
             d="M28.17,34.41v-1.43c-2.07.09-4.03.64-5.77,1.55l.71,1.23c1.53-.79,3.24-1.26,5.06-1.35"
             id="path12" />
          <path
             d="M18.31,53.67l-1.23.71c1.09,1.69,2.53,3.14,4.22,4.22l.71-1.23c-1.48-.96-2.74-2.22-3.7-3.7"
             id="path13" />
          <path
             d="M35.59,57.38l.71,1.23c1.69-1.09,3.14-2.53,4.22-4.22l-1.23-.71c-.96,1.48-2.22,2.74-3.7,3.7"
             id="path14" />
          <path
             d="M41.27,47.52c-.09,1.81-.56,3.53-1.35,5.06l1.23.71c.9-1.74,1.45-3.7,1.55-5.77h-1.43Z"
             id="path15" />
          <path
             d="M16.33,47.52h-1.43c.09,2.07.64,4.03,1.55,5.77l1.23-.71c-.79-1.53-1.26-3.24-1.35-5.06"
             id="path16" />
          <path
             d="M17.68,41.2l-1.23-.71c-.9,1.74-1.45,3.7-1.55,5.77h1.43c.09-1.81.56-3.53,1.35-5.06"
             id="path17" />
        </g>
      </g>
    </g>
    <text
       transform="translate(18 69.84) scale(.88 1)"
       style="font-family: GillSans-Bold, 'Gill Sans'; font-size: 10px; font-weight: 700; letter-spacing: -.04em;"
       id="text18"><tspan
         x="0"
         y="0"
         id="tspan18">Pitch</tspan></text>
    <g
       id="pips_-_fewest-2"
       data-name="pips - fewest">
      <g
         style="clip-path: url(#clippath-2);"
         clip-path="url(#clippath-2)"
         id="g28">
        <g
           style="clip-path: url(#clippath-3);"
           clip-path="url(#clippath-3)"
           id="g27">
          <path
             d="M34.49,117.9l.71-1.23c-1.74-.9-3.7-1.45-5.77-1.55v1.43c1.81.09,3.53.56,5.06,1.35"
             id="path18" />
          <path
             d="M39.29,122.23l1.23-.71c-1.09-1.69-2.53-3.14-4.22-4.22l-.71,1.23c1.48.96,2.74,2.22,3.7,3.7"
             id="path19" />
          <path
             d="M22.01,118.53l-.71-1.23c-1.69,1.09-3.14,2.53-4.22,4.22l1.23.71c.96-1.48,2.22-2.74,3.7-3.7"
             id="path20" />
          <path
             d="M41.27,128.39h1.43c-.09-2.07-.64-4.03-1.55-5.77l-1.23.71c.79,1.53,1.26,3.24,1.35,5.06"
             id="path21" />
          <path
             d="M28.17,116.55v-1.43c-2.07.09-4.03.64-5.77,1.55l.71,1.23c1.53-.79,3.24-1.26,5.06-1.35"
             id="path22" />
          <path
             d="M18.31,135.81l-1.23.71c1.09,1.69,2.53,3.14,4.22,4.22l.71-1.23c-1.48-.96-2.74-2.22-3.7-3.7"
             id="path23" />
          <path
             d="M35.59,139.51l.71,1.23c1.69-1.09,3.14-2.53,4.22-4.22l-1.23-.71c-.96,1.48-2.22,2.74-3.7,3.7"
             id="path24" />
          <path
             d="M41.27,129.65c-.09,1.81-.56,3.53-1.35,5.06l1.23.71c.9-1.74,1.45-3.7,1.55-5.77h-1.43Z"
             id="path25" />
          <path
             d="M16.33,129.65h-1.43c.09,2.07.64,4.03,1.55,5.77l1.23-.71c-.79-1.53-1.26-3.24-1.35-5.06"
             id="path26" />
          <path
             d="M17.68,123.33l-1.23-.71c-.9,1.74-1.45,3.7-1.55,5.77h1.43c.09-1.81.56-3.53,1.35-5.06"
             id="path27" />
        </g>
      </g>
    </g>
    <text
       transform="translate(16.2 289.12) scale(.88 1)"
       style="font-family: GillSans-Bold, 'Gill Sans'; font-size: 8px; font-weight: 700; letter-spacing: -.04em;"
       id="text28"><tspan
         x="0"
         y="0"
         id="tspan28">Trigger</tspan></text>
    <text
       transform="translate(22.07 337.31) scale(.88 1)"
       style="fill: #fff; font-family: GillSans-Bold, 'Gill Sans'; font-size: 8px; font-weight: 700; letter-spacing: -.04em;"
       id="text29"><tspan
         x="0"
         y="0"
         id="tspan29">Out</tspan></text>
    <text
       transform="translate(19.29 357.06) scale(.82 1)"
       style="font-family: GillSans-Bold, 'Gill Sans'; font-size: 11px; font-weight: 700;"
       id="text30"><tspan
         x="0"
         y="0"
         id="tspan30">RIM</tspan></text>
    <text
       transform="translate(19.41 151.94) scale(.88 1)"
       style="font-family: GillSans-Bold, 'Gill Sans'; font-size: 10px; font-weight: 700; letter-spacing: -.04em;"
       id="text31"><tspan
         x="0"
         y="0"
         id="tspan31">Ring</tspan></text>
    <g
       id="g33">
      <path
         d="M20.6,18.07c-.37,0-.71-.17-.97-.47-.51-.6-.52-1.54-.04-2.16l6.97-8.88c.38-.48,1.05-.65,1.57-.39.5.25.79.82.79,1.45v4.77l4.64-5.85c.38-.48,1.01-.64,1.53-.38.5.25.83.81.83,1.44v8.82c0,.86-.61,1.57-1.36,1.57s-1.36-.7-1.36-1.57v-4.79l-4.64,5.85c-.38.48-1.01.64-1.54.38-.5-.24-.83-.81-.83-1.44v-4.67l-4.61,5.8c-.26.32-.62.51-1,.51h0Z"
         style="fill: #2cabe1;"
         id="path31" />
      <path
         d="M20.6,18.07c-.75,0-1.35-.7-1.35-1.57v-4.93l-2.26,2.84c-.5.63-1.44.65-1.97.04-.51-.6-.52-1.53-.03-2.15l4.61-5.76c.26-.32.63-.5,1-.5.18,0,.37.04.54.12.5.25.82.81.82,1.44v8.89c0,.86-.61,1.57-1.36,1.57h0Z"
         style="fill: #ea2228;"
         id="path32" />
      <path
         d="M37.2,18.09h0c-.35,0-.68-.15-.94-.42-.76-.78-.14-1.84.29-2.3l1.95-2.36-1.26-.02c-.56-.01-1.04-.4-1.24-1-.19-.56-.07-1.21.29-1.64l3.16-3.83c.23-.28.55-.48,1.13-.47.33,0,.67.17.92.4.71.66.29,1.7-.07,2.2l-1.04,1.26,1.26.02c.56.01,1.04.4,1.24,1,.19.56.07,1.21-.29,1.64l-4.1,4.97c-.35.35-.65.55-1.3.54h0Z"
         style="fill: #00a650;"
         id="path33" />
    </g>
    <line
       x1="28.8"
       y1="73.19"
       x2="28.8"
       y2="92.19"
       style="fill: #fff; stroke: #231f20; stroke-miterlimit: 10;"
       id="line33" />
    <line
       x1="28.8"
       y1="155.3"
       x2="28.8"
       y2="174.3"
       style="fill: #fff; stroke: #231f20; stroke-miterlimit: 10;"
       id="line34" />
  </g>
  <g
     id="components"
     style="display:none">
    <circle
       id="Out"
       cx="28.799999"
       cy="313.70999"
       r="11.34"
       style="fill:#0000ff" />
    <circle
       id="Trigger"
       cx="28.799999"
       cy="264.89999"
       r="11.34"
       style="fill:#80ff80" />
    <circle
       id="Ring_CV"
       data-name="Ring CV"
       cx="28.799999"
       cy="177.02"
       r="11.34"
       style="fill:#00ff00" />
    <circle
       id="Ring"
       cx="28.799999"
       cy="128.83"
       r="8.5"
       style="fill:#ff0040" />
    <circle
       id="Pitch_CV"
       data-name="Pitch CV"
       cx="28.799999"
       cy="94.82"
       r="11.34"
       style="fill:#00ff00" />
    <circle
       id="Pitch"
       cx="28.799999"
       cy="46.630001"
       r="8.5"
       style="fill:#ff0033" />
    <text
       id="slug"
       transform="translate(13.32,368.87)"
       style="font-size:3px;font-family:MyriadPro-Regular, 'Myriad Pro';fill:#010101"><tspan
         x="0"
         y="0"
         style="letter-spacing:0em"
         id="tspan34">R</tspan><tspan
         x="1.64"
         y="0"
         id="tspan35">imshot</tspan></text>
    <text
       id="modulename"
       transform="translate(26.88,368.87)"
       style="font-size:3px;font-family:MyriadPro-Regular, 'Myriad Pro';fill:#010101"><tspan
         x="0"
         y="0"
         style="letter-spacing:0em"
         id="tspan36">R</tspan><tspan
         x="1.64"
         y="0"
         id="tspan37">imshot Drum</tspan><tspan
         x="18.75"
         y="0"
         style="letter-spacing:0em"
         id="tspan38">M</tspan><tspan
         x="21.18"
         y="0"
         style="letter-spacing:0em"
         id="tspan39">odule</tspan></text>
  </g>
</svg>
