<?xml version="1.0" encoding="UTF-8" standalone="no"?>
<svg
   width="20.32mm"
   height="128.4993mm"
   viewBox="0 0 57.6 364.24231"
   version="1.1"
   id="svg39"
   sodipodi:docname="Rimshot_info.svg"
   inkscape:version="1.4 (e7c3feb1, 2024-10-09)"
   xmlns:inkscape="http://www.inkscape.org/namespaces/inkscape"
   xmlns:sodipodi="http://sodipodi.sourceforge.net/DTD/sodipodi-0.dtd"
   xmlns="http://www.w3.org/2000/svg"
   xmlns:svg="http://www.w3.org/2000/svg">
  <sodipodi:namedview
     id="namedview39"
     pagecolor="#ffffff"
     bordercolor="#000000"
     borderopacity="0.25"
     inkscape:showpageshadow="2"
     inkscape:pageopacity="0.0"
     inkscape:pagecheckerboard="0"
     inkscape:deskcolor="#d1d1d1"
     inkscape:document-units="mm"
     inkscape:zoom="2.0472745"
     inkscape:cx="38.343661"
     inkscape:cy="246.42519"
     inkscape:window-width="1200"
     inkscape:window-height="1186"
     inkscape:window-x="2169"
     inkscape:window-y="34"
     inkscape:window-maximized="0"
     inkscape:current-layer="svg39" />
  <defs
     id="defs4">
    <clipPath
       id="clippath">
      <rect
         x="14.9"
         y="32.98"
         width="27.799999"
         height="25.620001"
         style="fill:none"
         id="rect1" />
    </clipPath>
    <clipPath
       id="clippath-1">
      <rect
         x="14.9"
         y="32.98"
         width="27.799999"
         height="25.620001"
         style="fill:none"
         id="rect2" />
    </clipPath>
    <clipPath
       id="clippath-2">
      <rect
         x="14.9"
         y="115.12"
         width="27.799999"
         height="25.620001"
         style="fill:none"
         id="rect3" />
    </clipPath>
    <clipPath
       id="clippath-3">
      <rect
         x="14.9"
         y="115.12"
         width="27.799999"
         height="25.620001"
         style="fill:none"
         id="rect4" />
    </clipPath>
  </defs>
  <g
     id="faceplate"
     transform="translate(0,-0.00390063)">
    <g
       id="g5">
      <rect
         x="0.13"
         y="0.13"
         width="57.349998"
         height="364"
         style="fill:#ededed"
         id="rect5" />
      <path
         d="M 57.35,0.25 V 364 H 0.25 V 0.25 h 57.1 M 57.6,0 H 0 v 364.25 h 57.6 z"
         style="fill:#9d9d9e"
         id="path5" />
    </g>
    <path
       d="m 44.27,261.63 c 0,-8.05 -6.98,-14.57 -15.59,-14.57 -8.61,0 -15.59,6.53 -15.59,14.57 v 54.4 c 0,0 0,0 0,0 v 19.77 c 0,3.11 2.55,5.65 5.67,5.65 H 38.6 c 3.12,0 5.67,-2.54 5.67,-5.65 v -19.77 c 0,0 0,0 0,0 v -54.39 z"
       style="fill:#d1d3d4"
       id="path6" />
    <path
       d="m 44.27,310.67 c 0,-8.05 -6.98,-14.57 -15.59,-14.57 -8.61,0 -15.59,6.53 -15.59,14.57 v 5.36 c 0,0 0,0 0,0 v 19.77 c 0,3.11 2.55,5.65 5.67,5.65 H 38.6 c 3.12,0 5.67,-2.54 5.67,-5.65 v -19.77 c 0,0 0,0 0,0 v -5.35 z"
       id="path7" />
    <g
       id="pips_-_fewest"
       data-name="pips - fewest">
      <g
         clip-path="url(#clippath)"
         id="g18">
        <g
           clip-path="url(#clippath-1)"
           id="g17">
          <path
             d="m 34.49,35.76 0.71,-1.23 c -1.74,-0.9 -3.7,-1.45 -5.77,-1.55 v 1.43 c 1.81,0.09 3.53,0.56 5.06,1.35"
             id="path8" />
          <path
             d="m 39.29,40.1 1.23,-0.71 C 39.43,37.7 37.99,36.25 36.3,35.17 l -0.71,1.23 c 1.48,0.96 2.74,2.22 3.7,3.7"
             id="path9" />
          <path
             d="M 22.01,36.4 21.3,35.17 c -1.69,1.09 -3.14,2.53 -4.22,4.22 l 1.23,0.71 c 0.96,-1.48 2.22,-2.74 3.7,-3.7"
             id="path10" />
          <path
             d="m 41.27,46.25 h 1.43 c -0.09,-2.07 -0.64,-4.03 -1.55,-5.77 l -1.23,0.71 c 0.79,1.53 1.26,3.24 1.35,5.06"
             id="path11" />
          <path
             d="m 28.17,34.41 v -1.43 c -2.07,0.09 -4.03,0.64 -5.77,1.55 l 0.71,1.23 c 1.53,-0.79 3.24,-1.26 5.06,-1.35"
             id="path12" />
          <path
             d="m 18.31,53.67 -1.23,0.71 c 1.09,1.69 2.53,3.14 4.22,4.22 l 0.71,-1.23 c -1.48,-0.96 -2.74,-2.22 -3.7,-3.7"
             id="path13" />
          <path
             d="m 35.59,57.38 0.71,1.23 c 1.69,-1.09 3.14,-2.53 4.22,-4.22 l -1.23,-0.71 c -0.96,1.48 -2.22,2.74 -3.7,3.7"
             id="path14" />
          <path
             d="m 41.27,47.52 c -0.09,1.81 -0.56,3.53 -1.35,5.06 l 1.23,0.71 c 0.9,-1.74 1.45,-3.7 1.55,-5.77 z"
             id="path15" />
          <path
             d="M 16.33,47.52 H 14.9 c 0.09,2.07 0.64,4.03 1.55,5.77 l 1.23,-0.71 c -0.79,-1.53 -1.26,-3.24 -1.35,-5.06"
             id="path16" />
          <path
             d="m 17.68,41.2 -1.23,-0.71 c -0.9,1.74 -1.45,3.7 -1.55,5.77 h 1.43 c 0.09,-1.81 0.56,-3.53 1.35,-5.06"
             id="path17" />
        </g>
      </g>
    </g>
    <text
       transform="matrix(0.88,0,0,1,18,69.84)"
       style="font-weight:700;font-size:10px;font-family:GillSans-Bold, 'Gill Sans';letter-spacing:-0.04em"
       id="text18"><tspan
         x="0"
         y="0"
         id="tspan18">Pitch</tspan></text>
    <g
       id="pips_-_fewest-2"
       data-name="pips - fewest">
      <g
         clip-path="url(#clippath-2)"
         id="g28">
        <g
           clip-path="url(#clippath-3)"
           id="g27">
          <path
             d="m 34.49,117.9 0.71,-1.23 c -1.74,-0.9 -3.7,-1.45 -5.77,-1.55 v 1.43 c 1.81,0.09 3.53,0.56 5.06,1.35"
             id="path18" />
          <path
             d="m 39.29,122.23 1.23,-0.71 c -1.09,-1.69 -2.53,-3.14 -4.22,-4.22 l -0.71,1.23 c 1.48,0.96 2.74,2.22 3.7,3.7"
             id="path19" />
          <path
             d="M 22.01,118.53 21.3,117.3 c -1.69,1.09 -3.14,2.53 -4.22,4.22 l 1.23,0.71 c 0.96,-1.48 2.22,-2.74 3.7,-3.7"
             id="path20" />
          <path
             d="m 41.27,128.39 h 1.43 c -0.09,-2.07 -0.64,-4.03 -1.55,-5.77 l -1.23,0.71 c 0.79,1.53 1.26,3.24 1.35,5.06"
             id="path21" />
          <path
             d="m 28.17,116.55 v -1.43 c -2.07,0.09 -4.03,0.64 -5.77,1.55 l 0.71,1.23 c 1.53,-0.79 3.24,-1.26 5.06,-1.35"
             id="path22" />
          <path
             d="m 18.31,135.81 -1.23,0.71 c 1.09,1.69 2.53,3.14 4.22,4.22 l 0.71,-1.23 c -1.48,-0.96 -2.74,-2.22 -3.7,-3.7"
             id="path23" />
          <path
             d="m 35.59,139.51 0.71,1.23 c 1.69,-1.09 3.14,-2.53 4.22,-4.22 l -1.23,-0.71 c -0.96,1.48 -2.22,2.74 -3.7,3.7"
             id="path24" />
          <path
             d="m 41.27,129.65 c -0.09,1.81 -0.56,3.53 -1.35,5.06 l 1.23,0.71 c 0.9,-1.74 1.45,-3.7 1.55,-5.77 z"
             id="path25" />
          <path
             d="M 16.33,129.65 H 14.9 c 0.09,2.07 0.64,4.03 1.55,5.77 l 1.23,-0.71 c -0.79,-1.53 -1.26,-3.24 -1.35,-5.06"
             id="path26" />
          <path
             d="m 17.68,123.33 -1.23,-0.71 c -0.9,1.74 -1.45,3.7 -1.55,5.77 h 1.43 c 0.09,-1.81 0.56,-3.53 1.35,-5.06"
             id="path27" />
        </g>
      </g>
    </g>
    <text
       transform="matrix(0.88,0,0,1,16.2,289.12)"
       style="font-weight:700;font-size:8px;font-family:GillSans-Bold, 'Gill Sans';letter-spacing:-0.04em"
       id="text28"><tspan
         x="0"
         y="0"
         id="tspan28">Trigger</tspan></text>
    <text
       transform="matrix(0.88,0,0,1,22.07,337.31)"
       style="font-weight:700;font-size:8px;font-family:GillSans-Bold, 'Gill Sans';letter-spacing:-0.04em;fill:#ffffff"
       id="text29"><tspan
         x="0"
         y="0"
         id="tspan29">Out</tspan></text>
    <text
       transform="matrix(0.82,0,0,1,19.29,357.06)"
       style="font-weight:700;font-size:11px;font-family:GillSans-Bold, 'Gill Sans'"
       id="text30"><tspan
         x="0"
         y="0"
         id="tspan30">RIM</tspan></text>
    <text
       transform="matrix(0.88,0,0,1,19.41,151.94)"
       style="font-weight:700;font-size:10px;font-family:GillSans-Bold, 'Gill Sans';letter-spacing:-0.04em"
       id="text31"><tspan
         x="0"
         y="0"
         id="tspan31">Ring</tspan></text>
    <g
       id="g33">
      <path
         d="m 20.6,18.07 c -0.37,0 -0.71,-0.17 -0.97,-0.47 -0.51,-0.6 -0.52,-1.54 -0.04,-2.16 l 6.97,-8.88 c 0.38,-0.48 1.05,-0.65 1.57,-0.39 0.5,0.25 0.79,0.82 0.79,1.45 v 4.77 l 4.64,-5.85 c 0.38,-0.48 1.01,-0.64 1.53,-0.38 0.5,0.25 0.83,0.81 0.83,1.44 v 8.82 c 0,0.86 -0.61,1.57 -1.36,1.57 -0.75,0 -1.36,-0.7 -1.36,-1.57 v -4.79 l -4.64,5.85 c -0.38,0.48 -1.01,0.64 -1.54,0.38 -0.5,-0.24 -0.83,-0.81 -0.83,-1.44 v -4.67 l -4.61,5.8 c -0.26,0.32 -0.62,0.51 -1,0.51 v 0 z"
         style="fill:#2cabe1"
         id="path31" />
      <path
         d="m 20.6,18.07 c -0.75,0 -1.35,-0.7 -1.35,-1.57 v -4.93 l -2.26,2.84 c -0.5,0.63 -1.44,0.65 -1.97,0.04 -0.51,-0.6 -0.52,-1.53 -0.03,-2.15 L 19.6,6.54 c 0.26,-0.32 0.63,-0.5 1,-0.5 0.18,0 0.37,0.04 0.54,0.12 0.5,0.25 0.82,0.81 0.82,1.44 v 8.89 c 0,0.86 -0.61,1.57 -1.36,1.57 v 0 z"
         style="fill:#ea2228"
         id="path32" />
      <path
         d="m 37.2,18.09 v 0 c -0.35,0 -0.68,-0.15 -0.94,-0.42 -0.76,-0.78 -0.14,-1.84 0.29,-2.3 l 1.95,-2.36 -1.26,-0.02 c -0.56,-0.01 -1.04,-0.4 -1.24,-1 -0.19,-0.56 -0.07,-1.21 0.29,-1.64 L 39.45,6.52 C 39.68,6.24 40,6.04 40.58,6.05 c 0.33,0 0.67,0.17 0.92,0.4 0.71,0.66 0.29,1.7 -0.07,2.2 l -1.04,1.26 1.26,0.02 c 0.56,0.01 1.04,0.4 1.24,1 0.19,0.56 0.07,1.21 -0.29,1.64 l -4.1,4.97 c -0.35,0.35 -0.65,0.55 -1.3,0.54 v 0 z"
         style="fill:#00a650"
         id="path33" />
    </g>
    <line
       x1="28.799999"
       y1="73.190002"
       x2="28.799999"
       y2="92.190002"
       style="fill:#ffffff;stroke:#231f20;stroke-miterlimit:10"
       id="line33" />
    <line
       x1="28.799999"
       y1="155.3"
       x2="28.799999"
       y2="174.3"
       style="fill:#ffffff;stroke:#231f20;stroke-miterlimit:10"
       id="line34" />
  </g>
  <g
     id="components"
     style="display:none"
     transform="translate(0,-0.00390063)">
    <circle
       id="Out"
       cx="28.799999"
       cy="313.70999"
       r="11.34"
       style="fill:#0000ff" />
    <circle
       id="Trigger"
       cx="28.799999"
       cy="264.89999"
       r="11.34"
       style="fill:#80ff80" />
    <circle
       id="Ring_CV"
       data-name="Ring CV"
       cx="28.799999"
       cy="177.02"
       r="11.34"
       style="fill:#00ff00" />
    <circle
       id="Ring"
       cx="28.799999"
       cy="128.83"
       r="8.5"
       style="fill:#ff0040" />
    <circle
       id="Pitch_CV"
       data-name="Pitch CV"
       cx="28.799999"
       cy="94.82"
       r="11.34"
       style="fill:#00ff00" />
    <circle
       id="Pitch"
       cx="28.799999"
       cy="46.630001"
       r="8.5"
       style="fill:#ff0033" />
    <text
       id="slug"
       transform="translate(13.32,368.87)"
       style="font-size:3px;font-family:MyriadPro-Regular, 'Myriad Pro';fill:#010101"><tspan
         x="0"
         y="0"
         style="letter-spacing:0em"
         id="tspan34">R</tspan><tspan
         x="1.64"
         y="0"
         id="tspan35">imshot</tspan></text>
    <text
       id="modulename"
       transform="translate(26.88,368.87)"
       style="font-size:3px;font-family:MyriadPro-Regular, 'Myriad Pro';fill:#010101"><tspan
         x="0"
         y="0"
         style="letter-spacing:0em"
         id="tspan36">R</tspan><tspan
         x="1.64"
         y="0"
         id="tspan37">imshot Drum</tspan><tspan
         x="18.75"
         y="0"
         style="letter-spacing:0em"
         id="tspan38">M</tspan><tspan
         x="21.18"
         y="0"
         style="letter-spacing:0em"
         id="tspan39">odule</tspan></text>
  </g>
</svg>
