<?xml version="1.0" encoding="UTF-8" standalone="no"?>
<svg
   width="76.29mm"
   height="130.48mm"
   viewBox="0 0 216.25 369.86"
   version="1.1"
   id="svg143"
   sodipodi:docname="Snare_info.svg"
   inkscape:version="1.4 (e7c3feb1, 2024-10-09)"
   xmlns:inkscape="http://www.inkscape.org/namespaces/inkscape"
   xmlns:sodipodi="http://sodipodi.sourceforge.net/DTD/sodipodi-0.dtd"
   xmlns="http://www.w3.org/2000/svg"
   xmlns:svg="http://www.w3.org/2000/svg">
  <defs
     id="defs143" />
  <sodipodi:namedview
     id="namedview143"
     pagecolor="#ffffff"
     bordercolor="#000000"
     borderopacity="0.25"
     inkscape:showpageshadow="2"
     inkscape:pageopacity="0.0"
     inkscape:pagecheckerboard="0"
     inkscape:deskcolor="#d1d1d1"
     inkscape:document-units="mm"
     inkscape:zoom="2.0460193"
     inkscape:cx="143.93804"
     inkscape:cy="246.57636"
     inkscape:window-width="1200"
     inkscape:window-height="1186"
     inkscape:window-x="1721"
     inkscape:window-y="25"
     inkscape:window-maximized="0"
     inkscape:current-layer="components" />
  <g
     id="faceplate">
    <rect
       x=".12"
       y=".12"
       width="216"
       height="364.25"
       style="fill: #ededed; stroke: #9d9d9e; stroke-miterlimit: 10; stroke-width: .25px;"
       id="rect1" />
    <g
       id="new_pill"
       data-name="new pill">
      <path
         d="M18.41,336.23c0,3.11,2.54,5.65,5.65,5.65h168.13c3.11,0,5.65-2.54,5.65-5.65v-106.3c0-7.82-6.4-14.22-14.22-14.22H32.63c-7.82,0-14.22,6.4-14.22,14.22v106.3Z"
         style="fill: #d1d3d4; stroke: #d1d3d4; stroke-miterlimit: 10;"
         id="path1" />
      <path
         d="M198.24,318.84v-21.52h-21.54c-7.49,0-13.57,6.52-13.57,14.57v30.53h15.07s0,0,0,0h14.39c3.12,0,5.64-2.36,5.64-5.25v-18.39.08Z"
         id="path2" />
    </g>
    <g
       id="art">
      <text
         transform="translate(18.5 193.01) scale(.88 1)"
         style="font-family: GillSans-Bold, 'Gill Sans'; font-size: 10px; font-weight: 700; letter-spacing: -.04em;"
         id="text2"><tspan
           x="0"
           y="0"
           id="tspan2">Body/Noise</tspan></text>
      <g
         id="g17">
        <path
           d="M43.5,143.71c-.83,0-1.65.07-2.45.17l-.39-2.21c.93-.12,1.88-.19,2.84-.19s1.91.07,2.84.19l-.39,2.21c-.81-.1-1.62-.17-2.45-.17Z"
           id="path3" />
        <path
           d="M29.01,150.08l-1.73-1.45c1.28-1.4,2.74-2.63,4.34-3.66l1.12,1.94c-1.38.9-2.62,1.96-3.73,3.16Z"
           id="path4" />
        <path
           d="M34.47,145.91l-1.12-1.94c1.67-.87,3.46-1.53,5.34-1.95l.39,2.21c-1.62.37-3.16.94-4.61,1.69Z"
           id="path5" />
        <path
           d="M25.27,155.85l-2.1-.76c.73-1.77,1.69-3.42,2.83-4.92l1.73,1.45c-.98,1.3-1.82,2.71-2.46,4.23Z"
           id="path6" />
        <path
           d="M47.92,144.23l.39-2.21c1.88.42,3.67,1.08,5.34,1.95l-1.12,1.94c-1.44-.74-2.98-1.31-4.6-1.69Z"
           id="path7" />
        <path
           d="M23.78,162.55h-2.26c.08-1.93.41-3.8.96-5.58l2.11.77c-.47,1.53-.73,3.15-.81,4.81Z"
           id="path8" />
        <path
           d="M24.65,169.34l-2.1.76c-.57-1.79-.91-3.65-1.01-5.56h2.23c.09,1.65.39,3.25.88,4.8Z"
           id="path9" />
        <path
           d="M27.79,175.43l-1.71,1.44c-1.15-1.5-2.11-3.14-2.84-4.88l2.1-.77c.64,1.5,1.46,2.91,2.45,4.2Z"
           id="path10" />
        <path
           d="M59.27,151.62l1.73-1.45c1.14,1.5,2.1,3.15,2.83,4.92l-2.1.77c-.64-1.52-1.48-2.93-2.46-4.23Z"
           id="path11" />
        <path
           d="M62.41,157.73l2.11-.77c.55,1.78.88,3.65.96,5.58h-2.26c-.08-1.66-.34-3.28-.81-4.81Z"
           id="path12" />
        <path
           d="M63.23,164.54h2.23c-.09,1.91-.44,3.78-1.01,5.56l-2.1-.77c.48-1.54.79-3.15.88-4.8Z"
           id="path13" />
        <path
           d="M61.66,171.22l2.11.77c-.73,1.74-1.69,3.38-2.84,4.88l-1.71-1.44c.99-1.3,1.81-2.71,2.45-4.2Z"
           id="path14" />
        <path
           d="M32.81,180.07l-1.12,1.93c-1.61-1.03-3.05-2.24-4.32-3.62l1.71-1.44c1.1,1.18,2.34,2.23,3.72,3.12Z"
           id="path15" />
        <path
           d="M57.92,176.95l1.71,1.44c-1.27,1.37-2.71,2.59-4.32,3.62l-1.12-1.93c1.38-.89,2.62-1.94,3.72-3.12Z"
           id="path16" />
        <path
           d="M54.26,146.92l1.12-1.94c1.6,1.03,3.06,2.26,4.34,3.66l-1.73,1.45c-1.11-1.2-2.36-2.27-3.74-3.16Z"
           id="path17" />
      </g>
      <text
         transform="translate(32.79 76.33) scale(.88 1)"
         style="font-family: GillSans-Bold, 'Gill Sans'; font-size: 10px; font-weight: 700; letter-spacing: -.04em;"
         id="text17"><tspan
           x="0"
           y="0"
           id="tspan17">Pitch</tspan></text>
      <g
         id="g32">
        <path
           d="M43.5,26.6c-.83,0-1.65.07-2.45.17l-.39-2.21c.93-.12,1.88-.19,2.84-.19s1.91.07,2.84.19l-.39,2.21c-.81-.1-1.62-.17-2.45-.17Z"
           id="path18" />
        <path
           d="M29.01,32.98l-1.73-1.45c1.28-1.4,2.74-2.63,4.34-3.66l1.12,1.94c-1.38.9-2.62,1.96-3.73,3.16Z"
           id="path19" />
        <path
           d="M34.47,28.81l-1.12-1.94c1.67-.87,3.46-1.53,5.34-1.95l.39,2.21c-1.62.37-3.16.94-4.61,1.69Z"
           id="path20" />
        <path
           d="M25.27,38.74l-2.1-.76c.73-1.77,1.69-3.42,2.83-4.92l1.73,1.45c-.98,1.3-1.82,2.71-2.46,4.23Z"
           id="path21" />
        <path
           d="M47.92,27.12l.39-2.21c1.88.42,3.67,1.08,5.34,1.95l-1.12,1.94c-1.44-.74-2.98-1.31-4.6-1.69Z"
           id="path22" />
        <path
           d="M23.78,45.44h-2.26c.08-1.93.41-3.8.96-5.58l2.11.77c-.47,1.53-.73,3.15-.81,4.81Z"
           id="path23" />
        <path
           d="M24.65,52.24l-2.1.76c-.57-1.79-.91-3.65-1.01-5.56h2.23c.09,1.65.39,3.25.88,4.8Z"
           id="path24" />
        <path
           d="M27.79,58.32l-1.71,1.44c-1.15-1.5-2.11-3.14-2.84-4.88l2.1-.77c.64,1.5,1.46,2.91,2.45,4.2Z"
           id="path25" />
        <path
           d="M59.27,34.51l1.73-1.45c1.14,1.5,2.1,3.15,2.83,4.92l-2.1.77c-.64-1.52-1.48-2.93-2.46-4.23Z"
           id="path26" />
        <path
           d="M62.41,40.62l2.11-.77c.55,1.78.88,3.65.96,5.58h-2.26c-.08-1.66-.34-3.28-.81-4.81Z"
           id="path27" />
        <path
           d="M63.23,47.44h2.23c-.09,1.91-.44,3.78-1.01,5.56l-2.1-.77c.48-1.54.79-3.15.88-4.8Z"
           id="path28" />
        <path
           d="M61.66,54.11l2.11.77c-.73,1.74-1.69,3.38-2.84,4.88l-1.71-1.44c.99-1.3,1.81-2.71,2.45-4.2Z"
           id="path29" />
        <path
           d="M32.81,62.96l-1.12,1.93c-1.61-1.03-3.05-2.24-4.32-3.62l1.71-1.44c1.1,1.18,2.34,2.23,3.72,3.12Z"
           id="path30" />
        <path
           d="M57.92,59.84l1.71,1.44c-1.27,1.37-2.71,2.59-4.32,3.62l-1.12-1.93c1.38-.89,2.62-1.94,3.72-3.12Z"
           id="path31" />
        <path
           d="M54.26,29.81l1.12-1.94c1.6,1.03,3.06,2.26,4.34,3.66l-1.73,1.45c-1.11-1.2-2.36-2.27-3.74-3.16Z"
           id="path32" />
      </g>
      <g
         id="g47">
        <path
           d="M108,26.6c-.83,0-1.65.07-2.45.17l-.39-2.21c.93-.12,1.88-.19,2.84-.19s1.91.07,2.84.19l-.39,2.21c-.81-.1-1.62-.17-2.45-.17Z"
           id="path33" />
        <path
           d="M93.51,32.98l-1.73-1.45c1.28-1.4,2.74-2.63,4.34-3.66l1.12,1.94c-1.38.9-2.62,1.96-3.73,3.16Z"
           id="path34" />
        <path
           d="M98.97,28.81l-1.12-1.94c1.67-.87,3.46-1.53,5.34-1.95l.39,2.21c-1.62.37-3.16.94-4.61,1.69Z"
           id="path35" />
        <path
           d="M89.77,38.74l-2.1-.76c.73-1.77,1.69-3.42,2.83-4.92l1.73,1.45c-.98,1.3-1.82,2.71-2.46,4.23Z"
           id="path36" />
        <path
           d="M112.42,27.12l.39-2.21c1.88.42,3.67,1.08,5.34,1.95l-1.12,1.94c-1.44-.74-2.98-1.31-4.6-1.69Z"
           id="path37" />
        <path
           d="M88.28,45.44h-2.26c.08-1.93.41-3.8.96-5.58l2.11.77c-.47,1.53-.73,3.15-.81,4.81Z"
           id="path38" />
        <path
           d="M89.15,52.24l-2.1.76c-.57-1.79-.91-3.65-1.01-5.56h2.23c.09,1.65.39,3.25.88,4.8Z"
           id="path39" />
        <path
           d="M92.29,58.32l-1.71,1.44c-1.15-1.5-2.11-3.14-2.84-4.88l2.1-.77c.64,1.5,1.46,2.91,2.45,4.2Z"
           id="path40" />
        <path
           d="M123.77,34.51l1.73-1.45c1.14,1.5,2.1,3.15,2.83,4.92l-2.1.77c-.64-1.52-1.48-2.93-2.46-4.23Z"
           id="path41" />
        <path
           d="M126.91,40.62l2.11-.77c.55,1.78.88,3.65.96,5.58h-2.26c-.08-1.66-.34-3.28-.81-4.81Z"
           id="path42" />
        <path
           d="M127.73,47.44h2.23c-.09,1.91-.44,3.78-1.01,5.56l-2.1-.77c.48-1.54.79-3.15.88-4.8Z"
           id="path43" />
        <path
           d="M126.16,54.11l2.11.77c-.73,1.74-1.69,3.38-2.84,4.88l-1.71-1.44c.99-1.3,1.81-2.71,2.45-4.2Z"
           id="path44" />
        <path
           d="M97.31,62.96l-1.12,1.93c-1.61-1.03-3.05-2.24-4.32-3.62l1.71-1.44c1.1,1.18,2.34,2.23,3.72,3.12Z"
           id="path45" />
        <path
           d="M122.42,59.84l1.71,1.44c-1.27,1.37-2.71,2.59-4.32,3.62l-1.12-1.93c1.38-.89,2.62-1.94,3.72-3.12Z"
           id="path46" />
        <path
           d="M118.76,29.81l1.12-1.94c1.6,1.03,3.06,2.26,4.34,3.66l-1.73,1.45c-1.11-1.2-2.36-2.27-3.74-3.16Z"
           id="path47" />
      </g>
      <text
         transform="translate(83.48 76.33) scale(.88 1)"
         style="font-family: GillSans-Bold, 'Gill Sans'; font-size: 10px; font-weight: 700; letter-spacing: -.04em;"
         id="text47"><tspan
           x="0"
           y="0"
           id="tspan47">Pitch Decay</tspan></text>
      <text
         transform="translate(142.29 76.33) scale(.88 1)"
         style="font-family: GillSans-Bold, 'Gill Sans'; font-size: 10px; font-weight: 700; letter-spacing: -.04em;"
         id="text48"><tspan
           x="0"
           y="0"
           id="tspan48">Pitch Env Amt</tspan></text>
      <g
         id="g62">
        <path
           d="M172.5,26.6c-.83,0-1.65.07-2.45.17l-.39-2.21c.93-.12,1.88-.19,2.84-.19s1.91.07,2.84.19l-.39,2.21c-.81-.1-1.62-.17-2.45-.17Z"
           id="path48" />
        <path
           d="M158.01,32.98l-1.73-1.45c1.28-1.4,2.74-2.63,4.34-3.66l1.12,1.94c-1.38.9-2.62,1.96-3.73,3.16Z"
           id="path49" />
        <path
           d="M163.47,28.81l-1.12-1.94c1.67-.87,3.46-1.53,5.34-1.95l.39,2.21c-1.62.37-3.16.94-4.61,1.69Z"
           id="path50" />
        <path
           d="M154.27,38.74l-2.1-.76c.73-1.77,1.69-3.42,2.83-4.92l1.73,1.45c-.98,1.3-1.82,2.71-2.46,4.23Z"
           id="path51" />
        <path
           d="M176.92,27.12l.39-2.21c1.88.42,3.67,1.08,5.34,1.95l-1.12,1.94c-1.44-.74-2.98-1.31-4.6-1.69Z"
           id="path52" />
        <path
           d="M152.78,45.44h-2.26c.08-1.93.41-3.8.96-5.58l2.11.77c-.47,1.53-.73,3.15-.81,4.81Z"
           id="path53" />
        <path
           d="M153.65,52.24l-2.1.76c-.57-1.79-.91-3.65-1.01-5.56h2.23c.09,1.65.39,3.25.88,4.8Z"
           id="path54" />
        <path
           d="M156.79,58.32l-1.71,1.44c-1.15-1.5-2.11-3.14-2.84-4.88l2.1-.77c.64,1.5,1.46,2.91,2.45,4.2Z"
           id="path55" />
        <path
           d="M188.27,34.51l1.73-1.45c1.14,1.5,2.1,3.15,2.83,4.92l-2.1.77c-.64-1.52-1.48-2.93-2.46-4.23Z"
           id="path56" />
        <path
           d="M191.41,40.62l2.11-.77c.55,1.78.88,3.65.96,5.58h-2.26c-.08-1.66-.34-3.28-.81-4.81Z"
           id="path57" />
        <path
           d="M192.23,47.44h2.23c-.09,1.91-.44,3.78-1.01,5.56l-2.1-.77c.48-1.54.79-3.15.88-4.8Z"
           id="path58" />
        <path
           d="M190.66,54.11l2.11.77c-.73,1.74-1.69,3.38-2.84,4.88l-1.71-1.44c.99-1.3,1.81-2.71,2.45-4.2Z"
           id="path59" />
        <path
           d="M161.81,62.96l-1.12,1.93c-1.61-1.03-3.05-2.24-4.32-3.62l1.71-1.44c1.1,1.18,2.34,2.23,3.72,3.12Z"
           id="path60" />
        <path
           d="M186.92,59.84l1.71,1.44c-1.27,1.37-2.71,2.59-4.32,3.62l-1.12-1.93c1.38-.89,2.62-1.94,3.72-3.12Z"
           id="path61" />
        <path
           d="M183.26,29.81l1.12-1.94c1.6,1.03,3.06,2.26,4.34,3.66l-1.73,1.45c-1.11-1.2-2.36-2.27-3.74-3.16Z"
           id="path62" />
      </g>
      <text
         transform="translate(18.76 134.45) scale(.88 1)"
         style="font-family: GillSans-Bold, 'Gill Sans'; font-size: 10px; font-weight: 700; letter-spacing: -.04em;"
         id="text62"><tspan
           x="0"
           y="0"
           id="tspan62">Noise Color</tspan></text>
      <g
         id="g77">
        <path
           d="M43.5,85.16c-.83,0-1.65.07-2.45.17l-.39-2.21c.93-.12,1.88-.19,2.84-.19s1.91.07,2.84.19l-.39,2.21c-.81-.1-1.62-.17-2.45-.17Z"
           id="path63" />
        <path
           d="M29.01,91.53l-1.73-1.45c1.28-1.4,2.74-2.63,4.34-3.66l1.12,1.94c-1.38.9-2.62,1.96-3.73,3.16Z"
           id="path64" />
        <path
           d="M34.47,87.36l-1.12-1.94c1.67-.87,3.46-1.53,5.34-1.95l.39,2.21c-1.62.37-3.16.94-4.61,1.69Z"
           id="path65" />
        <path
           d="M25.27,97.3l-2.1-.76c.73-1.77,1.69-3.42,2.83-4.92l1.73,1.45c-.98,1.3-1.82,2.71-2.46,4.23Z"
           id="path66" />
        <path
           d="M47.92,85.67l.39-2.21c1.88.42,3.67,1.08,5.34,1.95l-1.12,1.94c-1.44-.74-2.98-1.31-4.6-1.69Z"
           id="path67" />
        <path
           d="M23.78,103.99h-2.26c.08-1.93.41-3.8.96-5.58l2.11.77c-.47,1.53-.73,3.15-.81,4.81Z"
           id="path68" />
        <path
           d="M24.65,110.79l-2.1.76c-.57-1.79-.91-3.65-1.01-5.56h2.23c.09,1.65.39,3.25.88,4.8Z"
           id="path69" />
        <path
           d="M27.79,116.87l-1.71,1.44c-1.15-1.5-2.11-3.14-2.84-4.88l2.1-.77c.64,1.5,1.46,2.91,2.45,4.2Z"
           id="path70" />
        <path
           d="M59.27,93.06l1.73-1.45c1.14,1.5,2.1,3.15,2.83,4.92l-2.1.77c-.64-1.52-1.48-2.93-2.46-4.23Z"
           id="path71" />
        <path
           d="M62.41,99.18l2.11-.77c.55,1.78.88,3.65.96,5.58h-2.26c-.08-1.66-.34-3.28-.81-4.81Z"
           id="path72" />
        <path
           d="M63.23,105.99h2.23c-.09,1.91-.44,3.78-1.01,5.56l-2.1-.77c.48-1.54.79-3.15.88-4.8Z"
           id="path73" />
        <path
           d="M61.66,112.67l2.11.77c-.73,1.74-1.69,3.38-2.84,4.88l-1.71-1.44c.99-1.3,1.81-2.71,2.45-4.2Z"
           id="path74" />
        <path
           d="M32.81,121.51l-1.12,1.93c-1.61-1.03-3.05-2.24-4.32-3.62l1.71-1.44c1.1,1.18,2.34,2.23,3.72,3.12Z"
           id="path75" />
        <path
           d="M57.92,118.39l1.71,1.44c-1.27,1.37-2.71,2.59-4.32,3.62l-1.12-1.93c1.38-.89,2.62-1.94,3.72-3.12Z"
           id="path76" />
        <path
           d="M54.26,88.36l1.12-1.94c1.6,1.03,3.06,2.26,4.34,3.66l-1.73,1.45c-1.11-1.2-2.36-2.27-3.74-3.16Z"
           id="path77" />
      </g>
      <text
         transform="translate(82.12 134.45) scale(.88 1)"
         style="font-family: GillSans-Bold, 'Gill Sans'; font-size: 10px; font-weight: 700; letter-spacing: -.04em;"
         id="text77"><tspan
           x="0"
           y="0"
           id="tspan77">Noise Decay</tspan></text>
      <g
         id="g92">
        <path
           d="M108,85.16c-.83,0-1.65.07-2.45.17l-.39-2.21c.93-.12,1.88-.19,2.84-.19s1.91.07,2.84.19l-.39,2.21c-.81-.1-1.62-.17-2.45-.17Z"
           id="path78" />
        <path
           d="M93.51,91.53l-1.73-1.45c1.28-1.4,2.74-2.63,4.34-3.66l1.12,1.94c-1.38.9-2.62,1.96-3.73,3.16Z"
           id="path79" />
        <path
           d="M98.97,87.36l-1.12-1.94c1.67-.87,3.46-1.53,5.34-1.95l.39,2.21c-1.62.37-3.16.94-4.61,1.69Z"
           id="path80" />
        <path
           d="M89.77,97.3l-2.1-.76c.73-1.77,1.69-3.42,2.83-4.92l1.73,1.45c-.98,1.3-1.82,2.71-2.46,4.23Z"
           id="path81" />
        <path
           d="M112.42,85.67l.39-2.21c1.88.42,3.67,1.08,5.34,1.95l-1.12,1.94c-1.44-.74-2.98-1.31-4.6-1.69Z"
           id="path82" />
        <path
           d="M88.28,103.99h-2.26c.08-1.93.41-3.8.96-5.58l2.11.77c-.47,1.53-.73,3.15-.81,4.81Z"
           id="path83" />
        <path
           d="M89.15,110.79l-2.1.76c-.57-1.79-.91-3.65-1.01-5.56h2.23c.09,1.65.39,3.25.88,4.8Z"
           id="path84" />
        <path
           d="M92.29,116.87l-1.71,1.44c-1.15-1.5-2.11-3.14-2.84-4.88l2.1-.77c.64,1.5,1.46,2.91,2.45,4.2Z"
           id="path85" />
        <path
           d="M123.77,93.06l1.73-1.45c1.14,1.5,2.1,3.15,2.83,4.92l-2.1.77c-.64-1.52-1.48-2.93-2.46-4.23Z"
           id="path86" />
        <path
           d="M126.91,99.18l2.11-.77c.55,1.78.88,3.65.96,5.58h-2.26c-.08-1.66-.34-3.28-.81-4.81Z"
           id="path87" />
        <path
           d="M127.73,105.99h2.23c-.09,1.91-.44,3.78-1.01,5.56l-2.1-.77c.48-1.54.79-3.15.88-4.8Z"
           id="path88" />
        <path
           d="M126.16,112.67l2.11.77c-.73,1.74-1.69,3.38-2.84,4.88l-1.71-1.44c.99-1.3,1.81-2.71,2.45-4.2Z"
           id="path89" />
        <path
           d="M97.31,121.51l-1.12,1.93c-1.61-1.03-3.05-2.24-4.32-3.62l1.71-1.44c1.1,1.18,2.34,2.23,3.72,3.12Z"
           id="path90" />
        <path
           d="M122.42,118.39l1.71,1.44c-1.27,1.37-2.71,2.59-4.32,3.62l-1.12-1.93c1.38-.89,2.62-1.94,3.72-3.12Z"
           id="path91" />
        <path
           d="M118.76,88.36l1.12-1.94c1.6,1.03,3.06,2.26,4.34,3.66l-1.73,1.45c-1.11-1.2-2.36-2.27-3.74-3.16Z"
           id="path92" />
      </g>
      <text
         transform="translate(147.86 134.45) scale(.88 1)"
         style="font-family: GillSans-Bold, 'Gill Sans'; font-size: 10px; font-weight: 700; letter-spacing: -.04em;"
         id="text92"><tspan
           x="0"
           y="0"
           id="tspan92">Body Decay</tspan></text>
      <g
         id="g107">
        <path
           d="M172.5,85.16c-.83,0-1.65.07-2.45.17l-.39-2.21c.93-.12,1.88-.19,2.84-.19s1.91.07,2.84.19l-.39,2.21c-.81-.1-1.62-.17-2.45-.17Z"
           id="path93" />
        <path
           d="M158.01,91.53l-1.73-1.45c1.28-1.4,2.74-2.63,4.34-3.66l1.12,1.94c-1.38.9-2.62,1.96-3.73,3.16Z"
           id="path94" />
        <path
           d="M163.47,87.36l-1.12-1.94c1.67-.87,3.46-1.53,5.34-1.95l.39,2.21c-1.62.37-3.16.94-4.61,1.69Z"
           id="path95" />
        <path
           d="M154.27,97.3l-2.1-.76c.73-1.77,1.69-3.42,2.83-4.92l1.73,1.45c-.98,1.3-1.82,2.71-2.46,4.23Z"
           id="path96" />
        <path
           d="M176.92,85.67l.39-2.21c1.88.42,3.67,1.08,5.34,1.95l-1.12,1.94c-1.44-.74-2.98-1.31-4.6-1.69Z"
           id="path97" />
        <path
           d="M152.78,103.99h-2.26c.08-1.93.41-3.8.96-5.58l2.11.77c-.47,1.53-.73,3.15-.81,4.81Z"
           id="path98" />
        <path
           d="M153.65,110.79l-2.1.76c-.57-1.79-.91-3.65-1.01-5.56h2.23c.09,1.65.39,3.25.88,4.8Z"
           id="path99" />
        <path
           d="M156.79,116.87l-1.71,1.44c-1.15-1.5-2.11-3.14-2.84-4.88l2.1-.77c.64,1.5,1.46,2.91,2.45,4.2Z"
           id="path100" />
        <path
           d="M188.27,93.06l1.73-1.45c1.14,1.5,2.1,3.15,2.83,4.92l-2.1.77c-.64-1.52-1.48-2.93-2.46-4.23Z"
           id="path101" />
        <path
           d="M191.41,99.18l2.11-.77c.55,1.78.88,3.65.96,5.58h-2.26c-.08-1.66-.34-3.28-.81-4.81Z"
           id="path102" />
        <path
           d="M192.23,105.99h2.23c-.09,1.91-.44,3.78-1.01,5.56l-2.1-.77c.48-1.54.79-3.15.88-4.8Z"
           id="path103" />
        <path
           d="M190.66,112.67l2.11.77c-.73,1.74-1.69,3.38-2.84,4.88l-1.71-1.44c.99-1.3,1.81-2.71,2.45-4.2Z"
           id="path104" />
        <path
           d="M161.81,121.51l-1.12,1.93c-1.61-1.03-3.05-2.24-4.32-3.62l1.71-1.44c1.1,1.18,2.34,2.23,3.72,3.12Z"
           id="path105" />
        <path
           d="M186.92,118.39l1.71,1.44c-1.27,1.37-2.71,2.59-4.32,3.62l-1.12-1.93c1.38-.89,2.62-1.94,3.72-3.12Z"
           id="path106" />
        <path
           d="M183.26,88.36l1.12-1.94c1.6,1.03,3.06,2.26,4.34,3.66l-1.73,1.45c-1.11-1.2-2.36-2.27-3.74-3.16Z"
           id="path107" />
      </g>
      <text
         transform="translate(150.43 193.01) scale(.88 1)"
         style="font-family: GillSans-Bold, 'Gill Sans'; font-size: 10px; font-weight: 700; letter-spacing: -.04em;"
         id="text107"><tspan
           x="0"
           y="0"
           id="tspan107">Saturation</tspan></text>
      <text
         transform="translate(95 193.01) scale(.88 1)"
         style="font-family: GillSans-Bold, 'Gill Sans'; font-size: 10px; font-weight: 700; letter-spacing: -.04em;"
         id="text108"><tspan
           x="0"
           y="0"
           id="tspan108">Range</tspan></text>
      <g
         id="g122">
        <path
           d="M172.39,143.71c-.83,0-1.65.07-2.45.17l-.39-2.21c.93-.12,1.88-.19,2.84-.19s1.91.07,2.84.19l-.39,2.21c-.81-.1-1.62-.17-2.45-.17Z"
           id="path108" />
        <path
           d="M157.9,150.08l-1.73-1.45c1.28-1.4,2.74-2.63,4.34-3.66l1.12,1.94c-1.38.9-2.62,1.96-3.73,3.16Z"
           id="path109" />
        <path
           d="M163.37,145.91l-1.12-1.94c1.67-.87,3.46-1.53,5.34-1.95l.39,2.21c-1.62.37-3.16.94-4.61,1.69Z"
           id="path110" />
        <path
           d="M154.16,155.85l-2.1-.76c.73-1.77,1.69-3.42,2.83-4.92l1.73,1.45c-.98,1.3-1.82,2.71-2.46,4.23Z"
           id="path111" />
        <path
           d="M176.82,144.23l.39-2.21c1.88.42,3.67,1.08,5.34,1.95l-1.12,1.94c-1.44-.74-2.98-1.31-4.6-1.69Z"
           id="path112" />
        <path
           d="M152.68,162.55h-2.26c.08-1.93.41-3.8.96-5.58l2.11.77c-.47,1.53-.73,3.15-.81,4.81Z"
           id="path113" />
        <path
           d="M153.54,169.34l-2.1.76c-.57-1.79-.91-3.65-1.01-5.56h2.23c.09,1.65.39,3.25.88,4.8Z"
           id="path114" />
        <path
           d="M156.68,175.43l-1.71,1.44c-1.15-1.5-2.11-3.14-2.84-4.88l2.1-.77c.64,1.5,1.46,2.91,2.45,4.2Z"
           id="path115" />
        <path
           d="M188.17,151.62l1.73-1.45c1.14,1.5,2.1,3.15,2.83,4.92l-2.1.77c-.64-1.52-1.48-2.93-2.46-4.23Z"
           id="path116" />
        <path
           d="M191.3,157.73l2.11-.77c.55,1.78.88,3.65.96,5.58h-2.26c-.08-1.66-.34-3.28-.81-4.81Z"
           id="path117" />
        <path
           d="M192.12,164.54h2.23c-.09,1.91-.44,3.78-1.01,5.56l-2.1-.77c.48-1.54.79-3.15.88-4.8Z"
           id="path118" />
        <path
           d="M190.56,171.22l2.11.77c-.73,1.74-1.69,3.38-2.84,4.88l-1.71-1.44c.99-1.3,1.81-2.71,2.45-4.2Z"
           id="path119" />
        <path
           d="M161.7,180.07l-1.12,1.93c-1.61-1.03-3.05-2.24-4.32-3.62l1.71-1.44c1.1,1.18,2.34,2.23,3.72,3.12Z"
           id="path120" />
        <path
           d="M186.81,176.95l1.71,1.44c-1.27,1.37-2.71,2.59-4.32,3.62l-1.12-1.93c1.38-.89,2.62-1.94,3.72-3.12Z"
           id="path121" />
        <path
           d="M183.15,146.92l1.12-1.94c1.6,1.03,3.06,2.26,4.34,3.66l-1.73,1.45c-1.11-1.2-2.36-2.27-3.74-3.16Z"
           id="path122" />
      </g>
      <text
         transform="translate(23.36 254) scale(.88 1)"
         style="font-family: GillSans-Bold, 'Gill Sans'; font-size: 8px; font-weight: 700; letter-spacing: -.04em;"
         id="text122"><tspan
           x="0"
           y="0"
           id="tspan122">Trigger</tspan></text>
      <text
         transform="translate(75.15 254) scale(.88 1)"
         style="font-family: GillSans-Bold, 'Gill Sans'; font-size: 8px; font-weight: 700; letter-spacing: -.04em;"
         id="text123"><tspan
           x="0"
           y="0"
           id="tspan123">Pitch</tspan></text>
      <text
         transform="translate(118.57 254) scale(.88 1)"
         style="font-family: GillSans-Bold, 'Gill Sans'; font-size: 8px; font-weight: 700; letter-spacing: -.04em;"
         id="text124"><tspan
           x="0"
           y="0"
           id="tspan124">P Decay</tspan></text>
      <text
         transform="translate(169.37 254) scale(.88 1)"
         style="font-family: GillSans-Bold, 'Gill Sans'; font-size: 8px; font-weight: 700; letter-spacing: -.04em;"
         id="text125"><tspan
           x="0"
           y="0"
           id="tspan125">P Amt</tspan></text>
      <text
         transform="translate(21.67 294.93) scale(.88 1)"
         style="font-family: GillSans-Bold, 'Gill Sans'; font-size: 8px; font-weight: 700; letter-spacing: -.04em;"
         id="text126"><tspan
           x="0"
           y="0"
           id="tspan126">N. Color</tspan></text>
      <text
         transform="translate(114.35 335.66) scale(.88 1)"
         style="font-family: GillSans-Bold, 'Gill Sans'; font-size: 8px; font-weight: 700; letter-spacing: -.04em;"
         id="text127"><tspan
           x="0"
           y="0"
           id="tspan127">Saturation</tspan></text>
      <text
         transform="translate(68.71 294.93) scale(.88 1)"
         style="font-family: GillSans-Bold, 'Gill Sans'; font-size: 8px; font-weight: 700; letter-spacing: -.04em;"
         id="text128"><tspan
           x="0"
           y="0"
           id="tspan128">N. Decay</tspan></text>
      <text
         transform="translate(117.54 294.93) scale(.88 1)"
         style="font-family: GillSans-Bold, 'Gill Sans'; font-size: 8px; font-weight: 700; letter-spacing: -.04em;"
         id="text129"><tspan
           x="0"
           y="0"
           id="tspan129">B. Decay</tspan></text>
      <text
         transform="translate(172.98 294.93) scale(.88 1)"
         style="font-family: GillSans-Bold, 'Gill Sans'; font-size: 8px; font-weight: 700; letter-spacing: -.04em;"
         id="text130"><tspan
           x="0"
           y="0"
           id="tspan130">B/N</tspan></text>
      <text
         transform="translate(173.78 335.66) scale(.88 1)"
         style="fill: #fff; font-family: GillSans-Bold, 'Gill Sans'; font-size: 8px; font-weight: 700; letter-spacing: -.04em;"
         id="text131"><tspan
           x="0"
           y="0"
           id="tspan131">Out</tspan></text>
      <line
         x1="146.12"
         y1="163.3"
         x2="112.42"
         y2="163.3"
         style="fill: #fff; stroke: #231f20; stroke-miterlimit: 10;"
         id="line131" />
      <g
         id="g133">
        <path
           d="M99.93,18.31c-.37,0-.71-.17-.97-.47-.51-.6-.52-1.54-.04-2.16l6.97-8.88c.38-.48,1.05-.65,1.57-.39.5.25.79.82.79,1.45v4.77l4.64-5.85c.38-.48,1.01-.64,1.53-.38.5.25.83.81.83,1.44v8.82c0,.86-.61,1.57-1.36,1.57s-1.36-.7-1.36-1.57v-4.79l-4.64,5.85c-.38.48-1.01.64-1.54.38-.5-.24-.83-.81-.83-1.44v-4.67l-4.61,5.8c-.26.32-.62.51-1,.51h0Z"
           style="fill: #2cabe1;"
           id="path131" />
        <path
           d="M99.92,18.3c-.75,0-1.35-.7-1.35-1.57v-4.93l-2.26,2.84c-.5.63-1.44.65-1.97.04-.51-.6-.52-1.53-.03-2.15l4.61-5.76c.26-.32.63-.5,1-.5.18,0,.37.04.54.12.5.25.82.81.82,1.44v8.89c0,.86-.61,1.57-1.36,1.57h0Z"
           style="fill: #ea2228;"
           id="path132" />
        <path
           d="M116.52,18.33h0c-.35,0-.68-.15-.94-.42-.76-.78-.14-1.84.29-2.3l1.95-2.36-1.26-.02c-.56-.01-1.04-.4-1.24-1-.19-.56-.07-1.21.29-1.64l3.16-3.83c.23-.28.55-.48,1.13-.47.33,0,.67.17.92.4.71.66.29,1.7-.07,2.2l-1.04,1.26,1.26.02c.56.01,1.04.4,1.24,1,.19.56.07,1.21-.29,1.64l-4.1,4.97c-.35.35-.65.55-1.3.54h0Z"
           style="fill: #00a650;"
           id="path133" />
      </g>
      <text
         transform="translate(91.3 357.29) scale(.82 1)"
         style="font-family: GillSans-Bold, 'Gill Sans'; font-size: 11px; font-weight: 700;"
         id="text135"><tspan
           x="0"
           y="0"
           id="tspan133">S</tspan><tspan
           x="6.73"
           y="0"
           style="letter-spacing: -.01em;"
           id="tspan134">N</tspan><tspan
           x="16.53"
           y="0"
           id="tspan135">ARE</tspan></text>
    </g>
  </g>
  <g
     id="components"
     style="display:none">
    <circle
       id="Out"
       cx="180.38"
       cy="313.95001"
       r="11.34"
       style="fill:#0000ff" />
    <circle
       id="Saturation_CV"
       data-name="Saturation CV"
       cx="132.10001"
       cy="313.95001"
       r="11.34"
       style="fill:#00ff00" />
    <circle
       id="BN_CV"
       data-name="BN CV"
       cx="180.38"
       cy="272.34"
       r="11.34"
       style="fill:#00ff00" />
    <circle
       id="B_Decay_CV"
       data-name="B Decay CV"
       cx="132.10001"
       cy="272.34"
       r="11.34"
       style="fill:#00ff00" />
    <circle
       id="N_Decay_CV"
       data-name="N Decay CV"
       cx="83.82"
       cy="272.34"
       r="11.34"
       style="fill:#00ff00" />
    <circle
       id="N_Color_CV"
       data-name="N Color CV"
       cx="35.540001"
       cy="272.34"
       r="11.34"
       style="fill:#00ff00" />
    <circle
       id="P_Amt_CV"
       data-name="P Amt CV"
       cx="180.38"
       cy="232.21001"
       r="11.34"
       style="fill:#00ff00" />
    <circle
       id="P_Decay_CV"
       data-name="P Decay CV"
       cx="132.10001"
       cy="232.21001"
       r="11.34"
       style="fill:#00ff00" />
    <circle
       id="Pitch_CV"
       data-name="Pitch CV"
       cx="83.82"
       cy="232.21001"
       r="11.34"
       style="fill:#00ff00" />
    <circle
       id="Trigger"
       cx="35.540001"
       cy="232.21001"
       r="11.34"
       style="fill:#80ff80" />
    <circle
       id="Saturation_MediumBlackKnob"
       data-name="Saturation#MediumBlackKnob"
       cx="172.39"
       cy="163.21001"
       r="17.01"
       style="fill:#ff0000" />
    <rect
       id="Range_Switch_Low_High"
       data-name="Range Switch@Low@High"
       x="102.33"
       y="154.67"
       width="11.34"
       height="17.01"
       transform="rotate(180,108,163.18)"
       style="fill:#ff8080" />
    <circle
       id="Body_Noise_MediumBlackKnob"
       data-name="Body Noise#MediumBlackKnob"
       cx="43.5"
       cy="163.3"
       r="17.01"
       style="fill:#ff0028"
       inkscape:label="Body_Noise_Davies1900hBlackKnob" />
    <circle
       id="Body_Decay_MediumBlackKnob"
       data-name="Body Decay#MediumBlackKnob"
       cx="172.5"
       cy="104.62"
       r="17.01"
       style="fill:#ff0028"
       inkscape:label="Body_Decay_Davies1900hBlackKnob" />
    <circle
       id="Noise_Decay_MediumBlackKnob"
       data-name="Noise Decay#MediumBlackKnob"
       cx="108"
       cy="104.62"
       r="17.01"
       style="fill:#ff0021"
       inkscape:label="Noise_Decay_Davies1900hBlackKnob" />
    <circle
       id="Noise_Color_MediumBlackKnob"
       data-name="Noise Color#MediumBlackKnob"
       cx="43.5"
       cy="104.62"
       r="17.01"
       style="fill:#ff0019"
       inkscape:label="Noise_Color_Davies1900hBlackKnob" />
    <circle
       id="Pitch_Env_Amount_MediumBlackKnob"
       data-name="Pitch Env Amount#MediumBlackKnob"
       cx="172.5"
       cy="46.41"
       r="17.01"
       style="fill:#ff0019"
       inkscape:label="Pitch_Env_Amount_Davies1900hBlackKnob" />
    <circle
       id="Pitch_Decay_MediumBlackKnob"
       data-name="Pitch Decay#MediumBlackKnob"
       cx="108"
       cy="46.41"
       r="17.01"
       style="fill:#ff000f"
       inkscape:label="Pitch_Decay_Davies1900hBlackKnob" />
    <circle
       id="Pitch_MediumBlackKnob"
       data-name="Pitch#MediumBlackKnob"
       cx="43.5"
       cy="46.41"
       r="17.01"
       style="fill:#ff0019"
       inkscape:label="Pitch_Davies1900hBlackKnob" />
    <text
       id="slug"
       transform="translate(177.11,369.11)"
       style="font-size:3px;font-family:MyriadPro-Regular, 'Myriad Pro';fill:#010101"><tspan
         x="0"
         y="0"
         id="tspan136">Sna</tspan><tspan
         x="4.5900002"
         y="0"
         style="letter-spacing:-0.01em"
         id="tspan137">r</tspan><tspan
         x="5.54"
         y="0"
         id="tspan138">e</tspan></text>
    <text
       id="modulename"
       transform="translate(185.67,369.11)"
       style="font-size:3px;font-family:MyriadPro-Regular, 'Myriad Pro';fill:#010101"><tspan
         x="0"
         y="0"
         id="tspan139">Sna</tspan><tspan
         x="4.5900002"
         y="0"
         style="letter-spacing:-0.01em"
         id="tspan140">r</tspan><tspan
         x="5.54"
         y="0"
         id="tspan141">e Drum</tspan><tspan
         x="15.45"
         y="0"
         style="letter-spacing:0em"
         id="tspan142">M</tspan><tspan
         x="17.879999"
         y="0"
         style="letter-spacing:0em"
         id="tspan143">odule</tspan></text>
  </g>
</svg>
