<?xml version="1.0" encoding="UTF-8" standalone="no"?>
<svg
   width="144"
   height="369.62"
   viewBox="0 0 144 369.62"
   version="1.1"
   id="svg60"
   sodipodi:docname="Tom_info.svg"
   inkscape:version="1.4 (e7c3feb1, 2024-10-09)"
   xmlns:inkscape="http://www.inkscape.org/namespaces/inkscape"
   xmlns:sodipodi="http://sodipodi.sourceforge.net/DTD/sodipodi-0.dtd"
   xmlns="http://www.w3.org/2000/svg"
   xmlns:svg="http://www.w3.org/2000/svg">
  <defs
     id="defs60" />
  <sodipodi:namedview
     id="namedview60"
     pagecolor="#ffffff"
     bordercolor="#000000"
     borderopacity="0.25"
     inkscape:showpageshadow="2"
     inkscape:pageopacity="0.0"
     inkscape:pagecheckerboard="0"
     inkscape:deskcolor="#d1d1d1"
     inkscape:zoom="2.3754126"
     inkscape:cx="155.9729"
     inkscape:cy="184.81"
     inkscape:window-width="1424"
     inkscape:window-height="1027"
     inkscape:window-x="2121"
     inkscape:window-y="25"
     inkscape:window-maximized="0"
     inkscape:current-layer="components" />
  <g
     id="faceplate">
    <g
       id="g1">
      <rect
         x=".13"
         y=".13"
         width="143.75"
         height="364"
         style="fill: #ededed;"
         id="rect1" />
      <path
         d="M143.75.25v363.75H.25V.25h143.5M144,0H0v364.25h144V0h0Z"
         style="fill: #9d9d9e;"
         id="path1" />
    </g>
    <path
       d="M12.48,291.71v-62.01c0-7.82,6.4-14.22,14.22-14.22h90.62c7.82,0,14.22,6.4,14.22,14.22v62.01-.93,45.22c0,3.11-2.54,5.65-5.65,5.65H18.13c-3.11,0-5.65-2.54-5.65-5.65v-45.22"
       style="fill: #d1d3d4; stroke: #d1d3d4; stroke-miterlimit: 10;"
       id="path2" />
    <path
       d="M132.06,318.53v-21.52h-21.54c-7.49,0-13.57,6.52-13.57,14.57v30.53h15.07s0,0,0,0h14.39c3.12,0,5.64-2.36,5.64-5.25v-18.39.08Z"
       id="path3" />
    <g
       id="g13">
      <path
         d="M46.72,145.47l1.13-1.95c-2.75-1.43-5.84-2.3-9.12-2.44v2.26c2.87.14,5.57.89,7.99,2.14Z"
         id="path4" />
      <path
         d="M54.31,152.32l1.95-1.13c-1.72-2.68-4-4.96-6.68-6.68l-1.13,1.95c2.34,1.52,4.33,3.51,5.85,5.85Z"
         id="path5" />
      <path
         d="M27,146.47l-1.13-1.95c-2.68,1.72-4.96,4-6.68,6.68l1.95,1.13c1.52-2.34,3.51-4.33,5.85-5.85Z"
         id="path6" />
      <path
         d="M57.45,162.05h2.26c-.15-3.28-1.01-6.37-2.44-9.12l-1.95,1.13c1.24,2.42,1.99,5.13,2.14,8Z"
         id="path7" />
      <path
         d="M36.73,143.33v-2.26c-3.28.15-6.37,1.01-9.12,2.44l1.13,1.95c2.42-1.24,5.13-1.99,8-2.14Z"
         id="path8" />
      <path
         d="M21.15,173.78l-1.95,1.13c1.72,2.68,4,4.96,6.68,6.68l1.13-1.95c-2.34-1.52-4.33-3.51-5.85-5.85Z"
         id="path9" />
      <path
         d="M48.46,179.63l1.13,1.95c2.68-1.72,4.96-4,6.68-6.68l-1.95-1.13c-1.52,2.34-3.51,4.33-5.85,5.85Z"
         id="path10" />
      <path
         d="M57.45,164.05c-.14,2.87-.89,5.57-2.14,8l1.95,1.13c1.43-2.75,2.3-5.84,2.44-9.12h-2.26Z"
         id="path11" />
      <path
         d="M18.01,164.05h-2.26c.15,3.28,1.01,6.37,2.44,9.12l1.95-1.13c-1.24-2.42-1.99-5.13-2.14-8Z"
         id="path12" />
      <path
         d="M20.15,154.06l-1.95-1.13c-1.43,2.75-2.3,5.84-2.44,9.12h2.26c.14-2.87.89-5.57,2.14-8Z"
         id="path13" />
    </g>
    <g
       id="g23">
      <path
         d="M115.27,145.47l1.13-1.95c-2.75-1.43-5.84-2.3-9.12-2.44v2.26c2.87.14,5.57.89,7.99,2.14Z"
         id="path14" />
      <path
         d="M122.85,152.32l1.95-1.13c-1.72-2.68-4-4.96-6.68-6.68l-1.13,1.95c2.34,1.52,4.33,3.51,5.85,5.85Z"
         id="path15" />
      <path
         d="M95.54,146.47l-1.13-1.95c-2.68,1.72-4.96,4-6.68,6.68l1.95,1.13c1.52-2.34,3.51-4.33,5.85-5.85Z"
         id="path16" />
      <path
         d="M125.99,162.05h2.26c-.15-3.28-1.01-6.37-2.44-9.12l-1.95,1.13c1.24,2.42,1.99,5.13,2.14,8Z"
         id="path17" />
      <path
         d="M105.27,143.33v-2.26c-3.28.15-6.37,1.01-9.12,2.44l1.13,1.95c2.42-1.24,5.13-1.99,8-2.14Z"
         id="path18" />
      <path
         d="M89.69,173.78l-1.95,1.13c1.72,2.68,4,4.96,6.68,6.68l1.13-1.95c-2.34-1.52-4.33-3.51-5.85-5.85Z"
         id="path19" />
      <path
         d="M117,179.63l1.13,1.95c2.68-1.72,4.96-4,6.68-6.68l-1.95-1.13c-1.52,2.34-3.51,4.33-5.85,5.85Z"
         id="path20" />
      <path
         d="M125.99,164.05c-.14,2.87-.89,5.57-2.14,8l1.95,1.13c1.43-2.75,2.3-5.84,2.44-9.12h-2.26Z"
         id="path21" />
      <path
         d="M86.55,164.05h-2.26c.15,3.28,1.01,6.37,2.44,9.12l1.95-1.13c-1.24-2.42-1.99-5.13-2.14-8Z"
         id="path22" />
      <path
         d="M88.69,154.06l-1.95-1.13c-1.43,2.75-2.3,5.84-2.44,9.12h2.26c.14-2.87.89-5.57,2.14-8Z"
         id="path23" />
    </g>
    <path
       d="m 6.7089844,-4.6386719 q 0,0.3759766 -0.131836,0.7373047 -0.1269531,0.3564453 -0.415039,0.6689453 -0.288086,0.3076172 -0.78125,0.5029297 -0.4882813,0.1904297 -1.1523438,0.1904297 H 2.890625 V 0 H 0.84960938 V -6.7675781 H 4.2285156 q 0.6640625,0 1.1523438,0.1953125 0.493164,0.1953125 0.78125,0.5078125 0.2880859,0.3125 0.415039,0.6787109 0.131836,0.366211 0.131836,0.7470703 z m -2.0800782,0.00977 q 0,-0.4833985 -0.2880859,-0.6591797 Q 4.0576172,-5.46875 3.3203125,-5.46875 H 2.890625 v 1.6308594 h 0.4394531 q 0.5078125,0 0.78125,-0.063477 0.2734375,-0.063477 0.3955078,-0.234375 0.1220703,-0.1708984 0.1220703,-0.493164 z m 4.233789,-1.4892579 q 0,0.3076172 -0.2197265,0.522461 -0.2197266,0.2148437 -0.522461,0.2148437 -0.2050781,0 -0.3759765,-0.097656 -0.1660157,-0.097656 -0.2636719,-0.2636719 -0.097656,-0.1708984 -0.097656,-0.3759766 0,-0.3027343 0.2148438,-0.5224609 0.2148437,-0.2197266 0.5224609,-0.2197266 0.3027344,0 0.522461,0.2197266 0.2197265,0.2197266 0.2197265,0.5224609 z M 9.0042968,0 H 7.2416015 v -4.9707031 h 1.7626953 z m 4.7318362,-0.28808594 q -0.273438,0.13183594 -0.756836,0.25390625 -0.478516,0.12207031 -0.917969,0.12207031 -1.899414,0 -1.899414,-1.85546872 V -3.75 H 9.3660154 v -0.3076172 l 2.3583986,-2.4023437 h 0.200195 v 1.4892578 h 1.679688 V -3.75 h -1.679688 v 1.5917969 q 0,0.2783203 0.03418,0.4492187 0.03418,0.1708985 0.19043,0.288086 0.161132,0.1123047 0.483398,0.1123047 0.419922,0 1.103516,-0.3515625 z m 4.629297,0.0585937 q -0.219727,0.0830078 -0.463867,0.15625 -0.244141,0.06835938 -0.551758,0.11230469 -0.302734,0.04882812 -0.664063,0.04882812 -0.815429,0 -1.381836,-0.27343749 -0.561523,-0.27832032 -0.86914,-0.69335938 Q 14.132031,-1.2988281 14.014844,-1.7333984 13.897656,-2.1679688 13.897656,-2.5 q 0,-0.3320313 0.117188,-0.7666016 0.12207,-0.4345703 0.419922,-0.8398437 0.297851,-0.4052734 0.859375,-0.6787109 0.566406,-0.2734375 1.391601,-0.2734375 0.551758,0 0.898438,0.078125 0.34668,0.078125 0.703125,0.2099609 v 1.3818359 q -0.859375,-0.2734375 -1.342774,-0.2734375 -0.46875,0 -0.83496,0.2832031 -0.361329,0.2832032 -0.361329,0.8789063 0,0.3955078 0.180664,0.6689453 0.180665,0.2685547 0.458985,0.3955078 0.27832,0.1269532 0.55664,0.1269532 0.263672,0 0.600586,-0.078125 0.336914,-0.078125 0.820313,-0.2246094 z M 24.127539,0 h -1.757813 v -2.578125 q 0,-0.029297 0,-0.053711 0.0049,-0.029297 0.0049,-0.1171875 0,-0.3564454 -0.151367,-0.6542969 -0.151367,-0.2978516 -0.576172,-0.2978516 -0.332031,0 -0.585938,0.2246094 -0.253906,0.2197266 -0.483398,0.5566406 V 0 h -1.757813 v -6.7675781 h 1.757813 v 2.5097656 q 0.43457,-0.4638672 0.859375,-0.6298828 0.424805,-0.1708984 0.90332,-0.1708984 1.78711,0 1.78711,2.0068359 z m 10.469532,-3.2617188 q 0,1.0400391 -0.38086,1.6699219 -0.375976,0.62988284 -0.888672,1.02050784 Q 32.6,0 31.291407,0 h -3.652344 v -6.7675781 h 2.8125 q 0.634766,0 1.083984,0.068359 0.454102,0.063477 0.81543,0.1855468 0.361328,0.1171875 0.615234,0.2685547 0.253907,0.1464844 0.454102,0.3173828 0.34668,0.2832032 0.605469,0.6689453 0.263672,0.3857422 0.415039,0.8935547 0.15625,0.5078125 0.15625,1.1035156 z m -2.075196,-0.087891 q 0,-0.8251953 -0.317382,-1.2841797 -0.3125,-0.4638671 -0.756836,-0.6201171 -0.439453,-0.15625 -0.898438,-0.15625 h -0.86914 v 4.008789 h 0.86914 q 0.800781,0 1.386719,-0.3808594 0.585937,-0.3808593 0.585937,-1.5673828 z m 7.744532,1.2890625 H 36.76543 q 0.10254,0.4541016 0.50293,0.7421875 0.400391,0.288086 0.908203,0.288086 0.888672,0 1.962891,-0.4980469 v 1.08886717 q -0.385742,0.20019532 -0.9375,0.36621094 -0.546875,0.16113281 -1.396484,0.16113281 -0.917969,0 -1.5625,-0.34179687 -0.644532,-0.34179687 -0.966797,-0.92773435 -0.317383,-0.5859375 -0.317383,-1.328125 0,-0.7324219 0.317383,-1.3085938 0.322265,-0.5810547 0.966797,-0.9082031 0.644531,-0.3320312 1.5625,-0.3320312 0.605468,0 1.166992,0.2636718 0.566406,0.2587891 0.927734,0.8544922 0.366211,0.5908203 0.366211,1.5283203 z m -1.650391,-0.8691406 q 0,-0.4785156 -0.239257,-0.7617188 -0.234375,-0.2880859 -0.678711,-0.2880859 -0.439453,0 -0.712891,0.2929688 -0.268555,0.2880859 -0.268555,0.7568359 z m 6.37246,2.70019531 q -0.219727,0.0830078 -0.463867,0.15625 -0.244141,0.06835938 -0.551758,0.11230469 -0.302735,0.04882812 -0.664063,0.04882812 -0.815429,0 -1.381836,-0.27343749 -0.561523,-0.27832032 -0.86914,-0.69335938 Q 40.755077,-1.2988281 40.63789,-1.7333984 40.520702,-2.1679688 40.520702,-2.5 q 0,-0.3320313 0.117188,-0.7666016 0.12207,-0.4345703 0.419922,-0.8398437 0.297851,-0.4052734 0.859375,-0.6787109 0.566406,-0.2734375 1.391601,-0.2734375 0.551758,0 0.898438,0.078125 0.346679,0.078125 0.703125,0.2099609 v 1.3818359 q -0.859375,-0.2734375 -1.342774,-0.2734375 -0.46875,0 -0.834961,0.2832031 -0.361328,0.2832032 -0.361328,0.8789063 0,0.3955078 0.180664,0.6689453 0.180664,0.2685547 0.458985,0.3955078 0.27832,0.1269532 0.55664,0.1269532 0.263672,0 0.600586,-0.078125 0.336914,-0.078125 0.820313,-0.2246094 z m 5.610744,-0.0195313 q -0.385742,0.15136719 -0.71289,0.24414063 -0.327149,0.09277343 -0.786133,0.09277343 -0.43457,0 -0.605469,-0.15136718 -0.170898,-0.15625 -0.244141,-0.37597657 -0.283203,0.22949219 -0.629882,0.38085938 -0.34668,0.14648437 -0.908203,0.14648437 -0.541993,0 -0.878907,-0.18554687 -0.332031,-0.19042969 -0.46875,-0.47363281 -0.131836,-0.28808594 -0.131836,-0.59082034 0,-0.4589843 0.229493,-0.7568359 0.234375,-0.3027344 0.625,-0.4931641 0.390625,-0.1904297 1.035156,-0.3955078 0.366211,-0.1171875 0.551758,-0.1757812 0.190429,-0.063477 0.283203,-0.097656 0.09277,-0.03418 0.195312,-0.087891 0,-0.3613281 -0.146484,-0.5664063 -0.146485,-0.2050781 -0.634766,-0.2050781 -0.576172,0 -1.069336,0.2539063 -0.493164,0.2539062 -0.90332,0.6542968 v -1.3476562 q 0.327148,-0.234375 0.708008,-0.3808594 0.380859,-0.1513672 0.795898,-0.2246094 0.415039,-0.073242 0.839844,-0.073242 1.079102,0 1.621094,0.4199218 0.546875,0.4150391 0.546875,1.147461 v 1.9189453 q 0,0.2734375 0.04883,0.4101562 0.05371,0.131836 0.19043,0.131836 0.166015,0 0.449218,-0.1416016 z M 48.152931,-1.2011719 v -1.1767578 q -0.625,0.2539063 -0.913086,0.4589844 -0.288086,0.2001953 -0.288086,0.546875 0,0.2490234 0.141602,0.38085936 0.146484,0.13183594 0.336914,0.13183594 0.180664,0 0.356445,-0.0976563 0.180664,-0.10253905 0.366211,-0.24414065 z m 7.925194,-3.7695312 -3.378906,7.2314453 h -1.777344 l 1.367187,-2.91015626 -1.967773,-4.32128904 h 1.889648 L 53.22168,-2.5 54.369141,-4.9707031 Z"
       id="text23"
       style="font-weight:700;font-size:10px;font-family:GillSans-Bold, 'Gill Sans';letter-spacing:-0.04em"
       transform="translate(13.08 192.94) scale(.88 1)"
       aria-label="Pitch Decay" />
    <path
       d="M 5.9521484,0 H 0.84960938 V -6.7675781 H 5.8691406 v 1.3574219 H 2.890625 v 1.2402343 h 2.8417969 v 1.3623047 H 2.890625 v 1.4453125 h 3.0615234 z m 5.9867186,0 h -1.757812 v -2.6806641 q 0,-0.4101562 -0.136719,-0.7128906 -0.1318361,-0.3076172 -0.5859377,-0.3076172 -0.2148437,0 -0.3808593,0.083008 -0.1611328,0.078125 -0.2929688,0.2050782 -0.1269531,0.1269531 -0.2148437,0.2441406 -0.087891,0.1171875 -0.1806641,0.2490234 V 0 H 6.6312499 v -4.9707031 h 1.7578125 v 0.7128906 q 0.4150391,-0.4443359 0.8300781,-0.6201172 0.4199219,-0.180664 0.9326175,-0.180664 1.787109,0 1.787109,2.1386718 z M 17.832812,-4.9707031 15.57207,0 h -1.298828 l -2.211914,-4.9707031 h 1.889648 l 1.030274,2.602539 1.142578,-2.602539 z m 10.005664,1.7089843 q 0,1.0400391 -0.380859,1.6699219 -0.375977,0.62988284 -0.888672,1.02050784 Q 25.841406,0 24.532812,0 h -3.652344 v -6.7675781 h 2.8125 q 0.634766,0 1.083985,0.068359 0.454101,0.063477 0.815429,0.1855468 0.361329,0.1171875 0.615235,0.2685547 0.253906,0.1464844 0.454101,0.3173828 0.34668,0.2832032 0.605469,0.6689453 0.263672,0.3857422 0.415039,0.8935547 0.15625,0.5078125 0.15625,1.1035156 z m -2.075195,-0.087891 q 0,-0.8251953 -0.317383,-1.2841797 -0.3125,-0.4638671 -0.756836,-0.6201171 -0.439453,-0.15625 -0.898437,-0.15625 h -0.869141 v 4.008789 h 0.869141 q 0.800781,0 1.386718,-0.3808594 0.585938,-0.3808593 0.585938,-1.5673828 z m 7.744531,1.2890625 h -3.500976 q 0.102539,0.4541016 0.50293,0.7421875 0.40039,0.288086 0.908203,0.288086 0.888672,0 1.96289,-0.4980469 v 1.08886717 q -0.385742,0.20019532 -0.9375,0.36621094 -0.546875,0.16113281 -1.396484,0.16113281 -0.917969,0 -1.5625,-0.34179687 -0.644531,-0.34179687 -0.966797,-0.92773435 -0.317383,-0.5859375 -0.317383,-1.328125 0,-0.7324219 0.317383,-1.3085938 0.322266,-0.5810547 0.966797,-0.9082031 0.644531,-0.3320312 1.5625,-0.3320312 0.605469,0 1.166992,0.2636718 0.566406,0.2587891 0.927735,0.8544922 0.36621,0.5908203 0.36621,1.5283203 z m -1.65039,-0.8691406 q 0,-0.4785156 -0.239258,-0.7617188 -0.234375,-0.2880859 -0.678711,-0.2880859 -0.439453,0 -0.712891,0.2929688 -0.268554,0.2880859 -0.268554,0.7568359 z m 7.715233,0.4101562 q 0,0.4980469 -0.141602,0.9619141 -0.141601,0.4638672 -0.43457,0.83984376 -0.288086,0.37109375 -0.74707,0.59082032 -0.454102,0.21484374 -1.059571,0.21484374 -0.488281,0 -0.771484,-0.10253906 -0.27832,-0.10253906 -0.556641,-0.2734375 V 2.2607422 h -1.757812 v -7.2314453 h 1.757812 v 0.4492187 q 0.263672,-0.2294922 0.581055,-0.3808593 0.322266,-0.15625 0.869141,-0.15625 0.541992,0 1.064453,0.2685546 0.522461,0.2685547 0.859375,0.8398438 0.336914,0.5664062 0.336914,1.430664 z m -1.850586,0.039063 q 0,-0.4492187 -0.141602,-0.727539 -0.141601,-0.2832031 -0.366211,-0.4052735 -0.224609,-0.1269531 -0.463867,-0.1269531 -0.3125,0 -0.512695,0.1025391 -0.200196,0.097656 -0.375977,0.2490234 v 1.8994141 q 0.09277,0.048828 0.195313,0.1123047 0.107422,0.058594 0.209961,0.102539 0.107422,0.043945 0.224609,0.073242 0.12207,0.029297 0.258789,0.029297 0.415039,0 0.693359,-0.3515625 0.278321,-0.3515625 0.278321,-0.9570313 z m 6.284572,2.19238286 q -0.273437,0.13183594 -0.756836,0.25390625 -0.478515,0.12207031 -0.917968,0.12207031 -1.899414,0 -1.899414,-1.85546872 V -3.75 h -0.795899 v -0.3076172 l 2.358399,-2.4023437 h 0.200195 v 1.4892578 h 1.679687 V -3.75 h -1.679687 v 1.5917969 q 0,0.2783203 0.03418,0.4492187 0.03418,0.1708985 0.190429,0.288086 0.161133,0.1123047 0.483399,0.1123047 0.419922,0 1.103515,-0.3515625 z M 49.685741,0 h -1.757812 v -2.578125 q 0,-0.029297 0,-0.053711 0.0049,-0.029297 0.0049,-0.1171875 0,-0.3564454 -0.151367,-0.6542969 -0.151368,-0.2978516 -0.576172,-0.2978516 -0.332032,0 -0.585938,0.2246094 -0.253906,0.2197266 -0.483398,0.5566406 V 0 h -1.757813 v -6.7675781 h 1.757813 v 2.5097656 q 0.43457,-0.4638672 0.859375,-0.6298828 0.424804,-0.1708984 0.90332,-0.1708984 1.787109,0 1.787109,2.0068359 z"
       id="text24"
       style="font-weight:700;font-size:10px;font-family:GillSans-Bold, 'Gill Sans';letter-spacing:-0.04em"
       transform="translate(84.25 192.94) scale(.88 1)"
       aria-label="Env Depth" />
    <path
       d="M 5.9912109,0 H 0.84960938 V -6.7675781 H 2.890625 v 5.1464844 H 5.9912109 Z M 10.567187,2.3486328 H 9.3562498 V -6.8603516 H 10.567187 Z M 22.30625,0 h -2.041016 v -3.9208984 l -1.84082,2.2705078 H 18.263281 L 16.417578,-3.9208984 V 0 h -1.982422 v -6.7675781 h 1.850586 l 2.080078,2.5390625 2.089844,-2.5390625 h 1.850586 z m 5.098438,2.3486328 H 26.19375 v -9.2089844 h 1.210938 z M 38.421093,0 H 36.38496 V -2.6416016 H 33.313671 V 0 h -2.041016 v -6.7675781 h 2.041016 v 2.4853515 h 3.071289 v -2.4853515 h 2.036133 z"
       id="text25"
       style="font-weight:700;font-size:10px;font-family:GillSans-Bold, 'Gill Sans';letter-spacing:-0.04em"
       transform="translate(55.72 127.39) scale(.88 1)"
       aria-label="L | M | H" />
    <path
       d="M 5.8710937,-4.0976562 H 3.8867188 V 0 H 2.2578125 V -4.0976562 H 0.2734375 V -5.4140625 H 5.8710937 Z M 9.859375,-3.7617188 9.3398438,-2.3515625 Q 9.0195313,-2.65625 8.6914063,-2.65625 q -0.296875,0 -0.515625,0.203125 -0.2148438,0.1992187 -0.4140626,0.7421875 V 0 h -1.40625 v -3.9765625 h 1.40625 v 0.9609375 q 0.1328125,-0.3554688 0.4687501,-0.6914063 0.3359375,-0.3398437 0.7890625,-0.3398437 0.2382812,0 0.4140625,0.070312 0.1796875,0.070312 0.4257812,0.2148437 z m 1.472656,-1.1328124 q 0,0.2460937 -0.175781,0.4179687 -0.175781,0.171875 -0.417969,0.171875 -0.164062,0 -0.300781,-0.078125 -0.132812,-0.078125 -0.210937,-0.2109375 -0.07813,-0.1367187 -0.07813,-0.3007812 0,-0.2421875 0.171875,-0.4179688 0.171875,-0.1757812 0.417968,-0.1757812 0.242188,0 0.417969,0.1757812 0.175781,0.1757813 0.175781,0.4179688 z M 11.445313,0 h -1.410157 v -3.9765625 h 1.410157 z m 4.968749,-3.1289063 H 15.71875 q 0.367187,0.3203125 0.367187,0.7851563 0,0.2460937 -0.105468,0.4726563 -0.101563,0.2265625 -0.304688,0.4023437 -0.199218,0.1757813 -0.496093,0.2890625 -0.292969,0.109375 -0.671875,0.1328125 -0.488282,0.019531 -0.488282,0.26171875 0,0.09375 0.0625,0.13671875 0.0625,0.0429687 0.195313,0.0664063 0.136719,0.0195313 0.457031,0.046875 0.363281,0.03125 0.675781,0.109375 0.3125,0.078125 0.582032,0.328125 0.269531,0.25 0.269531,0.71484375 0,0.37109375 -0.203125,0.65625 -0.199219,0.2851562 -0.648438,0.4453125 -0.449218,0.1601562 -1.1875,0.1601562 -1.0625,0 -1.5625,-0.2851562 -0.496093,-0.2851563 -0.496093,-0.76171875 0,-0.12890625 0.0625,-0.296875 Q 12.292969,0.3671875 12.5,0.2109375 12.710938,0.0546875 13.109375,0 12.96875,-0.05078125 12.867188,-0.1953125 12.765625,-0.34375 12.765625,-0.50390625 q 0,-0.20703125 0.140625,-0.41015625 0.144531,-0.203125 0.464844,-0.2617187 -0.445313,-0.1171875 -0.769531,-0.4414063 -0.324219,-0.3242187 -0.324219,-0.8398438 0,-0.390625 0.148437,-0.6835937 0.152344,-0.2929688 0.417969,-0.4765625 0.265625,-0.1835938 0.617188,-0.2695313 0.351562,-0.089844 0.769531,-0.089844 h 2.183593 z m -1.554687,0.671875 q 0,-0.3007812 -0.207031,-0.4804687 -0.203125,-0.1835938 -0.457031,-0.1835938 -0.324219,0 -0.511719,0.21875 Q 13.5,-2.6835938 13.5,-2.4414063 q 0,0.1679688 0.07813,0.3125 0.08203,0.1445313 0.226563,0.2343751 0.148437,0.085937 0.351562,0.085937 0.304688,0 0.503906,-0.1914063 0.199219,-0.1914063 0.199219,-0.4570313 z m 0.28125,3.1992188 q 0,-0.26171875 -0.28125,-0.33984375 -0.277344,-0.0742188 -0.574219,-0.0742188 -0.488281,0 -0.707031,0.1015625 -0.214844,0.10546875 -0.214844,0.33203125 0,0.44531245 0.898438,0.44531245 0.402344,0 0.640625,-0.1171875 0.238281,-0.1132812 0.238281,-0.3476562 z m 5.777344,-3.8710938 h -0.695313 q 0.367188,0.3203125 0.367188,0.7851563 0,0.2460937 -0.105469,0.4726563 -0.101563,0.2265625 -0.304688,0.4023437 -0.199218,0.1757813 -0.496093,0.2890625 -0.292969,0.109375 -0.671875,0.1328125 -0.488282,0.019531 -0.488282,0.26171875 0,0.09375 0.0625,0.13671875 0.0625,0.0429687 0.195313,0.0664063 0.136719,0.0195313 0.457031,0.046875 0.363281,0.03125 0.675781,0.109375 0.3125,0.078125 0.582032,0.328125 0.269531,0.25 0.269531,0.71484375 0,0.37109375 -0.203125,0.65625 -0.199219,0.2851562 -0.648438,0.4453125 -0.449218,0.1601562 -1.1875,0.1601562 -1.0625,0 -1.5625,-0.2851562 -0.496093,-0.2851563 -0.496093,-0.76171875 0,-0.12890625 0.0625,-0.296875 Q 16.796875,0.3671875 17.003906,0.2109375 17.214844,0.0546875 17.613281,0 17.472656,-0.05078125 17.371094,-0.1953125 17.269531,-0.34375 17.269531,-0.50390625 q 0,-0.20703125 0.140625,-0.41015625 0.144531,-0.203125 0.464844,-0.2617187 -0.445313,-0.1171875 -0.769531,-0.4414063 -0.324219,-0.3242187 -0.324219,-0.8398438 0,-0.390625 0.148437,-0.6835937 0.152344,-0.2929688 0.417969,-0.4765625 0.265625,-0.1835938 0.617188,-0.2695313 0.351562,-0.089844 0.769531,-0.089844 h 2.183594 z m -1.554688,0.671875 q 0,-0.3007812 -0.207031,-0.4804687 -0.203125,-0.1835938 -0.457031,-0.1835938 -0.324219,0 -0.511719,0.21875 -0.183594,0.21875 -0.183594,0.4609375 0,0.1679688 0.07813,0.3125 0.08203,0.1445313 0.226563,0.2343751 0.148437,0.085937 0.351562,0.085937 0.304688,0 0.503906,-0.1914063 0.199219,-0.1914063 0.199219,-0.4570313 z m 0.28125,3.1992188 q 0,-0.26171875 -0.28125,-0.33984375 -0.277344,-0.0742188 -0.574219,-0.0742188 -0.488281,0 -0.707031,0.1015625 -0.214844,0.10546875 -0.214844,0.33203125 0,0.44531245 0.898438,0.44531245 0.402344,0 0.640625,-0.1171875 0.238281,-0.1132812 0.238281,-0.3476562 z M 25.5,-1.6484375 h -2.800781 q 0.08203,0.3632813 0.402343,0.59375 0.320313,0.23046875 0.726563,0.23046875 0.710937,0 1.570312,-0.39843745 v 0.8710937 q -0.308593,0.16015625 -0.75,0.29296875 -0.4375,0.12890625 -1.117187,0.12890625 -0.734375,0 -1.25,-0.2734375 -0.515625,-0.2734375 -0.773438,-0.7421875 -0.253906,-0.46875 -0.253906,-1.0625 0,-0.5859375 0.253906,-1.046875 0.257813,-0.4648438 0.773438,-0.7265625 0.515625,-0.265625 1.25,-0.265625 0.484375,0 0.933594,0.2109375 0.453125,0.2070312 0.742187,0.6835937 Q 25.5,-2.6796875 25.5,-1.9296875 Z M 24.179687,-2.34375 q 0,-0.3828125 -0.191406,-0.609375 -0.1875,-0.2304688 -0.542969,-0.2304688 -0.351562,0 -0.570312,0.234375 Q 22.660156,-2.71875 22.660156,-2.34375 Z M 29.6875,-3.7617188 29.167969,-2.3515625 Q 28.847656,-2.65625 28.519531,-2.65625 q -0.296875,0 -0.515625,0.203125 -0.214844,0.1992187 -0.414062,0.7421875 V 0 h -1.40625 v -3.9765625 h 1.40625 v 0.9609375 q 0.132812,-0.3554688 0.46875,-0.6914063 0.335937,-0.3398437 0.789062,-0.3398437 0.238281,0 0.414063,0.070312 0.179687,0.070312 0.425781,0.2148437 z"
       id="text26"
       style="font-weight:700;font-size:8px;font-family:GillSans-Bold, 'Gill Sans'"
       transform="translate(16.98 253.71) scale(.82 1)"
       aria-label="Trigger" />
    <path
       d="m 5.3671875,-3.7109375 q 0,0.3007812 -0.1054688,0.5898437 -0.1015625,0.2851563 -0.3320312,0.5351563 -0.2304688,0.2460937 -0.625,0.4023437 Q 3.9140625,-2.03125 3.3828125,-2.03125 H 2.3125 V 0 H 0.6796875 v -5.4140625 h 2.703125 q 0.53125,0 0.921875,0.15625 0.3945312,0.15625 0.625,0.40625 0.2304687,0.25 0.3320312,0.5429688 0.1054688,0.2929687 0.1054688,0.5976562 z m -1.6640625,0.00781 q 0,-0.3867187 -0.2304687,-0.5273437 Q 3.2460938,-4.375 2.65625,-4.375 H 2.3125 v 1.3046875 h 0.3515625 q 0.40625,0 0.625,-0.050781 0.21875,-0.050781 0.3164063,-0.1875 0.097656,-0.1367187 0.097656,-0.3945312 z m 3.7070312,-1.1914062 q 0,0.2460937 -0.1757812,0.4179687 -0.1757813,0.171875 -0.4179688,0.171875 -0.1640625,0 -0.3007812,-0.078125 -0.1328125,-0.078125 -0.2109375,-0.2109375 -0.078125,-0.1367187 -0.078125,-0.3007812 0,-0.2421875 0.171875,-0.4179688 0.171875,-0.1757812 0.4179687,-0.1757812 0.2421875,0 0.4179688,0.1757812 0.1757812,0.1757813 0.1757812,0.4179688 z M 7.5234375,0 H 6.1132812 v -3.9765625 h 1.4101563 z m 4.1054685,-0.23046875 q -0.21875,0.10546875 -0.605468,0.203125 -0.382813,0.09765625 -0.734375,0.09765625 -1.5195317,0 -1.5195317,-1.484375 V -3 H 8.1328125 v -0.2460938 l 1.8867185,-1.9218749 h 0.160157 v 1.1914062 h 1.34375 V -3 h -1.34375 v 1.2734375 q 0,0.2226563 0.02734,0.359375 0.02734,0.1367188 0.152344,0.2304688 0.128906,0.089844 0.386719,0.089844 0.335937,0 0.882812,-0.28125 z m 4.023438,0.046875 q -0.175781,0.0664063 -0.371094,0.125 -0.195312,0.0546875 -0.441406,0.08984375 -0.242188,0.0390625 -0.53125,0.0390625 -0.652344,0 -1.105469,-0.21875 Q 12.753906,-0.37109375 12.507813,-0.703125 12.265625,-1.0390625 12.171875,-1.3867187 12.078125,-1.734375 12.078125,-2 q 0,-0.265625 0.09375,-0.6132813 0.09766,-0.3476562 0.335938,-0.671875 0.238281,-0.3242187 0.6875,-0.5429687 0.453125,-0.21875 1.113281,-0.21875 0.441406,0 0.71875,0.0625 0.277344,0.0625 0.5625,0.1679687 v 1.1054688 q -0.6875,-0.21875 -1.074219,-0.21875 -0.375,0 -0.667969,0.2265625 Q 13.558594,-2.4765625 13.558594,-2 q 0,0.3164063 0.144531,0.5351563 0.144531,0.2148437 0.367188,0.3164062 0.222656,0.1015625 0.445312,0.1015625 0.210938,0 0.480469,-0.0625 0.269531,-0.0625 0.65625,-0.1796875 z M 20.582031,0 h -1.40625 v -2.0625 q 0,-0.023437 0,-0.042969 0.0039,-0.023437 0.0039,-0.09375 0,-0.2851562 -0.121093,-0.5234375 -0.121094,-0.2382812 -0.460938,-0.2382812 -0.265625,0 -0.46875,0.1796875 -0.203125,0.1757812 -0.386719,0.4453125 V 0 h -1.40625 v -5.4140625 h 1.40625 V -3.40625 q 0.347657,-0.3710938 0.6875,-0.5039063 0.339844,-0.1367187 0.722657,-0.1367187 1.429687,0 1.429687,1.6054687 z"
       id="text27"
       style="font-weight:700;font-size:8px;font-family:GillSans-Bold, 'Gill Sans'"
       transform="translate(62.97 253.71) scale(.82 1)"
       aria-label="Pitch" />
    <path
       d="m 5.3671875,-3.7109375 q 0,0.3007812 -0.1054688,0.5898437 -0.1015625,0.2851563 -0.3320312,0.5351563 -0.2304688,0.2460937 -0.625,0.4023437 Q 3.9140625,-2.03125 3.3828125,-2.03125 H 2.3125 V 0 H 0.6796875 v -5.4140625 h 2.703125 q 0.53125,0 0.921875,0.15625 0.3945312,0.15625 0.625,0.40625 0.2304687,0.25 0.3320312,0.5429688 0.1054688,0.2929687 0.1054688,0.5976562 z m -1.6640625,0.00781 q 0,-0.3867187 -0.2304687,-0.5273437 Q 3.2460938,-4.375 2.65625,-4.375 H 2.3125 v 1.3046875 h 0.3515625 q 0.40625,0 0.625,-0.050781 0.21875,-0.050781 0.3164063,-0.1875 0.097656,-0.1367187 0.097656,-0.3945312 z m 2.9375,2.93359375 q 0,0.3515625 -0.2421875,0.59765625 -0.2382813,0.2421875 -0.5898438,0.2421875 -0.3476562,0 -0.5976562,-0.24609375 -0.25,-0.24609375 -0.25,-0.59375 0,-0.35156245 0.25,-0.59374995 0.25,-0.2460938 0.5976562,-0.2460938 0.21875,0 0.4140625,0.1132813 Q 6.421875,-1.3828125 6.53125,-1.1914062 6.640625,-1 6.640625,-0.76953125 Z M 15.539063,-2.609375 q 0,0.8320313 -0.304688,1.3359375 -0.300781,0.50390625 -0.710937,0.81640625 Q 13.941406,0 12.894531,0 H 9.9726563 v -5.4140625 h 2.2499997 q 0.507813,0 0.867188,0.054687 0.363281,0.050781 0.652344,0.1484375 0.289062,0.09375 0.492187,0.2148438 0.203125,0.1171875 0.363281,0.2539062 0.277344,0.2265625 0.484375,0.5351563 0.210938,0.3085937 0.332032,0.7148437 0.125,0.40625 0.125,0.8828125 z m -1.660157,-0.070312 q 0,-0.6601563 -0.253906,-1.0273438 -0.25,-0.3710937 -0.605469,-0.4960937 -0.351562,-0.125 -0.71875,-0.125 h -0.695312 v 3.2070313 h 0.695312 q 0.640625,0 1.109375,-0.3046875 0.46875,-0.3046875 0.46875,-1.2539063 z m 6.515625,1.03125 H 17.59375 q 0.08203,0.3632813 0.402344,0.59375 0.320312,0.23046875 0.726562,0.23046875 0.710938,0 1.570313,-0.39843745 v 0.8710937 q -0.308594,0.16015625 -0.75,0.29296875 -0.4375,0.12890625 -1.117188,0.12890625 -0.734375,0 -1.25,-0.2734375 -0.515625,-0.2734375 -0.773437,-0.7421875 -0.253907,-0.46875 -0.253907,-1.0625 0,-0.5859375 0.253907,-1.046875 0.257812,-0.4648438 0.773437,-0.7265625 0.515625,-0.265625 1.25,-0.265625 0.484375,0 0.933594,0.2109375 0.453125,0.2070312 0.742187,0.6835937 0.292969,0.4726563 0.292969,1.2226563 z M 19.074219,-2.34375 q 0,-0.3828125 -0.191407,-0.609375 -0.1875,-0.2304688 -0.542968,-0.2304688 -0.351563,0 -0.570313,0.234375 -0.214844,0.2304688 -0.214844,0.6054688 z m 5.417968,2.16015625 q -0.175781,0.0664063 -0.371093,0.125 -0.195313,0.0546875 -0.441407,0.08984375 -0.242187,0.0390625 -0.53125,0.0390625 -0.652343,0 -1.105468,-0.21875 Q 21.59375,-0.37109375 21.347656,-0.703125 21.105469,-1.0390625 21.011719,-1.3867187 20.917969,-1.734375 20.917969,-2 q 0,-0.265625 0.09375,-0.6132813 0.09766,-0.3476562 0.335937,-0.671875 0.238281,-0.3242187 0.6875,-0.5429687 0.453125,-0.21875 1.113281,-0.21875 0.441407,0 0.71875,0.0625 0.277344,0.0625 0.5625,0.1679687 v 1.1054688 q -0.6875,-0.21875 -1.074218,-0.21875 -0.375,0 -0.667969,0.2265625 Q 22.398437,-2.4765625 22.398437,-2 q 0,0.3164063 0.144532,0.5351563 0.144531,0.2148437 0.367187,0.3164062 0.222656,0.1015625 0.445313,0.1015625 0.210937,0 0.480468,-0.0625 0.269532,-0.0625 0.65625,-0.1796875 z m 4.808594,-0.015625 q -0.308594,0.12109375 -0.570312,0.1953125 -0.261719,0.07421875 -0.628907,0.07421875 -0.347656,0 -0.484375,-0.12109375 -0.136718,-0.125 -0.195312,-0.30078125 -0.226563,0.18359375 -0.503906,0.3046875 -0.277344,0.1171875 -0.726563,0.1171875 -0.433594,0 -0.703125,-0.1484375 -0.265625,-0.15234375 -0.375,-0.37890625 Q 25.007812,-0.6875 25.007812,-0.9296875 q 0,-0.3671875 0.183594,-0.6054687 0.1875,-0.2421875 0.5,-0.3945313 0.3125,-0.1523438 0.828125,-0.3164063 0.292969,-0.09375 0.441406,-0.140625 0.152344,-0.050781 0.226563,-0.078125 0.07422,-0.027344 0.15625,-0.070312 0,-0.2890625 -0.117188,-0.453125 -0.117187,-0.1640625 -0.507812,-0.1640625 -0.460938,0 -0.855469,0.203125 -0.394531,0.203125 -0.722656,0.5234375 v -1.078125 q 0.261719,-0.1875 0.566406,-0.3046875 0.304688,-0.1210937 0.636719,-0.1796875 0.332031,-0.058594 0.671875,-0.058594 0.863281,0 1.296875,0.3359375 0.4375,0.3320312 0.4375,0.9179687 v 1.5351563 q 0,0.21875 0.03906,0.328125 0.04297,0.10546875 0.152344,0.10546875 0.132813,0 0.359375,-0.11328125 z M 27.34375,-0.9609375 v -0.9414062 q -0.5,0.203125 -0.730469,0.3671875 -0.230469,0.1601562 -0.230469,0.4375 0,0.1992187 0.113282,0.30468745 0.117187,0.10546875 0.269531,0.10546875 0.144531,0 0.285156,-0.078125 0.144531,-0.0820313 0.292969,-0.1953125 z m 6.660156,-3.015625 -2.703125,5.7851562 h -1.421875 l 1.09375,-2.32812495 -1.574219,-3.45703125 h 1.511719 L 31.71875,-2 32.636719,-3.9765625 Z"
       id="text28"
       style="font-weight:700;font-size:8px;font-family:GillSans-Bold, 'Gill Sans'"
       transform="translate(16.98 294.69) scale(.82 1)"
       aria-label="P. Decay" />
    <path
       d="M 4.7617187,0 H 0.6796875 v -5.4140625 h 4.015625 V -4.328125 H 2.3125 v 0.9921875 h 2.2734375 v 1.0898437 H 2.3125 v 1.1562501 h 2.4492187 z m 5.1093751,0 h -1.40625 v -2.1445313 q 0,-0.328125 -0.109375,-0.5703125 Q 8.25,-2.9609375 7.8867187,-2.9609375 q -0.171875,0 -0.3046875,0.066406 -0.1289062,0.0625 -0.234375,0.1640625 -0.1015625,0.1015625 -0.171875,0.1953125 -0.070312,0.09375 -0.1445312,0.1992188 V 0 H 5.625 V -3.9765625 H 7.03125 V -3.40625 Q 7.3632812,-3.7617188 7.6953125,-3.9023438 8.03125,-4.046875 8.4414063,-4.046875 q 1.4296875,0 1.4296875,1.7109375 z M 14.90625,-3.9765625 13.097656,0 h -1.039062 l -1.769531,-3.9765625 h 1.511718 l 0.824219,2.0820313 0.914063,-2.0820313 z m 1.535156,3.20703125 q 0,0.3515625 -0.242187,0.59765625 -0.238281,0.2421875 -0.589844,0.2421875 -0.347656,0 -0.597656,-0.24609375 -0.25,-0.24609375 -0.25,-0.59375 0,-0.35156245 0.25,-0.59374995 0.25,-0.2460938 0.597656,-0.2460938 0.21875,0 0.414062,0.1132813 0.199219,0.1132812 0.308594,0.3046875 Q 16.441406,-1 16.441406,-0.76953125 Z M 25.339844,-2.609375 q 0,0.8320313 -0.304688,1.3359375 -0.300781,0.50390625 -0.710937,0.81640625 Q 23.742187,0 22.695312,0 h -2.921875 v -5.4140625 h 2.25 q 0.507813,0 0.867188,0.054687 0.363281,0.050781 0.652344,0.1484375 0.289062,0.09375 0.492187,0.2148438 0.203125,0.1171875 0.363281,0.2539062 0.277344,0.2265625 0.484375,0.5351563 0.210938,0.3085937 0.332032,0.7148437 0.125,0.40625 0.125,0.8828125 z m -1.660157,-0.070312 q 0,-0.6601563 -0.253906,-1.0273438 -0.25,-0.3710937 -0.605469,-0.4960937 -0.351562,-0.125 -0.71875,-0.125 H 21.40625 v 3.2070313 h 0.695312 q 0.640625,0 1.109375,-0.3046875 0.46875,-0.3046875 0.46875,-1.2539063 z m 6.515625,1.03125 h -2.800781 q 0.08203,0.3632813 0.402344,0.59375 0.320312,0.23046875 0.726562,0.23046875 0.710938,0 1.570313,-0.39843745 v 0.8710937 q -0.308594,0.16015625 -0.75,0.29296875 -0.4375,0.12890625 -1.117188,0.12890625 -0.734375,0 -1.25,-0.2734375 -0.515625,-0.2734375 -0.773437,-0.7421875 -0.253906,-0.46875 -0.253906,-1.0625 0,-0.5859375 0.253906,-1.046875 0.257812,-0.4648438 0.773437,-0.7265625 0.515625,-0.265625 1.25,-0.265625 0.484375,0 0.933594,0.2109375 0.453125,0.2070312 0.742188,0.6835937 0.292968,0.4726563 0.292968,1.2226563 z M 28.875,-2.34375 q 0,-0.3828125 -0.191406,-0.609375 -0.1875,-0.2304688 -0.542969,-0.2304688 -0.351563,0 -0.570313,0.234375 -0.214843,0.2304688 -0.214843,0.6054688 z m 6.492187,0.328125 q 0,0.3984375 -0.113281,0.7695313 -0.113281,0.3710937 -0.347656,0.67187495 -0.230469,0.296875 -0.597656,0.47265625 -0.363282,0.171875 -0.847657,0.171875 -0.390625,0 -0.617187,-0.08203125 -0.222656,-0.08203125 -0.445313,-0.21875 V 1.8085937 h -1.40625 v -5.7851562 h 1.40625 v 0.359375 q 0.210938,-0.1835938 0.464844,-0.3046875 0.257813,-0.125 0.695313,-0.125 0.433593,0 0.851562,0.2148437 0.417969,0.2148438 0.6875,0.671875 0.269531,0.453125 0.269531,1.1445313 z m -1.480468,0.03125 q 0,-0.359375 -0.113282,-0.5820313 -0.113281,-0.2265625 -0.292968,-0.3242187 -0.179688,-0.1015625 -0.371094,-0.1015625 -0.25,0 -0.410156,0.082031 -0.160157,0.078125 -0.300782,0.1992188 v 1.5195313 q 0.07422,0.039063 0.15625,0.089844 0.08594,0.046875 0.167969,0.082031 0.08594,0.0351562 0.179688,0.0585937 Q 33,-0.9375 33.109375,-0.9375 q 0.332031,0 0.554687,-0.28125 0.222657,-0.28125 0.222657,-0.765625 z m 5.347656,1.75390625 q -0.21875,0.10546875 -0.605469,0.203125 -0.382812,0.09765625 -0.734375,0.09765625 -1.519531,0 -1.519531,-1.484375 V -3 H 35.738281 V -3.2460938 L 37.625,-5.1679687 h 0.160156 v 1.1914062 h 1.34375 V -3 h -1.34375 v 1.2734375 q 0,0.2226563 0.02734,0.359375 0.02734,0.1367188 0.152344,0.2304688 0.128906,0.089844 0.386718,0.089844 0.335938,0 0.882813,-0.28125 z M 44.097656,0 h -1.40625 v -2.0625 q 0,-0.023437 0,-0.042969 0.0039,-0.023437 0.0039,-0.09375 0,-0.2851562 -0.121093,-0.5234375 -0.121094,-0.2382812 -0.460938,-0.2382812 -0.265625,0 -0.46875,0.1796875 -0.203125,0.1757812 -0.386719,0.4453125 V 0 h -1.40625 v -5.4140625 h 1.40625 V -3.40625 q 0.347657,-0.3710938 0.6875,-0.5039063 0.339844,-0.1367187 0.722657,-0.1367187 1.429687,0 1.429687,1.6054687 z"
       id="text29"
       style="font-weight:700;font-size:8px;font-family:GillSans-Bold, 'Gill Sans'"
       transform="translate(91.9 294.69) scale(.82 1)"
       aria-label="Env. Depth" />
    <path
       d="m 6.4726562,-2.7109375 q 0,0.7578125 -0.3515625,1.3945313 -0.3476562,0.6367187 -1.0390625,1.0117187 -0.6914062,0.375 -1.6835937,0.375 -1.0039062,0 -1.6992188,-0.390625 Q 1.0039062,-0.7109375 0.6640625,-1.3476562 0.328125,-1.984375 0.328125,-2.7109375 q 0,-0.7304688 0.3359375,-1.3632812 Q 1,-4.7109375 1.6953125,-5.0976562 q 0.6992188,-0.390625 1.703125,-0.390625 0.75,0 1.3359375,0.2226562 0.5898437,0.2226563 0.96875,0.6054688 0.3789062,0.3789062 0.5742187,0.8867187 0.1953125,0.5039062 0.1953125,1.0625 z m -1.6640625,0 q 0,-0.3046875 -0.089844,-0.5546875 -0.089844,-0.2539063 -0.2734375,-0.4375 -0.1796875,-0.1875 -0.4414063,-0.2890625 -0.2617187,-0.1054687 -0.6054687,-0.1054687 -0.65625,0 -1.03125,0.3828124 -0.375,0.3828125 -0.375,1.0039063 0,0.6210937 0.375,1.0078125 0.3789063,0.3828125 1.03125,0.3828125 0.4492188,0 0.765625,-0.1757812 0.3164062,-0.1796875 0.4804687,-0.4921875 0.1640625,-0.3164063 0.1640625,-0.7226563 z M 11.449219,0 h -1.410156 v -0.56640625 q -0.2968755,0.3203125 -0.6250005,0.48046875 -0.3242187,0.15625 -0.78125,0.15625 -0.9023438,0 -1.1679688,-0.5234375 -0.265625,-0.52734375 -0.265625,-1.1875 V -3.9765625 H 8.609375 v 2.1484375 q 0,0.3242188 0.1054688,0.5703125 0.109375,0.2421875 0.46875,0.2421875 0.3085937,0 0.4882812,-0.1757812 0.1796875,-0.1757813 0.367188,-0.4492188 v -2.3359375 h 1.410156 z m 4.035156,-0.23046875 q -0.21875,0.10546875 -0.605469,0.203125 -0.382812,0.09765625 -0.734375,0.09765625 -1.519531,0 -1.519531,-1.484375 V -3 H 11.988281 V -3.2460938 L 13.875,-5.1679687 h 0.160156 v 1.1914062 h 1.34375 V -3 h -1.34375 v 1.2734375 q 0,0.2226563 0.02734,0.359375 0.02734,0.1367188 0.152344,0.2304688 0.128906,0.089844 0.386719,0.089844 0.335937,0 0.882812,-0.28125 z"
       id="text30"
       style="font-weight:700;font-size:8px;font-family:GillSans-Bold, 'Gill Sans';fill:#ffffff"
       transform="translate(108.24 335.63) scale(.82 1)"
       aria-label="Out" />
    <g
       id="g39">
      <path
         d="M115.27,40.28l1.13-1.95c-2.75-1.43-5.84-2.3-9.12-2.44v2.26c2.87.14,5.57.89,7.99,2.14Z"
         id="path30" />
      <path
         d="M122.85,47.13l1.95-1.13c-1.72-2.68-4-4.96-6.68-6.68l-1.13,1.95c2.34,1.52,4.33,3.51,5.85,5.85Z"
         id="path31" />
      <path
         d="M95.54,41.28l-1.13-1.95c-2.68,1.72-4.96,4-6.68,6.68l1.95,1.13c1.52-2.34,3.51-4.33,5.85-5.85Z"
         id="path32" />
      <path
         d="M125.99,56.86h2.26c-.15-3.28-1.01-6.37-2.44-9.12l-1.95,1.13c1.24,2.42,1.99,5.13,2.14,8Z"
         id="path33" />
      <path
         d="M105.27,38.14v-2.26c-3.28.15-6.37,1.01-9.12,2.44l1.13,1.95c2.42-1.24,5.13-1.99,8-2.14Z"
         id="path34" />
      <path
         d="M89.69,68.59l-1.95,1.13c1.72,2.68,4,4.96,6.68,6.68l1.13-1.95c-2.34-1.52-4.33-3.51-5.85-5.85Z"
         id="path35" />
      <path
         d="M117,74.44l1.13,1.95c2.68-1.72,4.96-4,6.68-6.68l-1.95-1.13c-1.52,2.34-3.51,4.33-5.85,5.85Z"
         id="path36" />
      <path
         d="M125.99,58.86c-.14,2.87-.89,5.57-2.14,8l1.95,1.13c1.43-2.75,2.3-5.84,2.44-9.12h-2.26Z"
         id="path37" />
      <path
         d="M86.55,58.86h-2.26c.15,3.28,1.01,6.37,2.44,9.12l1.95-1.13c-1.24-2.42-1.99-5.13-2.14-8Z"
         id="path38" />
      <path
         d="M88.69,48.86l-1.95-1.13c-1.43,2.75-2.3,5.84-2.44,9.12h2.26c.14-2.87.89-5.57,2.14-8Z"
         id="path39" />
    </g>
    <path
       d="M 8.28125,0 H 6.1914062 L 5.6396484,-1.3720703 H 2.7001953 L 2.1386719,0 H 0.04882812 L 3.0419922,-6.7675781 H 5.2978516 Z M 5.1708984,-2.5488281 4.1796875,-5.0195312 3.1787109,-2.5488281 Z M 17.349023,0 h -1.757812 v -2.6513672 q 0,-0.5273437 -0.175781,-0.7861328 -0.170899,-0.2636719 -0.546875,-0.2636719 -0.366211,0 -0.600586,0.2246094 -0.234375,0.2197266 -0.46875,0.5566406 V 0 h -1.757813 v -2.6513672 q 0,-0.5029297 -0.161133,-0.7763672 -0.161132,-0.2734375 -0.571289,-0.2734375 -0.195312,0 -0.361328,0.078125 -0.161133,0.078125 -0.263672,0.1757813 -0.102539,0.097656 -0.249023,0.2880859 -0.146485,0.1904297 -0.185547,0.2392578 V 0 H 8.4916015 v -4.9707031 h 1.7578125 v 0.7128906 q 0.395508,-0.4199219 0.805664,-0.6103516 0.410156,-0.1904296 0.947266,-0.1904296 0.253906,0 0.483398,0.048828 0.229492,0.043945 0.449219,0.15625 0.224609,0.1123047 0.405273,0.3076172 0.180664,0.1953125 0.288086,0.4541015 0.424805,-0.4785156 0.878906,-0.7226562 0.458985,-0.2441406 1.054688,-0.2441406 0.595703,0 0.996094,0.2392578 0.405273,0.2392578 0.595703,0.6933593 0.195312,0.4492188 0.195312,1.09375 z m 6.103907,-2.5195313 q 0,0.4980469 -0.141601,0.9619141 -0.141602,0.4638672 -0.43457,0.83984376 -0.288086,0.37109375 -0.747071,0.59082032 -0.454101,0.21484374 -1.05957,0.21484374 -0.488281,0 -0.771484,-0.10253906 -0.278321,-0.10253906 -0.556641,-0.2734375 V 2.2607422 H 17.98418 v -7.2314453 h 1.757813 v 0.4492187 q 0.263672,-0.2294922 0.581055,-0.3808593 0.322265,-0.15625 0.86914,-0.15625 0.541992,0 1.064453,0.2685546 0.522461,0.2685547 0.859375,0.8398438 0.336914,0.5664062 0.336914,1.430664 z m -1.850585,0.039063 q 0,-0.4492187 -0.141602,-0.727539 -0.141602,-0.2832031 -0.366211,-0.4052735 -0.224609,-0.1269531 -0.463867,-0.1269531 -0.3125,0 -0.512695,0.1025391 -0.200196,0.097656 -0.375977,0.2490234 v 1.8994141 q 0.09277,0.048828 0.195312,0.1123047 0.107422,0.058594 0.209961,0.102539 0.107422,0.043945 0.22461,0.073242 0.12207,0.029297 0.258789,0.029297 0.415039,0 0.693359,-0.3515625 0.278321,-0.3515625 0.278321,-0.9570313 z m 12.178514,-0.78125 q 0,1.0400391 -0.380859,1.6699219 -0.375977,0.62988284 -0.888672,1.02050784 Q 31.783789,0 30.475195,0 h -3.652344 v -6.7675781 h 2.8125 q 0.634766,0 1.083985,0.068359 0.454101,0.063477 0.815429,0.1855468 0.361328,0.1171875 0.615235,0.2685547 0.253906,0.1464844 0.454101,0.3173828 0.34668,0.2832032 0.605469,0.6689453 0.263672,0.3857422 0.415039,0.8935547 0.15625,0.5078125 0.15625,1.1035156 z m -2.075195,-0.087891 q 0,-0.8251953 -0.317383,-1.2841797 -0.3125,-0.4638671 -0.756836,-0.6201171 -0.439453,-0.15625 -0.898438,-0.15625 h -0.86914 v 4.008789 h 0.86914 q 0.800782,0 1.386719,-0.3808594 0.585938,-0.3808593 0.585938,-1.5673828 z m 7.744531,1.2890625 h -3.500976 q 0.102539,0.4541016 0.502929,0.7421875 0.400391,0.288086 0.908204,0.288086 0.888671,0 1.96289,-0.4980469 v 1.08886717 q -0.385742,0.20019532 -0.9375,0.36621094 -0.546875,0.16113281 -1.396484,0.16113281 -0.917969,0 -1.5625,-0.34179687 -0.644531,-0.34179687 -0.966797,-0.92773435 -0.317383,-0.5859375 -0.317383,-1.328125 0,-0.7324219 0.317383,-1.3085938 0.322266,-0.5810547 0.966797,-0.9082031 0.644531,-0.3320312 1.5625,-0.3320312 0.605469,0 1.166992,0.2636718 0.566406,0.2587891 0.927734,0.8544922 0.366211,0.5908203 0.366211,1.5283203 z m -1.65039,-0.8691406 q 0,-0.4785156 -0.239258,-0.7617188 -0.234375,-0.2880859 -0.678711,-0.2880859 -0.439453,0 -0.712891,0.2929688 -0.268554,0.2880859 -0.268554,0.7568359 z m 6.372459,2.70019531 q -0.219726,0.0830078 -0.463867,0.15625 -0.244141,0.06835938 -0.551758,0.11230469 -0.302734,0.04882812 -0.664062,0.04882812 -0.81543,0 -1.381836,-0.27343749 Q 40.549217,-0.46386719 40.2416,-0.87890625 39.938866,-1.2988281 39.821678,-1.7333984 39.704491,-2.1679688 39.704491,-2.5 q 0,-0.3320313 0.117187,-0.7666016 0.12207,-0.4345703 0.419922,-0.8398437 0.297852,-0.4052734 0.859375,-0.6787109 0.566406,-0.2734375 1.391602,-0.2734375 0.551757,0 0.898437,0.078125 0.34668,0.078125 0.703125,0.2099609 v 1.3818359 q -0.859375,-0.2734375 -1.342773,-0.2734375 -0.46875,0 -0.834961,0.2832031 -0.361328,0.2832032 -0.361328,0.8789063 0,0.3955078 0.180664,0.6689453 0.180664,0.2685547 0.458984,0.3955078 0.27832,0.1269532 0.556641,0.1269532 0.263672,0 0.600586,-0.078125 0.336914,-0.078125 0.820312,-0.2246094 z m 5.610745,-0.0195313 q -0.385743,0.15136719 -0.712891,0.24414063 -0.327148,0.09277343 -0.786133,0.09277343 -0.43457,0 -0.605469,-0.15136718 -0.170898,-0.15625 -0.24414,-0.37597657 -0.283203,0.22949219 -0.629883,0.38085938 -0.34668,0.14648437 -0.908203,0.14648437 -0.541992,0 -0.878906,-0.18554687 -0.332032,-0.19042969 -0.46875,-0.47363281 -0.131836,-0.28808594 -0.131836,-0.59082034 0,-0.4589843 0.229492,-0.7568359 0.234375,-0.3027344 0.625,-0.4931641 0.390625,-0.1904297 1.035156,-0.3955078 0.366211,-0.1171875 0.551758,-0.1757812 0.19043,-0.063477 0.283203,-0.097656 0.09277,-0.03418 0.195313,-0.087891 0,-0.3613281 -0.146485,-0.5664063 -0.146484,-0.2050781 -0.634765,-0.2050781 -0.576172,0 -1.069336,0.2539063 -0.493164,0.2539062 -0.903321,0.6542968 v -1.3476562 q 0.327149,-0.234375 0.708008,-0.3808594 0.380859,-0.1513672 0.795899,-0.2246094 0.415039,-0.073242 0.839843,-0.073242 1.079102,0 1.621094,0.4199218 0.546875,0.4150391 0.546875,1.147461 v 1.9189453 q 0,0.2734375 0.04883,0.4101562 0.05371,0.131836 0.19043,0.131836 0.166015,0 0.449219,-0.1416016 z M 47.33672,-1.2011719 v -1.1767578 q -0.625,0.2539063 -0.913086,0.4589844 -0.288086,0.2001953 -0.288086,0.546875 0,0.2490234 0.141601,0.38085936 0.146485,0.13183594 0.336914,0.13183594 0.180664,0 0.356446,-0.0976563 0.180664,-0.10253905 0.366211,-0.24414065 z m 7.925193,-3.7695312 -3.378906,7.2314453 h -1.777344 l 1.367188,-2.91015626 -1.967774,-4.32128904 h 1.889649 L 52.405468,-2.5 53.552929,-4.9707031 Z"
       id="text39"
       style="font-weight:700;font-size:10px;font-family:GillSans-Bold, 'Gill Sans';letter-spacing:-0.04em"
       transform="translate(81.96 87.63) scale(.88 1)"
       aria-label="Amp Decay" />
    <g
       id="g49">
      <path
         d="M46.72,40.28l1.13-1.95c-2.75-1.43-5.84-2.3-9.12-2.44v2.26c2.87.14,5.57.89,7.99,2.14Z"
         id="path40" />
      <path
         d="M54.31,47.13l1.95-1.13c-1.72-2.68-4-4.96-6.68-6.68l-1.13,1.95c2.34,1.52,4.33,3.51,5.85,5.85Z"
         id="path41" />
      <path
         d="M27,41.28l-1.13-1.95c-2.68,1.72-4.96,4-6.68,6.68l1.95,1.13c1.52-2.34,3.51-4.33,5.85-5.85Z"
         id="path42" />
      <path
         d="M57.45,56.86h2.26c-.15-3.28-1.01-6.37-2.44-9.12l-1.95,1.13c1.24,2.42,1.99,5.13,2.14,8Z"
         id="path43" />
      <path
         d="M36.73,38.14v-2.26c-3.28.15-6.37,1.01-9.12,2.44l1.13,1.95c2.42-1.24,5.13-1.99,8-2.14Z"
         id="path44" />
      <path
         d="M21.15,68.59l-1.95,1.13c1.72,2.68,4,4.96,6.68,6.68l1.13-1.95c-2.34-1.52-4.33-3.51-5.85-5.85Z"
         id="path45" />
      <path
         d="M48.46,74.44l1.13,1.95c2.68-1.72,4.96-4,6.68-6.68l-1.95-1.13c-1.52,2.34-3.51,4.33-5.85,5.85Z"
         id="path46" />
      <path
         d="M57.45,58.86c-.14,2.87-.89,5.57-2.14,8l1.95,1.13c1.43-2.75,2.3-5.84,2.44-9.12h-2.26Z"
         id="path47" />
      <path
         d="M18.01,58.86h-2.26c.15,3.28,1.01,6.37,2.44,9.12l1.95-1.13c-1.24-2.42-1.99-5.13-2.14-8Z"
         id="path48" />
      <path
         d="M20.15,48.86l-1.95-1.13c-1.43,2.75-2.3,5.84-2.44,9.12h2.26c.14-2.87.89-5.57,2.14-8Z"
         id="path49" />
    </g>
    <path
       d="m 6.7089844,-4.6386719 q 0,0.3759766 -0.131836,0.7373047 -0.1269531,0.3564453 -0.415039,0.6689453 -0.288086,0.3076172 -0.78125,0.5029297 -0.4882813,0.1904297 -1.1523438,0.1904297 H 2.890625 V 0 H 0.84960938 V -6.7675781 H 4.2285156 q 0.6640625,0 1.1523438,0.1953125 0.493164,0.1953125 0.78125,0.5078125 0.2880859,0.3125 0.415039,0.6787109 0.131836,0.366211 0.131836,0.7470703 z m -2.0800782,0.00977 q 0,-0.4833985 -0.2880859,-0.6591797 Q 4.0576172,-5.46875 3.3203125,-5.46875 H 2.890625 v 1.6308594 h 0.4394531 q 0.5078125,0 0.78125,-0.063477 0.2734375,-0.063477 0.3955078,-0.234375 0.1220703,-0.1708984 0.1220703,-0.493164 z m 4.233789,-1.4892579 q 0,0.3076172 -0.2197265,0.522461 -0.2197266,0.2148437 -0.522461,0.2148437 -0.2050781,0 -0.3759765,-0.097656 -0.1660157,-0.097656 -0.2636719,-0.2636719 -0.097656,-0.1708984 -0.097656,-0.3759766 0,-0.3027343 0.2148438,-0.5224609 0.2148437,-0.2197266 0.5224609,-0.2197266 0.3027344,0 0.522461,0.2197266 0.2197265,0.2197266 0.2197265,0.5224609 z M 9.0042968,0 H 7.2416015 v -4.9707031 h 1.7626953 z m 4.7318362,-0.28808594 q -0.273438,0.13183594 -0.756836,0.25390625 -0.478516,0.12207031 -0.917969,0.12207031 -1.899414,0 -1.899414,-1.85546872 V -3.75 H 9.3660154 v -0.3076172 l 2.3583986,-2.4023437 h 0.200195 v 1.4892578 h 1.679688 V -3.75 h -1.679688 v 1.5917969 q 0,0.2783203 0.03418,0.4492187 0.03418,0.1708985 0.19043,0.288086 0.161132,0.1123047 0.483398,0.1123047 0.419922,0 1.103516,-0.3515625 z m 4.629297,0.0585937 q -0.219727,0.0830078 -0.463867,0.15625 -0.244141,0.06835938 -0.551758,0.11230469 -0.302734,0.04882812 -0.664063,0.04882812 -0.815429,0 -1.381836,-0.27343749 -0.561523,-0.27832032 -0.86914,-0.69335938 Q 14.132031,-1.2988281 14.014844,-1.7333984 13.897656,-2.1679688 13.897656,-2.5 q 0,-0.3320313 0.117188,-0.7666016 0.12207,-0.4345703 0.419922,-0.8398437 0.297851,-0.4052734 0.859375,-0.6787109 0.566406,-0.2734375 1.391601,-0.2734375 0.551758,0 0.898438,0.078125 0.34668,0.078125 0.703125,0.2099609 v 1.3818359 q -0.859375,-0.2734375 -1.342774,-0.2734375 -0.46875,0 -0.83496,0.2832031 -0.361329,0.2832032 -0.361329,0.8789063 0,0.3955078 0.180664,0.6689453 0.180665,0.2685547 0.458985,0.3955078 0.27832,0.1269532 0.55664,0.1269532 0.263672,0 0.600586,-0.078125 0.336914,-0.078125 0.820313,-0.2246094 z M 24.127539,0 h -1.757813 v -2.578125 q 0,-0.029297 0,-0.053711 0.0049,-0.029297 0.0049,-0.1171875 0,-0.3564454 -0.151367,-0.6542969 -0.151367,-0.2978516 -0.576172,-0.2978516 -0.332031,0 -0.585938,0.2246094 -0.253906,0.2197266 -0.483398,0.5566406 V 0 h -1.757813 v -6.7675781 h 1.757813 v 2.5097656 q 0.43457,-0.4638672 0.859375,-0.6298828 0.424805,-0.1708984 0.90332,-0.1708984 1.78711,0 1.78711,2.0068359 z"
       id="text49"
       style="font-weight:700;font-size:10px;font-family:GillSans-Bold, 'Gill Sans';letter-spacing:-0.04em"
       transform="translate(26.98 87.63) scale(.88 1)"
       aria-label="Pitch" />
    <g
       id="g52">
      <path
         d="M63.8,18.07c-.37,0-.71-.17-.97-.47-.51-.6-.52-1.54-.04-2.16l6.97-8.88c.38-.48,1.05-.65,1.57-.39.5.25.79.82.79,1.45v4.77l4.64-5.85c.38-.48,1.01-.64,1.53-.38.5.25.83.81.83,1.44v8.82c0,.86-.61,1.57-1.36,1.57s-1.36-.7-1.36-1.57v-4.79l-4.64,5.85c-.38.48-1.01.64-1.54.38-.5-.24-.83-.81-.83-1.44v-4.67l-4.61,5.8c-.26.32-.62.51-1,.51h0Z"
         style="fill: #2cabe1;"
         id="path50" />
      <path
         d="M63.8,18.07c-.75,0-1.35-.7-1.35-1.57v-4.93l-2.26,2.84c-.5.63-1.44.65-1.97.04-.51-.6-.52-1.53-.03-2.15l4.61-5.76c.26-.32.63-.5,1-.5.18,0,.37.04.54.12.5.25.82.81.82,1.44v8.89c0,.86-.61,1.57-1.36,1.57h0Z"
         style="fill: #ea2228;"
         id="path51" />
      <path
         d="M80.4,18.09h0c-.35,0-.68-.15-.94-.42-.76-.78-.14-1.84.29-2.3l1.95-2.36-1.26-.02c-.56-.01-1.04-.4-1.24-1-.19-.56-.07-1.21.29-1.64l3.16-3.83c.23-.28.55-.48,1.13-.47.33,0,.67.17.92.4.71.66.29,1.7-.07,2.2l-1.04,1.26,1.26.02c.56.01,1.04.4,1.24,1,.19.56.07,1.21-.29,1.64l-4.1,4.97c-.35.35-.65.55-1.3.54h0Z"
         style="fill: #00a650;"
         id="path52" />
    </g>
    <g
       id="text53"
       style="font-weight:700;font-size:11px;font-family:GillSans-Bold, 'Gill Sans'"
       transform="translate(60.64 357.06) scale(.82 1)"
       aria-label="TOM">
      <path
         style="letter-spacing:-0.06em"
         d="M 8.0727539,-5.6342773 H 5.3442383 V 0 H 3.1044922 V -5.6342773 H 0.37597656 V -7.4443359 H 8.0727539 Z"
         id="path60" />
      <path
         d="m 16.719903,-3.7275391 q 0,1.0419922 -0.483399,1.9174805 -0.478027,0.87548829 -1.428711,1.39111329 -0.950683,0.515625 -2.314941,0.515625 -1.380371,0 -2.336426,-0.53710938 Q 9.2003713,-0.97753906 8.7330861,-1.8530273 8.271172,-2.7285156 8.271172,-3.7275391 q 0,-1.0043945 0.4619141,-1.8745117 0.4619141,-0.8754883 1.4179689,-1.4072265 0.961426,-0.5371094 2.341797,-0.5371094 1.03125,0 1.836914,0.3061523 0.811035,0.3061524 1.332031,0.8325196 0.520996,0.5209961 0.789551,1.2192382 0.268555,0.6928711 0.268555,1.4609375 z m -2.288086,0 q 0,-0.4189453 -0.123536,-0.7626953 -0.123535,-0.3491211 -0.375976,-0.6015625 -0.24707,-0.2578125 -0.606934,-0.3974609 -0.359863,-0.1450195 -0.832519,-0.1450195 -0.902344,0 -1.417969,0.5263671 -0.515625,0.5263672 -0.515625,1.3803711 0,0.8540039 0.515625,1.3857422 0.520996,0.5263672 1.417969,0.5263672 0.617676,0 1.052734,-0.2416992 0.435059,-0.2470703 0.660645,-0.6767578 0.225586,-0.4350586 0.225586,-0.9936524 z M 26.77459,0 H 24.529473 V -4.3129883 L 22.50457,-1.8154297 H 22.327324 L 20.297051,-4.3129883 V 0 h -2.180664 v -7.4443359 h 2.035644 l 2.288086,2.7929687 2.298828,-2.7929687 h 2.035645 z"
         id="path61" />
    </g>
    <path
       d="M 6.625,0 H 4.953125 L 4.5117187,-1.0976562 H 2.1601563 L 1.7109375,0 H 0.0390625 L 2.4335938,-5.4140625 H 4.2382812 Z M 4.1367187,-2.0390625 3.34375,-4.015625 2.5429688,-2.0390625 Z m 4.4960938,1.26953125 q 0,0.3515625 -0.2421875,0.59765625 -0.2382812,0.2421875 -0.5898438,0.2421875 -0.3476562,0 -0.5976562,-0.24609375 -0.25,-0.24609375 -0.25,-0.59375 0,-0.35156245 0.25,-0.59374995 0.25,-0.2460938 0.5976562,-0.2460938 0.2187501,0 0.4140626,0.1132813 0.1992187,0.1132812 0.3085937,0.3046875 Q 8.6328125,-1 8.6328125,-0.76953125 Z M 17.53125,-2.609375 q 0,0.8320313 -0.304688,1.3359375 -0.300781,0.50390625 -0.710937,0.81640625 Q 15.933594,0 14.886719,0 h -2.921875 v -5.4140625 h 2.25 q 0.507812,0 0.867187,0.054687 0.363282,0.050781 0.652344,0.1484375 0.289062,0.09375 0.492187,0.2148438 0.203125,0.1171875 0.363282,0.2539062 0.277343,0.2265625 0.484375,0.5351563 0.210937,0.3085937 0.332031,0.7148437 0.125,0.40625 0.125,0.8828125 z m -1.660156,-0.070312 q 0,-0.6601563 -0.253906,-1.0273438 -0.25,-0.3710937 -0.605469,-0.4960937 -0.351563,-0.125 -0.71875,-0.125 h -0.695313 v 3.2070313 h 0.695313 q 0.640625,0 1.109375,-0.3046875 0.46875,-0.3046875 0.46875,-1.2539063 z m 6.515625,1.03125 h -2.800782 q 0.08203,0.3632813 0.402344,0.59375 0.320313,0.23046875 0.726563,0.23046875 0.710937,0 1.570312,-0.39843745 v 0.8710937 q -0.308594,0.16015625 -0.75,0.29296875 -0.4375,0.12890625 -1.117187,0.12890625 -0.734375,0 -1.25,-0.2734375 -0.515625,-0.2734375 -0.773438,-0.7421875 -0.253906,-0.46875 -0.253906,-1.0625 0,-0.5859375 0.253906,-1.046875 0.257813,-0.4648438 0.773438,-0.7265625 0.515625,-0.265625 1.25,-0.265625 0.484375,0 0.933593,0.2109375 0.453125,0.2070312 0.742188,0.6835937 0.292969,0.4726563 0.292969,1.2226563 z M 21.066406,-2.34375 q 0,-0.3828125 -0.191406,-0.609375 -0.1875,-0.2304688 -0.542969,-0.2304688 -0.351562,0 -0.570312,0.234375 -0.214844,0.2304688 -0.214844,0.6054688 z m 5.417969,2.16015625 q -0.175781,0.0664063 -0.371094,0.125 -0.195312,0.0546875 -0.441406,0.08984375 -0.242188,0.0390625 -0.53125,0.0390625 -0.652344,0 -1.105469,-0.21875 Q 23.585937,-0.37109375 23.339844,-0.703125 23.097656,-1.0390625 23.003906,-1.3867187 22.910156,-1.734375 22.910156,-2 q 0,-0.265625 0.09375,-0.6132813 0.09766,-0.3476562 0.335938,-0.671875 0.238281,-0.3242187 0.6875,-0.5429687 0.453125,-0.21875 1.113281,-0.21875 0.441406,0 0.71875,0.0625 0.277344,0.0625 0.5625,0.1679687 v 1.1054688 q -0.6875,-0.21875 -1.074219,-0.21875 -0.375,0 -0.667969,0.2265625 Q 24.390625,-2.4765625 24.390625,-2 q 0,0.3164063 0.144531,0.5351563 0.144531,0.2148437 0.367188,0.3164062 0.222656,0.1015625 0.445312,0.1015625 0.210938,0 0.480469,-0.0625 0.269531,-0.0625 0.65625,-0.1796875 z m 4.808594,-0.015625 q -0.308594,0.12109375 -0.570313,0.1953125 -0.261719,0.07421875 -0.628906,0.07421875 -0.347656,0 -0.484375,-0.12109375 -0.136719,-0.125 -0.195313,-0.30078125 -0.226562,0.18359375 -0.503906,0.3046875 -0.277344,0.1171875 -0.726562,0.1171875 -0.433594,0 -0.703125,-0.1484375 -0.265625,-0.15234375 -0.375,-0.37890625 Q 27,-0.6875 27,-0.9296875 q 0,-0.3671875 0.183594,-0.6054687 0.1875,-0.2421875 0.5,-0.3945313 0.3125,-0.1523438 0.828125,-0.3164063 0.292968,-0.09375 0.441406,-0.140625 0.152344,-0.050781 0.226562,-0.078125 0.07422,-0.027344 0.15625,-0.070312 0,-0.2890625 -0.117187,-0.453125 -0.117188,-0.1640625 -0.507813,-0.1640625 -0.460937,0 -0.855468,0.203125 -0.394532,0.203125 -0.722657,0.5234375 v -1.078125 q 0.261719,-0.1875 0.566407,-0.3046875 0.304687,-0.1210937 0.636718,-0.1796875 0.332032,-0.058594 0.671875,-0.058594 0.863282,0 1.296875,0.3359375 0.4375,0.3320312 0.4375,0.9179687 v 1.5351563 q 0,0.21875 0.03906,0.328125 0.04297,0.10546875 0.152344,0.10546875 0.132812,0 0.359375,-0.11328125 z M 29.335937,-0.9609375 v -0.9414062 q -0.5,0.203125 -0.730468,0.3671875 Q 28.375,-1.375 28.375,-1.0976562 q 0,0.1992187 0.113281,0.30468745 0.117188,0.10546875 0.269531,0.10546875 0.144532,0 0.285157,-0.078125 0.144531,-0.0820313 0.292968,-0.1953125 z m 6.660157,-3.015625 -2.703125,5.7851562 h -1.421875 l 1.09375,-2.32812495 -1.574219,-3.45703125 h 1.511719 L 33.710937,-2 34.628906,-3.9765625 Z"
       id="text54"
       style="font-weight:700;font-size:8px;font-family:GillSans-Bold, 'Gill Sans'"
       transform="translate(99.15 253.77) scale(.82 1)"
       aria-label="A. Decay" />
  </g>
  <g
     id="components">
    <circle
       id="Out"
       cx="114.7"
       cy="313.7"
       r="11.34"
       style="fill: blue;"
       inkscape:label="TomOut" />
    <circle
       id="Env_Depth_CV"
       data-name="Env Depth CV"
       cx="114.6"
       cy="272.1"
       r="11.34"
       style="fill: lime;" />
    <circle
       id="P_Decay_CV"
       data-name="P Decay CV"
       cx="29.4"
       cy="272.1"
       r="11.34"
       style="fill: lime;"
       inkscape:label="PitchDecayCvIn" />
    <circle
       id="A_Decay_CV"
       data-name="A Decay CV"
       cx="114.6"
       cy="232"
       r="11.34"
       style="fill: #80ff80;"
       inkscape:label="AmpDecayCvIn" />
    <circle
       id="Pitch_CV"
       data-name="Pitch CV"
       cx="71.6"
       cy="232"
       r="11.34"
       style="fill: lime;" />
    <circle
       id="Trigger"
       cx="29.4"
       cy="232"
       r="11.34"
       style="fill: #80ff80;"
       inkscape:label="TrigIn" />
    <circle
       id="Env_Depth"
       data-name="Env Depth"
       cx="106.3"
       cy="162.7"
       r="17.01"
       style="fill: #ff0032;" />
    <circle
       id="Pitch_Decay"
       data-name="Pitch Decay"
       cx="37.7"
       cy="162.7"
       r="17.01"
       style="fill:#ff0000;fill-opacity:1" />
    <rect
       id="Range_Switch_2x_10x_100x"
       data-name="Range Switch@2x@10x@100x"
       x="66.33"
       y="101.65"
       width="11.34"
       height="17.01"
       transform="translate(-38.15 182.15) rotate(-90)"
       style="fill: #ffc081;" />
    <circle
       id="Amp_Decay"
       data-name="Amp Decay"
       cx="106.3"
       cy="57.7"
       r="17.01"
       style="fill: #ff0032;" />
    <circle
       id="Pitch"
       cx="37.7"
       cy="57.7"
       r="17.01"
       style="fill: #ff0032;" />
    <text
       id="slug"
       transform="translate(105.16 368.87)"
       style="fill: #010101; font-family: MyriadPro-Regular, 'Myriad Pro'; font-size: 3px;"><tspan
         x="0"
         y="0"
         style="letter-spacing: -.07em;"
         id="tspan55">T</tspan><tspan
         x="1.28"
         y="0"
         style="letter-spacing: 0em;"
         id="tspan56">om</tspan></text>
    <text
       id="modulename"
       transform="translate(116.73 368.87)"
       style="fill: #010101; font-family: MyriadPro-Regular, 'Myriad Pro'; font-size: 3px;"><tspan
         x="0"
         y="0"
         style="letter-spacing: -.07em;"
         id="tspan57">T</tspan><tspan
         x="1.28"
         y="0"
         style="letter-spacing: 0em;"
         id="tspan58">om Drum </tspan><tspan
         x="13.83"
         y="0"
         style="letter-spacing: 0em;"
         id="tspan59">M</tspan><tspan
         x="16.26"
         y="0"
         id="tspan60">odule</tspan></text>
  </g>
</svg>
